<svg id="Final_Icons" data-name="Final Icons" xmlns="http://www.w3.org/2000/svg" viewBox="0 0 256 256"><defs><style>.cls-1{fill:#52d1dc;}.cls-2{fill:#475b5a;}</style></defs><g id="_Group_C_" data-name="&lt;Group&gt; C#"><path class="cls-1" d="M231.61,58.41,137.76,2.71a19.87,19.87,0,0,0-19.53,0L24.38,58.41A19.91,19.91,0,0,0,14.26,75.74v107.9a19.89,19.89,0,0,0,10.56,17.57l93.85,52.17a19.86,19.86,0,0,0,18.65,0l93.85-52.17a19.89,19.89,0,0,0,10.56-17.57V75.74A19.91,19.91,0,0,0,231.61,58.41ZM128,203.53A75.61,75.61,0,1,1,193.58,90.28l-32.39,18.59a38.27,38.27,0,1,0,0,38.12l32.38,18.6A75.56,75.56,0,0,1,128,203.53Zm73.25-81.1h-6l-.83,8.61h5.18v6.26h-5.79l-1,10.43H186l1.16-10.43h-6.79l-1,10.43h-6.78l1.16-10.43h-5.47V131h6.16l1-8.61H170v-6.26h6.11l1.06-9.53h6.2l-.92,9.53h7.08l1.06-9.53h6.2l-.92,9.53h5.43ZM181,131h6.87l1-8.61h-7Z"/><path class="cls-2" d="M181.79,122.43,181,131h6.87l1-8.61Zm0,0L181,131h6.87l1-8.61ZM238,64.16,193.37,89.94c.08.11.14.23.21.34l-32.39,18.59-.15-.25L94.76,146.91a38.28,38.28,0,0,0,66.42.08l32.38,18.6a75.62,75.62,0,0,1-131.13,0l-46.2,26.68a19.85,19.85,0,0,0,8.59,8.94l93.85,52.17a19.86,19.86,0,0,0,18.65,0l93.85-52.17a19.89,19.89,0,0,0,10.56-17.57V75.74A19.8,19.8,0,0,0,238,64.16Zm-36.75,58.27h-6l-.83,8.61h5.18v6.26h-5.79l-1,10.43H186l1.16-10.43h-6.79l-1,10.43h-6.78l1.16-10.43h-5.47V131h6.16l1-8.61H170v-6.26h6.11l1.06-9.53h6.2l-.92,9.53h7.08l1.06-9.53h6.2l-.92,9.53h5.43ZM181,131h6.87l1-8.61h-7Zm.83-8.61L181,131h6.87l1-8.61Zm0,0L181,131h6.87l1-8.61Z"/></g></svg>