<svg id="Final_Icons" data-name="Final Icons" xmlns="http://www.w3.org/2000/svg" viewBox="0 0 256 256"><defs><style>.cls-1{fill:#52d1dc;}</style></defs><g id="_Group_Django" data-name="&lt;Group&gt; Django"><path class="cls-1" d="M108.61,115.79v40.73c-13.09,2.53-30.23,0-30.23-21.08C78.38,112.79,97.2,112.27,108.61,115.79ZM256,128A128,128,0,1,1,128,0,128,128,0,0,1,256,128ZM136.16,176.4V50.48H108.61v42.3c-24.24-5.7-60.35,8.08-57.49,44.66S78.2,185.43,136.16,176.4ZM179.4,93.25H151.84v70.8c-1,30.65-25.5,39.44-25.5,39.44l26.53,12.82s26.53-10.92,26.53-52.26Zm0-42.77H151.84V79H179.4Z"/></g></svg>