<svg id="Final_Icons" data-name="Final Icons" xmlns="http://www.w3.org/2000/svg" viewBox="0 0 256 256"><defs><style>.cls-1{fill:none;stroke:#475b5a;stroke-miterlimit:10;stroke-width:14px;}</style></defs><g id="_Group_4" data-name="&lt;Group&gt;"><path class="cls-1" d="M191.49,113.19c0-4.19,6.65-28.58-35.05-28.58s-51.22,44,0,44,48,45,0,45S114.92,151.23,114.92,145"/><path class="cls-1" d="M92.38,229.62C99.29,236.93,119,246,119,246c5,2.3,13,1.9,17.69-.9l85.87-50.81c4.74-2.8,8.61-9.59,8.61-15.09v-102c0-5.5-3.89-12.27-8.64-15L136.68,12.06c-4.75-2.77-12.53-2.79-17.3-.05L30.91,63c-4.77,2.75-8.66,9.5-8.66,15V180.74c0,5.5,3.92,12.2,8.73,14.88l23.11,12.91c4.8,2.69,13.16,4.05,18.56,3,0,0,14.83-2.77,14.86-14.74l.3-117.38"/></g></svg>