<svg id="Final_Icons" data-name="Final Icons" xmlns="http://www.w3.org/2000/svg" viewBox="0 0 256 256"><defs><style>.cls-1{fill:#52d1dc;}.cls-2{fill:#475b5a;}</style></defs><g id="_Group_3" data-name="&lt;Group&gt;"><path class="cls-1" d="M190.43,29.1C190.35,14.49,165.65,0,128,0,109.17,0,94,3,83.51,7.78S67.25,19.22,67.25,26.56v31H128v9.22l-93.83-.27S0,71.17,0,124.38c0,65.16,34.17,66.38,34.17,66.38l24.26.27V156.81A32.52,32.52,0,0,1,90.86,124.3l67.33-.18a32.61,32.61,0,0,0,32.54-32.79ZM93.06,42a11.35,11.35,0,1,1,11.35-11.34A11.34,11.34,0,0,1,93.06,42Z"/><path class="cls-2" d="M65.57,226.91C65.65,241.52,90.35,256,128,256c18.83,0,34-3,44.49-7.78s16.26-11.44,16.26-18.78V198.5H128v-9.22l93.83.27S256,184.84,256,131.63c0-65.16-34.17-66.38-34.17-66.38L197.57,65V99.2a32.52,32.52,0,0,1-32.43,32.51l-67.33.18a32.61,32.61,0,0,0-32.54,32.79ZM162.94,214a11.35,11.35,0,1,1-11.35,11.34A11.34,11.34,0,0,1,162.94,214Z"/></g></svg>