<svg xmlns="http://www.w3.org/2000/svg" viewBox="0 0 982.1 981.02"><defs><style>.cls-1{fill:#eeb058;}.cls-2{fill:#f1f1f1;}</style></defs><g id="Layer_2" data-name="Layer 2"><rect class="cls-1" width="981.02" height="981.02" rx="262.32"/></g><g id="Layer_4" data-name="Layer 4"><path class="cls-2" d="M27.42,374.58c-1.53-3.56-.83-9.08,1.23-13.52a13.89,13.89,0,0,1,4.11-5.4L364,119.7c4-2.82,7.29.42,7.16,7l-2.44,76.47c-.16,5.47-2.79,11.35-6.17,13.72L132,382.49l-.43.34a12.3,12.3,0,0,0-2,2.21h0c-.23.35-.48.72-.69,1.08h0c-2.7,4.53-3.87,11.18-2.15,15.24l108.89,255.4c1.52,3.57.85,9.57-1.64,14.38L196.48,742.9c-3.21,6.13-8,7.52-10,2.88Z"/><path class="cls-2" d="M745.37,299.82l38.16-66.33c3.25-5.66,7.77-6.63,9.66-2.19L950.76,606.21c2.29,5.44-.58,15.52-5.37,18.92h0L614.85,857a6.4,6.4,0,0,1-1,.6c-3.68,1.73-6.5-1.85-6-8.26l5.91-80.75c.4-5.4,3-10.94,6.17-13.09h0l227-159.84a10.39,10.39,0,0,0,2.11-2,11.25,11.25,0,0,0,.74-1h0c.23-.37.46-.74.68-1.12a6.56,6.56,0,0,0,.32-.61,22.71,22.71,0,0,0,2.2-7.29,3.82,3.82,0,0,0,.06-.68c0-.23,0-.44,0-.68,0-.45,0-.88,0-1.3a11.41,11.41,0,0,0-.86-4.12L793.76,436.15,743.3,314.75a10.65,10.65,0,0,1-.75-3.39,21.26,21.26,0,0,1,2.18-10.4C744.93,300.57,745.14,300.19,745.37,299.82Z"/></g><g id="Layer_3" data-name="Layer 3"><path class="cls-2" d="M665.67,308.33C619.16,348,602.27,383.89,588,414.06a356,356,0,0,0-55.47-2.17c-19.51.66-50.3,8.23-93.06,25.14,22.23-42.12,61-94.12,134.19-145.41C680.41,216.78,696.69,84.41,704.29,84.41S771.76,221.21,665.67,308.33Z"/></g><g id="Layer_5" data-name="Layer 5"><path class="cls-2" d="M369.77,481.3c77.7-37.54,129.51-53,157.6-54s46.68,1,68.24,3.81c52.22-31.43,87-10.75,97,9.74,0,0,31.24,17.17,42.49,27.13S770,509.47,766,510.18s-28.48-16.64-53.28-24.63-144.19,8.23-181.3,35-102.57,102.11-91,177.5S202.85,928.85,194.29,922.35,321.93,769.52,335,714.27s17.43-150.63,53.43-182.63c-28.14-4-86,2.91-111.12,18C196.89,524.9,246.09,465.3,369.77,481.3Z"/></g></svg>