<svg id="Layer_1" data-name="Layer 1" xmlns="http://www.w3.org/2000/svg" viewBox="0 0 982.1 981.02"><defs><style>.cls-1{fill:#fff;}</style></defs><path class="cls-1" d="M2.82,500.35c-2.5-2.12-3.36-6-2.58-9.41a8.42,8.42,0,0,1,2.54-4.46l260-224c3.11-2.68,7.29-1.12,9,3.36l19,52.36c1.37,3.74.43,8.24-2.24,10.5L108,485.54l-.33.31a8,8,0,0,0-1.37,1.89h0c-.13.28-.27.58-.38.87h0c-1.39,3.59-.68,8.33,2.15,10.75L286.71,651.66c2.5,2.13,3.52,6.33,2.41,10.07l-16.84,55.93c-1.44,4.78-5.77,6.65-9,3.88Z"/><path class="cls-1" d="M448.63,703.48c15.08,75.69-167.92,254-189,248,27.72-47.29,77.12-134.61,92-167,46.77-101.81-11-183.24,43.61-240.32,25.28-26.42,60.41-61.68,118.39-61.68C551.63,482.48,433.55,627.79,448.63,703.48Z"/><path class="cls-1" d="M430.63,450.48s29.18-100.93,79.43-146.35,61.57-67.65,86.57-96.65c27.23-31.58,61.84-148.33,67-178,5.08.55,10.91,23.07,14.31,53.34,3.13,27.75,4.22,62,.81,91.82-2.61,22.85-7.86,43.08-16.87,55.74-14.44,20.29-27.25,36.29-39.18,50.56-.43.53-.88,1.06-1.32,1.59-.89,1-1.76,2.08-2.62,3.11-14.78,17.53-28.31,32.77-42.13,50.84-25.58,33.46-18,82-18,82C501.63,406.48,449.63,432.48,430.63,450.48Z"/><path class="cls-1" d="M701.78,509.26a15.28,15.28,0,0,0-.38-1.88c-.06-.24-.13-.49-.2-.74s-.1-.33-.16-.5-.17-.54-.27-.81c-.21-.64-.47-1.3-.76-2l-.21-.52c-.07-.18-.15-.35-.23-.53-.23-.53-.47-1.07-.74-1.63-.08-.18-.17-.36-.27-.55-.35-.75-.74-1.51-1.16-2.29-.51-1-1.06-2-1.65-3-.35-.61-.71-1.23-1.09-1.86l-.65-1.07c-1.82-3-3.87-6.09-6-9.13l-.92-1.27q-.78-1.1-1.59-2.16c-.83-1.11-1.66-2.2-2.51-3.26-.52-.67-1.05-1.33-1.58-2-.32-.4-.64-.79-1-1.17l-1.2-1.43c-.8-.94-1.59-1.85-2.39-2.72-.39-.44-.79-.87-1.18-1.29-14-15-25.83-25.69-31.6-27.54-.09-.44-.19-.87-.31-1.29s-.25-.88-.38-1.32c-.21-.65-.44-1.3-.69-1.93a25.46,25.46,0,0,0-2.52-4.83c-.12-.19-.26-.38-.39-.57h0l0,0-.31-.45a4.33,4.33,0,0,0-.27-.37,10.77,10.77,0,0,0-.74-.93c-.24-.29-.48-.57-.73-.85s-.49-.55-.75-.81-.7-.7-1.06-1l-.62-.56-.63-.53-.65-.51-.66-.49c-.42-.31-.84-.6-1.27-.86a1,1,0,0,1-.13-.09l-.66-.39c-.55-.33-1.12-.63-1.69-.92h0l-.71-.34c-.44-.21-.88-.4-1.33-.58l-.09,0c-.31-.12-.64-.23-1-.34l-.54-.19-.46-.16-.64-.19-.77-.21-.71-.17-.71-.15-.73-.13c-.43-.08-.86-.14-1.3-.19s-1.09-.11-1.64-.14a23.68,23.68,0,0,0-2.53,0q-.52,0-1,.06l-.88.08-.61.07-.64.08-.16,0a5.72,5.72,0,0,0-.57.11c-.21,0-.43.07-.64.12h0l-.65.15a.67.67,0,0,0-.19.05q-.57.13-1.14.3a.06.06,0,0,0-.05,0h0a.44.44,0,0,0-.15.05l-.76.24a.75.75,0,0,0-.24.08,2.83,2.83,0,0,0-.41.14l-.54.19-.92.37-.19.09c-.41.17-.8.35-1.2.55s-.56.28-.84.44a25,25,0,0,0-2.7,1.65,29.21,29.21,0,0,0-4.12.28c-.67.09-1.35.19-2,.32-1.71.3-3.47.71-5.26,1.17-3.77.95-7.71,2.13-11.74,3.06l-1.46.33-.17,0-1.39.29c-1,.19-2,.37-3.09.52-.89.13-1.77.23-2.66.3-.27,0-.55,0-.83.06a31,31,0,0,1-14.93-2.36,15.93,15.93,0,0,0-1.7-.63c-.3-.11-.61-.2-.93-.29-.63-.18-1.3-.35-2-.5-1.46-.32-3.09-.59-4.88-.8l-1.89-.2-.86-.07c-.82-.07-1.67-.13-2.54-.16l-1.24-.06c-2.43-.1-5-.11-7.79,0l-1.25,0-2.19.1c-2.26.12-4.61.3-7,.54l-2.79.3-.65.08c-.84.09-1.7.2-2.56.32l-1.8.25-2,.3a1.46,1.46,0,0,0-.22,0l-.57.09-1.65.27-2.24.39-2.24.43h0l-2.28.46h0c-1.52.33-3.06.66-4.61,1q-3.89.9-7.83,2l-1.7.48q-2.52.72-5.05,1.55h0c-1.12.37-2.24.74-3.37,1.13h0c-1.41.49-2.82,1-4.23,1.52s-2.81,1.07-4.21,1.64A147,147,0,0,0,445.33,450c-1,.67-2.06,1.35-3.07,2l-1.52,1.06c-1,.71-2,1.44-3,2.19q-2.2,1.68-4.34,3.46C421.71,467.15,389,486.81,395,482.87l-1.15-.08-2.4-.17-4.17-.27-2.86-.18-3.58-.22-2.12-.13-5.33-.3-1.81-.11-1.69-.09-1.84-.1-1.21-.07-.36,0-1-.05-.55,0h-.25l-.73,0-.34,0h-.33a159.88,159.88,0,0,0-17.28.73h0c-2.12.2-4.35.45-6.64.77,0,0,0,0,0,0-.92.13-1.85.26-2.78.41A107.59,107.59,0,0,0,319.36,487l-1,.34A51.52,51.52,0,0,0,303,495.38c-.69.56-1.35,1.13-2,1.73a25.48,25.48,0,0,0-6,8.4c-.26.6-.49,1.21-.7,1.84,0,.11-.07.21-.1.32a.16.16,0,0,0,0,.09,5.18,5.18,0,0,0-.17.56,18.05,18.05,0,0,0-.47,2,23.41,23.41,0,0,0-.42,3.18c-2.28,34.6,29.56,42.89,29.56,42.89l.06-.06.07-.07.1-.1.12-.13.33-.32.18-.17.11-.1c.47-.45,1.1-1,1.89-1.73l.41-.36c.69-.61,1.5-1.28,2.4-2l.79-.62.94-.72.62-.47c.92-.68,1.9-1.39,3-2.11.83-.55,1.7-1.12,2.6-1.69,0,0,0,0,0,0,1.13-.7,2.32-1.4,3.57-2.09,8.13-4.48,18.59-8.29,30.1-7.67,7.59.58,8.38,4.09,14.11,5.31.49-.47,1-1,1.48-1.45l1.53-1.49,0,0,2.11-2,1.08-1.05,2.23-2.14c1.14-1.09,2.3-2.2,3.5-3.33l1.23-1.15c.64-.61,1.3-1.21,2-1.82,5.59-5.17,11.77-10.6,18.51-15.91,1-.79,2-1.57,3-2.35l0,0q2.32-1.77,4.72-3.51c.53-.39,1.07-.77,1.61-1.15,3.77-2.69,7.7-5.3,11.76-7.77q1.36-.84,2.76-1.65c.83-.48,1.66-1,2.5-1.43.59-.34,1.19-.67,1.8-1,1.16-.64,2.33-1.26,3.51-1.87l2-1c1.84-.92,3.72-1.8,5.62-2.65l0,0c1.26-.57,2.53-1.11,3.82-1.64l0,0q2.91-1.19,5.89-2.27c2-.71,4-1.38,6-2h0c1.86-.56,3.74-1.09,5.64-1.57q3.39-.87,6.87-1.53l1.7-.32q4.2-.76,8-1.29l1.06-.14,1-.13,1-.12,1-.11c.95-.1,1.87-.19,2.76-.26l.8-.06h.23l1-.06h.15l1.4-.07h.07c.75,0,1.48-.05,2.2-.06h.69c.45,0,.89,0,1.33,0h.35l.56,0H511l.48,0a5.63,5.63,0,0,1,.58,0l.42,0,.33,0,.89.08c.51,0,1,.09,1.5.16l1.12.16c.51.07,1,.17,1.49.27s.91.19,1.34.3l.55.15.82.24.74.25a16.05,16.05,0,0,1,4.55,2.38,6.12,6.12,0,0,1,.5.39,6,6,0,0,1,.47.41,3,3,0,0,1,.26.25l.32.32a6,6,0,0,1,.42.46,5.32,5.32,0,0,1,.37.46,3.47,3.47,0,0,1,.29.38c.15.2.29.41.42.62a6.32,6.32,0,0,1,.33.56,4.11,4.11,0,0,1,.27.51c.08.16.16.32.23.49a5.72,5.72,0,0,1,.28.68,12.77,12.77,0,0,1,.47,1.44c.06.23.12.46.17.7a.36.36,0,0,1,0,.11,4.86,4.86,0,0,1,.1.55c0,.24.09.48.12.73s.06.47.08.71a5,5,0,0,1,0,.57c0,.24,0,.48,0,.72,0,.79,0,1.61,0,2.47,0,.27,0,.54-.06.82-.08.94-.2,1.91-.38,2.94l-.09.52c0,.15-.05.3-.09.46s0,.17,0,.26c-.1.48-.2,1-.31,1.46s-.16.68-.25,1-.09.37-.14.56c-.14.5-.27,1-.42,1.53-.09.28-.17.57-.26.87-.14.46-.29.93-.44,1.4s-.31.94-.47,1.42q-1,2.93-2.37,6.15a0,0,0,0,1,0,0q-.48,1.17-1,2.37h0q-.52,1.21-1.11,2.46h0c-.38.84-.78,1.68-1.19,2.54-.21.44-.43.88-.65,1.32-.64,1.31-1.33,2.66-2,4,4.7-.76,14-5.55,25.25-12.09l3.1-1.83c1-.62,2.11-1.25,3.18-1.9l3.25-2,3.72-2.28c2.5-1.54,5-3.12,7.58-4.71s5.1-3.21,7.65-4.81l3.8-2.42.94-.6c12.27-7.8,23.87-15.26,32-20.1,3.59,1,62.49,12.75,90.49,41.75a2.83,2.83,0,0,0,1.17-2.06A7.75,7.75,0,0,0,701.78,509.26Zm-89.86-71.49a5.57,5.57,0,0,1,.51-.46l.31-.25.24-.18a.71.71,0,0,1,.14-.1h0l.66-.41h0l.7-.35h0l.74-.29a9.35,9.35,0,0,1,1.6-.39l.67-.08a9.61,9.61,0,0,1,1.42,0c.26,0,.5.06.75.1a.87.87,0,0,1,.28.05l.6.14a8.37,8.37,0,0,1,1.47.55,9,9,0,0,1,2.52,1.8,8.83,8.83,0,0,1,2.47,4.93,5.81,5.81,0,0,1-.32,3.17,4.15,4.15,0,0,1-.29.6,5.61,5.61,0,0,1-.58.8l-.23.24c-1.56,1.59-4.17,2.44-7,2.86a18.84,18.84,0,0,1-2.8.23c-3.44,0-5.88-1.31-6.48-5.23A8.92,8.92,0,0,1,611.92,437.77Z"/><path class="cls-1" d="M688.56,311.13l19-52.37c1.62-4.47,5.79-6,8.9-3.35l260,224c3.78,3.25,3.77,10.64,0,13.87h0L716,714.38a5.89,5.89,0,0,1-.84.6c-3.14,1.89-6.92,0-8.25-4.44l-16.78-55.93c-1.11-3.74-.1-8,2.41-10.07l0,0L871.24,492.29a7.15,7.15,0,0,0,1.5-1.79,5.6,5.6,0,0,0,.44-.84s0,0,0,0c.13-.3.25-.59.36-.89s.1-.31.14-.48a11.09,11.09,0,0,0,.13-5.37c0-.16-.08-.31-.13-.47s-.09-.31-.14-.47c-.1-.31-.23-.6-.35-.89a7.63,7.63,0,0,0-2-2.63l-96.85-84.16-83.64-72.64a7.18,7.18,0,0,1-1.68-2.16,10.58,10.58,0,0,1-.77-7.47A9.07,9.07,0,0,1,688.56,311.13Z"/></svg>