<svg xmlns="http://www.w3.org/2000/svg" viewBox="0 0 256 256"><defs><style>.cls-1{fill:#bfbb6a;}.cls-2,.cls-3,.cls-5{fill:none;}.cls-2,.cls-3,.cls-4,.cls-5{stroke:#f4f02b;}.cls-2,.cls-4,.cls-5{stroke-miterlimit:10;}.cls-2,.cls-3{stroke-width:7px;}.cls-3{stroke-linejoin:round;}.cls-4{fill:#f4f02b;}.cls-5{stroke-width:8px;}</style></defs><g id="Working"><path class="cls-1" d="M101.82,10.91c11.48-9.4,31.3-10.83,50.09-6.66C211.38-9.44,242.14,15.6,248.4,35.43c7.74,24.51-6,75.13-27.89,110.87,16.71.63,20.93-6.52,30.07,5.48s-16.24,33.91-50.15,31.82C199.38,241,181.65,256,148.78,256c-16.18-4.05-30.53-11.36-30.26-65.88-13.25,5.61-31.31,6.26-43.83-5.21C53,201.08,31.67,177,23,148.38,16.25,126,4.22,99.82,4,63.86,3.85,29,19.12,5.69,60.08,4.44,75.73,4.44,79.91,4.65,101.82,10.91Z"/><path class="cls-2" d="M198.48,146.45c10.17-14.48,4.3-34.2,3.9-49.07S205.51,83.3,205.51,68c-10.95-58.31-124-93.92-125.6,11.34,4.69,24.26-14.48,70.44,32.08,74.74,26.22,0,14.18,24,16,50.09,1.59,22.65,4.13,45,28.6,40.3,30.13-6.26,27.78-19.26,31.7-38.59s-2.74-49.31,17.21-53.36"/><path class="cls-3" d="M79.91,79.38c45-24.65,47.67,7.83,43,38.74-1.57,9.88-2.92,20.35-11,36-5.47,17.57-30.91,15.33-30.52,21.52S104,193.82,128,168.3"/><path class="cls-3" d="M205.48,70.69C168.08,67.25,168.6,82.38,185.3,122S213,159.6,240.08,156.47c-15.65,23.48-48.5,12.79-48.5,12.79"/><path class="cls-4" d="M101.56,80.82s2.09-2.61,8.09-1.57,4.95,3.92,4.95,3.92-1.23,4.13-6.48,4.17S101.56,80.82,101.56,80.82Z"/><path class="cls-4" d="M183,80.63s-.52-2.87,4.43-3.92S195,78.29,195,78.29s.78,3.84-4.44,6.18S183,80.63,183,80.63Z"/><path class="cls-5" d="M101.56,22.45C58.19,2.69,4,11.26,16.12,80.73s32.61,98.83,42.72,98.83c9.72,0,18.11-12.9,33.75-31.55"/><path class="cls-5" d="M155.08,15.86c23-11.61,79.65-.65,85,24.39s-13,82-36.28,111.79"/></g></svg>