<?xml version="1.0" encoding="utf-8"?>
<!-- Generator: Adobe Illustrator 24.1.3, SVG Export Plug-In . SVG Version: 6.00 Build 0)  -->
<svg version="1.1" xmlns="http://www.w3.org/2000/svg" xmlns:xlink="http://www.w3.org/1999/xlink" x="0px" y="0px"
	 viewBox="0 0 1280 720" style="enable-background:new 0 0 1280 720;" xml:space="preserve">
<style type="text/css">
	.st0{fill:#ECC385;}
	.st1{display:none;}
	.st2{fill:#333333;}
	.st3{fill:#F8D5A4;}
	.st4{fill:#DEBB89;}
	.st5{fill:#666666;}
	.st6{fill:#785B32;}
	.st7{fill:#5A401C;}
	.st8{fill:#4040D4;stroke:#FFFFFF;stroke-width:2;stroke-miterlimit:10;}
	.st9{font-family:'Tomarik-Display';}
	.st10{font-size:97px;}
	.st11{fill:#FFFFFF;stroke:#000000;stroke-width:2;stroke-miterlimit:10;}
	.st12{font-size:91px;}
</style>
<g id="Layer_3">
	
		<ellipse transform="matrix(9.748138e-02 -0.9952 0.9952 9.748138e-02 127.0769 1026.2954)" class="st0" cx="629.4" cy="443.1" rx="271.1" ry="624.4"/>
</g>
<g id="Layer_2" class="st1">
	
		<image style="display:inline;overflow:visible;opacity:0.25;" width="1944" height="1053" xlink:href="works_in_progress_logo01hdpi.png"  transform="matrix(0.6481 0 0 0.6844 -0.5664 -0.6566)">
	</image>
</g>
<g id="Layer_1">
	<g transform="matrix( 1, 0, 0, 1, 569.45,167.4) ">
		<g transform="matrix( 1, 0, 0, 1, 0,0) ">
			<g>
				<g id="butt_0_Layer0_0_FILL">
					<path class="st2" d="M142.4,141.7c-2.6,2.5-4.6,4.6-6.1,6.2c-2.2,2.5-2.9,4.6-1.9,6.4c0.3,0.7,1,1.2,1.9,1.6
						c0.4,0.1,0.8,0.3,1.2,0.4c2.6,0.7,3.9,1,4.1,1.1c0.3,0.2,0.7,0.4,1.2,0.6c-0.3,0.8-0.5,1.6-0.8,2.4c0,0.1,0,0.1,0,0.2
						c0.6,0,1.3,0.2,1.9,0.6c0.8,0.5,1.6,1.3,2.2,2.3c0.4,0.7,0.8,1.7,1.3,3c16.2,46.7,30,94.1,41.3,142c5,21.4,8.4,35.1,10.1,41.1
						c4.2,15.3,9,28.4,14.3,39.5c5,10.4,10.4,18.2,16.2,23.4c8.3,7.6,18.8,12,31.4,13.1c6.8,0.6,13.5,0.3,20.1-0.9
						c4.9-0.9,9.9-2.3,14.7-4.3c9.8-3.9,19.8-9.9,29.9-17.9c7-5.6,15.7-13.6,25.9-24c0.3-0.3,0.5-0.5,0.8-0.7
						c-1.3-1.4-2.7-2.7-4.2-4c-2.8-2.5-6.3-5.4-10.6-8.7c-4.5-3.4-8.4-6.2-11.7-8.3c-4.4-2.8-8.7-4.9-12.7-6.5
						c-2.6-1-5.6-1.9-8.9-2.8c-4.9-1.3-9-2.2-12.3-2.7c-4.5-0.6-8.7-0.5-12.4,0.2c-1.6,0.3-2.7,0.4-3.5,0.4
						c-1.3-0.1-2.2-0.5-2.8-1.3c-0.3-0.4-0.5-0.9-0.5-1.4c-0.4-0.3-0.8-0.6-1-1c-0.3-0.6-0.5-1.6-0.5-3.2c0-1.8-0.4-3.8-1.1-6
						c-0.4-1.4-1.1-3.3-2.2-5.8c-3.3-8.1-6.4-15.8-9.4-23.2c-13.9-34.1-25.1-60.3-33.4-78.7c-16.9-37.3-33.8-70-50.7-98
						c-0.3-0.4-0.5-0.8-0.7-1.2c-0.7,0.5-1.4,1.1-2,1.6c0-0.1-0.1-0.1-0.1-0.2c-0.1-1-0.2-1.7-0.3-2.2c-0.2-0.8-0.5-1.4-0.8-1.8
						c-0.8-0.9-2-1.3-3.5-1.1c-0.4,0-0.7,0.1-1.2,0.2c-1.6,0.5-3.2,1.4-4.9,2.8c-0.5,0.4-1.9,1.8-4.3,4c-0.5,0.5-3.3,3-8.3,7.5
						C146.3,138.1,144.3,139.9,142.4,141.7z"/>
					<path d="M169.8,119.7c-1,0.7-1.9,1.4-2.8,2.1c1.5-0.2,2.6,0.2,3.5,1.1c0.4,0.4,0.7,1.1,0.8,1.8c0.1,0.5,0.2,1.2,0.3,2.2
						c0,0,0,0.1,0.1,0.2c0.6-0.5,1.3-1.1,2-1.6c0.2,0.4,0.4,0.8,0.7,1.2c16.9,28,33.8,60.6,50.7,98c8.3,18.4,19.4,44.6,33.4,78.7
						c3,7.4,6.2,15.1,9.4,23.2c1,2.5,1.8,4.5,2.2,5.8c0.7,2.2,1,4.2,1.1,6c0,1.6,0.2,2.6,0.5,3.2c0.2,0.4,0.6,0.8,1,1
						c0.1,0.5,0.2,1,0.5,1.4c0.6,0.8,1.5,1.2,2.8,1.3c0.7,0,1.9-0.1,3.5-0.4c3.7-0.7,7.9-0.8,12.4-0.2c3.3,0.5,7.4,1.4,12.3,2.7
						c3.3,0.9,6.3,1.8,8.9,2.8c4.1,1.6,8.3,3.7,12.7,6.5c3.3,2.1,7.2,4.9,11.7,8.3c4.3,3.3,7.9,6.3,10.6,8.7c1.5,1.3,2.9,2.7,4.2,4
						c-0.3,0.2-0.6,0.4-0.8,0.7c-10.2,10.4-18.9,18.4-25.9,24c-10.1,8.1-20.1,14-29.9,17.9c-4.9,1.9-9.8,3.3-14.7,4.3
						c-6.6,1.2-13.3,1.5-20.1,0.9c-12.6-1.2-23.1-5.6-31.4-13.1c-5.8-5.2-11.2-13-16.2-23.4c-5.3-11-10.1-24.2-14.3-39.5
						c-1.7-6-5-19.7-10.1-41.1c-11.3-48-25.1-95.3-41.3-142c-0.5-1.3-0.9-2.3-1.3-3c-0.6-1-1.3-1.8-2.2-2.3
						c-0.6-0.3-1.3-0.5-1.9-0.6c0-0.1,0-0.1,0-0.2c0.2-0.8,0.5-1.6,0.8-2.4c-0.5-0.3-0.9-0.5-1.2-0.6c-0.1,0-1.5-0.4-4.1-1.1
						c-0.4-0.1-0.8-0.2-1.2-0.4c-1.2,2.9-1.9,5.9-2.3,8.9c-0.7,5.4-0.2,11.4,1.5,18.2c0.8,3,2.7,8.9,5.8,17.7
						c4.7,13.5,9.3,29.2,13.6,47c2.2,8.8,5.7,24.8,10.6,47.8c8.8,41.4,17.5,72.8,25.8,94.2c3,7.7,6,14.2,8.9,19.5
						c3.8,6.7,8,12.4,12.6,17c10.1,10,23.1,16,38.9,18.2c13.7,1.9,27.3,0.6,40.7-3.9c1-0.3,2.1-0.7,3.1-1.1
						c12.7-4.7,25.3-12.1,37.8-22.2c9.8-8,20.4-18.3,31.6-31.1c1.1-1.3,1.6-2.4,1.5-3.2c-0.1-0.7-0.6-1.3-1.4-1.7
						c-0.3-0.2-0.7-0.3-1-0.3c-0.5-0.8-1.1-1.7-2-2.6c-2.1-2.3-4.4-4.6-7.1-7.1c-5.9-5.4-12-10.4-18.3-14.8
						c-7.6-5.4-14.4-9.3-20.6-11.9c-3.6-1.5-8-2.9-13.1-4.2c-9.5-2.4-17.4-3.2-23.9-2.6c-0.1,0-0.2,0-0.3,0.1c0-1.1-0.1-2.3-0.5-3.6
						c-0.3-0.9-0.7-2.2-1.5-4l-20.6-49.2c-12.1-28.8-21.4-50.4-28-65c-10.9-23.9-21.5-44.9-31.8-63.2c-5.6-10-8.7-15.5-9.1-16.4
						c-3.3-6.3-5.9-11.9-7.7-17c-0.7-1.9-1.4-3.1-2.3-3.5c-1.1-0.6-2.2-0.5-3.4,0.4c-0.8,0.5-1.3,1.1-1.6,1.8
						C171.5,118.6,170.6,119.1,169.8,119.7z"/>
				</g>
			</g>
		</g>
	</g>
	<g transform="matrix( 1, 0, 0, 1, -215.6,168) ">
		<g transform="matrix( 1, 0, 0, 1, 0,0) ">
			<g>
				<g id="shin_0_Layer0_0_FILL">
					<path class="st3" d="M700.8,134.5c-0.5,0.6-0.8,1.2-0.9,1.8c-0.2,1.3,0.2,2.4,1.5,3.5c0.5-0.1,1-0.2,1.5-0.3
						c0.7-0.1,1.9,0,3.4,0.1c1.5,0.1,3,0.2,4.5,0.3c6.7,0.3,14.6,0.5,23.7,0.5c0.9,0,1.8,0,2.8,0c0.4-0.5,0.9-1.1,1.5-1.9
						c2.2-2.7,3.6-6.2,4.1-10.6l-30.2,0.3c-1.3,0-2.5-0.2-3.5-0.7c-0.1,0.1-0.3,0.3-0.4,0.4c-0.4,0.4-0.8,0.7-1.1,0.9
						c-0.8,0.3-1.4,0.5-1.8,0.7c-0.6,0.3-1.3,0.8-2,1.6c-0.7,0.9-1.3,1.6-1.7,2C702,133.4,701.5,133.9,700.8,134.5z"/>
					<path class="st2" d="M959.8,134.1c2-1.9,3.8-3.3,5.4-4.4c1.8-1.1,3-1.9,3.5-2.4c0.5-0.6,0.8-1.2,1-1.8c0.2-0.5,0.2-0.9,0.1-1.3
						c-0.3,0-0.7,0-1,0c-3,0.1-6,0.2-8.9,0.2c-55.2,1.4-108.4,2.3-159.6,2.8l-50,0.5c0,0.1-0.1,0.2-0.1,0.3c-0.5,3.9-1.2,6.7-2,8.4
						c-0.3,0.6-1.1,1.9-2.4,3.9c4.9,0,10.6,0,17.2,0c13.2,0.2,25.1,0.9,35.5,2.3c0.2-0.1,0.4-0.3,0.6-0.4c0.9-0.4,2-0.7,3.4-0.8
						c7.2-0.4,15.7,0.2,25.4,2c5.6,1,14,2.8,25.2,5.3c8.9,1.8,19.8,3.4,32.8,4.9c9.4,1.1,16.9,1.6,22.6,1.5c8.3-0.1,15.6-1.2,22-3.4
						c1-0.3,1.9-0.6,2.6-0.7c0.3-0.1,0.6-0.1,0.8-0.1c0.6-0.6,1.3-1.1,2-1.7c1.7-1.5,3.1-2.4,4.3-2.7c0.9-0.2,1.7-0.1,2.6,0.3
						c0.7,0.4,1.2,0.9,1.5,1.5l1.9-1.6c3.8-3,6.7-5.5,8.8-7.5C955.9,138,957.6,136.3,959.8,134.1z"/>
					<path d="M969.8,124.2c3.1-0.2,4.9-1.3,5.2-3.1c0.3-1.5-0.5-2.7-2.3-3.5c-1.6-0.7-3.4-1-5.4-0.8c-30.4,2.4-73,3.5-127.7,3.4
						c-59.8-0.1-102.4,0.6-127.8,2c-2.7,0.2-4.2,1-4.5,2.3c-0.3,1.1,0.2,2.1,1.6,2.8c0.1,0.1,0.3,0.1,0.5,0.2c1,0.5,2.2,0.7,3.5,0.7
						l30.2-0.3c-0.5,4.4-1.9,7.9-4.1,10.6c-0.7,0.8-1.2,1.4-1.5,1.9c-1,0-1.9,0-2.8,0c-9.1,0-17-0.2-23.7-0.5
						c-1.6-0.1-3.1-0.2-4.5-0.3c-1.5-0.1-2.7-0.1-3.4-0.1c-0.5,0.1-1,0.2-1.5,0.3c-0.6,0.2-1.2,0.4-1.7,0.8c-1,0.7-1.6,1.6-1.8,2.8
						c-0.2,1.3,0.2,2.3,1.1,2.9c0.6,0.4,1.6,0.5,2.8,0.5l36.6-0.1c17.5-0.1,30.8,0.2,39.7,0.7c14.7,0.9,27.7,2.8,39.1,5.8
						c5.7,1.5,13.8,4.1,24.4,7.9c10.9,3.9,19.1,6.6,24.4,8c19.9,5.4,36.7,5.3,50.5-0.1c4.1-1.7,8.5-4,13.1-7.1
						c1.6-1.1,3.4-2.4,5.5-4c0.7-0.3,1.3-0.6,1.7-1c0.4-0.3,0.7-0.6,0.9-1c1.2-0.9,2.5-1.9,3.8-3c2-1.6,2.9-3,2.6-4.3
						c0-0.2-0.1-0.3-0.1-0.4c-0.3-0.6-0.8-1.1-1.5-1.5c-0.8-0.4-1.7-0.5-2.6-0.3c-1.2,0.3-2.7,1.2-4.3,2.7c-0.7,0.6-1.3,1.2-2,1.7
						c-0.2,0-0.5,0.1-0.8,0.1c-0.7,0.2-1.6,0.4-2.6,0.7c-6.4,2.2-13.7,3.3-22,3.4c-5.7,0.1-13.2-0.4-22.6-1.5
						c-13-1.5-24-3.1-32.8-4.9c-11.2-2.5-19.6-4.3-25.2-5.3c-9.7-1.8-18.2-2.4-25.4-2c-1.4,0.1-2.5,0.4-3.4,0.8
						c-0.2,0.1-0.4,0.2-0.6,0.4c-10.4-1.4-22.3-2.1-35.5-2.3c-6.6,0-12.3,0-17.2,0c1.3-2,2.1-3.3,2.4-3.9c0.8-1.8,1.5-4.6,2-8.4
						c0-0.1,0-0.2,0.1-0.3l50-0.5c51.2-0.5,104.4-1.4,159.6-2.8c3-0.1,5.9-0.2,8.9-0.2C969.1,124.3,969.5,124.3,969.8,124.2z"/>
				</g>
			</g>
		</g>
	</g>
	<g transform="matrix( 1, 0, 0, 1, -94.45,-16.35) ">
		<g transform="matrix( 1, 0, 0, 1, 0,0) ">
			<g>
				<g id="foot_0_Layer0_0_FILL">
					<path class="st3" d="M497.9,325.9c-1.5-0.8-2.4-1.2-2.7-1.3c0.3,0.5,0.7,0.9,1.2,1.1c0.3,0.2,0.8,0.3,1.3,0.3
						c0.1,0,0.2,0,0.3,0C498,325.9,497.9,325.9,497.9,325.9 M567.5,322.1L567.5,322.1c0.9-0.5,1.5-0.9,1.9-1.2
						c0.2-0.1,0.3-0.2,0.5-0.2c0.6-0.3,1.1-0.5,1.5-0.6c0.1,0,0.2-0.1,0.3,0c0.7-0.1,1.3-0.1,2,0.1c0.8,0.2,1.4,0.6,1.7,1.3
						c0.2,0.3,0.3,0.7,0.4,1c0-0.1,0.1-0.1,0.1-0.1c0.3-0.3,0.7-0.8,1.1-1.7c0.4-0.8,0.8-1.4,1.1-1.7c0.1-0.1,0.8-0.5,2.1-1.3
						c0.7-0.4,1.3-0.9,1.9-1.5c0.7-0.8,1.2-1.4,1.4-2.1c0.3-0.7,0.3-1.5,0.1-2.2c-0.4,0.1-0.9,0.1-1.3,0c-0.9-0.1-2.3-0.6-4.2-1.8
						c-0.2-0.1-0.4-0.3-0.6-0.4c-14.8-9.2-29-18.5-42.7-27.9L517,269.4c-2.3-1.6-3.9-2.8-5-3.8c-1.7-1.5-3-3.1-3.8-4.8
						c-0.1-0.1-0.1-0.2-0.2-0.3c-0.1-0.1-0.1-0.3-0.1-0.3c-0.3-0.7-0.7-1.6-1.1-2.9c-0.4-1.4-0.7-2.4-1-3c-0.3-0.8-0.9-1.8-1.6-2.9
						c-0.8-1.2-1.4-2.2-1.8-2.8c-0.3-0.6-0.5-1.1-0.6-1.5c-0.1-0.1-0.1-0.1-0.1-0.1c-1.4-1.2-3.1-1.5-5.2-1.1
						c-2,0.4-3.4,1.5-4.2,3.2c-0.8,1.7-0.8,4.3,0,7.8c1.1,4.1,2.6,7,4.3,8.8c0.1,0.1,0.7,0.6,1.5,1.4c0.6,0.6,1.1,1.1,1.4,1.5
						c0.1,0.1,0.2,0.3,0.3,0.4c1.2-0.1,2.6,0.6,4.1,2.2c0,0,0.1,0.1,0.1,0.1c1,1.1,2.5,2.8,4.4,5.2c0.4,0.5,1.9,2.5,4.5,6.1
						c4.9,6.8,12,17.5,21.3,32.1l4.2,6.6c1.2,1.8,2.1,3.1,2.8,4c1.2,1.4,2.5,2.3,3.8,2.8c1.3,0.5,2.9,0.8,4.8,0.6
						c0.9-0.1,1.9-0.2,3-0.4c4-0.8,7.7-2.2,11.2-4.1C565.3,323.5,566.4,322.8,567.5,322.1z"/>
					<path d="M567.5,322.1L567.5,322.1c-1.2,0.8-2.3,1.4-3.4,2.1c-3.5,1.9-7.3,3.3-11.2,4.1c-1.1,0.2-2.1,0.3-3,0.4
						c-1.9,0.1-3.5-0.1-4.8-0.6c-1.3-0.5-2.6-1.5-3.8-2.8c-0.7-0.8-1.7-2.2-2.8-4l-4.2-6.6c-9.3-14.6-16.4-25.3-21.3-32.1
						c-2.6-3.5-4.1-5.6-4.5-6.1c-1.9-2.3-3.3-4.1-4.4-5.2c-0.1-0.1-0.1-0.1-0.1-0.1c-1.5-1.6-2.9-2.3-4.1-2.2
						c-0.1-0.2-0.2-0.3-0.3-0.4c-0.3-0.4-0.8-1-1.4-1.5c-0.9-0.8-1.4-1.3-1.5-1.4c-1.7-1.8-3.2-4.7-4.3-8.8c-0.9-3.5-0.9-6,0-7.8
						c0.8-1.7,2.2-2.7,4.2-3.2c2-0.4,3.8-0.1,5.2,1.1c0,0,0.1,0.1,0.1,0.1c0.1,0.4,0.3,1,0.6,1.5c0.4,0.6,1,1.6,1.8,2.8
						c0.7,1.1,1.2,2,1.6,2.9c0.3,0.6,0.6,1.6,1,3c0.4,1.3,0.8,2.3,1.1,2.9c0,0.1,0.1,0.2,0.1,0.3c0,0.1,0.1,0.2,0.2,0.3
						c0.8,1.6,2.1,3.2,3.8,4.8c1,0.9,2.7,2.2,5,3.8l17.9,12.4c13.7,9.4,27.9,18.7,42.7,27.9c0.2,0.1,0.4,0.3,0.6,0.4
						c1.8,1.1,5.6,2.2,6.5,2.3c0.4,0.1-1.5-0.4-1-0.5c0.3-0.1,0.7-0.2,1-0.3c0.8-0.4,3.1-0.5,3.3-1.1c0.8-2.8-1.5-3.4-5.3-5.1
						c-3.8-1.7-3.8-2.5-7.9-4.8s-6.5-4.1-8.1-5.1c-0.5-0.3-2.5-1.6-6.1-3.9c-16.1-10.8-31.4-22-46.1-33.4c-0.2-0.6-0.4-1.2-0.8-1.9
						l-4-8.6c0.1-0.2,0.1-0.5,0.1-0.7c0-1.2-0.6-2.4-1.9-3.7c-1.7-1.6-3.6-2.8-5.8-3.5c-2.2-0.7-4.5-0.9-6.7-0.5
						c-2.3,0.4-4.3,1.4-6,2.9c-1.9,1.6-3.1,3.4-3.7,5.5c-0.7,2.1-0.8,4.5-0.3,7.2c0.4,2,1.1,4.3,2.2,7.1c1.8,4.4,3.7,7.7,5.9,9.8
						c1.1,1.2,2.2,1.9,3.3,2.1c0.3,0.1,0.5,0.1,0.8,0.1c0,0.1,0.1,0.2,0.1,0.3c0.4,0.8,0.9,1.6,1.7,2.4l0,0.1c0.2,0.2,0.9,0.8,2.2,2
						c0.1,0.1,0.1,0.1,0.2,0.2c1.9,1.8,4.2,4.7,6.8,8.8l6.3,9.3c7.1,10.6,12.5,18.9,16.2,25.1c1.9,3.2,3.4,5.5,4.6,7.1
						c2,2.4,4,4.1,6.3,5.2c2.7,1.2,5.9,1.6,9.6,1.1c2.5-0.4,5.7-1.3,9.7-2.7c5.2-1.8,9.1-3.6,11.6-5.4c1.1-0.8,2-1.7,2.5-2.7
						c0.4-0.8,0.6-1.5,0.5-2.2c0-0.4-0.2-0.7-0.4-1c-0.4-0.6-0.9-1-1.7-1.3c-0.7-0.2-1.3-0.2-2-0.1c-0.1,0-0.2,0-0.3,0
						c-0.5,0.1-1,0.3-1.5,0.6c-0.2,0-0.3,0.1-0.5,0.2C568.9,321.2,568.3,321.6,567.5,322.1z"/>
				</g>
			</g>
		</g>
	</g>
	<g transform="matrix( 1, 0, 0, 1, -158.9,15.15) ">
		<g transform="matrix( 1, 0, 0, 1, 0,0) ">
			<g>
				<g id="arm2_0_Layer0_0_FILL">
					<path d="M1162.3,233.8c-0.9,0.1-2,0.6-3.3,1.3c-20.2,13.1-55,34.5-104.4,64.1c-44.8,26.9-79.3,48.5-103.7,64.9
						c-23.8,16.4-41.6,28.6-53.6,36.6c-20.9,13.8-39.4,24.9-55.6,33.3c-1.5,0.8-2.6,1.7-3.4,2.7c-1,1.2-1.2,2.4-0.5,3.5
						c0.6,1,1.6,1.5,3.1,1.3c0.8-0.1,1.7-0.4,2.7-0.7c0.4-0.1,0.8-0.3,1.2-0.6c1.4-0.8,2.7-1.6,4.1-2.3c20-11.5,44.2-26.8,72.8-45.9
						c44-29.4,69.2-46.2,75.7-50.3c15.6-9.9,43-26.5,82.2-49.8c34.9-20.6,62-37.3,81.4-50.1c0.1-0.1,0.2-0.2,0.3-0.3
						c1.4-1,2.5-2.2,3.1-3.5c0.8-1.6,0.6-2.7-0.5-3.5C1163.5,233.9,1163,233.7,1162.3,233.8 M1197.3,269.6c0.1-1.2-0.1-2.2-0.6-3.2
						c-0.6-1.1-1.4-1.7-2.5-1.7c-0.3,0-0.6,0.1-1,0.2c-1,0.4-2,1.4-2.9,3c-0.1,0.2-0.3,0.4-0.4,0.7c-0.3,0.5-0.6,0.9-0.9,1.4
						c-4.6,7.2-10.2,13.9-16.9,20.1c-3.5,3.2-7.3,6.3-11.4,9.2c-11.4,8.1-24.4,14.7-39.2,19.6c-4.3,1.4-11.9,3.6-22.9,6.6
						c-9.8,2.6-17.4,4.9-22.8,6.9c-15,5.6-28.6,13.3-41,23.3c-3,2.4-7.8,6.6-14.6,12.8c-6.1,5.6-11,9.8-14.7,12.6
						c-11,8.4-23,14.7-36.2,18.9c-5.7,1.8-14.1,3.8-25.2,5.9c-11.6,2.3-20.1,4.3-25.3,5.8c-10.1,3-20.5,7.4-31.3,13.3
						c-1.5,0.7-2.9,1.6-4.4,2.5c-8.9,5-19.4,11.8-31.7,20.6c-0.5,0.4-0.9,0.7-1.4,1c-0.2,0.2-0.5,0.4-0.7,0.5
						c-0.8,0.6-1.4,1.4-1.9,2.2c-0.2,0.3-0.4,0.6-0.5,0.9c-0.7,1.6-0.5,2.8,0.7,3.6c1.1,0.7,2.7,0.3,4.8-1.1
						c17.1-11.4,27.9-18.4,32.4-21.1c12.4-7.4,24-12.7,34.6-16c4.3-1.2,9.6-2.5,15.9-3.8c3.6-0.7,8.9-1.8,16-3.2
						c26.2-5.6,46.9-14.8,62.1-27.5c2.8-2.4,7.1-6.4,12.8-12c5.4-5.4,9.7-9.3,12.9-11.9c11-8.9,27.1-16.7,48.4-23.4
						c5.8-1.9,14.5-4.6,26.2-8.1c10.2-3.2,18.8-6.4,25.7-9.6c10.2-4.6,19.8-10.3,28.8-17.1c8.9-6.8,17-14.5,24.2-23
						c1.4-1.7,2.5-3.1,3.3-4.3C1196.6,272.8,1197.2,271.2,1197.3,269.6z"/>
					<path class="st4" d="M1189.1,270.1c-0.2,0-0.4,0.1-0.7,0.2c-1.1,0.4-2.2,1-3.3,2.1c-7.9,7.7-19.2,13.8-34.1,18.5
						c-4,1.2-10.4,3-19.4,5.3c-8.5,2.2-15,4.1-19.4,5.5c-12,4-24.7,9.9-38.1,17.6c-9.1,5.3-20.9,13-35.4,23.1
						c-17.5,12.1-29.2,20.1-35.2,24c-13.4,8.5-25.8,15.2-37.2,20.1c-6.4,2.7-17.1,6.6-32.3,11.6c-14.1,4.5-24.8,8.5-32.1,11.9
						c-9,4.2-18.3,9.6-28.1,16.2c-6.2,4.2-13.1,9.4-20.9,15.5c-1.7,1.3-3.4,2.7-5.1,4.1c-0.9,0.7-1.5,1.5-2,2.1
						c-0.6,0.9-0.7,1.7-0.5,2.4c0.3,1,1,1.6,2.1,1.8c0.5-0.9,1.1-1.6,1.9-2.2c0.2-0.2,0.4-0.4,0.7-0.5c0.5-0.3,0.9-0.7,1.4-1
						c12.3-8.7,22.8-15.6,31.7-20.6c1.5-0.9,3-1.7,4.4-2.5c10.8-5.9,21.3-10.3,31.3-13.3c5.2-1.5,13.7-3.5,25.3-5.8
						c11.1-2.1,19.5-4.1,25.2-5.9c13.2-4.2,25.3-10.5,36.2-18.9c3.7-2.8,8.6-7,14.7-12.6c6.8-6.1,11.6-10.4,14.6-12.8
						c12.3-10,26-17.8,41-23.3c5.4-2,13.1-4.3,22.8-6.9c11-3,18.6-5.2,22.9-6.6c14.7-4.9,27.8-11.5,39.2-19.6
						c4.1-2.9,7.9-6,11.4-9.2C1179,284,1184.6,277.3,1189.1,270.1z"/>
					<path class="st3" d="M1188.4,270.3c0.2-0.1,0.5-0.2,0.7-0.2c0.3-0.5,0.6-1,0.9-1.4c0.1-0.2,0.2-0.5,0.4-0.7
						c0.9-1.6,1.9-2.6,2.9-3c-0.1-0.7-0.4-1.4-0.9-2.2c-0.2-0.4-0.7-1.1-1.4-2l-6-7.5c-2.6-3.3-4.6-5.8-6-7.4
						c-2.3-2.7-4.5-5-6.6-6.9c-1.9-1.8-3.7-3.3-5.6-4.5c-1.6-1.1-2.9-1.4-3.9-1c-0.2,0.1-0.4,0.2-0.6,0.4c0.7-0.1,1.2,0.1,1.7,0.4
						c1.1,0.8,1.3,2,0.5,3.5c-0.7,1.4-1.7,2.5-3.1,3.5c-0.1,0.1-0.2,0.2-0.3,0.3c-19.4,12.8-46.5,29.5-81.4,50.1
						c-39.2,23.3-66.6,39.9-82.2,49.8c-6.5,4.2-31.8,20.9-75.7,50.3c-28.6,19.1-52.8,34.4-72.8,45.9c-1.4,0.8-2.8,1.6-4.1,2.3
						c-0.4,0.2-0.8,0.4-1.2,0.6c-0.1,0.5-0.1,1,0.1,1.5c0.3,2.2,1,4.1,2.2,5.8c0.4-0.7,1.1-1.4,2-2.1c1.7-1.4,3.5-2.7,5.1-4.1
						c7.7-6.1,14.7-11.3,20.9-15.5c9.8-6.7,19.1-12.1,28.1-16.2c7.4-3.4,18.1-7.4,32.1-11.9c15.2-5,25.9-8.9,32.3-11.6
						c11.4-4.8,23.7-11.5,37.2-20.1c6-3.8,17.8-11.8,35.2-24c14.6-10.1,26.4-17.8,35.4-23.1c13.4-7.8,26.1-13.6,38.1-17.6
						c4.4-1.4,10.8-3.3,19.4-5.5c9-2.3,15.4-4.1,19.4-5.3c14.9-4.7,26.2-10.9,34.1-18.5C1186.2,271.4,1187.3,270.7,1188.4,270.3z"/>
				</g>
			</g>
		</g>
	</g>
	<g transform="matrix( 1, 0, 0, 1, -78.75,188.15) ">
		<g transform="matrix( 1, 0, 0, 1, 0,0) ">
			<g>
				<g id="hand2_0_Layer0_0_FILL">
					<path class="st4" d="M768.3,273.7c-0.2,0-0.3-0.1-0.5-0.1c-0.7-0.1-1.4,0.1-2.1,0.4c-1,0.4-2.2,1.5-3.8,3.3
						c-1.8,2-4.5,4.4-8.2,7.4c-2.6,2.2-4.5,3.8-5.8,4.6c-2.2,1.7-4.3,3-6.2,4c-0.4,0.2-1.1,0.6-2,1c-0.8,0.4-1.4,0.7-1.9,1.2
						c-0.6,0.5-1.3,1.2-2.3,2.3c-0.1,0.1-0.5,0.4-1.3,1c-0.5,0.4-0.9,0.8-1.2,1.1l-0.1,0.1c-0.4,0.5-0.8,1.1-1.2,1.9
						c0.2,0,0.4,0.1,0.6,0.2c0.6-0.2,1.2-0.5,1.8-0.7c6.2-2.2,10.8-4.1,13.9-5.7c4.9-2.5,8.9-5.3,11.9-8.5c1.9-2,3.9-4.8,6-8.4
						c1.1-1.9,2.1-3,3-3.6c0.3-0.2,0.6-0.3,0.9-0.4C769.6,274.2,769,273.9,768.3,273.7 M741.1,305.8c-3,1.2-5.7,2.3-8.3,3.3
						c-0.9,2.6-2,5.9-3.5,10c-0.9,2.6-1.3,4.5-1.2,5.7c0.1,1,0.4,2,1,2.8c0.4,0.6,0.8,1,1.3,1.3c0.6-0.2,1.3-0.7,1.9-1.4
						c1.5-2.9,3.4-7.8,5.8-14.6C739,310.2,740,307.9,741.1,305.8z"/>
					<path d="M765.9,265.2c0.1-0.3,0.1-0.6,0.2-0.8c0.1-0.7-0.1-1.4-0.4-1.9c-0.5-0.7-1.3-1.1-2.5-1.2c-0.9,0-1.9,0.2-3,0.6
						c-1.5,0.6-3.1,1.6-5,2.8c-2.1,1.5-3.6,2.6-4.6,3.3c-3.1,2.2-7.5,5-13.2,8.5c-6.4,3.8-10.9,6.5-13.5,8.2c-2,1.4-4.8,3.4-8.3,5.9
						c-6.5,4.8-11.2,8.2-14.1,10.4c-5.1,3.9-9.6,7.6-13.5,11c-3.2,2.9-6.4,5.9-9.3,9c-0.9-0.1-1.8,0.3-2.6,1.2
						c-0.7,0.8-1.2,1.8-1.6,3c-0.7,2.3-0.6,4.5,0.1,6.8c0.8,2.4,2.2,4,4.2,4.8c1.8,0.7,3.9,0.7,6.3-0.2c1.6-0.7,3.6-1.9,5.9-3.5
						l18.7-13.6c3-2.2,5.4-3.7,7-4.6c1.6-0.7,4.2-1.7,8-2.9l-0.6,1.8c-0.8,2.5-1.3,4-1.5,4.8c-0.5,1.8-0.8,3.4-0.9,4.9
						c-0.4,3.9,0.4,7,2.3,9.4c1,1.4,2.3,2.3,4,2.9c1.7,0.6,3.3,0.7,4.9,0.2c1.8-0.6,3.5-2.1,5.1-4.4c1.9-2.7,3.8-7.3,5.9-13.9
						c2.1-6.4,4.2-11,6.3-13.7c0.6-0.8,1-1.4,1.3-1.8c0.3-0.4,0.5-0.8,0.7-1.1c0.3-0.2,0.6-0.3,1-0.5c3.7-1.9,6.7-3.9,9.1-6
						c1.4-1.2,3.4-3.4,6-6.5c1.6-1.9,2.7-3.4,3.4-4.5c1.1-1.7,1.9-3.4,2.3-5c0.3-1.2,0.2-2.2-0.3-2.9c-0.4-0.6-1-1-1.9-1.1
						c-0.5-0.1-1,0-1.4,0.1c-0.3,0.1-0.6,0.2-0.9,0.4c-1,0.5-2,1.7-3,3.6c-2.2,3.6-4.2,6.4-6,8.4c-3,3.2-7,6.1-11.9,8.5
						c-3.1,1.6-7.7,3.5-13.9,5.7c-0.6,0.2-1.2,0.4-1.8,0.7c-0.2-0.1-0.4-0.1-0.6-0.2c-0.1,0-0.3-0.1-0.4-0.1c-1,0-1.9,0.2-2.7,0.8
						c-0.3,0.3-0.6,0.6-1,1.1c-3,1.1-5.1,1.8-6.4,2.2c-3.5,1-6.2,2-7.9,2.8c-1.8,0.9-4.4,2.6-7.8,5L685,329.3c-0.6,0.5-1.3,0.8-2,1
						c-0.7,0.2-1.3,0-1.7-0.5c-0.3-0.4-0.4-0.9-0.3-1.4c0.2-0.2,0.4-0.5,0.7-0.8c7.2-7.3,14.8-14.1,22.8-20.5l7.8-5.9
						c7.1-5.2,15.4-10.8,24.7-16.7c5.1-3.2,12.9-8.1,23.4-14.5c0.6-0.4,1.3-0.8,1.9-1.2c1.5-0.9,2.5-1.8,3.1-2.5
						C765.6,265.9,765.8,265.5,765.9,265.2 M732.8,309.1c2.5-0.9,5.3-2,8.3-3.3c-1,2.1-2,4.4-2.9,7c-2.4,6.8-4.4,11.7-5.8,14.6
						c-0.4,0.7-0.7,1.3-1,1.8c-0.3-0.1-0.6-0.2-1-0.3c-0.5-0.3-1-0.8-1.3-1.3c-0.6-0.8-0.9-1.7-1-2.8c-0.1-1.2,0.3-3.1,1.2-5.7
						C730.8,315,731.9,311.6,732.8,309.1z"/>
					<path class="st3" d="M767.5,266.3c-0.5-0.5-1-0.9-1.6-1.1c-0.1,0.4-0.3,0.7-0.5,1.1c-0.6,0.7-1.6,1.6-3.1,2.5
						c-0.6,0.4-1.2,0.8-1.9,1.2c-10.5,6.4-18.3,11.3-23.4,14.5c-9.4,5.9-17.6,11.5-24.7,16.7l-7.8,5.9c-8,6.4-15.7,13.2-22.8,20.5
						c-0.2,0.3-0.5,0.6-0.7,0.8c-0.1,0.6,0,1,0.3,1.4c0.4,0.5,1,0.7,1.7,0.5c0.7-0.1,1.3-0.5,2-1l20.8-15.6c3.4-2.5,6-4.1,7.8-5
						c1.7-0.9,4.4-1.8,7.9-2.8c1.2-0.4,3.4-1.1,6.4-2.2c0.3-0.4,0.6-0.8,1-1.1c0.8-0.6,1.7-0.8,2.7-0.8c0.1,0,0.3,0,0.4,0.1
						c0.4-0.8,0.8-1.4,1.2-1.9l0.1-0.1c0.3-0.3,0.7-0.6,1.2-1.1c0.8-0.6,1.3-0.9,1.3-1c1-1.1,1.7-1.8,2.3-2.3
						c0.5-0.4,1.1-0.8,1.9-1.2c0.9-0.4,1.5-0.8,2-1c2-1,4.1-2.3,6.2-4c1.2-0.9,3.2-2.4,5.8-4.6c3.6-3,6.4-5.5,8.2-7.4
						c1.6-1.8,2.8-2.9,3.8-3.3c0.7-0.3,1.4-0.4,2.1-0.4c0.3-0.7,0.6-1.5,0.7-2.2C769.1,269.4,768.7,267.6,767.5,266.3z"/>
				</g>
			</g>
		</g>
	</g>
	<g transform="matrix( 1, 0, 0, 1, 561.75,168.55) ">
		<g transform="matrix( 1, 0, 0, 1, 0,0) ">
			<g>
				<g id="butt2_0_Layer0_0_FILL">
					<path class="st2" d="M188.9,116.5c-0.8-1-3.9,3.3-5.3,3.5c-0.4,0-0.7,0.1-1.2,0.2c-1.6,0.5-3.3,1.4-5,2.7
						c-0.5,0.4-1.9,1.8-4.3,4c-0.5,0.5-3.3,2.9-8.4,7.3c-2,1.7-4,3.5-5.9,5.3c-2.6,2.5-4.7,4.5-6.2,6.1c-2.3,2.5-2.9,4.6-2,6.4
						c0.3,0.6,1,1.2,1.9,1.6c0.4,0.1,0.7,0.3,1.2,0.4c2.6,0.7,4,1.1,4.1,1.1c0.3,0.1,0.7,0.4,1.2,0.6c-0.3,0.8-0.6,1.6-0.8,2.3
						c0,0.1,0,0.1,0,0.2c0.6,0.1,1.3,0.3,1.9,0.6c0.8,0.5,1.5,1.3,2.1,2.3c0.4,0.7,0.8,1.7,1.3,3.1c15.7,46.9,28.8,94.4,39.6,142.5
						c4.8,21.4,7.9,35.2,9.5,41.2c4.1,15.3,8.7,28.6,13.8,39.7c4.9,10.4,10.2,18.3,15.9,23.6c8.2,7.7,18.6,12.2,31.3,13.5
						c6.8,0.7,13.5,0.5,20.1-0.7c4.9-0.9,9.9-2.2,14.8-4.1c9.9-3.7,19.9-9.6,30.1-17.5c7.1-5.5,15.8-13.4,26.2-23.6
						c0.3-0.3,0.6-0.5,0.8-0.7c-1.3-1.4-2.7-2.8-4.1-4.1c-2.7-2.5-6.2-5.5-10.5-8.9c-4.4-3.5-8.3-6.4-11.6-8.5
						c-4.4-2.8-8.6-5.1-12.6-6.7c-2.6-1-5.6-2-8.9-2.9c-4.8-1.4-8.9-2.3-12.2-2.9c-4.6-0.6-8.7-0.6-12.5,0.1
						c-1.5,0.3-2.7,0.4-3.4,0.3c-1.3-0.1-2.2-0.5-2.8-1.3c-0.3-0.4-0.5-0.9-0.5-1.4c-0.4-0.3-0.8-0.6-1-1c-0.3-0.6-0.5-1.6-0.4-3.2
						c0-1.8-0.4-3.8-1-6.1c-0.4-1.4-1.1-3.3-2.1-5.9c-3.2-8.1-6.2-15.9-9.1-23.3c-13.5-34.3-24.3-60.6-32.4-79.1
						c-16.4-37.5-32.9-70.4-49.4-98.6c-0.2-0.4-0.5-0.8-0.6-1.2"/>
					<path d="M186.9,121.2"/>
					<path d="M190.1,123.8c0.2,0.4,0.4,0.8,0.6,1.2c16.5,28.2,33,61.1,49.4,98.6c8.1,18.5,18.9,44.8,32.4,79.1
						c2.9,7.4,6,15.2,9.1,23.3c1,2.6,1.7,4.5,2.1,5.9c0.6,2.2,1,4.3,1,6.1c0,1.6,0.1,2.6,0.4,3.2c0.2,0.4,0.6,0.7,1,1
						c0,0.5,0.2,1,0.5,1.4c0.5,0.8,1.5,1.2,2.8,1.3c0.7,0.1,1.9,0,3.4-0.3c3.8-0.7,7.9-0.7,12.5-0.1c3.3,0.5,7.4,1.5,12.2,2.9
						c3.3,0.9,6.3,1.9,8.9,2.9c4,1.6,8.2,3.8,12.6,6.7c3.3,2.1,7.1,5,11.6,8.5c4.3,3.4,7.8,6.3,10.5,8.9c1.5,1.4,2.8,2.7,4.1,4.1
						c-0.2,0.2-0.5,0.4-0.8,0.7c-10.4,10.2-19.1,18.1-26.2,23.6c-10.2,7.9-20.2,13.8-30.1,17.5c-4.9,1.9-9.8,3.2-14.8,4.1
						c-6.7,1.2-13.4,1.4-20.1,0.7c-12.6-1.4-23.1-5.9-31.3-13.5c-5.7-5.3-11-13.2-15.9-23.6c-5.2-11.1-9.8-24.3-13.8-39.7
						c-1.6-6-4.7-19.8-9.5-41.2c-10.7-48.1-23.9-95.6-39.6-142.5c-0.5-1.4-0.9-2.4-1.3-3.1c-0.6-1-1.3-1.8-2.1-2.3
						c-0.6-0.3-1.2-0.5-1.9-0.6c0-0.1,0-0.1,0-0.2c0.2-0.8,0.5-1.6,0.8-2.3c-0.5-0.3-0.9-0.5-1.2-0.6c-0.1,0-1.5-0.4-4.1-1.1
						c-0.4-0.1-0.8-0.3-1.2-0.4c-1.2,3-2,5.9-2.5,8.9c-0.8,5.4-0.4,11.4,1.2,18.2c0.7,3,2.6,9,5.6,17.8c4.6,13.6,8.9,29.3,13,47.1
						c2.1,8.9,5.4,24.9,10,48c8.3,41.5,16.5,73,24.7,94.5c2.9,7.7,5.8,14.3,8.6,19.6c3.7,6.8,7.8,12.5,12.4,17.1
						c10,10.1,22.9,16.3,38.7,18.7c13.7,2.1,27.3,0.9,40.8-3.4c1-0.3,2.1-0.7,3.1-1c12.8-4.6,25.5-11.8,38.1-21.8
						c9.9-7.8,20.6-18,32-30.6c1.1-1.3,1.7-2.3,1.5-3.2c-0.1-0.7-0.6-1.3-1.3-1.7c-0.4-0.1-0.7-0.2-1.1-0.3c-0.4-0.9-1.1-1.7-2-2.7
						c-2-2.3-4.4-4.7-7-7.2c-5.9-5.5-11.9-10.5-18.1-15.1c-7.5-5.5-14.3-9.5-20.4-12.2c-3.6-1.5-8-3-13.1-4.4
						c-9.4-2.5-17.4-3.5-23.9-2.9c-0.1,0-0.2,0-0.3,0.1c0.1-1.1-0.1-2.3-0.4-3.6c-0.2-0.9-0.7-2.2-1.4-4.1l-20-49.4
						c-11.7-28.9-20.8-50.7-27.2-65.3c-10.6-24-20.9-45.2-31-63.6c-5.5-10.1-8.5-15.6-8.9-16.5c-3.2-6.3-5.7-12-7.5-17.1
						c-0.6-1.9-1.4-3.1-2.2-3.6c-1.1-0.6-2.2-0.5-3.4,0.4c-0.8,0.5-1.3,1.1-1.6,1.8"/>
				</g>
			</g>
		</g>
	</g>
	<g transform="matrix( 1, 0, 0, 1, -217.15,169.05) ">
		<g transform="matrix( 1, 0, 0, 1, 0,0) ">
			<g>
				<g id="shin2_0_Layer0_0_FILL">
					<path class="st3" d="M702.5,148.7c0.7-0.1,1.9-0.2,3.4-0.1c1.5,0.1,3,0.1,4.6,0c6.7,0.1,14.6-0.1,23.7-0.5
						c0.9-0.1,1.8-0.1,2.8-0.1c0.3-0.5,0.8-1.2,1.4-2c2.1-2.8,3.3-6.4,3.6-10.8l-30.1,1.6c-1.3,0.1-2.5,0-3.5-0.5
						c-0.1,0.1-0.3,0.3-0.4,0.4c-0.4,0.4-0.8,0.7-1.1,0.9c-0.7,0.3-1.3,0.6-1.7,0.8c-0.7,0.3-1.3,0.9-2,1.7c-0.7,1-1.2,1.7-1.6,2.1
						c-0.3,0.4-0.8,0.9-1.4,1.5c-0.5,0.6-0.8,1.2-0.9,1.7c-0.2,1.3,0.4,2.5,1.7,3.5C701.6,148.9,702.1,148.8,702.5,148.7z"/>
					<path d="M958.6,121.7c2.9-0.2,5.9-0.5,8.9-0.7c0.4,0,0.7,0,1-0.1c3.1-0.3,4.8-1.4,5.1-3.4c0.3-1.5-0.6-2.7-2.5-3.4
						c-1.7-0.7-3.5-0.8-5.4-0.6c-30.3,3.8-72.8,6.9-127.5,9.4c-59.8,2.7-102.3,5.4-127.5,8c-2.7,0.3-4.1,1.2-4.4,2.6
						c-0.2,1.1-2.5,1.4-1,2c-2.5-0.4,1.4,1.7,1.6,1.8c1.3,0.1,3.9-0.4,5.2-0.5l30.1-1.6c-0.3,4.4-1.5,8-3.6,10.8
						c-0.6,0.8-1.1,1.4-1.4,2c-1,0-1.9,0-2.8,0.1c-9.1,0.4-17,0.6-23.7,0.5c-1.6,0.1-3.1,0.1-4.6,0c-1.5-0.1-2.7,0-3.4,0.1
						c-0.5,0.1-1,0.2-1.4,0.4c-0.6,0.2-1.2,0.4-1.7,0.8c-0.9,0.7-1.5,1.7-1.6,2.9c-0.1,1.3,0.3,2.3,1.2,2.8c0.7,0.3,1.7,0.4,2.9,0.3
						l36.5-1.8c17.5-0.9,30.8-1.3,39.7-1.2c14.7,0.2,27.8,1.5,39.4,4c5.7,1.2,14,3.4,24.8,6.7c11.1,3.4,19.3,5.7,24.6,6.9
						c20.2,4.4,37,3.6,50.4-2.6c4.1-1.8,8.3-4.4,12.8-7.7c1.5-1.1,3.3-2.5,5.4-4.2c0.7-0.3,1.2-0.6,1.6-1c0.4-0.3,0.7-0.7,0.9-1
						c1.1-1,2.4-2.1,3.7-3.2c1.9-1.7,2.7-3.2,2.4-4.5c-0.1-0.2-0.1-0.4-0.2-0.5c-0.3-0.5-0.8-1-1.5-1.3c-0.9-0.4-1.7-0.4-2.6-0.2
						c-1.2,0.4-2.6,1.3-4.2,2.9c-0.7,0.7-1.3,1.3-1.8,1.8c-0.2,0-0.5,0.1-0.8,0.2c-0.7,0.2-1.6,0.5-2.6,0.9
						c-6.3,2.5-13.5,3.9-21.8,4.4c-5.7,0.4-13.2,0.2-22.7-0.4c-13.1-0.9-24.1-2-33-3.4c-11.3-2-19.8-3.4-25.5-4.1
						c-9.8-1.3-18.3-1.5-25.5-0.7c-1.4,0.2-2.5,0.5-3.3,1c-0.2,0.1-0.4,0.3-0.6,0.4c-10.5-0.9-22.4-1.1-35.6-0.7
						c-6.6,0.3-12.4,0.6-17.2,0.8c1.2-2,2-3.4,2.2-4c0.8-1.8,1.3-4.7,1.6-8.5c0-0.1,0-0.2,0-0.3l50-2.8
						C850.3,129,903.4,125.6,958.6,121.7z"/>
					<path class="st2" d="M967.5,121c-3,0.2-5.9,0.4-8.9,0.7c-55.2,3.9-108.3,7.4-159.4,10.3l-50,2.8c0,0.1,0,0.2,0,0.3
						c-0.3,3.9-0.9,6.7-1.6,8.5c-0.3,0.6-1,1.9-2.2,4c4.9-0.2,10.6-0.5,17.2-0.8c13.2-0.4,25.1-0.2,35.6,0.7
						c0.2-0.2,0.4-0.3,0.6-0.4c0.8-0.5,1.9-0.8,3.3-1c7.2-0.8,15.7-0.5,25.5,0.7c5.7,0.7,14.1,2.1,25.5,4.1c8.9,1.3,19.9,2.5,33,3.4
						c9.4,0.6,17,0.7,22.7,0.4c8.2-0.5,15.5-2,21.8-4.4c1-0.4,1.8-0.7,2.6-0.9c0.3-0.1,0.5-0.1,0.8-0.2c0.6-0.6,1.2-1.2,1.8-1.8
						c1.6-1.5,3-2.5,4.2-2.9c0.9-0.2,1.8-0.2,2.6,0.2c0.7,0.4,1.2,0.8,1.5,1.3l1.8-1.6c3.7-3.2,6.5-5.8,8.4-7.9
						c1.1-1.1,2.6-2.8,4.7-5.2c1.9-2,3.6-3.5,5.2-4.6c1.8-1.2,2.9-2.1,3.3-2.6c0.5-0.6,0.8-1.2,0.9-1.9c0.2-0.5,0.2-0.9,0.1-1.3
						C968.2,121,967.9,121,967.5,121z"/>
				</g>
			</g>
		</g>
	</g>
	<g transform="matrix( 1, 0, 0, 1, -87.05,-39.4) ">
		<g transform="matrix( 1, 0, 0, 1, 0,0) ">
			<g>
				<g id="foot2_0_Layer0_0_FILL">
					<path class="st3" d="M491.6,328.4c-1.4-1-2.2-1.5-2.5-1.6c0.2,0.6,0.6,1,1,1.3c0.3,0.2,0.7,0.3,1.3,0.4c0.1,0,0.2,0,0.3,0.1
						C491.8,328.5,491.7,328.5,491.6,328.4 M578.8,347.8c0.1-0.7,0.1-1.5-0.3-2.2c-0.5,0.2-0.9,0.3-1.3,0.3c-1,0.1-2.5-0.2-4.5-1
						c-0.2-0.1-0.4-0.2-0.7-0.3c-16.2-6.4-32-12.9-47.2-19.5l-19.8-8.9c-2.6-1.1-4.5-2.1-5.6-2.8c-2-1.2-3.6-2.5-4.8-4
						c-0.1-0.1-0.1-0.2-0.2-0.3c-0.1-0.1-0.1-0.2-0.2-0.3c-0.4-0.6-1-1.4-1.6-2.6c-0.6-1.4-1.2-2.3-1.5-2.8
						c-0.5-0.8-1.2-1.6-2.1-2.6c-1-1.1-1.7-1.9-2.3-2.4c-0.3-0.5-0.6-1-0.8-1.4c-0.1,0-0.1,0-0.2,0c-1.6-0.9-3.4-1-5.3-0.2
						c-1.9,0.9-3.1,2.2-3.5,4c-0.5,1.8,0,4.4,1.5,7.6c1.9,3.8,3.8,6.4,5.8,7.8c0.1,0.1,0.7,0.5,1.8,1.1c0.7,0.5,1.3,0.9,1.7,1.3
						c0.1,0.1,0.2,0.2,0.3,0.3c1.2-0.4,2.6,0.1,4.4,1.4c0,0,0.1,0,0.2,0.1c1.2,0.9,3,2.3,5.2,4.3c0.5,0.4,2.3,2.1,5.5,5.1
						c6.1,5.8,15.1,15,26.9,27.6l5.4,5.8c1.5,1.5,2.7,2.7,3.5,3.4c1.5,1.1,2.9,1.8,4.3,2c1.4,0.3,3,0.2,4.8-0.2
						c0.9-0.2,1.9-0.6,2.9-1c3.7-1.6,7.2-3.6,10.4-6.1c1-0.9,1.9-1.7,2.8-2.7l0.1-0.1c0.7-0.6,1.2-1.1,1.6-1.4
						c0.1-0.1,0.3-0.2,0.5-0.3c0.5-0.5,0.9-0.8,1.4-0.9c0.1-0.1,0.2-0.1,0.3-0.1c0.7-0.2,1.3-0.3,2-0.3c0.8,0,1.5,0.3,2,0.9
						c0.2,0.2,0.4,0.6,0.5,0.9c0-0.1,0-0.1,0.1-0.2c0.2-0.4,0.5-1,0.8-1.8c0.2-0.9,0.5-1.5,0.8-1.9c0.1-0.1,0.7-0.6,1.8-1.7
						c0.6-0.5,1.1-1.1,1.5-1.8C578.3,349.3,578.7,348.5,578.8,347.8z"/>
					<path d="M576.5,338.9c-2.1-0.8-5.1-1.9-8.9-3.1c-4.2-1.4-7.2-2.4-9-3.1c-0.5-0.2-2.8-1.1-6.7-2.7c-17.8-7.6-35-15.7-51.5-24.3
						c-0.3-0.6-0.7-1.2-1.1-1.8l-5.4-7.7c0-0.2,0-0.5-0.1-0.7c-0.2-1.1-1-2.2-2.6-3.3c-1.9-1.2-4-2-6.4-2.2
						c-2.3-0.3-4.6-0.1-6.7,0.7c-2.1,0.8-3.9,2.1-5.4,4c-1.5,1.9-2.4,3.9-2.7,6.1c-0.2,2.2,0.1,4.6,1.1,7.1c0.8,1.9,1.9,4.1,3.5,6.6
						c2.6,4,5.1,6.9,7.6,8.6c1.4,0.9,2.6,1.4,3.6,1.4c0.3,0,0.6,0,0.9,0c0.1,0.1,0.1,0.2,0.2,0.3c0.5,0.7,1.3,1.3,2.2,2l0.1,0.1
						c0.2,0.1,1,0.6,2.5,1.6c0.1,0.1,0.1,0.1,0.2,0.2c2.2,1.4,5,3.8,8.4,7.3l7.8,7.9c8.9,9,15.8,16.2,20.6,21.6
						c2.4,2.8,4.4,4.8,5.8,6.1c2.4,2,4.8,3.3,7.2,4c2.8,0.7,6,0.5,9.6-0.6c2.4-0.9,5.4-2.4,9.1-4.5c4.8-2.7,8.2-5.2,10.4-7.4
						c0.9-1,1.6-2.1,1.9-3.2c0.3-0.8,0.4-1.5,0.2-2.2c-0.1-0.4-0.3-0.7-0.5-0.9c-0.5-0.6-1.2-0.9-2-0.9c-0.6-0.1-1.3,0-2,0.3
						c-0.1,0-0.2,0-0.3,0.1c-0.5,0.1-0.9,0.4-1.4,0.9c-0.2,0.1-0.3,0.2-0.5,0.3c-0.4,0.3-0.9,0.8-1.6,1.4l-0.1,0.1
						c-0.9,0.9-1.8,1.8-2.8,2.7c-3.2,2.5-6.6,4.6-10.4,6.1c-1,0.4-2,0.7-2.9,1c-1.9,0.4-3.5,0.5-4.8,0.2c-1.4-0.2-2.8-0.9-4.3-2
						c-0.8-0.7-2-1.8-3.5-3.4l-5.4-5.8c-11.9-12.6-20.8-21.8-26.9-27.6c-3.2-3-5-4.7-5.5-5.1c-2.3-2-4-3.4-5.2-4.3
						c-0.1,0-0.1-0.1-0.2-0.1c-1.7-1.3-3.2-1.7-4.4-1.4c-0.1-0.1-0.2-0.2-0.3-0.3c-0.4-0.4-1-0.9-1.7-1.3c-1.1-0.6-1.7-1-1.8-1.1
						c-2-1.4-3.9-4-5.8-7.8c-1.5-3.3-2-5.8-1.5-7.6c0.4-1.8,1.6-3.1,3.5-4c1.9-0.8,3.7-0.7,5.3,0.2c0,0,0.1,0,0.2,0
						c0.2,0.4,0.5,0.9,0.8,1.4c0.6,0.5,1.3,1.3,2.3,2.4c0.9,0.9,1.6,1.8,2.1,2.6c0.4,0.5,0.9,1.4,1.5,2.8c0.6,1.2,1.2,2,1.6,2.6
						c0,0.1,0.1,0.2,0.2,0.3c0,0.1,0.1,0.2,0.2,0.3c1.1,1.5,2.7,2.8,4.8,4c1.1,0.7,3,1.6,5.6,2.8l19.8,8.9
						c15.2,6.7,31,13.2,47.2,19.5c0.2,0.1,0.5,0.2,0.7,0.3c2,0.8,3.5,1.1,4.5,1c0.4,0,0.8-0.1,1.3-0.3c0.3-0.1,0.6-0.3,0.9-0.5
						c0.7-0.5,1.1-1.2,1.2-1.9C580.8,341.5,579.4,340,576.5,338.9z"/>
				</g>
			</g>
		</g>
	</g>
	<g transform="matrix( 1, 0, 0, 1, 123.15,-33.55) ">
		<g transform="matrix( 1, 0, 0, 1, 0,0) ">
			<g>
				<g id="neck_0_Layer0_0_FILL">
					<path d="M868.8,245.3c-0.4,0.7-0.6,1.5-0.6,2.3c0,1,0.4,2.5,1.2,4.6c1.8,4.9,3.4,11.2,4.9,19c0.3,1.9,0.6,3.8,1,5.8
						c0.4,2.2,0.6,4,0.5,5.3c0,0.5,0,1.3,0,2.3c0,0.9,0.1,1.6,0.4,2.2c0.6,1.2,1.5,1.9,2.7,2c1.4,0.2,2.4-0.2,3.1-1.3
						c0.6-0.9,0.8-2.3,0.5-4.2c-0.2-2-0.4-3.7-0.6-5.3c-0.2-1.2-0.4-2.4-0.6-3.5c-0.2-1.4-0.5-2.8-0.7-4.3c-0.1-0.2-0.1-0.5-0.2-0.7
						c0-0.1,0-0.2-0.1-0.3c-0.4-2-0.8-4.1-1.2-6.3c-1.1-5-2.1-8.7-3-11.1c-0.6-1.7-1-2.9-1.1-3.6c-0.1-0.9-0.3-1.5-0.4-1.9
						c-0.2-0.7-0.4-1.3-0.8-1.7c-0.2-0.4-0.6-0.6-1-0.8c-0.1-0.1-0.3-0.1-0.5-0.2c-0.6-0.2-1.2-0.2-1.8,0.1
						C869.8,244.1,869.3,244.6,868.8,245.3 M892.7,239c-0.2-0.7-0.6-1.2-1.2-1.7c-0.6-0.5-1.3-0.7-2-0.7c-0.7,0-1.3,0.2-2,0.6
						c-0.6,0.4-1,0.9-1.2,1.5c0,0-0.1,0.1-0.1,0.1c-0.4,1-0.2,2.4,0.3,4.2c2.1,6.9,4.4,13.9,7,21c1.3,3.7,2.7,7.3,4.2,11
						c0.1,0.4,0.3,0.8,0.5,1.2c0.4,1,0.9,1.9,1.3,2.8c0.9,1.6,1.8,2.5,2.7,2.8c1.1,0.3,2,0,2.8-0.7c0.8-0.7,1.1-1.6,1.1-2.8
						c-0.1-0.7-0.6-1.9-1.5-3.6c-0.7-1.3-1.7-3.4-2.7-6.2c-0.9-2.3-1.7-4.6-2.6-6.9c-2-5.5-3.9-11.1-5.8-17
						c-0.4-1.5-0.7-2.5-0.7-2.8c0-0.6,0-1.1,0-1.4C892.9,239.8,892.8,239.3,892.7,239z"/>
					<path class="st4" d="M886.5,243.1c-0.6-1.9-0.7-3.3-0.3-4.2c0,0,0-0.1,0.1-0.1c-0.6,0-1.4,0.1-2.3,0.2c-3.2,0.5-5.6,1.1-7,1.9
						c-0.5,0.3-1.5,0.9-3,2c-0.5,0.4-0.8,0.7-1.1,1c0.4,0.2,0.8,0.4,1,0.8c0.4,0.4,0.6,1,0.8,1.7c0.1,0.4,0.2,1,0.4,1.9
						c0.1,0.7,0.5,1.9,1.1,3.6c0.9,2.4,1.9,6.1,3,11.1c0.5,2.2,0.9,4.3,1.2,6.3c0,0.1,0.1,0.2,0.1,0.3c0.1,0,0.2,0,0.3,0.1
						c0,0.2-0.1,0.4-0.2,0.7c0.2,1.5,0.5,2.9,0.7,4.3c0.2,1.1,0.4,2.2,0.6,3.5c0.5,0.2,0.9,0.3,1.4,0.3c1,0,1.8-0.4,2.6-1.2
						c0.7-0.7,1.1-1.6,1.1-2.6c0.3,0.7,0.9,1.2,1.8,1.6c0.5,0.2,1.3,0.5,2.4,0.7c1.4,0.4,2.3,0.6,2.8,0.6c1,0.2,1.9,0.1,2.7-0.2
						c0.6-0.2,1.1-0.6,1.5-1c-0.2-0.4-0.3-0.8-0.5-1.2c-1.5-3.7-2.9-7.4-4.2-11C891,257,888.6,250,886.5,243.1z"/>
				</g>
			</g>
		</g>
	</g>
	<g transform="matrix( 0.9999847412109375, 0.00225830078125, -0.00225830078125, 0.9999847412109375, 675,546.95) ">
		<g transform="matrix( 1, 0, 0, 1, 0,0) ">
			<g>
				<g id="waist_0_Layer0_0_FILL">
					<path class="st2" d="M256.1-11c1-1.5,2-3.1,2.9-4.6c0.4-0.6,0.8-1.2,1.2-1.7c-4.5-7.7-11.7-14.7-21.7-21.2
						c-2-1.3-3.8-2.2-5.3-2.8c-2-0.8-3.9-1-5.7-0.7c-2.6,0.4-5.4,2.2-8.2,5.4c-4.4,5-8.3,11.5-11.8,19.5c-0.5,1.1-1.4,3.5-2.8,7
						c-8.2-2.1-18.2-4.2-29.8-6.1c-20.1-3.4-33.7-6-40.7-7.8c-2.2-0.6-5.6-1.4-10.1-2.6c-3.9-0.9-7.3-1.5-10.2-1.7
						c-4.9-0.3-8.2,0.9-9.8,3.4c-1.1,1.7-1.3,4.4-0.7,8.1c2.2,12.7,6.3,24.8,12.3,36.4c5.1,9.9,11.4,18.8,18.7,26.8
						c0.2-0.3,0.4-0.7,0.7-1c0.5-0.4,1.1-0.7,1.7-0.9c0.5-0.1,1.2-0.1,1.9-0.1c0.4,0,1,0.1,1.9,0.3c0.7,0.1,1.3,0.2,2,0.3
						c12.5,1.9,24.5,1.8,35.8-0.2c0.1,0,0.2,0,0.2-0.1l15.5-7.1c9.5-4.3,16.8-8,22-11c8.8-5.2,16.8-11.3,24.1-18.5
						C246.2,2.2,251.5-4.2,256.1-11z"/>
					<path d="M265.9-19.1c-0.5-0.5-1.2-0.7-2-0.7c-0.7,0-1.4,0.3-2.1,0.7c-0.5,0.3-1,0.9-1.6,1.8c-0.4,0.5-0.8,1-1.2,1.7
						c-1,1.6-1.9,3.1-2.9,4.6c-4.6,6.8-9.9,13.2-15.9,19.1c-7.3,7.2-15.3,13.4-24.1,18.5c-5.2,3-12.5,6.7-22,11l-15.5,7.1
						c-0.1,0-0.1,0-0.2,0.1c-11.3,2-23.3,2.1-35.8,0.2c-0.7-0.1-1.3-0.2-2-0.3c-0.9-0.1-1.5-0.2-1.9-0.3c-0.7,0-1.3,0-1.9,0.1
						c-0.6,0.2-1.2,0.5-1.7,0.9c-0.3,0.3-0.6,0.6-0.7,1c-0.1,0.2-0.1,0.4-0.2,0.6c-0.1,1,0.3,1.9,1.3,2.7c-0.1,0.3-0.2,0.6-0.2,0.9
						c-0.1,0.6,0,1.2,0.3,1.8c0.4,0.7,1.1,1.4,2.1,2c4.7,3.1,10.3,5.4,16.7,6.9c0,0.1,0.1,0.1,0.1,0.2c0.2,0.7,0.7,1.3,1.3,1.8
						c0.9,0.7,2.3,1.2,4.1,1.4c6.8,1,14.2,0.4,22.3-1.8c5.7-1.6,12.8-4.3,21.4-8.2c13-5.9,23.5-11.7,31.5-17.1
						c10.2-6.9,18.3-14.6,24.3-22.8c0.5-0.3,1-0.9,1.4-1.6c0.2-0.4,0.4-0.9,0.6-1.6c0.3-0.6,0.5-1.2,0.6-1.7
						c0.1-0.4,0.1-0.8,0.1-1.2l0.4-1.8c0.4-1.6,0.5-2.8,0.3-3.6c-0.3-1.4-1-2.5-2.2-3.2c0.6-0.7,0.7-1.6,0.4-2.6
						c-0.3-0.9-0.9-1.5-1.6-1.9c2-2.7,3.9-5.6,5.7-8.5C267.1-15.8,267.3-17.8,265.9-19.1 M157.1,54.8c-0.1,0.1-0.2,0.1-0.3,0.2
						c-0.2,0-0.5-0.1-0.7-0.2C156.4,54.8,156.8,54.8,157.1,54.8z"/>
				</g>
			</g>
		</g>
	</g>
	<g transform="matrix( 1, 0, 0, 1, 28.75,-247.8) ">
		<g transform="matrix( 1, 0, 0, 1, 0,0) ">
			<g>
				<g id="torso_0_Layer0_0_FILL">
					<path d="M1015.7,511.1c-4.1-8.8-9.6-15.8-16.5-21.1c-3.2-2.5-6.5-4.3-9.8-5.4c-3.8-1.3-7.4-1.5-10.8-0.6
						c-1,0.2-1.9,0.7-2.7,1.4c-0.1-0.1-0.2-0.1-0.3-0.2c-0.6-0.2-1.5-0.2-2.8,0.1c-5.4,1.2-10.5,3.1-15.3,5.8
						c-4.9,2.7-9.2,6-12.9,9.9c-1.5,1.6-3.1,3.6-5.1,6.1c-2.1,2.8-3.7,4.9-4.8,6.2c-4,5.2-12.7,14.4-25.9,27.7
						c-11.2,11.2-19.2,20.8-24.2,28.8c-3.2,5.2-4.7,9.7-4.5,13.4c0.1,2.7,1.2,5.9,3.3,9.6c4.1,7.4,9.1,14,15.2,19.7
						c-5.8,20-15.7,40.3-29.8,60.9c-6,8.7-12.9,17.8-20.7,27.3c-6.3,7.6-13.9,16.2-22.7,25.8c-1.6,1.8-2.5,3.3-2.7,4.5
						c-0.1,0.8,0,1.8,0.4,2.8c0,0,0.4,0.9,1.1,2.7c1.8,4.3,2,8.7,0.6,13.2c-0.1,0.5-0.4,1.2-0.7,2.2c-0.3,0.9-0.4,1.6-0.5,2.3
						c0,0.9,0.2,1.6,0.6,2.3c0.4,0.7,1,1.2,1.8,1.3c0.8,0.2,1.5,0.1,2.3-0.5c0.5,0.4,1,0.8,1.6,1.2c18.9,13.3,36.8,27.8,53.9,43.7
						c1.5,1.4,2.8,2.5,3.7,3.1c1.5,1,3,1.5,4.4,1.5c1,0,2.1-0.2,3.4-0.6c0.7-0.2,1.8-0.6,3.3-1.2c2.2-0.8,4.6-1.2,7-1.1
						c0.6,0,1.4,0,2.5,0.1c1,0,1.8-0.1,2.5-0.3c0.8-0.3,1.5-0.7,2-1.4c0.2-0.4,0.4-0.7,0.5-1.1c0.7-0.3,1.5-0.7,2.3-1.4
						c10-7.8,19.1-19.2,27.1-34.4c4.6-8.8,10.9-22.5,18.9-41c2.2-4.7,5.3-10.8,9.2-18.2c4.9-9.4,8-15.4,9.3-18
						c15.1-29.9,27.1-62.1,36.1-96.6c2.7-10.4,4.6-19.3,5.7-26.7c1.4-9.8,1.8-18.9,1-27.1C1021.8,527.9,1019.5,519.1,1015.7,511.1
						 M999.1,500.7c1.5,1.4,3.1,3.5,4.8,6.4c3.8,6.2,5.9,11.8,6.5,16.8c0.4,3.4,0.2,6.7-0.6,10c-0.6,2.4-1.6,5-3,7.7
						c-1,1.9-2.4,4.3-4.3,7.2c-2.2,3.4-4.2,5.8-5.9,7.2c-2.5,2.1-5.8,3.5-9.9,4.2c-2.7,0.5-6.5,0.7-11.2,0.6
						c-5.2-0.1-9.4-0.4-12.6-1c-4.6-0.9-8.4-2.4-11.4-4.5c-2.2-1.6-4.2-3.6-5.9-5.9c-1.5-2.1-2.4-4-2.9-5.8
						c-0.9-3.2-0.7-6.8,0.6-10.7c0.7-2.2,2.3-5.5,4.8-9.8l2.9-5c2.2-3.7,3.7-6,4.5-7.1c1.9-2.6,4.2-5.2,7.1-7.8c1.8-1.7,4.4-4,8-6.9
						c2-1.7,3.6-2.5,5-2.6c0.3,0,0.9,0.1,1.8,0.2c0.7,0.1,1.4,0.2,1.8,0.1c0.6-0.1,1.6-0.4,2.8-0.9c1-0.2,2.1-0.2,3.4,0.1
						c0.8,0.2,1.9,0.6,3.3,1.3c2.5,1.2,4.4,2.1,5.6,2.8C996.1,498.2,997.8,499.4,999.1,500.7 M1010,548.4c1.2-2,2.1-3.5,2.7-4.6
						c1.2-2.3,2.2-4.4,2.8-6.4c0-0.1,0.1-0.1,0.1-0.2c0.7,5.7,1,11.5,0.7,17.3c-0.5,8.1-2.3,18.4-5.4,30.8
						c-9.5,37.3-23,73-40.5,107.1c-4.7,8.9-8.1,15.5-10.5,19.9c-4.1,7.9-7.4,14.6-9.9,20.2c-1.7,4-4.2,9.9-7.4,17.9
						c-3,7.1-5.8,12.9-8.5,17.4c-5.6,9.5-12.7,17.6-21.4,24.4c-2,1.6-3.2,2.9-3.7,4c-0.1,0.3-0.2,0.6-0.3,0.9
						c-0.4,0-0.7-0.1-1.1-0.1c-2.2-0.1-3.9-0.1-5.1,0c-1,0.1-1.9,0.2-2.7,0.3c-0.8,0.1-1.6,0.3-2.3,0.5c-1.3,0.4-2.3,0.7-2.9,0.9
						c-1.2,0.3-2.2,0.4-3,0.2c-0.4-0.1-0.8-0.2-1.2-0.5c-0.9-0.4-1.8-1.1-2.9-2.1c-15.4-14-30.4-26.2-45-36.9c-3-2.1-5.3-4-7.1-5.6
						c-0.8-0.7-1.4-1.4-2-2c-0.7-0.8-1.3-1.4-1.8-1.8c0.5-2,0.7-4,0.7-6c0-1.6-0.1-3.1-0.3-4.6c-0.1-0.2-0.1-0.5-0.2-0.7
						c-0.1-0.6-0.2-1.1-0.3-1.7c-0.1-0.5-0.3-1-0.4-1.5c-0.5-1.7-0.7-3-0.6-3.7c0-0.1,0.1-0.3,0.2-0.5c0.3-0.9,0.9-1.8,1.9-2.9
						c18.1-20.5,32.2-38.1,42.3-53.1c12.6-18.6,22-36.8,28.2-54.5c0.4-1.3,0.9-2.6,1.3-3.8c0,0,0.1,0.1,0.1,0.1
						c2.2,1.6,3.9,2,5.2,1.1c0.6-0.4,1-1,1.1-1.9c0.1-0.7-0.1-1.5-0.4-2.2c-0.5-0.8-1.5-1.9-3.1-3.1c-0.6-0.5-1.1-0.9-1.7-1.3
						c-0.1-0.1-0.1-0.3-0.2-0.4c-0.5-1.3-1.4-2-2.5-2.1c-0.1,0-0.2,0-0.3,0c-4.5-4.1-8.4-8.8-11.6-14c-2.8-4.3-4.1-8.2-3.9-11.6
						c0.1-1.6,0.6-3.4,1.5-5.4c0.5-1.1,1.1-2.3,1.9-3.6c2.7-4.4,6.4-9.2,10.9-14.2c1.5-1.7,5.7-6,12.5-12.9
						c10.5-10.5,20.6-21.8,30.4-33.7c3.2-3.8,5.5-6.5,7.1-8.1c2.6-2.6,5.3-4.7,7.9-6.1c-2.9,2.7-5.2,5.2-7.1,7.5
						c-2.9,3.5-6.4,9.1-10.6,16.6c-2.3,4.1-3.9,7.3-4.5,9.6c-1.6,5.3-1.4,10.6,0.5,15.7c1.3,3.5,3.4,6.7,6.4,9.6
						c2.7,2.7,5.9,4.9,9.6,6.6c6.1,2.8,13.7,4.3,22.7,4.3c10.7,0.1,18.9-2.2,24.5-6.9c0.1-0.1,0.2-0.2,0.3-0.3c1.5-1.3,3-2.9,4.4-5
						c0.8-1.1,2-2.9,3.7-5.6C1009.4,549.4,1009.7,548.9,1010,548.4z"/>
					<path class="st2" d="M844.1,730.9c-0.7-0.1-1.6-0.1-2.6,0c-1.1,0.2-2,0.3-2.6,0.4c-2.4,0.4-4.8,0.4-7.3,0.2
						c-0.4,0-0.7-0.1-1-0.1c-0.1,0.2-0.1,0.3-0.2,0.5c-0.1,0.8,0.1,2,0.6,3.7c0.1,0.5,0.3,1,0.4,1.5c0.1,0.5,0.2,1.1,0.3,1.7
						c0,0.2,0.1,0.4,0.2,0.7c0.2,1.5,0.3,3.1,0.3,4.6c0,2-0.2,4-0.7,6c0.5,0.4,1,1,1.8,1.8c0.5,0.6,1.2,1.3,2,2
						c0.3-0.8,0.5-1.8,0.6-2.9c0.1-1.2,0.2-2,0.3-2.6c0.2-1,0.5-1.8,0.9-2.4c0.5-0.7,1.4-1.5,2.7-2.1c1.9-1,2.9-1.6,3.1-1.7
						c0.9-0.6,1.9-1.8,3.2-3.5c0.7-0.9,1.1-1.7,1.4-2.2c0.4-0.9,0.6-1.7,0.4-2.5c-0.1-0.8-0.6-1.5-1.4-2.1
						C845.8,731.4,845,731.1,844.1,730.9 M889.2,578.2c0-0.7-0.3-1.4-0.8-2c-0.9,2-1.4,3.8-1.5,5.4c-0.2,3.4,1.1,7.2,3.9,11.6
						c3.2,5.2,7.1,9.9,11.6,14c0.1,0,0.2,0,0.3,0c1.1,0.1,2,0.8,2.5,2.1c0,0.1,0.1,0.3,0.2,0.4c0.6,0.4,1.1,0.9,1.7,1.3
						c1.6,1.2,2.7,2.3,3.1,3.1c0.4,0.7,0.5,1.4,0.4,2.2c-0.1,0.8-0.5,1.4-1.1,1.9c-1.2,0.9-3,0.5-5.2-1.1c0,0-0.1-0.1-0.1-0.1
						c-0.4,1.3-0.9,2.6-1.3,3.8c0.3,0,0.6-0.1,1-0.1c0.9,0,1.9,0.4,3,1c0.6,0.4,1.5,1,2.8,1.7c1.2,0.6,2.5,0.9,3.9,1
						c2.6,0.1,5.2-0.8,8.1-2.8c2-1.3,2.9-2.7,2.8-4.2c0-0.8-0.4-1.5-1.1-2c-0.7-0.6-1.4-0.9-2.2-0.9c-0.3,0-1,0.1-2,0.4
						c-0.8,0.2-1.4,0.3-1.9,0.2c-0.4-0.1-1.1-0.4-2.1-1c-0.4-0.3-2-1.1-4.7-2.5c-2.5-1.3-4.8-3-6.9-5c-1.2-1.1-2.7-2.7-4.4-4.6
						c-2.2-2.5-3.7-4.5-4.6-6c-0.7-1.2-1.4-2.8-2.1-5c-0.9-2.6-1.6-4.3-1.9-5.1c-0.7-1.7-1.2-2.7-1.2-2.8c-0.4-1.1-0.5-2-0.4-2.9
						C889.2,579.4,889.2,578.7,889.2,578.2 M1012.7,543.8c-0.6,1.1-1.5,2.6-2.7,4.6c-0.3,0.5-0.6,1-1,1.5c-1.7,2.6-3,4.5-3.7,5.6
						c-1.5,2-2.9,3.7-4.4,5c-0.1,0.1-0.2,0.2-0.3,0.3c-2.8,11.2-6.5,23.4-10.9,36.6c-3.2,9.5-8.4,23.6-15.5,42.5
						c-13.8,36.5-25.1,63.7-33.8,81.7c-14.3,29.4-30.2,53.9-47.5,73.5c-1.2,1.3-2,2.5-2.5,3.5c0.4,0.2,0.8,0.4,1.2,0.5
						c0.8,0.1,1.8,0.1,3-0.2c0.6-0.1,1.6-0.4,2.9-0.9c0.7-0.2,1.5-0.4,2.3-0.5c0.9-0.1,1.8-0.2,2.7-0.3c1.2-0.1,3-0.1,5.1,0
						c0.4,0,0.8,0,1.1,0.1c0-0.3,0.1-0.6,0.3-0.9c0.5-1.1,1.7-2.4,3.7-4c8.6-6.8,15.7-15,21.4-24.4c2.7-4.5,5.6-10.3,8.5-17.4
						c3.2-8,5.7-13.9,7.4-17.9c2.5-5.6,5.7-12.3,9.9-20.2c2.3-4.4,5.8-11,10.5-19.9c17.5-34.1,31-69.8,40.5-107.1
						c3.1-12.4,4.9-22.7,5.4-30.8c0.3-5.8,0.1-11.6-0.7-17.3c0,0,0,0.1-0.1,0.2C1014.9,539.4,1013.9,541.5,1012.7,543.8z"/>
					<path class="st5" d="M951.3,503.7c-1.6,1.6-3.9,4.3-7.1,8.1c-9.8,11.9-20,23.1-30.4,33.7c-6.8,6.9-11,11.2-12.5,12.9
						c-4.6,5-8.2,9.8-10.9,14.2c-0.7,1.2-1.4,2.4-1.9,3.6c0.5,0.6,0.8,1.2,0.8,2c0,0.5-0.1,1.2-0.3,2.1c-0.1,0.9,0,1.8,0.4,2.9
						c0.1,0.1,0.5,1,1.2,2.8c0.4,0.8,1,2.5,1.9,5.1c0.7,2.1,1.5,3.8,2.1,5c0.9,1.6,2.4,3.6,4.6,6c1.7,2,3.2,3.5,4.4,4.6
						c2.2,2,4.5,3.6,6.9,5c2.7,1.4,4.3,2.2,4.7,2.5c1,0.6,1.7,0.9,2.1,1c0.5,0.1,1.1,0.1,1.9-0.2c1-0.2,1.7-0.4,2-0.4
						c0.8,0,1.6,0.3,2.2,0.9c0.7,0.6,1,1.2,1.1,2c0.1,1.5-0.8,2.9-2.8,4.2c-2.8,2-5.5,2.9-8.1,2.8c-1.4-0.1-2.7-0.4-3.9-1
						c-1.3-0.7-2.2-1.3-2.8-1.7c-1.1-0.6-2.2-1-3-1c-0.4,0-0.7,0.1-1,0.1c-6.2,17.7-15.6,35.9-28.2,54.5
						c-10.1,14.9-24.2,32.6-42.3,53.1c-1,1.1-1.6,2-1.9,2.9c0.3,0,0.6,0.1,1,0.1c2.4,0.3,4.8,0.2,7.3-0.2c0.6-0.1,1.5-0.2,2.6-0.4
						c1-0.1,1.9-0.1,2.6,0c0.9,0.1,1.7,0.5,2.5,1c0.8,0.6,1.2,1.3,1.4,2.1c0.1,0.7,0,1.6-0.4,2.5c-0.2,0.6-0.7,1.3-1.4,2.2
						c-1.3,1.7-2.3,2.9-3.2,3.5c-0.2,0.1-1.2,0.7-3.1,1.7c-1.3,0.7-2.2,1.4-2.7,2.1c-0.4,0.6-0.7,1.4-0.9,2.4
						c-0.1,0.6-0.2,1.4-0.3,2.6c-0.1,1.1-0.3,2.1-0.6,2.9c1.8,1.6,4.1,3.5,7.1,5.6c14.6,10.6,29.6,22.9,45,36.9c1.1,1,2,1.7,2.9,2.1
						c0.5-1,1.3-2.2,2.5-3.5c17.3-19.6,33.1-44.1,47.5-73.5c8.8-18,20-45.2,33.8-81.7c7.2-18.9,12.3-33.1,15.5-42.5
						c4.5-13.2,8.1-25.4,10.9-36.6c-5.6,4.7-13.8,7-24.5,6.9c-9-0.1-16.6-1.5-22.7-4.3c-3.7-1.7-6.9-3.9-9.6-6.6
						c-2.9-2.9-5-6.1-6.4-9.6c-2-5.2-2.1-10.4-0.5-15.7c0.7-2.3,2.2-5.5,4.5-9.6c4.2-7.5,7.7-13.1,10.6-16.6
						c1.9-2.3,4.2-4.8,7.1-7.5C956.6,499.1,954,501.1,951.3,503.7z"/>
					<path class="st3" d="M1003.9,507c-1.7-2.8-3.3-4.9-4.8-6.4c-1.3-1.3-3-2.5-5-3.6c-1.2-0.6-3-1.6-5.6-2.8
						c-1.4-0.6-2.5-1.1-3.3-1.3c-1.2-0.3-2.4-0.4-3.4-0.1c-1.2,0.5-2.1,0.8-2.8,0.9c-0.5,0.1-1.1,0-1.8-0.1
						c-0.9-0.1-1.4-0.2-1.8-0.2c-1.4,0-3,0.9-5,2.6c-3.6,2.9-6.2,5.2-8,6.9c-2.9,2.7-5.2,5.3-7.1,7.8c-0.8,1.1-2.3,3.4-4.5,7.1
						l-2.9,5c-2.5,4.3-4.1,7.6-4.8,9.8c-1.3,4-1.5,7.5-0.6,10.7c0.5,1.7,1.5,3.7,2.9,5.8c1.7,2.3,3.7,4.3,5.9,5.9
						c3.1,2.2,6.9,3.7,11.4,4.5c3.2,0.6,7.4,0.9,12.6,1c4.7,0.1,8.4-0.1,11.2-0.6c4.1-0.7,7.3-2.1,9.9-4.2c1.7-1.4,3.6-3.8,5.9-7.2
						c1.9-2.8,3.3-5.2,4.3-7.2c1.4-2.7,2.4-5.3,3-7.7c0.8-3.3,1-6.6,0.6-10C1009.9,518.8,1007.7,513.2,1003.9,507z"/>
				</g>
			</g>
		</g>
	</g>
	<g transform="matrix( 1, 0, 0, 1, -151.1,15.05) ">
		<g transform="matrix( 1, 0, 0, 1, 0,0) ">
			<g>
				<g id="arm_0_Layer0_0_FILL">
					<path class="st4" d="M1185.6,272c-0.2,0-0.4,0.1-0.7,0.2c-1.1,0.4-2.2,1.2-3.2,2.2c-7.6,8-18.7,14.6-33.4,19.9
						c-3.9,1.4-10.3,3.5-19.2,6.1c-8.4,2.6-14.8,4.6-19.1,6.2c-11.9,4.4-24.4,10.8-37.4,19.1c-8.9,5.6-20.4,13.8-34.5,24.5
						c-17,12.8-28.4,21.2-34.2,25.3c-13.1,9.1-25.2,16.2-36.4,21.5c-6.3,3-16.9,7.2-31.8,12.8c-13.8,5.1-24.4,9.5-31.6,13.2
						c-8.8,4.5-18,10.3-27.4,17.3c-6,4.4-12.8,9.9-20.2,16.3c-1.6,1.4-3.3,2.8-5,4.3c-0.9,0.8-1.5,1.5-1.9,2.2
						c-0.5,0.9-0.7,1.7-0.4,2.4c0.3,1,1,1.6,2.1,1.8c0.5-0.9,1.1-1.7,1.9-2.3c0.2-0.2,0.4-0.4,0.6-0.5c0.5-0.4,0.9-0.7,1.4-1.1
						c11.9-9.2,22.2-16.4,30.8-21.8c1.5-0.9,2.9-1.8,4.4-2.6c10.6-6.3,20.9-11.1,30.8-14.5c5.2-1.7,13.5-4,25-6.8
						c11-2.6,19.3-4.9,24.9-7c13-4.7,24.9-11.5,35.5-20.3c3.6-3,8.3-7.3,14.2-13.1c6.5-6.4,11.2-10.9,14-13.3
						c12-10.5,25.3-18.8,40.1-24.9c5.3-2.2,12.8-4.8,22.5-7.8c10.9-3.4,18.4-5.9,22.6-7.5c14.5-5.5,27.3-12.6,38.4-21.1
						c4-3.1,7.7-6.3,11-9.7C1176,286.4,1181.3,279.5,1185.6,272z"/>
					<path d="M1157.3,236.9c-0.9,0.1-2,0.6-3.2,1.4c-19.7,13.9-53.6,36.6-101.7,68.2c-43.7,28.7-77.4,51.7-101.1,68.9
						c-23.1,17.3-40.5,30.2-52.2,38.6c-20.4,14.7-38.4,26.5-54.2,35.4c-1.5,0.9-2.6,1.8-3.3,2.8c-0.9,1.3-1,2.4-0.4,3.5
						c0.6,1,1.7,1.4,3.1,1.2c0.8-0.1,1.7-0.4,2.6-0.9c0.4-0.2,0.8-0.4,1.2-0.6c1.3-0.8,2.7-1.7,4-2.5c19.5-12.3,43.1-28.5,70.9-48.7
						c42.8-31.1,67.3-48.9,73.7-53.3c15.2-10.5,41.9-28.2,80.2-53c34.1-22,60.6-39.8,79.4-53.3c0.1-0.1,0.2-0.2,0.3-0.3
						c1.4-1,2.4-2.2,3-3.6c0.7-1.6,0.5-2.8-0.7-3.5C1158.6,236.9,1158,236.8,1157.3,236.9 M1189.6,266.7c-1,0.5-1.9,1.5-2.7,3.1
						c-0.1,0.2-0.3,0.4-0.4,0.7c-0.3,0.5-0.6,1-0.9,1.5c-4.3,7.4-9.6,14.4-16.1,20.8c-3.4,3.3-7.1,6.6-11,9.7
						c-11.1,8.6-23.9,15.6-38.4,21.1c-4.2,1.6-11.8,4.1-22.6,7.5c-9.7,3-17.2,5.6-22.5,7.8c-14.8,6.2-28.1,14.5-40.1,24.9
						c-2.8,2.5-7.5,6.9-14,13.3c-5.9,5.8-10.6,10.2-14.2,13.1c-10.6,8.8-22.5,15.6-35.5,20.3c-5.7,2.1-14,4.4-24.9,7
						c-11.5,2.8-19.9,5-25,6.8c-9.9,3.4-20.2,8.2-30.8,14.5c-1.5,0.8-2.9,1.7-4.4,2.6c-8.6,5.3-18.9,12.6-30.8,21.8
						c-0.5,0.4-0.9,0.7-1.4,1.1c-0.2,0.2-0.4,0.4-0.6,0.5c-0.8,0.7-1.4,1.5-1.9,2.3c-0.2,0.3-0.3,0.6-0.4,0.9
						c-0.6,1.7-0.4,2.8,0.9,3.5c1.1,0.6,2.7,0.2,4.8-1.2c16.6-12,27.1-19.4,31.5-22.3c12.2-7.9,23.5-13.7,34.1-17.3
						c4.2-1.4,9.4-2.9,15.7-4.4c3.5-0.9,8.8-2.2,15.9-3.8c25.9-6.7,46.3-16.7,61-29.9c2.8-2.5,6.9-6.6,12.3-12.4
						c5.2-5.6,9.3-9.7,12.4-12.3c10.7-9.3,26.5-17.7,47.4-25.4c5.7-2.1,14.4-5.1,25.9-9.1c10.1-3.6,18.5-7.2,25.2-10.6
						c10-5,19.3-11,28-18.2c8.7-7.1,16.5-15.1,23.3-23.9c1.4-1.8,2.4-3.3,3-4.5c0.9-1.8,1.4-3.5,1.5-5.1c0.1-1.2-0.2-2.2-0.7-3.2
						c-0.6-1.1-1.5-1.6-2.5-1.5C1190.2,266.5,1189.9,266.6,1189.6,266.7z"/>
					<path class="st3" d="M1189.6,266.7c-0.1-0.7-0.5-1.4-1-2.1c-0.2-0.4-0.8-1-1.5-2l-6.3-7.3c-2.8-3.2-4.9-5.6-6.4-7.1
						c-2.4-2.6-4.7-4.8-6.8-6.6c-1.9-1.7-3.8-3.1-5.8-4.3c-1.6-1-2.9-1.3-3.9-0.8c-0.2,0.1-0.4,0.2-0.6,0.4c0.7-0.1,1.2,0,1.7,0.3
						c1.2,0.7,1.4,1.9,0.7,3.5c-0.6,1.4-1.6,2.6-3,3.6c-0.1,0.1-0.2,0.2-0.3,0.3c-18.8,13.5-45.3,31.3-79.4,53.3
						c-38.3,24.8-65,42.4-80.2,53c-6.3,4.4-30.9,22.2-73.7,53.3c-27.8,20.2-51.5,36.5-70.9,48.7c-1.4,0.9-2.7,1.7-4,2.5
						c-0.4,0.2-0.8,0.5-1.2,0.6c0,0.5,0,1,0.1,1.5c0.4,2.1,1.2,4,2.4,5.7c0.4-0.7,1.1-1.4,1.9-2.2c1.7-1.5,3.3-2.9,5-4.3
						c7.5-6.4,14.2-11.8,20.2-16.3c9.5-7,18.6-12.8,27.4-17.3c7.2-3.7,17.8-8.1,31.6-13.2c14.9-5.6,25.6-9.9,31.8-12.8
						c11.2-5.3,23.3-12.4,36.4-21.5c5.8-4.1,17.2-12.5,34.2-25.3c14.2-10.7,25.7-18.9,34.5-24.5c13.1-8.3,25.5-14.6,37.4-19.1
						c4.3-1.6,10.7-3.7,19.1-6.2c8.9-2.7,15.2-4.7,19.2-6.1c14.7-5.3,25.8-11.9,33.4-19.9c1-1.1,2.1-1.8,3.2-2.2
						c0.2-0.1,0.5-0.2,0.7-0.2c0.3-0.5,0.6-1,0.9-1.5c0.1-0.2,0.2-0.5,0.4-0.7C1187.7,268.2,1188.6,267.2,1189.6,266.7z"/>
				</g>
			</g>
		</g>
	</g>
	<g transform="matrix( 1, 0, 0, 1, -76.45,199.9) ">
		<g transform="matrix( 1, 0, 0, 1, 0,0) ">
			<g>
				<g id="hand_0_Layer0_0_FILL">
					<path class="st4" d="M774,276.8c-0.7,0-1.4,0.1-2,0.4c-1,0.5-2.2,1.6-3.7,3.4c-1.7,2-4.4,4.6-7.8,7.7c-2.6,2.3-4.4,3.9-5.6,4.9
						c-2.1,1.7-4.2,3.1-6.1,4.2c-0.4,0.2-1.1,0.6-2,1.1c-0.7,0.4-1.4,0.9-1.8,1.3c-0.5,0.5-1.3,1.3-2.2,2.4
						c-0.1,0.1-0.5,0.4-1.3,1.1c-0.5,0.4-0.8,0.8-1.1,1.1l-0.1,0.1c-0.4,0.5-0.8,1.1-1.2,1.9c0.2,0,0.4,0,0.6,0.1
						c0.6-0.2,1.2-0.5,1.8-0.7c6-2.5,10.6-4.5,13.6-6.2c4.8-2.7,8.7-5.7,11.6-9.1c1.8-2.1,3.7-5,5.7-8.6c1-1.9,2-3.1,2.9-3.7
						c0.3-0.2,0.6-0.3,0.9-0.4c-0.4-0.5-1-0.8-1.8-0.9C774.3,276.8,774.1,276.8,774,276.8 M748.5,310c-3,1.4-5.7,2.5-8.1,3.6
						c-0.8,2.6-1.8,6-3.1,10.1c-0.8,2.6-1.2,4.5-1,5.8c0.1,1,0.5,1.9,1.1,2.7c0.4,0.6,0.9,1,1.4,1.3c0.6-0.2,1.3-0.7,1.9-1.5
						c1.4-3,3.1-7.9,5.2-14.8C746.6,314.4,747.5,312.1,748.5,310z"/>
					<path d="M775.5,267.7c0.3,0.1-1,0.7-1,0.6c0.1-0.3-2.7-0.5-2.6-0.8c0-0.7-0.1-1.4-0.5-1.9c-0.5-0.7-1.4-1.1-2.5-1.1
						c-0.9,0-1.9,0.2-3,0.7c-1.5,0.7-3.1,1.7-4.9,3c-2,1.6-3.5,2.7-4.5,3.5c-3,2.3-7.3,5.3-12.9,9c-6.3,4-10.6,6.9-13.1,8.8
						c-2,1.5-4.7,3.6-8.1,6.2c-6.3,5.1-10.9,8.7-13.6,11c-5,4.1-9.3,8-13.1,11.6c-3.1,3-6.1,6.1-9,9.3c-0.9,0-1.8,0.4-2.6,1.3
						c-0.7,0.8-1.2,1.8-1.5,3c-0.6,2.3-0.4,4.6,0.4,6.8c0.9,2.3,2.3,3.9,4.4,4.6c1.9,0.7,4,0.5,6.3-0.5c1.6-0.7,3.5-2,5.8-3.7
						l18.1-14.3c2.9-2.3,5.2-4,6.8-4.9c1.5-0.8,4.1-1.9,7.8-3.3l-0.6,1.8c-0.7,2.5-1.2,4.1-1.3,4.8c-0.4,1.9-0.7,3.5-0.7,4.9
						c-0.2,3.9,0.7,7,2.7,9.3c1.1,1.3,2.5,2.2,4.1,2.8c1.7,0.6,3.3,0.6,4.9,0c1.8-0.7,3.5-2.2,5-4.5c1.7-2.7,3.5-7.5,5.4-14.1
						c1.8-6.5,3.7-11.1,5.7-14c0.6-0.8,1-1.4,1.3-1.8c0.2-0.4,0.5-0.8,0.6-1.1c0.3-0.2,0.6-0.4,1-0.5c3.6-2,6.5-4.2,8.8-6.4
						c1.3-1.3,3.2-3.5,5.8-6.7c1.5-1.9,2.6-3.5,3.3-4.6c1.1-1.8,1.8-3.5,2.1-5.1c0.2-1.2,0.1-2.2-0.4-2.9c-0.4-0.6-1.1-0.9-2-1
						c-0.5,0-1,0-1.4,0.2c-0.3,0.1-0.6,0.2-0.9,0.4c-0.9,0.6-1.9,1.8-2.9,3.7c-2,3.6-3.9,6.5-5.7,8.6c-2.9,3.3-6.7,6.4-11.6,9.1
						c-3,1.7-7.6,3.7-13.6,6.2c-0.6,0.2-1.2,0.5-1.8,0.7c-0.2-0.1-0.4-0.1-0.6-0.1c-0.1,0-0.3-0.1-0.4-0.1c-1,0-1.9,0.3-2.6,0.9
						c-0.3,0.3-0.6,0.7-0.9,1.1c-3,1.2-5.1,2-6.3,2.4c-3.5,1.2-6,2.2-7.7,3.1c-1.8,1-4.3,2.7-7.6,5.3l-20.2,16.4
						c-0.6,0.5-1.3,0.9-1.9,1.1c-0.7,0.2-1.3,0.1-1.8-0.4c-0.3-0.4-0.4-0.8-0.4-1.4c0.2-0.2,0.4-0.5,0.7-0.8
						c6.9-7.6,14.2-14.7,22-21.4l7.5-6.2c6.9-5.5,14.9-11.4,24-17.7c4.9-3.4,12.6-8.6,22.9-15.4c0.6-0.4,1.2-0.8,1.8-1.2
						c1.5-1,5.6-1.2,6.1-2 M740.3,313.5c2.5-1,5.2-2.2,8.1-3.6c-1,2.1-1.9,4.5-2.7,7.2c-2.1,6.9-3.9,11.9-5.2,14.8
						c-0.3,0.7-0.6,1.3-0.9,1.8c-0.3,0-0.6-0.1-1-0.3c-0.5-0.3-1-0.7-1.4-1.3c-0.6-0.8-1-1.7-1.1-2.7c-0.1-1.2,0.2-3.2,1-5.8
						C738.5,319.5,739.6,316.1,740.3,313.5z"/>
					<path class="st3" d="M768.3,272.1c-0.6,0.4-1.2,0.8-1.8,1.2c-10.3,6.9-18,12-22.9,15.4c-9.1,6.3-17.1,12.2-24,17.7l-7.5,6.2
						c-7.8,6.7-15.1,13.8-22,21.4c-0.2,0.3-0.5,0.6-0.7,0.8c-0.1,0.6,0.1,1.1,0.4,1.4c0.4,0.5,1,0.6,1.8,0.4
						c0.6-0.2,1.3-0.5,1.9-1.1l20.2-16.4c3.3-2.6,5.8-4.4,7.6-5.3c1.7-0.9,4.3-2,7.7-3.1c1.2-0.4,3.3-1.2,6.3-2.4
						c0.3-0.5,0.6-0.8,0.9-1.1c0.7-0.6,1.6-0.9,2.6-0.9c0.1,0,0.3,0,0.4,0.1c0.4-0.8,0.7-1.5,1.2-1.9l0.1-0.1
						c0.3-0.3,0.7-0.7,1.1-1.1c0.8-0.6,1.2-1,1.3-1.1c0.9-1.1,1.7-1.9,2.2-2.4c0.5-0.4,1.1-0.9,1.8-1.3c0.9-0.5,1.5-0.8,2-1.1
						c1.9-1.1,4-2.5,6.1-4.2c1.2-0.9,3-2.5,5.6-4.9c3.5-3.1,6.1-5.7,7.8-7.7c1.5-1.8,2.7-3,3.7-3.4c0.6-0.3,1.3-0.5,2-0.4
						c0.3-0.7,0.6-1.5,0.7-2.3c0.4-2.1,2.7-4.2,1.4-5.5"/>
				</g>
			</g>
		</g>
	</g>
	<g transform="matrix( 1, 0, 0, 1, -111.35,-172.9) ">
		<g transform="matrix( 1, 0, 0, 1, 0,0) ">
			<g>
				<g id="head_0_Layer5_0_FILL">
					<path d="M1137.2,376.8c-1,0.3-2.2,0.4-3.6,0.3c-1.7-0.1-3.3-0.2-4.7-0.4c-1.4-0.2-2.4-0.3-3-0.3c-0.1,0.3-0.2,0.6-0.4,0.9
						c-0.2,0.4-0.5,0.7-0.8,0.9c-0.1,0.1-0.2,0.2-0.4,0.3c-0.4,0.2-0.9,0.5-1.7,0.7c0,0.4,0.1,0.7,0.2,1.1c0.4,0.9,0.9,1.6,1.8,2.1
						c1.1,0.7,2.9,1,5.4,1l5.3,0.1c2.3,0,4-0.2,5-0.5c1.9-0.6,3.1-1.7,3.6-3.3c0.1-0.3,0.2-0.7,0.2-1.1c0-0.5-0.1-0.9-0.3-1.4
						c-0.4-0.9-1-1.4-1.8-1.6c-0.7-0.2-1.5-0.1-2.3,0.2C1138.5,376.4,1137.7,376.6,1137.2,376.8 M1102.7,233.8
						c-5.1-4.3-11-7.7-17.6-10.3c-8.1-3.1-16.7-4.9-25.8-5.3c-8.8-0.3-17.5,0.6-26.3,2.9c-16.5,4.3-31.8,12.8-45.8,25.5
						c-12.6,11.4-20.5,23.2-23.7,35.5c-1.9,7.3-1.9,14.4-0.3,21.6c1.8,7.5,5.3,13.6,10.5,18.3c7.8,7,19.7,10.5,35.7,10.6
						c1.6,0,3.1,0,4.5-0.1c0.9,0,1.8-0.1,2.6-0.1c1.6-0.1,3.2-0.3,4.6-0.5c4.2-0.6,7.9-1.7,11.2-3.1c1.8-0.8,3.1-1.7,3.7-2.7
						c0.5-0.7,0.7-1.4,0.7-2.2c0-0.9-0.3-1.6-0.8-2.1c-0.8-0.8-1.9-1-3.4-0.6c-0.5,0.1-1.1,0.4-1.9,0.7c-0.6,0.3-1.2,0.6-1.9,1
						c-2.8,1.5-6.1,2.6-9.9,3c-0.1,0-0.1,0-0.2,0.1c-1.3,0.2-2.7,0.3-4.4,0.3c-1.1,0-2.2,0-3.4,0c-1,0-2,0-3-0.1
						c-5.9-0.2-10.8-0.7-14.6-1.5c-5.3-1.1-9.7-3-13.2-5.7c-1-0.7-1.9-1.5-2.8-2.4c-3.1-3-5.4-6.8-6.9-11.4c-0.5-1.6-1-3.2-1.3-4.8
						c-0.8-4-0.8-8.1-0.2-12.3c1.6-10.1,6.9-20.1,16-30.1c6.3-7,13.5-13,21.5-18c8.1-5.1,16.6-8.9,25.6-11.5
						c8.5-2.5,16.8-3.8,25-3.8c8.9,0,17.1,1.5,24.7,4.4c8.1,3.2,15,7.9,20.8,14.2c3.3,3.6,5.9,7.4,7.9,11.4c0.1,0.2,0.2,0.5,0.3,0.7
						c1,2.1,1.8,4.2,2.5,6.4c0,0.1,0.1,0.2,0.1,0.4c0.3,1.1,0.6,2.1,0.8,3.2c0.5,2.2,1,3.7,1.5,4.5c0.5,0.7,1.1,1.2,1.8,1.4
						c0.8,0.3,1.6,0.3,2.2-0.1c1.5-0.8,1.9-2.6,1.2-5.6c0-0.2-0.1-0.3-0.1-0.5c-0.7-2.6-1.4-4.7-1.9-6.4c-0.2-0.6-0.3-1.1-0.5-1.5
						c-1-2.9-2-5.4-3.1-7.6C1112.4,243.7,1108.2,238.4,1102.7,233.8z"/>
					<path class="st6" d="M1015,332.6c0.5,0,1-0.1,1.5-0.2c-0.8,0.1-1.7,0.1-2.6,0.1C1014.2,332.6,1014.6,332.6,1015,332.6
						 M1102.6,243.2c-5.8-6.3-12.7-11-20.8-14.2c-7.6-3-15.8-4.4-24.7-4.4c-8.2,0-16.6,1.3-25,3.8c-9,2.6-17.5,6.5-25.6,11.5
						c-8,5.1-15.2,11.1-21.5,18c-9.1,10-14.4,20-16,30.1c-0.7,4.2-0.6,8.3,0.2,12.3c0.1,0.1,0.2,0.2,0.4,0.3
						c0.6,0.5,1.4,1.4,2.5,2.8c2.5,3.2,5,5.5,7.5,6.9c3.3,1.8,7.6,2.7,13,2.8c0.6,0,2.8-0.1,6.7-0.2c2.7-0.1,4.9-0.1,6.7,0.1
						c1,0,1.8,0,2.4-0.1c0.3,0,0.5-0.1,0.6-0.2c0.4-0.2,1-0.5,1.7-1c0.7-0.4,1.5-0.5,2.3-0.3c0.9,0.2,1.6,0.6,2.1,1.1
						c0.1,0.1,0.2,0.2,0.3,0.4c0.9-1.5,2.3-3.1,4.1-4.8c4.7-4,10.9-7.7,18.5-10.9c3.7-1.6,9.1-3.7,16-6.3c-7.2,6-13.8,12.1-20,18.4
						c-4.7,4.8-7.5,7.7-8.4,8.5c-2.4,2.2-4.7,4.1-7,5.7c-0.8,0.6-1.6,1.1-2.4,1.5c-0.7,0.4-1.3,0.8-1.8,1.1c1.6-0.1,3.1-0.2,4.4-0.3
						c0.1,0,0.1,0,0.2-0.1c3.9-0.5,7.2-1.5,9.9-3c0.7-0.4,1.3-0.7,1.9-1c0.2-0.1,0.4-0.3,0.5-0.5c8.8-8.7,14.9-14.7,18.6-18
						c7.2-6.5,13.9-11.8,20.3-16c3.6-2.4,7.7-4.7,12.2-6.9c2.3-1.1,5.7-2.7,10.2-4.8c4.6-2.1,8.4-4.2,11.4-6.1
						c3.2-2,5.9-4.2,8.2-6.6c0.5-0.2,0.8-0.5,1.1-0.7c0.1-0.1,0.1-0.1,0.2-0.2c0-0.1-0.1-0.3-0.1-0.4c-0.6-2.2-1.5-4.3-2.5-6.4
						c-0.1-0.2-0.2-0.5-0.3-0.7C1108.5,250.5,1105.9,246.8,1102.6,243.2 M1163.2,311.6c0-0.1,0-0.1-0.1-0.2
						c-1-5.9-2.1-10.6-3.5-13.9c-1.3-3.2-3.6-7.1-6.7-11.6c-6.6-9.5-13.5-17-20.8-22.3c-4.1-3.1-7.8-4.7-11.1-4.9
						c-0.8-0.1-1.4,0-2.1,0.1c0.5,1.6,1.1,3.8,1.9,6.4c0,0.2,0.1,0.3,0.1,0.5c1.1,0.1,1.8,0.2,2.1,0.3c-0.8,0.6-1.4,1.5-1.7,2.6
						c-0.3,1-0.3,2.1-0.1,3.1c0.3,1.3,1.3,3.2,3,5.6c9,12.8,16.1,26.7,21.3,41.7c1.3,3.8,2.1,7,2.3,9.5c0.4,3.3,0,7.2-1,11.6
						c-2.3,9.6-6.8,18.1-13.5,25.4c-1.5,1.7-2.4,2.9-2.8,3.8c-0.3,0.8-0.4,1.6-0.3,2.3c0.1,0.5,0.2,0.9,0.4,1.3
						c0.5-0.2,0.9-0.5,1.4-0.8c0.4-0.3,0.9-0.6,1.3-0.9c5.7-4.4,10.9-10,15.5-17c3.8-5.7,7.4-12.6,10.8-20.6c1.2-2.8,2-5.2,2.5-7.2
						c0.6-2.7,0.6-5.1,0.1-7.3c-0.2-0.7-0.4-1.3-0.4-1.7c-0.1-0.7-0.2-1.2-0.1-1.7c0.1-0.8,0.6-1.5,1.4-2c0.1,0,0.1-0.1,0.2-0.1
						C1163.4,312.9,1163.3,312.3,1163.2,311.6z"/>
					<path class="st7" d="M1015.3,312.9c-0.1-0.1-0.2-0.3-0.3-0.4c-0.6-0.6-1.3-0.9-2.1-1.1c-0.9-0.1-1.6,0-2.3,0.3
						c-0.7,0.5-1.3,0.8-1.7,1c-0.2,0.1-0.4,0.1-0.6,0.2c-0.6,0.1-1.4,0.1-2.4,0.1c-1.7-0.1-4-0.1-6.7-0.1c-3.9,0.1-6.1,0.2-6.7,0.2
						c-5.4-0.1-9.7-1-13-2.8c-2.5-1.4-5-3.7-7.5-6.9c-1.1-1.4-1.9-2.3-2.5-2.8c-0.1-0.1-0.2-0.2-0.4-0.3c0.3,1.6,0.7,3.2,1.3,4.8
						c1.5,4.5,3.8,8.3,6.9,11.4c0.9,0.9,1.8,1.7,2.8,2.4c3.5,2.7,7.9,4.6,13.2,5.7c3.8,0.8,8.7,1.3,14.6,1.5c1,0,2,0.1,3,0.1
						c1.2,0,2.4,0,3.4,0c0.5-0.3,1.1-0.7,1.8-1.1c0.8-0.5,1.6-1,2.4-1.5c-0.8-3.5-1.5-6.1-2-7.7
						C1016.1,314.5,1015.7,313.6,1015.3,312.9 M1163.1,311.4c0,0.1,0,0.2,0.1,0.2c0.1,0.7,0.2,1.3,0.3,2c0,0-0.1,0.1-0.2,0.1
						c-0.8,0.5-1.2,1.2-1.4,2c-0.1,0.5,0,1,0.1,1.7c0.1,0.4,0.2,0.9,0.4,1.7c0.6,2.2,0.6,4.6-0.1,7.3c-0.4,1.9-1.2,4.3-2.5,7.2
						c-3.4,8-7,14.9-10.8,20.6c-4.7,6.9-9.8,12.6-15.5,17c-0.5,0.3-0.9,0.6-1.3,0.9c-0.8,0.6-1.7,1.2-2.7,1.9
						c-0.5-0.4-1-0.6-1.7-0.7c-0.6-0.1-1.2-0.1-1.8,0.2c-0.5,0.2-0.8,0.4-1.2,0.8c-0.1,0.1-0.3,0.1-0.4,0.2
						c-0.8,0.4-1.3,1.1-1.4,2.1c-0.1,0.5-0.1,0.9-0.1,1.3c-0.4,0.1-0.9,0.4-1.3,0.8c-0.5,0.5-0.9,1.1-1.1,1.8
						c-0.1,0.2-0.1,0.4-0.2,0.6c0.8-0.7,1.4-1.2,1.9-1.4c0.1,0,0.1,0,0.2-0.1c0.8-0.3,1.3-0.5,1.7-0.7c0.1-0.1,0.3-0.2,0.4-0.3
						c0.3-0.2,0.6-0.5,0.8-0.9c0.2-0.2,0.3-0.5,0.4-0.9c0.6-0.1,1.6,0,3,0.3c1.4,0.2,3,0.3,4.7,0.4c1.4,0.1,2.6,0,3.6-0.3
						c0.5-0.1,1.3-0.4,2.3-0.9c0.9-0.3,1.7-0.4,2.3-0.2c0.8,0.2,1.4,0.7,1.8,1.6c0.2,0.5,0.3,1,0.3,1.4c0.9-0.7,2-1.8,3.3-3.5
						c5.4-7.2,9.3-13.1,11.5-17.7c2.6-5.3,4.9-12.1,6.7-20.4c1.6-7.5,2.4-14.1,2.2-19.5c0-2-0.3-3.5-1-4.5c-0.5-0.7-1.1-1.2-1.8-1.5
						C1164.2,311.4,1163.7,311.3,1163.1,311.4z"/>
				</g>
			</g>
		</g>
		<g transform="matrix( 1, 0, 0, 1, 0,0) ">
			<g>
				<g id="head_0_Layer4_0_FILL">
					<path d="M1010,304.1c-0.9,1.1-0.9,2.9,0.1,5.5c2.7,7.4,4.9,14.8,6.5,22.1c0.5,2.6,1,5.4,1.5,8.4l0.5,4.1
						c0.3,2.7,0.4,5.2,0.4,7.4c0,1.6-0.1,4.1-0.2,7.4c0,2.8,0.4,5.2,1.2,7c0.4,1.1,1.1,2.4,2.1,3.8c1.9,2.8,3.8,4.5,5.7,5.1
						c1.1,0.4,2.7,0.6,5,0.6h5.1c0.6,0,1.1,0,1.6-0.1c0.4,0.5,0.9,1.1,1.5,1.7c1.4,1.4,2.3,2.3,2.6,2.7c0.8,1,2,3.3,3.5,6.9
						c1.2,3,2.7,5.1,4.3,6.1c0.3,0.2,1.2,0.7,2.8,1.5c1.1,0.6,2,1.2,2.5,1.8c0.3,0.3,0.7,1,1.2,2.1c0.4,0.9,0.9,1.5,1.3,1.9
						c0.4,0.3,1,0.6,2,0.9c1,0.3,1.6,0.6,2,0.8c0.1,0,0.1,0.1,0.2,0.2c0.7,0.5,1.5,1.5,2.3,2.9c0.9,1,2.5,2,4.8,3
						c1,0.4,1.9,0.8,2.8,1.1c1.8,0.7,3.4,1.2,4.9,1.6c2.8,0.8,5.5,1.1,8,1.1c3.5-0.1,7.1-1,10.9-2.7c9-4.1,16.7-11.2,23.1-21.2
						c2.6-4.1,5-8.8,7.3-14c1.7-4.1,3.6-9,5.6-14.9c1.1-3.3,0.8-5.4-0.9-6.3c-0.6-0.3-1.4-0.4-2.2-0.1c0,0-0.1,0-0.2,0.1
						c-0.7,0.2-1.2,0.7-1.7,1.2c-0.6,0.8-1.1,2.1-1.6,3.8c0,0.1-0.1,0.3-0.1,0.4c-0.9,3.4-2,6.7-3.2,9.9c-2.1,5.4-4.6,10.7-7.7,15.7
						c-1.7,2.8-3.5,5.3-5.3,7.6c-0.3,0.4-0.7,0.8-1,1.2c-2,2.3-4,4.2-6,5.8c-2.9,2.3-5.9,4-9,5.1c-0.2,0.1-0.4,0.1-0.6,0.2
						c-2.9,0.9-5.9,1.3-9.1,1.2c-3.1-0.1-6.1-0.7-8.9-1.9c-2.2-0.9-3.9-2-5.1-3.3l-1.6-1.9c-0.6-0.7-1.2-1.3-1.8-1.7
						c-0.1-0.1-0.3-0.2-0.5-0.3c-0.3-0.2-0.6-0.4-1.1-0.6c-0.7-0.3-1.2-0.6-1.5-1c-0.3-0.3-0.7-0.8-1.1-1.5c-0.4-0.8-0.7-1.3-1-1.6
						c-0.6-0.7-1.6-1.5-3.2-2.2c-1.7-0.8-2.8-1.4-3.4-1.9c-0.6-0.5-1.2-1.3-1.7-2.2c-0.2-0.4-0.6-1.3-1.1-2.5
						c-1.9-4.3-4.4-8.2-7.4-11.6c-1.5-1.7-2.9-2.5-4.2-2.3c-0.6,0.1-1,0.4-1.4,0.7c-1-0.2-2.3-0.2-3.9-0.1c-1.2,0.1-2.1,0.1-2.7,0.1
						c-1,0-1.9-0.2-2.6-0.6c-1.4-0.7-2.5-2.1-3.4-4.2c-1-2.6-1.4-5.9-1.4-10.1c0.1-6.6,0.1-10.1,0.1-10.4c-0.1-1.3-0.4-3.7-1.1-7.3
						l-2.4-12.4c-0.6-2.9-1.2-5-1.8-6.5c0-0.1-0.1-0.2-0.1-0.3c-1-2-1.7-3.5-2-4.5c-0.1-0.4-0.3-0.9-0.4-1.5
						c-0.1-0.2-0.1-0.5-0.2-0.8c-0.2-1.2-0.4-2-0.5-2.4c-0.5-2-1.4-3.3-2.5-4.1c-0.7-0.5-1.4-0.7-2.3-0.7
						C1011.2,303.3,1010.5,303.6,1010,304.1z"/>
					<path class="st3" d="M1071,313.6c-6.8-1.7-12.4-3.5-16.7-5.5c-2.5-1.1-4.3-1.8-5.3-1.9c-2-0.2-4.3,0.3-6.8,1.5
						c-1.5,0.7-3.6,1.9-6.4,3.6c-1.4,0.7-3.3,1.5-5.8,2.4c-2.7,1-4.7,1.7-5.8,2.2c-1.2,0.5-2,0.9-2.6,1.1c-0.5,0.2-1.1,0.4-1.5,0.5
						c0.6,1.5,1.2,3.6,1.8,6.5l2.4,12.4c0.6,3.5,1,5.9,1.1,7.3c0,0.3,0,3.8-0.1,10.4c0,4.2,0.4,7.5,1.4,10.1c0.9,2.1,2,3.5,3.4,4.2
						c0.7,0.4,1.6,0.6,2.6,0.6c0.6,0,1.5,0,2.7-0.1c1.6-0.1,2.9-0.1,3.9,0.1c0.4-0.4,0.9-0.6,1.4-0.7c1.3-0.2,2.7,0.6,4.2,2.3
						c3,3.4,5.5,7.3,7.4,11.6c0.5,1.2,0.9,2.1,1.1,2.5c0.5,0.9,1,1.7,1.7,2.2c0.6,0.5,1.7,1.1,3.4,1.9c1.6,0.7,2.6,1.4,3.2,2.2
						c0.2,0.3,0.5,0.8,1,1.6c0.4,0.7,0.7,1.2,1.1,1.5c0.4,0.3,0.9,0.6,1.5,1c0.5,0.2,0.9,0.4,1.1,0.6c0.7-0.2,1.5-0.3,2.2-0.2
						c0.7,0.1,2.1,0.7,4.1,1.8c3.1,1.6,6.2,2.3,9.3,2.2c2.9-0.1,6.3-1.1,10.2-2.9c3.2-1.4,5.7-2.9,7.5-4.4c1.8-1.5,3.7-3.6,5.8-6.4
						c3.2-4.4,5.9-9.2,8.2-14.6c1-2.4,1.6-4.4,1.8-6.2c0-1.9,0.1-3.3,0.3-4.2c0.2-0.7,0.5-1.4,0.9-1.9c0.5-0.6,1.1-1,1.7-1.1
						c0.7-0.1,1.3,0.1,2,0.5c0.3,0.2,0.5,0.4,0.7,0.7l1.6-5.6c0.7-2.7,1-4.6,1.1-5.7c0.1-1.4-0.2-3.5-0.7-6.1
						c-0.8-3.8-1.8-6.8-2.9-9.2c-1.6-3.2-3.6-5.7-6.2-7.3c-1.3-0.8-3-1.5-5.2-2.1c-2.5-0.6-4.3-1.2-5.6-1.6
						c-0.8-0.3-1.8-0.6-2.9-1.1c-0.1,0.3-0.3,0.6-0.5,0.8c-0.4,0.5-0.9,0.8-1.5,0.9c-0.7,0.1-1.5-0.1-2.4-0.7
						c-1-0.8-1.7-1.4-2.2-1.7c-1.1-0.8-2.9-1.5-5.3-2.2C1080.6,315.9,1074.8,314.6,1071,313.6z"/>
					<path class="st4" d="M1057.3,302.2c-2.1-0.9-3.2-1.4-3.3-1.4c-1.3-0.5-2.4-0.9-3.4-1.1c-2.8-0.7-5.8-0.4-8.9,0.7
						c-1,0.4-2.2,1-3.6,1.9c-0.8,0.5-2,1.2-3.5,2.1c-2.1,1.2-4.6,2.4-7.5,3.5c-1.6,0.6-4.2,1.5-7.7,2.7c-0.7,0.2-1.3,0.4-1.9,0.7
						c0.1,0.6,0.2,1.1,0.4,1.5c0.3,1.1,1,2.6,2,4.5c0,0.1,0.1,0.2,0.1,0.3c0.5-0.1,1-0.3,1.5-0.5c0.6-0.2,1.4-0.6,2.6-1.1
						c1.1-0.5,3.1-1.3,5.8-2.2c2.5-0.9,4.5-1.7,5.8-2.4c2.8-1.7,4.9-2.9,6.4-3.6c2.5-1.3,4.8-1.8,6.8-1.5c1.1,0.1,2.8,0.8,5.3,1.9
						c4.3,2,9.9,3.8,16.7,5.5c3.8,0.9,9.6,2.3,17.2,4.1c2.4,0.6,4.1,1.4,5.3,2.2c0.5,0.4,1.2,0.9,2.2,1.7c0.9,0.6,1.7,0.8,2.4,0.7
						c0.6-0.1,1.1-0.4,1.5-0.9c0.2-0.2,0.4-0.5,0.5-0.8c1.1,0.5,2.1,0.9,2.9,1.1c1.2,0.4,3.1,1,5.6,1.6c2.2,0.6,3.9,1.4,5.2,2.1
						c2.6,1.6,4.6,4,6.2,7.3c1.1,2.3,2.1,5.4,2.9,9.2c0.6,2.6,0.8,4.7,0.7,6.1c-0.1,1.1-0.4,3-1.1,5.7l-1.6,5.6
						c-0.2-0.3-0.5-0.5-0.7-0.7c-0.6-0.4-1.3-0.6-2-0.5c-0.6,0.1-1.2,0.5-1.7,1.1c-0.4,0.5-0.7,1.1-0.9,1.9
						c-0.2,0.9-0.3,2.3-0.3,4.2c-0.2,1.7-0.8,3.8-1.8,6.2c-2.3,5.3-5.1,10.2-8.2,14.6c-2.1,2.8-4,4.9-5.8,6.4
						c-1.8,1.5-4.3,3-7.5,4.4c-3.9,1.8-7.3,2.7-10.2,2.9c-3.1,0.1-6.2-0.6-9.3-2.2c-2-1-3.3-1.6-4.1-1.8c-0.8-0.1-1.5-0.1-2.2,0.2
						c0.2,0.1,0.4,0.2,0.5,0.3c0.6,0.4,1.2,0.9,1.8,1.7l1.6,1.9c1.2,1.2,2.9,2.3,5.1,3.3c2.8,1.1,5.8,1.8,8.9,1.9
						c3.1,0.1,6.2-0.3,9.1-1.2c0.2-0.1,0.4-0.1,0.6-0.2c1.5-0.7,3.2-1.6,5.1-2.7c1.5-0.8,2.8-1.6,3.9-2.3c2.1-1.6,4.1-3.6,6-5.8
						c0-0.1,0.1-0.1,0.2-0.2c0.2-0.3,0.5-0.7,0.7-1.1c0,0,0.1,0,0.1,0.1c1.8-2.2,3.6-4.8,5.3-7.6c3-5,5.6-10.3,7.7-15.7
						c1.2-3.2,2.3-6.5,3.2-9.9c0-0.1,0.1-0.2,0.1-0.4c0.5-1.7,1-3,1.6-3.8c0.5-0.6,1-1,1.7-1.2c0.6-2.2,0.9-4,0.9-5.3
						c0-1-0.2-2.5-0.5-4.4c-1.1-5.7-2.5-10.2-4.3-13.5c-2.5-4.7-5.7-8.1-9.7-10.1c-1.5-0.7-3.9-1.5-7.3-2.5
						c-3.2-0.9-5.6-1.7-7.2-2.6c-1.6-1-2.8-1.7-3.6-2c-1.5-0.6-2.8-0.6-4,0.1c-1.4-0.5-3.3-1-5.7-1.5c-7.5-1.5-12.7-2.7-15.7-3.4
						C1066.7,305.8,1061.6,304.1,1057.3,302.2z"/>
				</g>
			</g>
		</g>
		<g transform="matrix( 1, 0, 0, 1, 0,0) ">
			<g>
				<g id="head_0_Layer3_0_FILL">
					<path d="M1073.3,380.6c-0.6,0.2-1.3,0.7-1.9,1.3c-0.3,0.4-0.8,1.1-1.4,1.9c-0.9,1.2-2,2.2-3.4,3c-0.4,0.2-0.9,0.6-1.7,1.1
						c-0.6,0.4-1,0.9-1.3,1.4c-0.5,0.8-0.5,1.7-0.1,2.7c0.4,1,1,1.6,1.9,1.9c1.2,0.4,2.7-0.1,4.6-1.3c2.6-1.8,4.6-3.7,6.1-5.9
						c1-1.3,1.4-2.4,1.3-3.5c-0.1-0.9-0.6-1.7-1.5-2.2C1075.1,380.4,1074.2,380.3,1073.3,380.6z"/>
				</g>
			</g>
		</g>
		<g transform="matrix( 1, 0, 0, 1, 0,0) ">
			<g>
				<g id="head_0_Layer2_0_FILL">
					<path d="M1043.9,334c-0.1,0.1-0.7,0.6-1.5,1.3c-0.9,0.6-1.7,1.2-2.5,1.6c-0.7,0.4-1.6,0.7-2.5,1c-0.6,0.2-1,0.3-1.3,0.3
						l-1.3-0.3c-0.8-0.2-1.5,0-2.2,0.4c-0.7,0.4-1.2,1-1.4,1.8c-0.2,0.7-0.1,1.5,0.2,2.3c0.3,0.8,0.8,1.4,1.5,1.8
						c0.6,0.3,1.4,0.6,2.5,0.7c0.9,0.1,1.5,0.1,2,0c0.7-0.1,1.6-0.4,2.7-0.9c1.4-0.5,2.4-1,3.3-1.4c1-0.6,1.7-1.1,2.2-1.4
						c1.3-1,2.2-1.7,2.6-2c0.7-0.7,1.4-1.4,2.1-2.2c0.6-0.9,1-1.5,1.1-1.9c0.1-0.6,0.2-1.1,0.1-1.7c-0.2-0.7-0.6-1.3-1.2-1.8
						c-0.6-0.5-1.3-0.7-2-0.6c-1,0-2,0.5-2.8,1.5C1045,332.7,1044.5,333.2,1043.9,334z"/>
					<path class="st7" d="M1049.6,315.2c-0.9-0.5-2-0.7-3.5-0.5c-1.4,0.2-3.1,0.7-5.1,1.5c-3.7,1.5-7.3,3.5-10.8,5.8
						c-0.9,0.6-1.7,1.2-2.5,1.6c-1.1,0.7-1.7,1.1-1.8,1.2c-0.8,0.8-1.1,1.8-0.9,2.9c0.2,1.1,0.9,1.9,1.9,2.3c1,0.4,2.1,0.3,3.3-0.2
						c0.7-0.3,1.7-0.9,2.9-1.9c3-2.2,6.2-4,9.4-5.4c1.7-0.7,3.1-1.2,4.3-1.3c1.3-0.2,2-0.4,2.3-0.6c1.1-0.5,1.7-1.4,1.8-2.6
						S1050.6,315.9,1049.6,315.2z"/>
				</g>
			</g>
		</g>
		<g transform="matrix( 1, 0, 0, 1, 0,0) ">
			<g>
				<g id="head_0_Layer1_0_FILL">
					<path d="M1045.1,294.8c-1-0.8-2-1-3-0.6c-0.7,0.2-1.2,0.8-1.6,1.5c-0.3,0.7-0.4,1.5-0.3,2.3c0,0.2,0.1,0.3,0.1,0.5
						c-0.2,0.3-0.4,0.5-0.6,0.8c-1,1-2.5,2-4.5,3c-1.3,0.6-3.4,1.4-6.1,2.3c-2.7,0.9-4.9,1.6-6.4,2c-2.4,0.6-4.6,0.8-6.6,0.8
						c-1.1,0-2.5-0.2-4.4-0.4c-2.1-0.3-3.5-0.5-4.4-0.5c-0.2,0-0.5,0-0.7-0.1c-2.6,0-5.2,0.4-7.8,1.3c-1.7,0.6-3,1.4-3.8,2.3
						c-0.5,0.6-0.8,1.2-1,2c-0.1,0.8,0,1.5,0.3,2.1c0.2,0.4,0.6,0.8,1,1c0.2,0.1,0.4,0.2,0.6,0.3c0.7,0.3,1.4,0.3,2.1,0.2
						c0.4-0.1,0.9-0.3,1.5-0.7c0.6-0.4,1.1-0.7,1.4-0.9c1.6-0.9,3.6-1.2,6-1.1c1.4,0.1,3.5,0.3,6.3,0.7c2.7,0.3,5.2,0.2,7.6-0.1
						c1.5-0.2,3.4-0.6,5.6-1.3c3.9-1.1,7.1-2.1,9.6-3.1c3.4-1.4,6.2-3,8.5-5l0,0c7.4,8.2,15,13,22.7,14.4c1.9,0.3,4.7,0.5,8.4,0.6
						c3.8,0.1,6.6,0.2,8.4,0.5c3.1,0.4,5.9,1.3,8.5,2.7c2.8,1.5,5.1,3.3,6.9,5.6c1.3,1.7,2.2,2.7,2.6,3c0.2,0.1,0.4,0.3,0.6,0.4
						c0.7,1,1.4,1.6,2.2,1.8c0.6,0.1,1.2,0.1,1.9-0.2c0.3-0.1,0.6-0.3,0.8-0.5c0.1,0.5,0.3,0.9,0.6,1.4c0.5,0.7,1.1,1.1,1.9,1.3
						c0.2,0,0.6,0,0.9,0c0,0.1,0,0.2,0.1,0.3c0.3,1.2,0.7,3.1,1.1,5.7c0.6,3,1.4,5.8,2.2,8.6c1.8,5.7,4.1,10.2,6.7,13.3
						c0.5,0.6,1.3,1.5,2.3,2.7c0.9,1.1,1.4,2.1,1.8,3c0.2,0.6,0.3,1.4,0.5,2.4c0.2,1.2,0.3,2,0.4,2.5c0.2,0.9,0.7,1.6,1.3,2.2
						c0.6,0.6,1.4,0.9,2.1,0.9c0.6,0,1.2-0.3,1.7-0.8c0.5-0.5,0.8-1,1-1.7c0.1-0.4,0.2-0.8,0.2-1.3c0-0.7,0-1.6-0.2-2.6
						c-0.5-3.2-1.3-5.7-2.4-7.4c0,0-0.1-0.1-0.1-0.1c-0.4-0.7-1.1-1.6-2.1-2.6c-1.2-1.3-1.9-2.1-2.3-2.6c-1.3-1.6-2.5-3.8-3.5-6.5
						c-0.9-2.2-1.6-4.5-2.2-6.8c-0.7-2.9-1.4-6.3-1.9-10.2c-0.1-0.9-0.2-1.6-0.4-2.2c1.1-1,2-2.5,2.7-4.2c0.5-1.4,0.9-3.3,1.1-5.8
						c0.1-1.1,0.1-2,0-2.8c-0.1-0.7-0.4-1.7-1-3.1c-0.5-1.4-1-2.4-1.5-3.2c-1-1.6-2.8-3.3-5.3-4.9c-1.5-0.9-2.7-1.6-3.6-2
						c-1.4-0.5-2.9-0.8-4.5-0.8c-1,0.1-2,0.3-2.8,0.6c-0.7,0.4-1.5,0.9-2.3,1.8c-1,1.1-1.7,2.1-2.1,3.1c-0.1,0.1-0.2,0.1-0.3,0.2
						c-0.5,0.4-0.9,0.9-1.1,1.6c-0.2,0.6-0.3,1.3-0.2,2c0.1,0.6,0.5,1.7,1.3,3.4c-0.4-0.3-0.8-0.5-1.3-0.8c-3.5-2-7.1-3.3-10.9-3.8
						c-1.6-0.2-4.8-0.4-9.6-0.5c-4-0.1-7.1-0.5-9.4-1.1c-6.7-1.7-13-6.6-18.9-14.5C1046.4,296,1045.6,295.2,1045.1,294.8
						 M1103.6,315.8C1103.6,315.8,1103.5,315.8,1103.6,315.8c0.1-0.3,0.2-0.5,0.3-0.7c0.1-0.7,0.1-1.2,0.2-1.6
						c0.1-0.7,0.3-1.1,0.7-1.4c0.3-0.1,0.7-0.2,1.3-0.1c0.9,0.1,1.6,0.3,2,0.5l1.6,1.3c0.4,0.3,1,0.7,1.8,1.2
						c0.6,0.5,1.2,1.2,1.7,2.1c0.7,1.3,1.1,2.7,1.2,4.2c0.1,1.5-0.2,3-0.7,4.3c-0.1,0.2-0.1,0.3-0.2,0.5c0,0.1,0,0.1-0.1,0.1
						c-0.3,0.5-0.5,0.9-0.9,1.2c-0.3,0.2-0.7,0.5-1.2,0.7c-0.6,0.2-1,0.4-1.3,0.5c-0.7,0.3-1.3,0.7-1.8,1.2c0-0.2-0.1-0.5-0.1-0.7
						c-0.1-0.6-0.4-1.6-1-2.8c-0.3-0.7-0.9-2.2-1.7-4.5L1103.6,315.8 M1163,316c1,6.1,1.2,12.1,0.6,18.1c-0.7,6.2-2.2,12.1-4.5,17.6
						c-4.2,9.8-11.1,18.6-20.7,26.2c0.3,0.3,0.7,0.8,1.2,1.3c0.2,0.2,0.5,0.9,0.9,2c0.5,0.9,1.2,1,2.2,0.4c1.2-0.6,4.5-4,9.9-10.1
						c6.7-7.5,11.1-13.8,13.1-18.9c2.3-5.9,3.8-12.2,4.4-18.7c0.6-6.4,0.3-12.8-0.8-19.3c-2.1-12.4-7-24.2-14.7-35.3
						c-5.3-7.7-11-13.5-17-17.6c-3.5-2.4-7.2-4.2-11-5.4c-4.1-1.3-8.1-1.9-12.1-1.8c-1.1,0-2,0.2-2.8,0.4c-0.4,0.1-0.8,0.3-1.1,0.5
						c-0.6,0.4-1,0.8-1.3,1.4c-0.3,0.6-0.4,1.3-0.3,1.9c0.1,0.6,0.5,1,1,1.3c1,0.7,2.6,1,5,1c0.7,0,1.3,0,2,0c0.8,0,1.7,0.1,2.5,0.2
						c2,0.3,3.9,0.7,5.9,1.4c3.3,1.1,6.4,2.7,9.4,4.8c5.1,3.5,9.9,8.6,14.4,15.2C1156.4,293.4,1161.1,304.5,1163,316z"/>
					<path class="st3" d="M1103.5,315.8C1103.5,315.8,1103.6,315.8,1103.5,315.8l2,5.9c0.8,2.3,1.3,3.8,1.7,4.5
						c0.5,1.2,0.9,2.2,1,2.8c0,0.2,0.1,0.5,0.1,0.7c0.4-0.5,1-0.9,1.8-1.2c0.3-0.1,0.7-0.3,1.3-0.5c0.5-0.2,0.9-0.4,1.2-0.7
						c0.3-0.3,0.6-0.6,0.9-1.2c0,0,0,0-0.1-0.1c0,0,0.1,0,0.1-0.1c0.1-0.1,0.1-0.3,0.2-0.5c0.6-1.4,0.8-2.8,0.7-4.3
						c-0.1-1.5-0.5-2.9-1.2-4.2c-0.5-0.9-1-1.6-1.7-2.1c-0.8-0.5-1.4-0.9-1.8-1.2l-1.6-1.3c-0.4-0.2-1.1-0.4-2-0.5
						c-0.6-0.1-1,0-1.3,0.1c-0.4,0.2-0.7,0.7-0.7,1.4c-0.1,0.4-0.1,0.9-0.2,1.6C1103.8,315.3,1103.7,315.6,1103.5,315.8z"/>
					<path class="st6" d="M1111.6,255c-0.1,0-0.1-0.1-0.2-0.1c-1.5-0.7-2.5-1.3-3.3-1.7c-1.3-0.6-2.4-1-3.4-1.3
						c-1.6-0.4-3.3-0.6-5.3-0.6c-1.3,0-3.1,0.1-5.5,0.4c-7.8,0.9-13.7,1.7-17.7,2.5c-6.5,1.2-12.2,2.8-17.1,4.8
						c-4.9,2-11.4,5.7-19.4,10.9c-8.9,5.9-15.7,11-20.5,15.3c-0.1,0.1-4.1,4-11.9,11.6c-4.7,4.7-9,8.2-12.7,10.6
						c-1.7,1.1-2.9,2-3.4,2.7c-0.5,0.6-0.8,1.3-0.9,2c-0.1,0.7,0,1.4,0.4,2c0.4,0.6,0.9,1,1.7,1.2c0.7,0.2,1.4,0.3,2.2,0.1
						c0.2,0,0.4-0.1,0.5-0.2c-0.4-0.3-0.7-0.6-1-1c-0.3-0.6-0.4-1.3-0.3-2.1c0.1-0.8,0.5-1.5,1-2c0.8-1,2-1.7,3.8-2.3
						c2.6-0.9,5.2-1.3,7.8-1.3c0.2,0,0.5,0,0.7,0.1c0.9,0,2.4,0.2,4.4,0.5c1.9,0.2,3.4,0.4,4.4,0.4c2,0,4.2-0.2,6.6-0.8
						c1.5-0.4,3.7-1,6.4-2c2.8-0.9,4.8-1.7,6.1-2.3c2-1,3.5-2,4.5-3c0.2-0.3,0.5-0.5,0.6-0.8c0-0.2-0.1-0.3-0.1-0.5
						c-0.1-0.8-0.1-1.6,0.3-2.3c0.4-0.8,0.9-1.3,1.6-1.5c1-0.4,2-0.1,3,0.6c0.5,0.4,1.3,1.2,2.2,2.4c5.9,7.9,12.3,12.8,18.9,14.5
						c2.3,0.6,5.4,1,9.4,1.1c4.8,0.1,8,0.3,9.6,0.5c3.8,0.6,7.5,1.9,10.9,3.8c0.4,0.3,0.9,0.5,1.3,0.8c-0.8-1.7-1.2-2.8-1.3-3.4
						c-0.1-0.7-0.1-1.4,0.2-2c0.2-0.7,0.6-1.2,1.1-1.6c0.1-0.1,0.2-0.1,0.3-0.2c0.4-1,1.1-2,2.1-3.1c0.8-0.8,1.6-1.4,2.3-1.8
						c0.8-0.3,1.7-0.5,2.8-0.6c1.6,0,3.1,0.3,4.5,0.8c0.9,0.4,2.1,1,3.6,2c2.5,1.6,4.3,3.3,5.3,4.9c0.5,0.8,1,1.9,1.5,3.2
						c0.6,1.4,0.9,2.4,1,3.1c0.1,0.7,0.1,1.7,0,2.8c-0.2,2.5-0.6,4.5-1.1,5.8c-0.6,1.8-1.5,3.2-2.7,4.2c0.2,0.6,0.3,1.3,0.4,2.2
						c0.6,3.9,1.2,7.3,1.9,10.2c0.6,2.3,1.3,4.5,2.2,6.8c1.1,2.7,2.2,4.9,3.5,6.5c0.4,0.4,1.1,1.3,2.3,2.6c0.9,1,1.6,1.9,2.1,2.6
						c0,0,0.1,0.1,0.1,0.1c1.1,1.7,1.9,4.1,2.4,7.4c0.2,1,0.2,1.8,0.2,2.6c0.3,0,0.6-0.1,0.9-0.2c0.9-0.4,1.5-1.2,1.9-2.6
						c0.2-1.6,0.4-2.8,0.5-3.6c0.4-2.2,1.8-4.8,4.1-7.5c3.3-3.8,5.2-6.1,5.7-7c1.3-2.2,2.3-5.1,3-8.9c2.1-10.4,2.4-19.9,0.9-28.7
						c-1.3-7.4-4.2-15.1-8.6-23.3c-3-5.5-7.5-12.5-13.6-21.1c-2-2.8-3.6-4.9-4.9-6.2c-0.9-1-1.8-1.8-2.7-2.6
						c-0.8-0.1-1.6-0.2-2.5-0.2c-0.6,0-1.3,0-2,0c-2.3,0-4-0.3-5-1c-0.5-0.3-0.9-0.8-1-1.3c-0.1-0.6-0.1-1.2,0.3-1.9
						c0.3-0.6,0.8-1.1,1.3-1.4C1110.8,255.3,1111.2,255.1,1111.6,255z"/>
				</g>
			</g>
		</g>
		<g transform="matrix( 1, 0, 0, 1, 0,0) ">
			<g>
				<g id="head_0_Layer0_0_FILL">
					<path d="M1174.2,263.5c1.5-3.8,2.2-7.9,2.3-12.2c0.2-7.2-1.4-15.2-4.9-24.3c-5.4-14.3-12.8-24.8-22.2-31.5
						c-10.2-7.3-23.7-10.7-40.4-10.4c-11.9,0.2-20.5,3-25.7,8.3c-4.8,4.9-7.4,12.1-7.7,21.8c-0.2,6.2,0.7,11.5,2.5,15.7
						c1.1,2.6,2.6,4.8,4.4,6.7c2,2.1,4.1,3.5,6.6,4.4c-0.8,1.3-1.3,3-1.5,5.3c-0.4,3.5-0.6,5.3-0.6,5.7c-0.1,0.6-0.4,1.6-0.9,2.9
						c-0.4,1.3-0.7,2.3-0.8,2.9c-0.6,3.2-0.1,6.2,1.4,9.1c2.1,3.8,6.3,6.8,12.4,9c1.1,0.4,2.9,1,5.2,1.7c2,0.6,3.6,1.3,5,2
						c0.9,0.5,2.2,1.2,3.9,2.3c1.7,1.1,3,1.9,3.8,2.3c8.5,4.3,19.8,3.8,33.9-1.5c3.6-1.4,6.5-2.7,8.9-4c3.1-1.7,5.7-3.6,7.8-5.8
						C1170.5,271,1172.7,267.6,1174.2,263.5 M1168.5,260.4c-1.1,3.3-2.8,6-5,8.3c-1.3,1.3-2.8,2.6-4.7,3.8c-1.4,0.9-3,1.8-4.8,2.7
						c-3.5,1.7-7,3-10.6,4.1c-2.5,0.7-5.1,1.3-7.7,1.7c-2.9,0.5-5.5,0.7-7.8,0.5c-2.8-0.1-5.3-0.7-7.5-1.8c-1-0.5-2.4-1.3-4.1-2.5
						c-1.9-1.3-3.2-2.2-4.1-2.6c-1.5-0.8-3.6-1.6-6.5-2.3c-3.2-0.9-5.4-1.5-6.6-2c-2.3-1-4.2-2.3-5.6-4.1c-0.9-1.1-1.5-2.2-1.8-3.3
						c-0.2-0.7-0.3-1.4-0.3-2.1c0-0.2,0-0.5,0.1-0.7c1,0.2,2,0.2,3-0.2c0.1-0.1,0.3-0.1,0.5-0.2c1.1-0.5,2-1.3,2.5-2.4
						c0.4-0.9,0.5-1.7,0.4-2.6c0-0.2-0.1-0.5-0.2-0.7c0-0.1-0.1-0.1-0.1-0.2c-0.2-0.9-0.6-1.6-1.2-2.1c-0.2-0.2-0.5-0.5-0.8-0.7
						c-0.5-0.3-0.8-0.5-1.1-0.7c-0.4-0.3-0.7-0.6-0.8-0.9c-0.4-0.7-0.2-1.8,0.6-3.1l3.5-6.3c1.3-2.2,1.5-3.8,0.5-4.9
						c-0.7-0.9-1.9-1.1-3.5-0.6c-1.6,0.6-2.8,0.9-3.6,1c-2,0-3.9-1.3-5.6-4c-0.2-0.3-0.4-0.7-0.6-1c-3.1-5.6-3.9-12.7-2.3-21.4
						c0.7-3.8,1.8-6.9,3.4-9.1c3.6-5.2,10.7-8.1,21.2-8.5c16.1-0.7,28.9,2.4,38.5,9.3c8.8,6.3,15.7,16.5,20.6,30.6
						c1.8,5.2,3,9.9,3.4,14.1c0.2,1.8,0.3,3.5,0.3,5.1C1170.2,254.1,1169.6,257.3,1168.5,260.4z"/>
					<path class="st7" d="M1091.4,235.4c0.8,0,2-0.4,3.6-1c1.6-0.4,2.8-0.2,3.5,0.6c0.9,1.1,0.7,2.7-0.5,4.9l-3.5,6.3
						c-0.8,1.4-1,2.4-0.6,3.1c0.1,0.3,0.4,0.6,0.8,0.9c0.2,0.2,0.6,0.4,1.1,0.7c0.3,0.2,0.6,0.4,0.8,0.7c-0.2-0.8-0.2-1.6-0.1-2.6
						c0.2-1.2,0.8-2.8,1.9-5l4.1-8.1c0.7-1.6,1-2.8,0.9-3.6c-0.2-1.1-0.9-1.8-2.2-2.3c-1.1-0.4-2.3-0.5-3.6-0.3c0,0-1.2,0.3-3.4,1
						c-1.4,0.4-2.5,0.5-3.4,0.4c-1.5-0.4-2.6-0.7-3.4-0.8c-0.8-0.2-1.5-0.2-2.1-0.1c0.2,0.4,0.4,0.7,0.6,1
						C1087.5,234.1,1089.4,235.4,1091.4,235.4 M1163.6,268.7c2.2-2.3,3.8-5.1,5-8.3c1.1-3,1.7-6.3,1.8-9.7c0-1.6-0.1-3.3-0.3-5.1
						c-0.6,0-1.2,0.1-1.9,0.4c-1.4,0.5-2.4,1.4-3.3,2.6c-0.7,1.1-1.4,2.6-2,4.5l-1.5,4.8c-0.6,1.7-1.5,3.2-2.6,4.3
						c-1.3,1.3-2.7,2-4.3,2c-1,0.1-1.8-0.2-2.4-0.7c-0.3-0.3-0.6-0.7-0.8-1.2c-0.4-0.7-0.6-1.1-0.7-1.3c-0.6-0.9-1.5-1.2-2.7-1.2
						c-1.2,0-2.1,0.5-2.7,1.4c-0.5,0.8-0.6,1.9-0.5,3.4c0.2,2,0.2,3.2,0.2,3.6c-0.2,1.2-0.8,2.3-1.8,3.2c-0.9,0.9-2,1.5-3.3,1.8
						c-1.9,0.5-4.4,0.4-7.5-0.3c-1.7-0.4-2.9-0.7-3.7-0.9c-1.5-0.3-2.7-0.4-3.8-0.4c-1.1,0.1-2,0.1-2.6,0.1c-1,0-1.8-0.2-2.5-0.5
						c-0.5-0.2-1.1-0.8-1.9-1.5c-0.8-0.9-1.4-1.4-1.8-1.7c-0.5-0.3-1.2-0.6-2.1-1c-1-0.3-1.8-0.6-2.2-0.9c-1-0.6-2-2.1-3-4.3
						c-1-2.2-2-3.7-2.9-4.4c-0.7-0.5-2-1-4-1.5c-1.9-0.5-3.1-1-3.8-1.8c0,0-0.1-0.1-0.1-0.1c0.1,0.2,0.1,0.4,0.2,0.7
						c0.1,0.9,0,1.8-0.4,2.6c-0.5,1.1-1.3,1.9-2.5,2.4c-0.2,0.1-0.3,0.1-0.5,0.2c-1,0.4-2,0.4-3,0.2c0,0.2-0.1,0.5-0.1,0.7
						c0,0.1,0.1,0.1,0.1,0.2c0.1,0.5,0.2,1.1,0.3,1.9c0.3,1.1,0.9,2.2,1.8,3.3c1.4,1.7,3.3,3.1,5.6,4.1c1.2,0.5,3.4,1.2,6.6,2
						c2.8,0.8,5,1.6,6.5,2.3c0.9,0.5,2.3,1.3,4.1,2.6c1.7,1.2,3.1,2,4.1,2.5c2.1,1.1,4.6,1.7,7.5,1.8c2.3,0.1,4.9,0,7.8-0.5
						c2.6-0.4,5.2-1,7.7-1.7c3.6-1.1,7.1-2.4,10.6-4.1c1.7-0.9,3.3-1.7,4.8-2.7C1160.7,271.3,1162.3,270,1163.6,268.7z"/>
					<path class="st6" d="M1161.3,257.8l1.5-4.8c0.6-1.9,1.3-3.4,2-4.5c0.8-1.2,1.9-2.1,3.3-2.6c0.7-0.3,1.3-0.4,1.9-0.4
						c-0.5-4.2-1.6-8.9-3.4-14.1c-4.9-14.1-11.8-24.3-20.6-30.6c-9.6-6.9-22.5-10-38.5-9.3c-10.6,0.4-17.7,3.3-21.2,8.5
						c-1.5,2.2-2.7,5.2-3.4,9.1c-1.6,8.6-0.8,15.7,2.3,21.4c0.6-0.1,1.3-0.1,2.1,0.1c0.7,0.1,1.9,0.4,3.4,0.8c0.9,0.1,2.1,0,3.4-0.4
						c2.2-0.7,3.4-1,3.4-1c1.3-0.2,2.5-0.2,3.6,0.3c1.2,0.5,2,1.2,2.2,2.3c0.2,0.8-0.1,2-0.9,3.6l-4.1,8.1c-1.1,2.1-1.7,3.8-1.9,5
						c-0.1,0.9-0.1,1.8,0.1,2.6c0.6,0.6,1,1.3,1.2,2.1c0,0,0,0.1,0.1,0.2c0,0,0.1,0.1,0.1,0.1c0.7,0.7,2,1.3,3.8,1.8
						c2,0.5,3.3,1,4,1.5c0.9,0.7,1.9,2.1,2.9,4.4c1,2.2,2,3.6,3,4.3c0.4,0.3,1.2,0.6,2.2,0.9c1,0.3,1.7,0.6,2.1,1
						c0.4,0.3,1,0.9,1.8,1.7c0.7,0.8,1.4,1.3,1.9,1.5c0.6,0.4,1.5,0.5,2.5,0.5c0.6,0,1.4,0,2.6-0.1c1.1,0,2.3,0.1,3.8,0.4
						c0.8,0.2,2.1,0.5,3.7,0.9c3.1,0.7,5.6,0.8,7.5,0.3c1.3-0.3,2.4-0.9,3.3-1.8c1-0.9,1.6-2,1.8-3.2c0.1-0.5,0-1.7-0.2-3.6
						c-0.1-1.5,0-2.6,0.5-3.4c0.6-0.9,1.5-1.4,2.7-1.4c1.2-0.1,2.1,0.3,2.7,1.2c0.1,0.1,0.3,0.6,0.7,1.3c0.2,0.5,0.5,0.9,0.8,1.2
						c0.6,0.6,1.4,0.8,2.4,0.7c1.5,0,3-0.7,4.3-2C1159.8,261,1160.7,259.5,1161.3,257.8z"/>
				</g>
			</g>
		</g>
	</g>
</g>
<g id="Layer_4">
	<text transform="matrix(1 0 0 1 80.7672 439.4457)" class="st8 st9 st10">WORKS IN PROGRESS</text>
	<text transform="matrix(1 0 0 1 390.5553 658.9569)" class="st11 st9 st12">MOVEMENT</text>
</g>
</svg>
