
<svg xmlns="http://www.w3.org/2000/svg" version="1.1" xmlns:xlink="http://www.w3.org/1999/xlink" preserveAspectRatio="none" x="0px" y="0px" width="1280px" height="720px" viewBox="0 0 1280 720">
<defs>
<g id="arm2_0_Layer0_0_FILL">
<path fill="#000000" stroke="none" d="
M 304.25 0.5
Q 303 0.65 301.2 1.75 272.75 20.15 203.45 61.8 140.55 99.6 106.3 122.55 72.9 145.6 56.1 156.8 26.7 176.25 4.05 187.95 1.95 189.05 0.85 190.45 -0.55 192.2 0.35 193.7 1.2 195.15 3.25 194.9 4.4 194.75 5.75 194.2 6.3 194 6.85 193.65 8.75 192.55 10.7 191.45 38.75 175.25 78.9 148.45 140.7 107.15 149.85 101.3 171.75 87.4 226.85 54.7 275.9 25.7 303.1 7.75 303.25 7.6 303.4 7.5 305.4 6.1 306.35 4.2 307.45 2 305.85 0.9 305.2 0.4 304.25 0.5
M 337.05 34
Q 337.25 32.35 336.5 31 335.65 29.45 334.2 29.45 333.75 29.45 333.3 29.65 331.9 30.25 330.6 32.5 330.4 32.8 330.25 33.15 329.8 33.8 329.4 34.5 323 44.65 313.6 53.35 308.7 57.9 302.9 62 286.9 73.45 266.2 80.4 260.15 82.4 244.75 86.6 231 90.3 223.35 93.1 202.3 100.9 184.95 114.95 180.8 118.3 171.3 126.9 162.75 134.75 157.5 138.7 142.1 150.45 123.55 156.4 115.5 158.95 99.95 161.95 83.6 165.25 76.25 167.4 62.1 171.6 46.9 179.85 44.85 180.9 42.75 182.15 30.3 189.15 13.05 201.4 12.4 201.9 11.75 202.35 11.4 202.6 11.1 202.85 10 203.75 9.3 204.95 9 205.35 8.85 205.75 7.85 208.05 9.5 209.1 11.1 210.05 14 208.1 38 192.15 44.35 188.35 61.8 177.95 76.8 173.4 82.8 171.65 91.7 169.85 96.7 168.8 106.7 166.85 143.45 158.95 164.85 141.1 168.85 137.75 176.85 129.9 184.45 122.35 188.9 118.8 204.35 106.35 234.2 96.85 242.35 94.25 258.75 89.25 273.1 84.7 282.8 80.3 297.1 73.85 309.75 64.3 322.3 54.75 332.4 42.75 334.4 40.35 335.45 38.7 336.85 36.25 337.05 34 Z"/>

<path fill="#DEBB89" stroke="none" d="
M 329.4 34.5
Q 329.1 34.55 328.75 34.7 327.15 35.2 325.65 36.65 314.6 47.4 293.7 54 288.15 55.75 275.55 59 263.55 62.15 257.4 64.15 240.5 69.75 221.7 80.65 208.95 88.05 188.5 102.25 163.95 119.3 155.5 124.7 136.65 136.7 120.7 143.5 111.75 147.3 90.45 154.35 70.7 160.7 60.35 165.5 47.75 171.35 34.05 180.7 25.35 186.6 14.5 195.2 12.15 197.05 9.7 199 8.45 200.05 7.85 201 7.05 202.2 7.35 203.25 7.75 204.7 9.3 204.95 10 203.75 11.1 202.85 11.4 202.6 11.75 202.35 12.4 201.9 13.05 201.4 30.3 189.15 42.75 182.15 44.85 180.9 46.9 179.85 62.1 171.6 76.25 167.4 83.6 165.25 99.95 161.95 115.5 158.95 123.55 156.4 142.1 150.45 157.5 138.7 162.75 134.75 171.3 126.9 180.8 118.3 184.95 114.95 202.3 100.9 223.35 93.1 231 90.3 244.75 86.6 260.15 82.4 266.2 80.4 286.9 73.45 302.9 62 308.7 57.9 313.6 53.35 323 44.65 329.4 34.5 Z"/>

<path fill="#F8D5A4" stroke="none" d="
M 328.75 34.7
Q 329.1 34.55 329.4 34.5 329.8 33.8 330.25 33.15 330.4 32.8 330.6 32.5 331.9 30.25 333.3 29.65 333.15 28.7 332.45 27.6 332.15 27.05 331.1 25.7
L 325.45 18.65
Q 321.8 13.95 319.8 11.75 316.6 7.95 313.65 5.3 311.05 2.8 308.45 1.05 306.25 -0.45 304.8 0.15 304.5 0.25 304.25 0.5 305.2 0.4 305.85 0.9 307.45 2 306.35 4.2 305.4 6.1 303.4 7.5 303.25 7.6 303.1 7.75 275.9 25.7 226.85 54.7 171.75 87.4 149.85 101.3 140.7 107.15 78.9 148.45 38.75 175.25 10.7 191.45 8.75 192.55 6.85 193.65 6.3 194 5.75 194.2 5.65 194.85 5.8 195.6 6.2 198.65 7.85 201 8.45 200.05 9.7 199 12.15 197.05 14.5 195.2 25.35 186.6 34.05 180.7 47.75 171.35 60.35 165.5 70.7 160.7 90.45 154.35 111.75 147.3 120.7 143.5 136.65 136.7 155.5 124.7 163.95 119.3 188.5 102.25 208.95 88.05 221.7 80.65 240.5 69.75 257.4 64.15 263.55 62.15 275.55 59 288.15 55.75 293.7 54 314.6 47.4 325.65 36.65 327.15 35.2 328.75 34.7 Z"/>
</g>

<g id="hand2_0_Layer0_0_FILL">
<path fill="#DEBB89" stroke="none" d="
M 88.5 11.65
Q 88.25 11.6 88.05 11.6 87.05 11.5 86.1 11.95 84.75 12.5 82.55 15 80 17.75 74.9 21.95 71.25 25.05 69.5 26.3 66.45 28.65 63.65 30 63.05 30.35 61.8 30.95 60.7 31.45 60.05 32.05 59.25 32.7 57.9 34.2 57.8 34.3 56.65 35.15 56 35.75 55.55 36.15
L 55.5 36.2
Q 54.9 36.85 54.35 37.95 54.65 38 54.95 38.1 55.75 37.75 56.65 37.45 65.3 34.35 69.65 32.15 76.55 28.7 80.8 24.15 83.4 21.3 86.45 16.3 87.95 13.7 89.3 12.95 89.7 12.7 90.1 12.6 89.5 11.9 88.5 11.65
M 62.95 41.7
Q 58.75 43.45 55.2 44.75 54 48.35 51.9 54.15 50.6 57.75 50.75 59.5 50.85 60.95 51.7 62.1 52.2 62.9 52.95 63.35 53.85 63.05 54.75 62 56.8 57.9 60.2 48.3 61.5 44.6 62.95 41.7 Z"/>

<path fill="#000000" stroke="none" d="
M 86.25 3.65
Q 86.35 3.25 86.4 2.9 86.5 1.85 86 1.1 85.3 0.05 83.7 0 82.4 -0.05 80.85 0.6 78.75 1.5 76.2 3.2 73.3 5.3 71.85 6.3 67.55 9.4 59.45 14.25 50.4 19.55 46.8 21.95 43.95 23.95 39 27.5 29.8 34.2 25.8 37.25 18.6 42.75 13.15 47.6 8.6 51.7 4.4 56.05 3.1 55.95 1.95 57.2 0.95 58.3 0.45 60 -0.5 63.2 0.55 66.35 1.65 69.7 4.45 70.85 7 71.9 10.35 70.65 12.65 69.7 15.85 67.35
L 33.35 54.6
Q 37.6 51.5 39.95 50.3 42.15 49.25 47.4 47.55
L 46.8 49.2
Q 45.65 52.65 45.35 53.65 44.65 56.2 44.55 58.2 44.05 63.65 46.7 67.05 48.15 68.95 50.4 69.8 52.75 70.7 54.95 70 57.5 69.15 59.75 65.9 62.35 62.15 65.3 52.85 68.2 43.85 71.2 40 72.05 38.85 72.45 38.35 72.85 37.8 73.1 37.3 73.55 37.05 74 36.85 79.15 34.2 82.5 31.2 84.4 29.5 88.15 25.15 90.35 22.5 91.35 20.95 92.95 18.5 93.5 16.25 93.9 14.5 93.25 13.5 92.7 12.65 91.45 12.5 90.75 12.4 90.1 12.6 89.7 12.7 89.3 12.95 87.95 13.7 86.45 16.3 83.4 21.3 80.8 24.15 76.55 28.7 69.65 32.15 65.3 34.35 56.65 37.45 55.75 37.75 54.95 38.1 54.65 38 54.35 37.95 54.15 37.9 53.95 37.9 52.55 37.85 51.45 38.65 51 39.05 50.55 39.65 46.35 41.15 44.6 41.7 39.65 43.15 37.2 44.35 34.65 45.6 29.9 49.05
L 10.4 63.7
Q 9.5 64.4 8.55 64.6 7.5 64.85 6.95 64.15 6.5 63.6 6.65 62.8 6.95 62.45 7.3 62.05 17.4 51.8 28.7 42.85
L 36 37.35
Q 46 30.05 59.15 21.7 66.3 17.15 81.1 8.1 82 7.55 82.85 7 84.95 5.7 85.75 4.65 86.05 4.15 86.25 3.65
M 55.2 44.75
Q 58.75 43.45 62.95 41.7 61.5 44.6 60.2 48.3 56.8 57.9 54.75 62 54.25 62.95 53.85 63.65 53.4 63.55 52.95 63.35 52.2 62.9 51.7 62.1 50.85 60.95 50.75 59.5 50.6 57.75 51.9 54.15 54 48.35 55.2 44.75 Z"/>

<path fill="#F8D5A4" stroke="none" d="
M 87.75 4.7
Q 87.1 3.95 86.25 3.65 86.05 4.15 85.75 4.65 84.95 5.7 82.85 7 82 7.55 81.1 8.1 66.3 17.15 59.15 21.7 46 30.05 36 37.35
L 28.7 42.85
Q 17.4 51.8 7.3 62.05 6.95 62.45 6.65 62.8 6.5 63.6 6.95 64.15 7.5 64.85 8.55 64.6 9.5 64.4 10.4 63.7
L 29.9 49.05
Q 34.65 45.6 37.2 44.35 39.65 43.15 44.6 41.7 46.35 41.15 50.55 39.65 51 39.05 51.45 38.65 52.55 37.85 53.95 37.9 54.15 37.9 54.35 37.95 54.9 36.85 55.5 36.2
L 55.55 36.15
Q 56 35.75 56.65 35.15 57.8 34.3 57.9 34.2 59.25 32.7 60.05 32.05 60.7 31.45 61.8 30.95 63.05 30.35 63.65 30 66.45 28.65 69.5 26.3 71.25 25.05 74.9 21.95 80 17.75 82.55 15 84.75 12.5 86.1 11.95 87.05 11.5 88.05 11.6 88.5 10.55 88.75 9.5 89.4 6.6 87.75 4.7 Z"/>
</g>

<g id="butt2_0_Layer0_0_FILL">
<path fill="#333333" stroke="none" d="
M 14.05 188.05
Q 11.25 190.5 8.5 193.05 4.8 196.5 2.7 198.8 -0.5 202.3 0.85 204.8 1.3 205.7 2.65 206.3 3.15 206.5 3.75 206.7 7.4 207.7 7.55 207.75 8 207.95 8.65 208.35 8.25 209.45 7.9 210.55 7.9 210.65 7.9 210.75 8.8 210.85 9.65 211.3 10.8 212.05 11.65 213.5 12.2 214.5 12.85 216.4 34.85 282.3 49.9 349.85 56.6 379.95 58.8 388.45 64.5 410 71.75 425.6 78.6 440.25 86.65 447.75 98.2 458.5 115.95 460.4 125.45 461.4 134.8 459.75 141.75 458.55 148.65 455.95 162.5 450.7 176.85 439.55 186.8 431.8 201.4 417.4 201.8 417 202.15 416.75 200.35 414.8 198.3 412.9 194.45 409.35 188.45 404.6 182.2 399.65 177.6 396.65 171.45 392.65 165.8 390.4 162.1 388.95 157.45 387.7 150.65 385.75 146 385 139.6 384.1 134.3 385.05 132.15 385.45 131.1 385.35 129.25 385.25 128.5 384.15 128.05 383.55 128 382.85 127.4 382.45 127.05 381.9 126.6 381.1 126.65 378.9 126.6 376.35 125.7 373.2 125.15 371.3 123.75 367.7 119.3 356.3 115.2 345.85 96.2 297.7 84.85 271.75 61.8 219.05 38.55 179.4 38.2 178.8 37.95 178.25 36.9 179 36.05 179.7 36 179.6 36 179.55 35.85 178.2 35.7 177.5 35.5 176.4 34.95 175.8 33.8 174.45 31.75 174.75 31.25 174.75 30.65 174.9 28.4 175.55 26 177.45 25.3 178.05 21.95 181.2 21.3 181.85 14.05 188.05 Z"/>

<path fill="#000000" stroke="none" d="
M 36.75 171.45
Q 35.65 171.9 34.4 172.8 33.05 173.75 31.75 174.75 33.8 174.45 34.95 175.8 35.5 176.4 35.7 177.5 35.85 178.2 36 179.55 36 179.6 36.05 179.7 36.9 179 37.95 178.25 38.2 178.8 38.55 179.4 61.8 219.05 84.85 271.75 96.2 297.7 115.2 345.85 119.3 356.3 123.75 367.7 125.15 371.3 125.7 373.2 126.6 376.35 126.65 378.9 126.6 381.1 127.05 381.9 127.4 382.45 128 382.85 128.05 383.55 128.5 384.15 129.25 385.25 131.1 385.35 132.15 385.45 134.3 385.05 139.6 384.1 146 385 150.65 385.75 157.45 387.7 162.1 388.95 165.8 390.4 171.45 392.65 177.6 396.65 182.2 399.65 188.45 404.6 194.45 409.35 198.3 412.9 200.35 414.8 202.15 416.75 201.8 417 201.4 417.4 186.8 431.8 176.85 439.55 162.5 450.7 148.65 455.95 141.75 458.55 134.8 459.75 125.45 461.4 115.95 460.4 98.2 458.5 86.65 447.75 78.6 440.25 71.75 425.6 64.5 410 58.8 388.45 56.6 379.95 49.9 349.85 34.85 282.3 12.85 216.4 12.2 214.5 11.65 213.5 10.8 212.05 9.65 211.3 8.8 210.85 7.9 210.75 7.9 210.65 7.9 210.55 8.25 209.45 8.65 208.35 8 207.95 7.55 207.75 7.4 207.7 3.75 206.7 3.15 206.5 2.65 206.3 0.95 210.45 0.35 214.6 -0.75 222.15 1.5 231.65 2.5 235.9 6.7 248.3 13.1 267.4 18.85 292.45 21.75 304.95 28.25 337.45 39.95 395.8 51.35 425.95 55.45 436.8 59.45 444.35 64.65 453.9 71.1 460.35 85.15 474.55 107.35 477.85 126.55 480.75 145.55 474.65 147 474.2 148.45 473.7 166.45 467.3 184.1 453.3 198.05 442.3 214.1 424.6 215.7 422.8 215.55 421.6 215.4 420.55 214.3 420 213.8 419.8 213.3 419.75 212.7 418.55 211.45 417.25 208.6 414.05 204.9 410.55 196.65 402.8 187.95 396.45 177.4 388.75 168.8 385.05 163.75 382.9 156.55 380.95 143.3 377.45 134.15 378.25 134 378.25 133.85 378.35 133.95 376.75 133.45 375 133.15 373.75 132.15 371.2
L 113.4 324.95
Q 96.95 284.3 87.95 263.75 73.05 230 58.9 204.2 51.15 190 50.55 188.75 46 179.85 43.55 172.75 42.65 170.05 41.45 169.4 39.9 168.55 38.25 169.75 37.15 170.4 36.75 171.45 Z"/>
</g>

<g id="shin2_0_Layer0_0_FILL">
<path fill="#F8D5A4" stroke="none" d="
M 4.6 24.7
Q 5.65 24.55 7.8 24.7 9.9 24.85 12.1 24.85 21.55 25.25 34.35 25.1 35.6 25.05 37 25.1 37.45 24.35 38.35 23.3 41.45 19.5 42.1 13.3
L 13.85 13.9
Q 12 14 10.55 13.35 10.35 13.55 10.2 13.75 9.6 14.25 9.1 14.55 8.05 15 7.5 15.25 6.55 15.7 5.6 16.75 4.6 18.1 4.05 18.7 3.6 19.2 2.7 20.1 1.95 20.95 1.8 21.7 1.5 23.55 3.25 25 3.9 24.75 4.6 24.7 Z"/>

<path fill="#000000" stroke="none" d="
M 245.15 7.4
Q 249.3 7.2 253.5 7.05 254 7.1 254.45 7 258.85 6.7 259.35 4 259.8 1.85 257.1 0.75 254.8 -0.25 252.05 0.05 209.3 3.95 132.4 4.9 48.35 5.95 12.75 8.35 9 8.7 8.55 10.6 8.15 12.2 10.1 13.2 10.3 13.25 10.55 13.35 12 14 13.85 13.9
L 42.1 13.3
Q 41.45 19.5 38.35 23.3 37.45 24.35 37 25.1 35.6 25.05 34.35 25.1 21.55 25.25 12.1 24.85 9.9 24.85 7.8 24.7 5.65 24.55 4.6 24.7 3.9 24.75 3.25 25 2.35 25.2 1.65 25.7 0.3 26.6 0.05 28.4 -0.15 30.25 1.1 31.05 2.05 31.55 3.8 31.45
L 38 30.95
Q 62.65 30.5 75.2 31.1 95.8 32.05 111.95 36.1 119.9 38.05 134.95 43.15 150.4 48.45 157.8 50.4 185.9 57.55 205.1 49.55 210.9 47.2 217.3 42.75 219.45 41.25 222.45 38.95 223.4 38.55 223.95 38.05 224.5 37.6 224.85 37.1 226.5 35.75 228.4 34.25 231.15 31.95 230.8 30.15 230.7 29.85 230.65 29.7 230.3 28.95 229.3 28.4 228.1 27.85 226.85 28.15 225.2 28.6 222.85 30.7 221.9 31.6 221.1 32.35 220.75 32.4 220.35 32.5 219.3 32.75 217.9 33.25 208.95 36.4 197.4 36.7 189.4 36.95 176.2 35.65 157.85 33.75 145.45 31.45 129.65 28.1 121.75 26.8 108 24.55 97.9 25.3 95.95 25.45 94.75 26.1 94.45 26.25 94.2 26.5 79.5 24.75 60.9 24.75 51.6 24.9 44.75 25 46.55 22.2 46.95 21.35 48.1 18.85 48.75 13.4 48.7 13.25 48.75 13.15
L 95.65 12.05
Q 167.5 10.35 245.15 7.4 Z"/>

<path fill="#333333" stroke="none" d="
M 253.5 7.05
Q 249.3 7.2 245.15 7.4 167.5 10.35 95.65 12.05
L 48.75 13.15
Q 48.7 13.25 48.75 13.4 48.1 18.85 46.95 21.35 46.55 22.2 44.75 25 51.6 24.9 60.9 24.75 79.5 24.75 94.2 26.5 94.45 26.25 94.75 26.1 95.95 25.45 97.9 25.3 108 24.55 121.75 26.8 129.65 28.1 145.45 31.45 157.85 33.75 176.2 35.65 189.4 36.95 197.4 36.7 208.95 36.4 217.9 33.25 219.3 32.75 220.35 32.5 220.75 32.4 221.1 32.35 221.9 31.6 222.85 30.7 225.2 28.6 226.85 28.15 228.1 27.85 229.3 28.4 230.3 28.95 230.65 29.7
L 232.4 28.25
Q 237.7 23.95 240.55 21.1 242.1 19.6 245.15 16.4 247.9 13.7 250.2 12.25 252.8 10.6 253.4 9.95 254.15 9.15 254.3 8.2 254.55 7.55 254.45 7 254 7.1 253.5 7.05 Z"/>
</g>

<g id="foot2_0_Layer0_0_FILL">
<path fill="#F8D5A4" stroke="none" d="
M 20.2 36.2
Q 18.2 34.85 17.9 34.7 18.2 35.5 18.85 35.9 19.3 36.15 20.05 36.3 20.2 36.3 20.35 36.35 20.3 36.3 20.2 36.2
M 101.85 54.4
Q 102.05 53.35 101.6 52.35 100.95 52.65 100.4 52.65 99.05 52.85 96.2 51.75 95.9 51.65 95.55 51.5 72.75 42.55 51.35 33.2
L 32.85 24.9
Q 29.2 23.3 27.6 22.3 24.75 20.6 23.15 18.55 23.05 18.4 23 18.3 22.9 18.1 22.85 18 22.25 17.2 21.35 15.55 20.45 13.65 19.9 12.95 19.25 11.85 17.95 10.55 16.6 9.05 15.8 8.3 15.35 7.6 15.05 7 14.95 6.95 14.9 7 12.65 5.7 9.95 6.8 7.25 8 6.65 10.5 5.9 13.05 8.05 17.65 10.65 23 13.45 24.95 13.65 25.1 15.15 25.95 16.2 26.6 16.75 27.2 16.9 27.35 17.05 27.5 18.7 27 21.15 28.8 21.2 28.8 21.3 28.85 23 30.1 26.2 32.9 26.85 33.45 31.35 37.65 39.9 45.8 56.55 63.5
L 61.6 68.95
Q 63.7 71.1 64.85 72.1 66.9 73.65 68.85 74 70.75 74.4 73.35 73.8 74.65 73.45 76.05 72.9 81.3 70.7 85.75 67.15 87.15 65.95 88.4 64.65
L 88.45 64.6
Q 89.4 63.7 89.95 63.25 90.15 63.05 90.4 62.95 91.05 62.3 91.7 62.1 91.8 62 91.95 62 92.9 61.65 93.8 61.75 94.95 61.8 95.65 62.6 95.95 62.95 96.15 63.45 96.15 63.35 96.2 63.3 96.55 62.8 96.95 61.6 97.25 60.35 97.7 59.85 97.8 59.75 99.4 58.3 100.25 57.65 100.85 56.6 101.7 55.35 101.85 54.4 Z"/>

<path fill="#000000" stroke="none" d="
M 99.7 46
Q 96.75 44.85 91.4 43.05 85.5 41.1 82.95 40.15 82.2 39.85 76.7 37.65 51.7 26.95 28.45 14.85 28.05 14.05 27.4 13.2
L 22.3 6
Q 22.3 5.7 22.25 5.3 22 3.75 19.8 2.25 17.1 0.5 13.85 0.15 10.55 -0.3 7.6 0.85 4.65 1.95 2.55 4.55 0.4 7.2 0.05 10.25 -0.3 13.4 1.05 16.9 2.15 19.55 4.3 23.1 7.9 28.7 11.45 31.15 13.35 32.45 14.85 32.5 15.25 32.55 15.65 32.5 15.75 32.6 15.8 32.75 16.55 33.7 17.85 34.6
L 17.9 34.7
Q 18.2 34.85 20.2 36.2 20.3 36.3 20.35 36.35 23.4 38.3 28.2 43.2
L 35.55 50.6
Q 48.1 63.3 54.8 70.85 58.2 74.8 60.25 76.55 63.65 79.35 66.95 80.25 70.95 81.3 75.95 79.65 79.35 78.45 84.45 75.4 91.15 71.55 94.2 68.5 95.5 67.1 96 65.5 96.45 64.35 96.15 63.45 95.95 62.95 95.65 62.6 94.95 61.8 93.8 61.75 92.9 61.65 91.95 62 91.8 62 91.7 62.1 91.05 62.3 90.4 62.95 90.15 63.05 89.95 63.25 89.4 63.7 88.45 64.6
L 88.4 64.65
Q 87.15 65.95 85.75 67.15 81.3 70.7 76.05 72.9 74.65 73.45 73.35 73.8 70.75 74.4 68.85 74 66.9 73.65 64.85 72.1 63.7 71.1 61.6 68.95
L 56.55 63.5
Q 39.9 45.8 31.35 37.65 26.85 33.45 26.2 32.9 23 30.1 21.3 28.85 21.2 28.8 21.15 28.8 18.7 27 17.05 27.5 16.9 27.35 16.75 27.2 16.2 26.6 15.15 25.95 13.65 25.1 13.45 24.95 10.65 23 8.05 17.65 5.9 13.05 6.65 10.5 7.25 8 9.95 6.8 12.65 5.7 14.9 7 14.95 6.95 15.05 7 15.35 7.6 15.8 8.3 16.6 9.05 17.95 10.55 19.25 11.85 19.9 12.95 20.45 13.65 21.35 15.55 22.25 17.2 22.85 18 22.9 18.1 23 18.3 23.05 18.4 23.15 18.55 24.75 20.6 27.6 22.3 29.2 23.3 32.85 24.9
L 51.35 33.2
Q 72.75 42.55 95.55 51.5 95.9 51.65 96.2 51.75 99.05 52.85 100.4 52.65 100.95 52.65 101.6 52.35 102.05 52.2 102.4 51.9 103.35 51.15 103.5 50.15 103.8 47.6 99.7 46 Z"/>
</g>

<g id="butt_0_Layer0_0_FILL">
<path fill="#333333" stroke="none" d="
M 9.3 190.8
Q 5.5 194.15 3.35 196.4 0.05 199.8 1.3 202.3 1.75 203.25 3.05 203.9 3.55 204.1 4.15 204.3 7.75 205.4 7.9 205.45 8.35 205.7 9 206.1 8.55 207.2 8.2 208.3 8.15 208.4 8.15 208.5 9.05 208.6 9.9 209.1 11.05 209.85 11.85 211.35 12.35 212.35 12.95 214.25 32.95 280.8 46 348.8 51.8 379.1 53.8 387.65 58.85 409.35 65.65 425.15 72.05 440 79.85 447.7 91.1 458.85 108.75 461.25 118.2 462.55 127.6 461.2 134.6 460.2 141.55 457.8 155.55 452.9 170.25 442.2 180.45 434.75 195.45 420.8 195.85 420.4 196.25 420.15 194.5 418.15 192.5 416.2 188.75 412.55 182.9 407.6 176.8 402.5 172.3 399.35 166.25 395.2 160.65 392.75 157 391.2 152.4 389.8 145.65 387.65 141 386.8 134.65 385.7 129.35 386.5 127.15 386.8 126.1 386.7 124.3 386.55 123.55 385.4 123.15 384.8 123.1 384.1 122.5 383.7 122.2 383.1 121.75 382.3 121.85 380.1 121.9 377.55 121.1 374.4 120.6 372.45 119.3 368.85 115.2 357.3 111.4 346.75 93.85 298.05 83.3 271.75 61.85 218.35 39.75 178.05 39.4 177.45 39.15 176.9 38.1 177.6 37.2 178.3 37.15 178.2 37.15 178.15 37.05 176.8 36.95 176.1 36.75 175 36.25 174.35 35.15 173 33.05 173.2 32.55 173.2 31.95 173.35 29.7 173.9 27.25 175.75 26.55 176.3 23.1 179.35 22.4 180 15 186 12.1 188.35 9.3 190.8 Z"/>

<path fill="#000000" stroke="none" d="
M 35.8 171.35
Q 34.4 172.25 33.05 173.2 35.15 173 36.25 174.35 36.75 175 36.95 176.1 37.05 176.8 37.15 178.15 37.15 178.2 37.2 178.3 38.1 177.6 39.15 176.9 39.4 177.45 39.75 178.05 61.85 218.35 83.3 271.75 93.85 298.05 111.4 346.75 115.2 357.3 119.3 368.85 120.6 372.45 121.1 374.4 121.9 377.55 121.85 380.1 121.75 382.3 122.2 383.1 122.5 383.7 123.1 384.1 123.15 384.8 123.55 385.4 124.3 386.55 126.1 386.7 127.15 386.8 129.35 386.5 134.65 385.7 141 386.8 145.65 387.65 152.4 389.8 157 391.2 160.65 392.75 166.25 395.2 172.3 399.35 176.8 402.5 182.9 407.6 188.75 412.55 192.5 416.2 194.5 418.15 196.25 420.15 195.85 420.4 195.45 420.8 180.45 434.75 170.25 442.2 155.55 452.9 141.55 457.8 134.6 460.2 127.6 461.2 118.2 462.55 108.75 461.25 91.1 458.85 79.85 447.7 72.05 440 65.65 425.15 58.85 409.35 53.8 387.65 51.8 379.1 46 348.8 32.95 280.8 12.95 214.25 12.35 212.35 11.85 211.35 11.05 209.85 9.9 209.1 9.05 208.6 8.15 208.5 8.15 208.4 8.2 208.3 8.55 207.2 9 206.1 8.35 205.7 7.9 205.45 7.75 205.4 4.15 204.3 3.55 204.1 3.05 203.9 1.25 207.95 0.5 212.1 -0.8 219.6 1.15 229.2 2.05 233.5 5.85 246 11.7 265.3 16.7 290.5 19.2 303.05 24.75 335.7 34.7 394.4 45.2 424.9 48.95 435.85 52.8 443.5 57.7 453.2 63.95 459.9 77.55 474.5 99.65 478.45 118.75 481.9 137.9 476.4 139.35 476 140.85 475.5 159 469.65 177.1 456.2 191.35 445.6 207.95 428.35 209.6 426.6 209.45 425.4 209.35 424.35 208.25 423.8 207.8 423.55 207.3 423.5 206.7 422.3 205.5 420.95 202.75 417.65 199.15 414.05 191.15 406.05 182.65 399.45 172.35 391.45 163.8 387.5 158.8 385.2 151.7 383.05 138.55 379.15 129.4 379.7 129.25 379.7 129.1 379.75 129.2 378.2 128.8 376.4 128.5 375.15 127.6 372.6
L 110.25 325.75
Q 95 284.65 86.6 263.85 72.75 229.7 59.35 203.45 52.05 189.05 51.45 187.75 47.15 178.75 44.9 171.55 44.1 168.85 42.9 168.15 41.4 167.25 39.7 168.4 38.6 169.05 38.15 170.05 37.05 170.5 35.8 171.35 Z"/>
</g>

<g id="shin_0_Layer0_0_FILL">
<path fill="#F8D5A4" stroke="none" d="
M 2.6 22.3
Q 1.9 23.2 1.75 24 1.45 25.8 3.2 27.2 3.85 27 4.6 26.9 5.65 26.8 7.8 26.9 9.85 27 12.05 27.05 21.5 27.3 34.3 27.05 35.55 27 36.95 27 37.45 26.3 38.35 25.2 41.4 21.35 42 15.15
L 13.7 16.05
Q 11.85 16.15 10.4 15.5 10.2 15.7 10.05 15.85 9.5 16.4 9 16.7 7.9 17.15 7.35 17.4 6.45 17.85 5.5 18.95 4.5 20.3 3.95 20.9 3.55 21.4 2.6 22.3 Z"/>

<path fill="#333333" stroke="none" d="
M 245.05 16.45
Q 247.75 13.75 250.05 12.25 252.6 10.6 253.25 9.95 253.95 9.15 254.15 8.2 254.35 7.55 254.25 7 253.8 7.05 253.3 7.05 249.1 7.25 244.95 7.45 167.4 11.1 95.55 13.4
L 48.7 14.95
Q 48.65 15.05 48.65 15.2 48.05 20.65 46.95 23.15 46.55 24.05 44.8 26.85 51.65 26.7 60.9 26.5 79.5 26.3 94.2 27.9 94.45 27.7 94.75 27.55 96 26.9 97.9 26.7 108 25.85 121.75 28 129.65 29.25 145.45 32.4 157.95 34.6 176.3 36.3 189.5 37.5 197.45 37.2 209.05 36.8 217.95 33.55 219.35 33.05 220.35 32.8 220.75 32.7 221.1 32.65 221.95 31.85 222.9 31 225.2 28.8 226.9 28.35 228.15 28.05 229.3 28.6 230.3 29.1 230.7 29.95
L 232.45 28.4
Q 237.65 24.05 240.5 21.2 242.05 19.65 245.05 16.45 Z"/>

<path fill="#000000" stroke="none" d="
M 254.25 7
Q 258.65 6.6 259.1 3.95 259.5 1.8 256.85 0.7 254.55 -0.25 251.75 0.05 209.1 4.35 132.2 5.95 48.2 7.75 12.55 10.5 8.8 10.85 8.4 12.75 8 14.35 9.95 15.3 10.15 15.4 10.4 15.5 11.85 16.15 13.7 16.05
L 42 15.15
Q 41.4 21.35 38.35 25.2 37.45 26.3 36.95 27 35.55 27 34.3 27.05 21.5 27.3 12.05 27.05 9.85 27 7.8 26.9 5.65 26.8 4.6 26.9 3.85 27 3.2 27.2 2.3 27.45 1.65 27.95 0.25 28.9 0.05 30.65 -0.15 32.5 1.15 33.3 2.05 33.8 3.8 33.7
L 38.05 32.85
Q 62.65 32.2 75.25 32.7 95.9 33.5 112 37.35 120 39.25 135.05 44.2 150.55 49.35 158.05 51.2 186.2 58.1 205.3 50 211.05 47.55 217.4 43.1 219.55 41.55 222.5 39.25 223.5 38.8 224.1 38.3 224.6 37.85 224.95 37.35 226.6 36 228.45 34.45 231.2 32.15 230.8 30.35 230.75 30.1 230.7 29.95 230.3 29.1 229.3 28.6 228.15 28.05 226.9 28.35 225.2 28.8 222.9 31 221.95 31.85 221.1 32.65 220.75 32.7 220.35 32.8 219.35 33.05 217.95 33.55 209.05 36.8 197.45 37.2 189.5 37.5 176.3 36.3 157.95 34.6 145.45 32.4 129.65 29.25 121.75 28 108 25.85 97.9 26.7 96 26.9 94.75 27.55 94.45 27.7 94.2 27.9 79.5 26.3 60.9 26.5 51.65 26.7 44.8 26.85 46.55 24.05 46.95 23.15 48.05 20.65 48.65 15.2 48.65 15.05 48.7 14.95
L 95.55 13.4
Q 167.4 11.1 244.95 7.45 249.1 7.25 253.3 7.05 253.8 7.05 254.25 7 Z"/>
</g>

<g id="foot_0_Layer0_0_FILL">
<path fill="#F8D5A4" stroke="none" d="
M 25.2 33.9
Q 22.95 33.05 22.6 32.95 23.1 33.65 23.85 33.85 24.35 34.05 25.1 34 25.25 34 25.4 34 25.3 33.95 25.2 33.9
M 97.9 47.35
L 97.95 47.3
Q 98.7 46.2 99.1 45.6 99.25 45.35 99.45 45.2 100 44.5 100.55 44.1 100.65 44 100.8 43.95 101.6 43.4 102.55 43.3 103.7 43.15 104.5 43.75 104.95 44.05 105.2 44.5 105.2 44.4 105.25 44.35 105.5 43.8 105.6 42.5 105.65 41.2 105.95 40.6 106 40.5 107.3 38.75 107.95 37.9 108.35 36.75 108.9 35.35 108.85 34.45 108.8 33.35 108.15 32.5 107.65 32.85 107.05 33 105.8 33.45 102.8 33 102.45 32.95 102.1 32.9 77.95 29.05 55.1 24.4
L 35.15 20.25
Q 31.35 19.45 29.5 18.8 26.4 17.75 24.45 16.1 24.3 16 24.2 15.9 24.05 15.75 23.95 15.65 23.2 14.95 21.95 13.5 20.65 11.9 20 11.3 19.1 10.4 17.6 9.4 15.9 8.25 15.05 7.65 14.35 7.05 13.95 6.55 13.85 6.5 13.8 6.5 11.35 5.75 8.95 7.45 6.6 9.1 6.5 11.7 6.35 14.4 9.35 18.4 13.05 23.05 16.25 24.4 16.5 24.5 18.1 25.05 19.25 25.45 19.9 25.85 20.1 25.95 20.3 26.1 21.8 25.3 24.6 26.5 24.65 26.5 24.75 26.55 26.7 27.4 30.4 29.4 31.15 29.85 36.45 33 46.5 39.15 66.55 52.95
L 72.6 57.15
Q 75.1 58.85 76.5 59.55 78.8 60.65 80.8 60.6 82.75 60.6 85.15 59.4 86.3 58.8 87.6 57.95 92.3 54.7 95.8 50.3 96.9 48.9 97.9 47.35 Z"/>

<path fill="#000000" stroke="none" d="
M 97.95 47.3
L 97.9 47.35
Q 96.9 48.9 95.8 50.3 92.3 54.7 87.6 57.95 86.3 58.8 85.15 59.4 82.75 60.6 80.8 60.6 78.8 60.65 76.5 59.55 75.1 58.85 72.6 57.15
L 66.55 52.95
Q 46.5 39.15 36.45 33 31.15 29.85 30.4 29.4 26.7 27.4 24.75 26.55 24.65 26.5 24.6 26.5 21.8 25.3 20.3 26.1 20.1 25.95 19.9 25.85 19.25 25.45 18.1 25.05 16.5 24.5 16.25 24.4 13.05 23.05 9.35 18.4 6.35 14.4 6.5 11.7 6.6 9.1 8.95 7.45 11.35 5.75 13.8 6.5 13.85 6.5 13.95 6.55 14.35 7.05 15.05 7.65 15.9 8.25 17.6 9.4 19.1 10.4 20 11.3 20.65 11.9 21.95 13.5 23.2 14.95 23.95 15.65 24.05 15.75 24.2 15.9 24.3 16 24.45 16.1 26.4 17.75 29.5 18.8 31.35 19.45 35.15 20.25
L 55.1 24.4
Q 77.95 29.05 102.1 32.9 102.45 32.95 102.8 33 105.8 33.45 107.05 33 107.65 32.85 108.15 32.5 108.55 32.25 108.85 31.85 109.6 30.9 109.55 29.9 109.3 27.35 104.95 26.7 101.85 26.15 96.2 25.55 90.05 24.9 87.4 24.5 86.6 24.4 80.75 23.35 54.05 18.15 28.75 11.35 28.2 10.7 27.4 10
L 20.85 4.05
Q 20.8 3.75 20.65 3.4 20.05 1.85 17.65 0.9 14.6 -0.25 11.35 0.05 8.05 0.35 5.4 2.05 2.7 3.8 1.25 6.75 -0.3 9.8 0.05 12.9 0.35 16 2.45 19.2 4 21.55 6.95 24.5 11.65 29.2 15.6 30.85 17.7 31.75 19.25 31.45 19.65 31.4 20 31.25 20.1 31.35 20.2 31.45 21.1 32.3 22.55 32.9
L 22.6 32.95
Q 22.95 33.05 25.2 33.9 25.3 33.95 25.4 34 28.8 35.3 34.5 39.05
L 43.3 44.75
Q 58.25 54.55 66.4 60.5 70.55 63.6 72.95 64.9 76.8 66.95 80.25 67.1 84.4 67.25 88.9 64.55 91.95 62.7 96.3 58.7 102.05 53.45 104.35 49.8 105.35 48.15 105.55 46.55 105.7 45.3 105.2 44.5 104.95 44.05 104.5 43.75 103.7 43.15 102.55 43.3 101.6 43.4 100.8 43.95 100.65 44 100.55 44.1 100 44.5 99.45 45.2 99.25 45.35 99.1 45.6 98.7 46.2 97.95 47.3 Z"/>
</g>

<g id="neck_0_Layer0_0_FILL">
<path fill="#000000" stroke="none" d="
M 0.55 8.15
Q 0.05 9.15 0 10.3 0 11.65 1.1 14.6 3.6 21.45 5.65 32.4 6.1 35 6.55 37.85 7.1 40.9 7.05 42.85 7.05 43.55 7.05 45 7.05 46.25 7.45 47.05 8.3 48.7 10 48.95 11.95 49.2 12.9 47.75 13.8 46.45 13.4 43.8 13.1 41.05 12.8 38.8 12.55 37.05 12.25 35.55 11.9 33.6 11.55 31.55 11.45 31.2 11.4 30.85 11.4 30.7 11.35 30.6 10.85 27.75 10.2 24.7 8.6 17.7 7.4 14.3 6.55 11.9 6.35 10.9 6.15 9.7 6 9.15 5.75 8.1 5.25 7.55 4.9 7.05 4.3 6.8 4.1 6.7 3.85 6.65 2.95 6.4 2.15 6.7 1.15 7.1 0.55 8.15
M 22.9 2.2
Q 22.6 1.25 21.75 0.65 20.9 0 19.9 0 18.95 -0.05 18.05 0.55 17.25 1.1 16.9 2 16.85 2.05 16.85 2.1 16.35 3.45 17.15 6.05 20.1 15.75 23.75 25.7 25.6 30.85 27.7 36.05 27.9 36.6 28.15 37.15 28.75 38.5 29.35 39.75 30.55 41.95 31.9 42.35 33.45 42.75 34.55 41.65 35.65 40.65 35.55 39.05 35.45 38 34.15 35.7 33.1 33.85 31.6 29.85 30.4 26.65 29.2 23.4 26.45 15.7 23.75 7.5 23.15 5.35 23.1 4.85 23.1 3.95 23.1 3.5 23.05 2.7 22.9 2.2 Z"/>

<path fill="#DEBB89" stroke="none" d="
M 17.15 6.05
Q 16.35 3.45 16.85 2.1 16.85 2.05 16.9 2 16.05 2 14.7 2.2 10.15 2.9 8.1 4 7.35 4.4 5.3 5.85 4.65 6.4 4.3 6.8 4.9 7.05 5.25 7.55 5.75 8.1 6 9.15 6.15 9.7 6.35 10.9 6.55 11.9 7.4 14.3 8.6 17.7 10.2 24.7 10.85 27.75 11.35 30.6 11.4 30.7 11.4 30.85 11.55 30.85 11.7 30.9 11.65 31.15 11.55 31.55 11.9 33.6 12.25 35.55 12.55 37.05 12.8 38.8 13.45 39.05 14.15 39.05 15.5 39 16.6 37.95 17.65 36.9 17.65 35.5 18.1 36.45 19.3 37 20.05 37.35 21.55 37.7 23.55 38.25 24.15 38.3 25.6 38.55 26.7 38.1 27.55 37.8 28.15 37.15 27.9 36.6 27.7 36.05 25.6 30.85 23.75 25.7 20.1 15.75 17.15 6.05 Z"/>
</g>

<g id="waist_0_Layer0_0_FILL">
<path fill="#333333" stroke="none" d="
M 95.3 29.2
Q 96.7 27.05 98.05 24.85 98.6 23.95 99.15 23.3 92.85 12.55 78.8 3.4 75.95 1.55 73.85 0.8 71 -0.3 68.55 0.1 64.85 0.7 60.85 5.15 54.65 12.15 49.8 23.4 49.1037109375 24.96640625 47.2 30 35.656640625 27.012890625 19.25 24.25 -9 19.45 -18.85 16.95 -22 16.15 -28.3 14.55 -33.75 13.25 -37.9 13 -44.8 12.6 -47.1 16.2 -48.65 18.6 -47.75 23.75 -44.65 41.55 -36.2 57.85 -28.9712890625 71.712109375 -18.65 82.95 -18.410546875 82.4775390625 -17.95 82.05 -17.25 81.45 -16.35 81.2 -15.6 81.05 -14.6 81.1 -14.05 81.15 -12.85 81.35 -11.9251953125 81.5037109375 -11 81.65 6.6306640625 84.301171875 22.55 81.45 22.66875 81.4287109375 22.75 81.4
L 37.25 74.75
Q 50.6 68.65 57.85 64.45 70.15 57.2 80.4 47.1 88.8 38.8 95.3 29.2 Z"/>

<path fill="#000000" stroke="none" d="
M 104.45 21.65
Q 103.75 20.95 102.6 21 101.55 21.05 100.65 21.65 100 22.1 99.15 23.3 98.6 23.95 98.05 24.85 96.7 27.05 95.3 29.2 88.8 38.8 80.4 47.1 70.15 57.2 57.85 64.45 50.6 68.65 37.25 74.75
L 22.75 81.4
Q 22.66875 81.4287109375 22.55 81.45 6.6306640625 84.301171875 -11 81.65 -11.9251953125 81.5037109375 -12.85 81.35 -14.05 81.15 -14.6 81.1 -15.6 81.05 -16.35 81.2 -17.25 81.45 -17.95 82.05 -18.410546875 82.4775390625 -18.65 82.95 -18.7486328125 83.2263671875 -18.8 83.5 -18.9876953125 84.9544921875 -17.6 86.05 -17.750390625 86.4287109375 -17.8 86.85 -17.9 87.75 -17.55 88.5 -17.05 89.45 -15.55 90.4 -8.8783203125 94.7142578125 0.1 96.9 0.1599609375 96.994921875 0.2 97.1 0.55 98.1 1.4 98.75 2.65 99.7 5.25 100.1 14.75 101.5 26.15 98.45 34.15 96.25 46.2 90.75 64.4 82.4 75.75 74.7 90.05 64.95 98.55 53.3 99.3 52.85 99.9 51.8 100.2 51.25 100.5 50.3 100.95 49.4 101.1 48.7 101.2 48.1 101.15 47.55
L 101.5 45.85
Q 102 43.65 101.8 42.5 101.4 40.5 99.7 39.5 100.5 38.45 100.05 37.05 99.6 35.75 98.55 35.3 101.35 31.45 103.9 27.35 106.4 23.4 104.45 21.65
M 2.5 90.85
Q 2.369921875 90.926953125 2.25 91 1.9294921875 90.9326171875 1.6 90.85 2.05546875 90.853125 2.5 90.85 Z"/>
</g>

<g id="torso_0_Layer0_0_FILL">
<path fill="#000000" stroke="none" d="
M 180.8 26
Q 175 13.7 165.3 6.2 160.8 2.7 156.15 1.1 150.75 -0.7 146.05 0.5 144.6 0.85 143.55 1.8 143.45 1.7 143.3 1.65 142.45 1.3 140.65 1.7 133.1 3.4 126.35 7.1 119.45 10.9 114.25 16.35 112.2 18.55 109.5 22.05 106.55 26 105 27.9 99.35 35.15 80.7 53.8 65 69.55 58.05 80.8 53.55 88.15 53.85 93.35 54.05 97.1 56.9 102.3 62.6 112.75 71.15 120.75 63.05 148.85 43.2 177.75 34.8 190 23.8 203.35 14.95 214 2.55 227.5 0.25 230 0.05 231.7 -0.1 232.85 0.45 234.35 0.45 234.4 1.5 236.85 4.05 242.85 2.05 249.25 1.85 249.95 1.35 251.35 0.95 252.55 0.9 253.5 0.9 254.7 1.45 255.65 2.05 256.7 3.1 256.9 4.2 257.2 5.25 256.45 5.9 257 6.75 257.6 33.25 276.25 57.2 298.55 59.35 300.55 60.7 301.45 62.85 302.8 64.8 302.85 66.15 302.9 67.95 302.3 68.95 301.95 71 301.2 74.15 300.05 77.55 300.15 78.35 300.15 79.85 300.2 81.2 300.2 82.15 299.9 83.3 299.5 84.05 298.6 84.4 298.1 84.55 297.55 85.55 297.15 86.75 296.25 100.85 285.35 112.15 264 118.65 251.6 129.85 225.55 133 218.95 138.45 208.5 145.35 195.3 147.2 191.6 168.35 149.6 181 101.15 184.8 86.55 186.35 76.1 188.35 62.3 187.3 50.7 186.1 37.3 180.8 26
M 165.25 16.25
Q 167.35 18.25 169.75 22.2 175.05 30.9 175.85 37.95 176.4 42.7 175.25 47.3 174.4 50.7 172.45 54.5 171.05 57.2 168.4 61.2 165.25 66 162.9 67.95 159.35 70.9 153.65 71.85 149.8 72.55 143.2 72.45 135.85 72.3 131.4 71.5 125 70.3 120.7 67.25 117.6 65 115.15 61.7 113.1 58.75 112.4 56.3 111.1 51.8 112.95 46.25 113.95 43.15 117.45 37.1
L 120.2 32.4
Q 123.3 27.25 124.4 25.75 127 22.15 131.05 18.4 133.55 16 138.55 11.9 141.3 9.55 143.2 9.5 143.65 9.5 144.85 9.7 145.9 9.9 146.55 9.8 147.45 9.7 149.15 8.95 150.55 8.6 152.3 9.05 153.4 9.35 155.4 10.25 158.95 11.95 160.6 12.85 163.4 14.45 165.25 16.25
M 175.45 60.95
Q 177.1 58.2 177.95 56.65 179.7 53.45 180.6 50.65 180.65 50.55 180.65 50.5 181.7 58.5 181.3 66.7 180.65 78.1 176.25 95.55 162.95 147.95 138.3 195.85 131.75 208.3 128.5 214.5 122.7 225.6 119.25 233.45 116.85 239 112.3 250.2 108.1 260.15 104.3 266.5 96.4 279.8 84.3 289.4 81.5 291.65 80.85 293.15 80.65 293.55 80.6 294 80.1 293.95 79.55 293.95 76.5 293.85 74.75 293.95 73.4 294.05 72.2 294.25 71.05 294.4 70.05 294.7 68.2 295.3 67.3 295.5 65.65 295.9 64.5 295.7 63.95 295.6 63.35 295.25 62.15 294.65 60.65 293.25 39.05 273.65 18.5 258.7 14.35 255.7 11.85 253.45 10.75 252.4 10 251.55 9 250.45 8.35 249.9 9 247.05 9 244.25 9 242.05 8.7 239.9 8.6 239.55 8.55 239.25 8.4 238.45 8.25 237.7 8.05 236.95 7.85 236.25 7.1 233.85 7.3 232.75 7.35 232.55 7.45 232.3 7.85 231.1 9.25 229.6 34.65 200.85 48.85 179.9 66.6 153.75 75.3 128.85 75.9 127.05 76.5 125.25 76.55 125.3 76.6 125.35 79.7 127.65 81.45 126.4 82.3 125.8 82.45 124.65 82.55 123.6 82.05 122.6 81.4 121.45 79.1 119.7 78.3 119.05 77.5 118.45 77.4 118.25 77.35 118.05 76.6 116.2 75 116.1 74.9 116.1 74.75 116.1 68.4 110.3 63.85 102.95 59.9 96.85 60.2 92.1 60.3 89.85 61.6 87 62.3 85.4 63.35 83.65 67.15 77.4 73.6 70.35 75.75 68 85.35 58.25 100.05 43.45 113.85 26.7 118.3 21.35 120.5 19.1 124.2 15.4 127.9 13.4 123.85 17.25 121.25 20.45 117.2 25.4 111.3 36 108 41.8 107.05 45 104.8 52.5 107.55 59.75 109.4 64.7 113.5 68.75 117.3 72.55 122.45 74.9 131.05 78.85 143.7 78.95 158.8 79.05 166.65 72.45 166.75 72.3 166.9 72.2 169 70.4 171.05 67.55 172.15 66.05 174.55 62.35 175 61.6 175.45 60.95 Z"/>

<path fill="#333333" stroke="none" d="
M 20.05 231.9
Q 19.05 231.75 17.6 231.9 16 232.15 15.15 232.25 11.75 232.8 8.35 232.4 7.85 232.35 7.45 232.3 7.35 232.55 7.3 232.75 7.1 233.85 7.85 236.25 8.05 236.95 8.25 237.7 8.4 238.45 8.55 239.25 8.6 239.55 8.7 239.9 9 242.05 9 244.25 9 247.05 8.35 249.9 9 250.45 10 251.55 10.75 252.4 11.85 253.45 12.3 252.3 12.45 250.75 12.6 249.1 12.75 248.3 13 246.9 13.55 246.05 14.25 245 16.05 244.05 18.7 242.6 18.95 242.45 20.15 241.6 21.95 239.2 22.9 237.9 23.25 237.1 23.85 235.85 23.65 234.8 23.45 233.65 22.35 232.85 21.35 232.1 20.05 231.9
M 62.35 88.85
Q 62.3 87.8 61.6 87 60.3 89.85 60.2 92.1 59.9 96.85 63.85 102.95 68.4 110.3 74.75 116.1 74.9 116.1 75 116.1 76.6 116.2 77.35 118.05 77.4 118.25 77.5 118.45 78.3 119.05 79.1 119.7 81.4 121.45 82.05 122.6 82.55 123.6 82.45 124.65 82.3 125.8 81.45 126.4 79.7 127.65 76.6 125.35 76.55 125.3 76.5 125.25 75.9 127.05 75.3 128.85 75.7 128.8 76.2 128.75 77.45 128.8 79.05 129.7 79.9 130.25 81.7 131.3 83.35 132.15 85.35 132.25 88.95 132.4 92.9 129.65 95.65 127.85 95.5 125.75 95.45 124.65 94.5 123.85 93.55 123.05 92.4 123.05 91.95 123.05 90.55 123.4 89.45 123.7 88.75 123.55 88.15 123.4 86.8 122.6 86.2 122.2 82.4 120.25 78.95 118.4 75.9 115.6 74.15 114.05 71.75 111.25 68.7 107.8 67.45 105.6 66.5 103.95 65.45 100.95 64.15 97.25 63.65 96.15 62.6 93.7 62.5 93.55 61.95 92.05 62.1 90.85 62.35 89.5 62.35 88.85
M 177.95 56.65
Q 177.1 58.2 175.45 60.95 175 61.6 174.55 62.35 172.15 66.05 171.05 67.55 169 70.4 166.9 72.2 166.75 72.3 166.65 72.45 162.7 88.2 156.4 106.7 151.9 120 141.85 146.55 122.45 197.8 110.15 223.1 90 264.45 65.7 291.95 64.05 293.8 63.35 295.25 63.95 295.6 64.5 295.7 65.65 295.9 67.3 295.5 68.2 295.3 70.05 294.7 71.05 294.4 72.2 294.25 73.4 294.05 74.75 293.95 76.5 293.85 79.55 293.95 80.1 293.95 80.6 294 80.65 293.55 80.85 293.15 81.5 291.65 84.3 289.4 96.4 279.8 104.3 266.5 108.1 260.15 112.3 250.2 116.85 239 119.25 233.45 122.7 225.6 128.5 214.5 131.75 208.3 138.3 195.85 162.95 147.95 176.25 95.55 180.65 78.1 181.3 66.7 181.7 58.5 180.65 50.5 180.65 50.55 180.6 50.65 179.7 53.45 177.95 56.65 Z"/>

<path fill="#666666" stroke="none" d="
M 120.5 19.1
Q 118.3 21.35 113.85 26.7 100.05 43.45 85.35 58.25 75.75 68 73.6 70.35 67.15 77.4 63.35 83.65 62.3 85.4 61.6 87 62.3 87.8 62.35 88.85 62.35 89.5 62.1 90.85 61.95 92.05 62.5 93.55 62.6 93.7 63.65 96.15 64.15 97.25 65.45 100.95 66.5 103.95 67.45 105.6 68.7 107.8 71.75 111.25 74.15 114.05 75.9 115.6 78.95 118.4 82.4 120.25 86.2 122.2 86.8 122.6 88.15 123.4 88.75 123.55 89.45 123.7 90.55 123.4 91.95 123.05 92.4 123.05 93.55 123.05 94.5 123.85 95.45 124.65 95.5 125.75 95.65 127.85 92.9 129.65 88.95 132.4 85.35 132.25 83.35 132.15 81.7 131.3 79.9 130.25 79.05 129.7 77.45 128.8 76.2 128.75 75.7 128.8 75.3 128.85 66.6 153.75 48.85 179.9 34.65 200.85 9.25 229.6 7.85 231.1 7.45 232.3 7.85 232.35 8.35 232.4 11.75 232.8 15.15 232.25 16 232.15 17.6 231.9 19.05 231.75 20.05 231.9 21.35 232.1 22.35 232.85 23.45 233.65 23.65 234.8 23.85 235.85 23.25 237.1 22.9 237.9 21.95 239.2 20.15 241.6 18.95 242.45 18.7 242.6 16.05 244.05 14.25 245 13.55 246.05 13 246.9 12.75 248.3 12.6 249.1 12.45 250.75 12.3 252.3 11.85 253.45 14.35 255.7 18.5 258.7 39.05 273.65 60.65 293.25 62.15 294.65 63.35 295.25 64.05 293.8 65.7 291.95 90 264.45 110.15 223.1 122.45 197.8 141.85 146.55 151.9 120 156.4 106.7 162.7 88.2 166.65 72.45 158.8 79.05 143.7 78.95 131.05 78.85 122.45 74.9 117.3 72.55 113.5 68.75 109.4 64.7 107.55 59.75 104.8 52.5 107.05 45 108 41.8 111.3 36 117.2 25.4 121.25 20.45 123.85 17.25 127.9 13.4 124.2 15.4 120.5 19.1 Z"/>

<path fill="#F8D5A4" stroke="none" d="
M 169.75 22.2
Q 167.35 18.25 165.25 16.25 163.4 14.45 160.6 12.85 158.95 11.95 155.4 10.25 153.4 9.35 152.3 9.05 150.55 8.6 149.15 8.95 147.45 9.7 146.55 9.8 145.9 9.9 144.85 9.7 143.65 9.5 143.2 9.5 141.3 9.55 138.55 11.9 133.55 16 131.05 18.4 127 22.15 124.4 25.75 123.3 27.25 120.2 32.4
L 117.45 37.1
Q 113.95 43.15 112.95 46.25 111.1 51.8 112.4 56.3 113.1 58.75 115.15 61.7 117.6 65 120.7 67.25 125 70.3 131.4 71.5 135.85 72.3 143.2 72.45 149.8 72.55 153.65 71.85 159.35 70.9 162.9 67.95 165.25 66 168.4 61.2 171.05 57.2 172.45 54.5 174.4 50.7 175.25 47.3 176.4 42.7 175.85 37.95 175.05 30.9 169.75 22.2 Z"/>
</g>

<g id="arm_0_Layer0_0_FILL">
<path fill="#DEBB89" stroke="none" d="
M 322.9 33.55
Q 322.6 33.6 322.25 33.75 320.7 34.35 319.25 35.85 308.6 47.05 288 54.45 282.5 56.45 270.05 60.2 258.2 63.8 252.15 66.05 235.45 72.3 217.1 83.9 204.65 91.8 184.75 106.85 160.9 124.85 152.7 130.55 134.35 143.3 118.65 150.7 109.85 154.85 88.85 162.7 69.4 169.9 59.25 175.1 46.85 181.45 33.55 191.3 25.1 197.55 14.6 206.55 12.3 208.5 9.95 210.55 8.75 211.65 8.15 212.6 7.4 213.85 7.75 214.85 8.2 216.3 9.75 216.5 10.4 215.25 11.5 214.3 11.8 214.05 12.1 213.8 12.75 213.3 13.4 212.8 30.1 199.9 42.25 192.4 44.3 191.1 46.35 189.95 61.25 181.1 75.2 176.35 82.45 173.9 98.65 170 114.05 166.35 122 163.45 140.3 156.8 155.25 144.45 160.3 140.3 168.55 132.15 177.7 123.15 181.7 119.65 198.5 104.95 219.25 96.3 226.75 93.2 240.35 88.95 255.6 84.15 261.55 81.9 281.95 74.15 297.5 62.1 303.1 57.75 307.85 53.05 316.9 44 322.9 33.55 Z"/>

<path fill="#000000" stroke="none" d="
M 296.4 0.6
Q 295.15 0.8 293.4 1.95 265.75 21.45 198.15 65.8 136.75 106.1 103.45 130.35 71 154.65 54.6 166.5 26 187.15 3.85 199.7 1.8 200.9 0.75 202.35 -0.55 204.15 0.4 205.6 1.3 207 3.35 206.7 4.5 206.5 5.8 205.9 6.35 205.65 6.9 205.3 8.75 204.15 10.65 202.95 38 185.7 77.1 157.3 137.2 113.6 146.1 107.4 167.45 92.6 221.2 57.8 269.1 26.85 295.55 7.85 295.7 7.7 295.85 7.6 297.8 6.15 298.65 4.2 299.65 1.95 298 0.9 297.35 0.45 296.4 0.6
M 326.6 28.55
Q 325.25 29.2 324.05 31.5 323.85 31.8 323.7 32.15 323.3 32.85 322.9 33.55 316.9 44 307.85 53.05 303.1 57.75 297.5 62.1 281.95 74.15 261.55 81.9 255.6 84.15 240.35 88.95 226.75 93.2 219.25 96.3 198.5 104.95 181.7 119.65 177.7 123.15 168.55 132.15 160.3 140.3 155.25 144.45 140.3 156.8 122 163.45 114.05 166.35 98.65 170 82.45 173.9 75.2 176.35 61.25 181.1 46.35 189.95 44.3 191.1 42.25 192.4 30.1 199.9 13.4 212.8 12.75 213.3 12.1 213.8 11.8 214.05 11.5 214.3 10.4 215.25 9.75 216.5 9.5 216.9 9.35 217.3 8.45 219.65 10.15 220.6 11.75 221.5 14.6 219.45 37.9 202.6 44.1 198.55 61.2 187.45 76 182.35 81.9 180.35 90.7 178.2 95.65 176.95 105.55 174.6 142 165.2 162.65 146.55 166.55 143.05 174.2 134.9 181.5 127.05 185.8 123.35 200.8 110.3 230.2 99.6 238.25 96.7 254.5 91.05 268.65 85.95 278.15 81.15 292.15 74.15 304.4 64.1 316.6 54.1 326.25 41.7 328.15 39.2 329.1 37.5 330.4 35 330.55 32.75 330.65 31.1 329.85 29.75 328.95 28.25 327.5 28.3 327.05 28.35 326.6 28.55 Z"/>

<path fill="#F8D5A4" stroke="none" d="
M 326.6 28.55
Q 326.4 27.6 325.7 26.55 325.35 26 324.25 24.7
L 318.35 17.85
Q 314.45 13.35 312.4 11.2 309.05 7.55 306 5 303.3 2.6 300.6 0.95 298.35 -0.45 296.95 0.2 296.65 0.35 296.4 0.6 297.35 0.45 298 0.9 299.65 1.95 298.65 4.2 297.8 6.15 295.85 7.6 295.7 7.7 295.55 7.85 269.1 26.85 221.2 57.8 167.45 92.6 146.1 107.4 137.2 113.6 77.1 157.3 38 185.7 10.65 202.95 8.75 204.15 6.9 205.3 6.35 205.65 5.8 205.9 5.75 206.55 5.9 207.3 6.45 210.3 8.15 212.6 8.75 211.65 9.95 210.55 12.3 208.5 14.6 206.55 25.1 197.55 33.55 191.3 46.85 181.45 59.25 175.1 69.4 169.9 88.85 162.7 109.85 154.85 118.65 150.7 134.35 143.3 152.7 130.55 160.9 124.85 184.75 106.85 204.65 91.8 217.1 83.9 235.45 72.3 252.15 66.05 258.2 63.8 270.05 60.2 282.5 56.45 288 54.45 308.6 47.05 319.25 35.85 320.7 34.35 322.25 33.75 322.6 33.6 322.9 33.55 323.3 32.85 323.7 32.15 323.85 31.8 324.05 31.5 325.25 29.2 326.6 28.55 Z"/>
</g>

<g id="hand_0_Layer0_0_FILL">
<path fill="#DEBB89" stroke="none" d="
M 86 11.4
Q 85 11.35 84.1 11.8 82.75 12.45 80.65 15 78.2 17.85 73.3 22.25 69.7 25.5 68.05 26.8 65.05 29.25 62.35 30.75 61.75 31.1 60.5 31.75 59.45 32.35 58.8 32.95 58.05 33.65 56.75 35.2 56.65 35.3 55.55 36.2 54.9 36.8 54.5 37.25
L 54.45 37.3
Q 53.85 37.95 53.35 39.1 53.65 39.1 53.95 39.2 54.75 38.85 55.65 38.5 64.15 35.05 68.4 32.7 75.2 28.9 79.25 24.2 81.75 21.25 84.6 16.15 86 13.5 87.3 12.7 87.7 12.45 88.1 12.3 87.5 11.65 86.45 11.45 86.2 11.4 86 11.4
M 62.1 42.5
Q 57.95 44.4 54.5 45.85 53.4 49.5 51.55 55.35 50.4 59 50.6 60.75 50.75 62.2 51.65 63.3 52.2 64.1 52.95 64.5 53.85 64.15 54.7 63.1 56.6 58.9 59.6 49.2 60.75 45.45 62.1 42.5 Z"/>

<path fill="#000000" stroke="none" d="
M 83.45 4.55
Q 83.75 4.05 83.9 3.55 84 3.15 84.05 2.75 84.1 1.7 83.55 1 82.8 -0.05 81.2 0 79.9 0 78.4 0.7 76.35 1.7 73.85 3.5 71.05 5.7 69.6 6.75 65.4 10 57.5 15.15 48.7 20.8 45.2 23.35 42.4 25.45 37.6 29.2 28.7 36.3 24.85 39.5 17.85 45.3 12.6 50.35 8.2 54.6 4.15 59.1 2.85 59.1 1.75 60.35 0.8 61.5 0.35 63.2 -0.45 66.45 0.7 69.55 1.95 72.85 4.8 73.9 7.4 74.85 10.7 73.45 12.95 72.45 16.1 69.95
L 33.05 56.55
Q 37.15 53.25 39.45 52 41.6 50.85 46.8 48.95
L 46.25 50.6
Q 45.25 54.1 45 55.1 44.4 57.7 44.35 59.7 44.1 65.15 46.85 68.45 48.4 70.3 50.65 71.05 53.05 71.85 55.2 71.05 57.75 70.1 59.85 66.8 62.3 62.95 64.9 53.55 67.4 44.45 70.25 40.45 71.1 39.3 71.5 38.75 71.85 38.2 72.1 37.7 72.55 37.45 73 37.2 78 34.35 81.25 31.2 83.1 29.4 86.65 24.9 88.75 22.2 89.7 20.6 91.2 18.1 91.65 15.8 91.95 14.05 91.3 13.1 90.7 12.25 89.45 12.15 88.75 12.1 88.1 12.3 87.7 12.45 87.3 12.7 86 13.5 84.6 16.15 81.75 21.25 79.25 24.2 75.2 28.9 68.4 32.7 64.15 35.05 55.65 38.5 54.75 38.85 53.95 39.2 53.65 39.1 53.35 39.1 53.15 39.05 52.95 39.05 51.55 39.05 50.5 39.9 50.05 40.3 49.65 40.95 45.5 42.6 43.75 43.2 38.9 44.85 36.5 46.15 34 47.5 29.4 51.15
L 10.5 66.5
Q 9.6 67.25 8.7 67.5 7.65 67.8 7.05 67.1 6.6 66.6 6.7 65.75 7 65.4 7.35 65 17 54.35 27.95 45
L 35 39.2
Q 44.7 31.5 57.5 22.6 64.45 17.8 78.95 8.15 79.8 7.6 80.65 7 82.7 5.65 83.45 4.55
M 54.5 45.85
Q 57.95 44.4 62.1 42.5 60.75 45.45 59.6 49.2 56.6 58.9 54.7 63.1 54.25 64.05 53.85 64.75 53.4 64.7 52.95 64.5 52.2 64.1 51.65 63.3 50.75 62.2 50.6 60.75 50.4 59 51.55 55.35 53.4 49.5 54.5 45.85 Z"/>

<path fill="#F8D5A4" stroke="none" d="
M 85.45 4.5
Q 84.75 3.8 83.9 3.55 83.75 4.05 83.45 4.55 82.7 5.65 80.65 7 79.8 7.6 78.95 8.15 64.45 17.8 57.5 22.6 44.7 31.5 35 39.2
L 27.95 45
Q 17 54.35 7.35 65 7 65.4 6.7 65.75 6.6 66.6 7.05 67.1 7.65 67.8 8.7 67.5 9.6 67.25 10.5 66.5
L 29.4 51.15
Q 34 47.5 36.5 46.15 38.9 44.85 43.75 43.2 45.5 42.6 49.65 40.95 50.05 40.3 50.5 39.9 51.55 39.05 52.95 39.05 53.15 39.05 53.35 39.1 53.85 37.95 54.45 37.3
L 54.5 37.25
Q 54.9 36.8 55.55 36.2 56.65 35.3 56.75 35.2 58.05 33.65 58.8 32.95 59.45 32.35 60.5 31.75 61.75 31.1 62.35 30.75 65.05 29.25 68.05 26.8 69.7 25.5 73.3 22.25 78.2 17.85 80.65 15 82.75 12.45 84.1 11.8 85 11.35 86 11.4 86.45 10.35 86.65 9.25 87.15 6.35 85.45 4.5 Z"/>
</g>

<g id="head_0_Layer5_0_FILL">
<path fill="#000000" stroke="none" d="
M 140.3 174.2
Q 138.9 174.6 136.9 174.5 134.45 174.4 132.5 174.15 130.4970703125 173.8162109375 129.65 173.9 129.534375 174.3875 129.3 174.7 128.9580078125 175.212890625 128.55 175.55 128.3896484375 175.7236328125 128.2 175.85 127.6908203125 176.1740234375 126.6 176.55 126.6208984375 177.0427734375 126.8 177.6 127.3 178.9 128.45 179.6 130.05 180.55 133.5 180.55
L 138.45 180.6
Q 141.65 180.6 143.15 180.1 145.8 179.3 146.55 177.05 146.6974609375 176.5654296875 146.7 176.05 146.6892578125 175.3943359375 146.4 174.7 145.85 173.5 144.7 173.2 143.75 172.95 142.5 173.4 141.05 174 140.3 174.2
M 107.95 40.3
Q 100.75 34.3 91.45 30.65 80.1 26.25 67.3 25.7 54.95 25.25 42.7 28.4 19.45 34.5 -0.2 52.3 -17.9 68.25 -22.4 85.55 -25 95.75 -22.65 105.75 -20.15 116.35 -12.8 122.9 -1.8 132.7 20.6 132.8 22.8041015625 132.8 24.8 132.7 26.082421875 132.67265625 27.25 132.6 29.5671875 132.4271484375 31.55 132.15 37.4 131.25 42 129.2 44.55 128.05 45.5 126.65 46.15 125.7 46.15 124.55 46.15 123.3 45.4 122.55 44.3 121.45 42.25 121.95 41.5419921875 122.1482421875 40.5 122.6 39.725390625 123.0080078125 38.75 123.55 34.8708984375 125.710546875 29.45 126.4 29.3494140625 126.4375 29.25 126.45 27.437890625 126.679296875 25.15 126.75 23.6587890625 126.798046875 21.95 126.75 20.60703125 126.7591796875 19.15 126.7 10.85 126.45 5.45 125.3 -1.95 123.75 -6.9 120 -8.2896484375 118.96328125 -9.5 117.75 -13.806640625 113.49140625 -15.95 107.1 -16.7123046875 104.870703125 -17.15 102.6 -18.2259765625 96.9625 -17.3 91.05 -15.1 76.85 -2.35 62.85 6.5 53.05 17.8 45.95 29.15 38.85 41.8 35.15 53.7 31.6 65.25 31.6 77.75 31.6 88.4 35.75 99.75 40.2 107.9 49.05 112.4955078125 54.0779296875 115.3 59.7 115.4666015625 60.035546875 115.6 60.35 116.9951171875 63.2576171875 117.9 66.3 117.9521484375 66.4732421875 118 66.65 118.433203125 68.126171875 118.75 69.65 119.4 72.75 120.15 73.85 120.8 74.8 121.85 75.2 123 75.6 123.95 75.15 126.0875 74.057421875 125.05 69.95 125.0125 69.725 124.95 69.5 123.91875 65.85390625 123.2 63.55 122.9607421875 62.7453125 122.75 62.1 121.4 58.05 119.85 55 115.75 46.75 107.95 40.3 Z"/>

<path fill="#785B32" stroke="none" d="
M 25.8 132.8
Q 26.5359375 132.7783203125 27.25 132.6 26.082421875 132.67265625 24.8 132.7 25.25703125 132.813671875 25.8 132.8
M 107.9 49.05
Q 99.75 40.2 88.4 35.75 77.75 31.6 65.25 31.6 53.7 31.6 41.8 35.15 29.15 38.85 17.8 45.95 6.5 53.05 -2.35 62.85 -15.1 76.85 -17.3 91.05 -18.2259765625 96.9625 -17.15 102.6 -16.973828125 102.7140625 -16.8 102.85 -16 103.5 -14.5 105.45 -11 109.95 -7.45 111.95 -2.85 114.45 4.7 114.55 5.5 114.55 10.95 114.4 14.75 114.3 17.2 114.45 18.6669921875 114.5181640625 19.45 114.4 19.8275390625 114.3453125 20.05 114.25 20.6 114 21.65 113.3 22.65 112.8 23.85 113 25.05 113.25 25.85 114.05 25.991796875 114.2005859375 26.1 114.4 27.366015625 112.231640625 29.95 109.95 36.55 104.3 47.25 99.7 52.4703125 97.444921875 62.25 93.8 52.141796875 102.1748046875 43.55 111 36.9 117.8 35.65 118.95 32.276953125 122.1029296875 29.1 124.25 27.9703125 125.046484375 26.85 125.7 25.8623046875 126.276171875 25.15 126.75 27.437890625 126.679296875 29.25 126.45 29.3494140625 126.4375 29.45 126.4 34.8708984375 125.710546875 38.75 123.55 39.725390625 123.0080078125 40.5 122.6 40.7529296875 122.3970703125 41 122.15 53.3 109.9 58.4 105.25 68.45 96.1 77.4 90.3 82.5 86.95 88.8 83.8 92 82.25 98.4 79.35 104.8 76.35 109.1 73.6 113.541015625 70.73359375 116.75 67.45 117.395703125 67.1033203125 117.8 66.8 117.9037109375 66.72421875 118 66.65 117.9521484375 66.4732421875 117.9 66.3 116.9951171875 63.2576171875 115.6 60.35 115.4666015625 60.035546875 115.3 59.7 112.4955078125 54.0779296875 107.9 49.05
M 164.65 113.15
Q 164.6353515625 113.0619140625 164.6 112.95 163.2296875 104.65 161.3 99.9 159.45 95.4 155 89 145.7 75.6 135.55 68.1 129.75 63.8 125.15 63.5 124.089453125 63.419921875 123.2 63.55 123.91875 65.85390625 124.95 69.5 125.0125 69.725 125.05 69.95 126.6359375 70.117578125 127 70.25 125.85 71.1 125.45 72.65 125.05 74.1 125.4 75.6 125.85 77.45 128.25 80.85 140.9 98.8 148.2 119.95 150.05 125.35 150.4 128.85 150.9 133.55 149.45 139.7 146.2 153.25 136.8 163.5 134.7 165.85 134.2 167.05 133.75 168.15 133.95 169.25 134.0380859375 169.9541015625 134.35 170.45 134.9900390625 170.159765625 135.65 169.7 136.25625 169.3380859375 136.9 168.85 144.9 162.7 151.45 152.95 156.8 144.9 161.6 133.65 163.3 129.65 163.9 126.95 164.75 123.15 163.95 120.1 163.65 119.05 163.55 118.55 163.35 117.6 163.45 116.95 163.65 115.8 164.75 115.1 164.840234375 115.0412109375 164.9 115 164.803125 114.0890625 164.65 113.15 Z"/>

<path fill="#5A401C" stroke="none" d="
M 26.1 114.4
Q 25.991796875 114.2005859375 25.85 114.05 25.05 113.25 23.85 113 22.65 112.8 21.65 113.3 20.6 114 20.05 114.25 19.8275390625 114.3453125 19.45 114.4 18.6669921875 114.5181640625 17.2 114.45 14.75 114.3 10.95 114.4 5.5 114.55 4.7 114.55 -2.85 114.45 -7.45 111.95 -11 109.95 -14.5 105.45 -16 103.5 -16.8 102.85 -16.973828125 102.7140625 -17.15 102.6 -16.7123046875 104.870703125 -15.95 107.1 -13.806640625 113.49140625 -9.5 117.75 -8.2896484375 118.96328125 -6.9 120 -1.95 123.75 5.45 125.3 10.85 126.45 19.15 126.7 20.60703125 126.7591796875 21.95 126.75 23.6587890625 126.798046875 25.15 126.75 25.8623046875 126.276171875 26.85 125.7 27.9703125 125.046484375 29.1 124.25 27.9271484375 119.2751953125 27.25 117.05 26.75625 115.280859375 26.1 114.4
M 164.6 112.95
Q 164.6353515625 113.0619140625 164.65 113.15 164.803125 114.0890625 164.9 115 164.840234375 115.0412109375 164.75 115.1 163.65 115.8 163.45 116.95 163.35 117.6 163.55 118.55 163.65 119.05 163.95 120.1 164.75 123.15 163.9 126.95 163.3 129.65 161.6 133.65 156.8 144.9 151.45 152.95 144.9 162.7 136.9 168.85 136.25625 169.3380859375 135.65 169.7 134.515625 170.5396484375 133.15 171.45 132.5 170.9 131.6 170.75 130.7 170.55 129.9 170.9 129.2578125 171.1408203125 128.8 171.65 128.6177734375 171.730078125 128.45 171.8 127.35 172.35 127.1 173.75 126.976953125 174.3900390625 127.05 174.95 126.428125 175.1580078125 125.85 175.7 125.1 176.4 124.8 177.35 124.7126953125 177.65546875 124.65 177.95 125.709375 176.9703125 126.45 176.6 126.5388671875 176.5703125 126.6 176.55 127.6908203125 176.1740234375 128.2 175.85 128.3896484375 175.7236328125 128.55 175.55 128.9580078125 175.212890625 129.3 174.7 129.534375 174.3875 129.65 173.9 130.4970703125 173.8162109375 132.5 174.15 134.45 174.4 136.9 174.5 138.9 174.6 140.3 174.2 141.05 174 142.5 173.4 143.75 172.95 144.7 173.2 145.85 173.5 146.4 174.7 146.6892578125 175.3943359375 146.7 176.05 148.0087890625 175.108203125 149.75 172.8 157.35 162.7 160.55 156.25 164.25 148.75 166.8 137.15 169.1 126.55 168.85 118.85 168.85 116.1 167.9 114.6 167.25 113.6 166.2 113.15 165.3564453125 112.819921875 164.6 112.95 Z"/>
</g>

<g id="head_0_Layer4_0_FILL">
<path fill="#000000" stroke="none" d="
M 21.15 106.15
Q 19.85 107.65 21.25 111.3 25.1 121.75 27.3 132 28.05 135.65 28.7 139.9
L 29.2 143.75
Q 29.6 147.6 29.55 150.7 29.5 153 29.35 157.6 29.35 161.55 30.45 164.2 31.05 165.75 32.45 167.8 35.15 171.7 37.75 172.6 39.25 173.15 42.4 173.15
L 47.2 173.15
Q 48 173.15 48.7 173.05 49.25 173.8 50.1 174.6 52.1 176.6 52.5 177.1 53.65 178.5 55.75 183.6 57.5 187.85 59.75 189.35 60.15 189.65 62.35 190.75 63.95 191.55 64.65 192.4 65.05 192.85 65.8 194.35 66.4 195.6 67.05 196.15 67.6 196.55 68.9 196.95 70.25 197.35 70.8 197.7 70.9 197.75 71 197.85 72 198.6 73.2 200.6 74.45 202.05 77.7 203.4 79.05 203.95 80.3 204.45 82.85 205.4 84.85 205.95 88.85 207.05 92.3 206.95 97.15 206.8 102.55 204.4 115.25 198.65 124.15 184.55 127.8 178.8 130.95 171.4 133.4 165.7 136.15 157.45 137.65 152.8 135.3 151.55 134.4 151.1 133.25 151.45 133.19296875 151.4689453125 133.1 151.5 132.1619140625 151.8462890625 131.5 152.65 130.6564453125 153.7748046875 130 156.2 129.9439453125 156.3806640625 129.9 156.55 128.6349609375 161.2751953125 126.9 165.8 123.9701171875 173.435546875 119.7 180.5 117.2859375 184.444140625 114.7 187.6 114.2375 188.2072265625 113.75 188.75 111.007421875 191.925 108.1 194.2 104.051953125 197.4083984375 99.65 198.95 99.36015625 199.0501953125 99.05 199.15 94.95 200.45 90.55 200.3 86.15 200.15 82.2 198.55 79.1 197.25 77.45 195.5
L 75.95 193.75
Q 75.1 192.7 74.3 192.2 74.1552734375 192.0966796875 73.85 191.95 73.474609375 191.72265625 72.8 191.4 71.85 190.95 71.35 190.5 70.9 190.05 70.35 189.1 69.75 188 69.45 187.6 68.65 186.55 66.45 185.55 64.05 184.45 63.25 183.75 62.4 183 61.7 181.7 61.4 181.1 60.65 179.35 57.95 173.3 53.7 168.5 51.55 166.05 49.75 166.35 48.95 166.5 48.4 167.05 46.95 166.75 44.75 166.95 43.05 167.1 42.2 167.05 40.75 167 39.75 166.45 37.8 165.45 36.6 162.5 35.25 158.9 35.3 153.05 35.45 143.75 35.4 143.3 35.3 141.45 34.4 136.5
L 32.15 124.85
Q 31.3109375 120.84140625 30.5 118.8 30.4576171875 118.6388671875 30.4 118.5 29 115.75 28.55 114.25 28.371875 113.6798828125 28.2 112.8 28.121875 112.4521484375 28.05 112.05 27.7 110.3 27.6 109.8 26.85 107.05 25.3 105.95 24.35 105.3 23.15 105.3 21.9 105.35 21.15 106.15 Z"/>

<path fill="#F8D5A4" stroke="none" d="
M 78.3 115.05
Q 68.75 112.7 62.65 109.9 59.15 108.3 57.65 108.1 54.8 107.75 51.3 109.55 49.25 110.55 45.3 112.95 43.4 113.9 39.85 115.2 36 116.55 34.4 117.3 32.75 118.05 31.95 118.35 31.191796875 118.6376953125 30.5 118.8 31.3109375 120.84140625 32.15 124.85
L 34.4 136.5
Q 35.3 141.45 35.4 143.3 35.45 143.75 35.3 153.05 35.25 158.9 36.6 162.5 37.8 165.45 39.75 166.45 40.75 167 42.2 167.05 43.05 167.1 44.75 166.95 46.95 166.75 48.4 167.05 48.95 166.5 49.75 166.35 51.55 166.05 53.7 168.5 57.95 173.3 60.65 179.35 61.4 181.1 61.7 181.7 62.4 183 63.25 183.75 64.05 184.45 66.45 185.55 68.65 186.55 69.45 187.6 69.75 188 70.35 189.1 70.9 190.05 71.35 190.5 71.85 190.95 72.8 191.4 73.474609375 191.72265625 73.85 191.95 74.8630859375 191.60234375 75.95 191.8 76.95 192 79.75 193.45 84.1 195.7 88.45 195.55 92.55 195.35 98.05 192.85 102.55 190.85 105.05 188.75 107.55 186.7 110.45 182.75 114.9 176.6 118.15 169.1 119.6 165.75 119.85 163.3 119.8 160.65 120.1 159.4 120.35 158.35 120.95 157.65 121.65 156.8 122.55 156.65 123.5 156.5 124.4 157.1 124.8126953125 157.3837890625 125.1 157.75
L 126.6 152.55
Q 127.55 148.8 127.65 147.25 127.75 145.25 126.95 141.55 125.8 136.25 124.2 132.95 122 128.4 118.4 126.15 116.6 125.05 113.55 124.15 110.05 123.25 108.35 122.65 107.184375 122.2693359375 105.6 121.6 105.4478515625 122.0025390625 105.15 122.35 104.55 123.05 103.7 123.15 102.65 123.35 101.45 122.5 100.1 121.4 99.4 120.9 97.8 119.75 94.45 118.85 83.7 116.35 78.3 115.05 Z"/>

<path fill="#DEBB89" stroke="none" d="
M 65.5 104.35
Q 62.55 103.05 62.45 103 60.65 102.3 59.25 102 55.25 101.05 50.9 102.7 49.45 103.3 47.5 104.45 46.4 105.1 44.2 106.4 41.2 108.1 37.2 109.65 34.9 110.5 29.95 112.15 28.9587890625 112.4462890625 28.2 112.8 28.371875 113.6798828125 28.55 114.25 29 115.75 30.4 118.5 30.4576171875 118.6388671875 30.5 118.8 31.191796875 118.6376953125 31.95 118.35 32.75 118.05 34.4 117.3 36 116.55 39.85 115.2 43.4 113.9 45.3 112.95 49.25 110.55 51.3 109.55 54.8 107.75 57.65 108.1 59.15 108.3 62.65 109.9 68.75 112.7 78.3 115.05 83.7 116.35 94.45 118.85 97.8 119.75 99.4 120.9 100.1 121.4 101.45 122.5 102.65 123.35 103.7 123.15 104.55 123.05 105.15 122.35 105.4478515625 122.0025390625 105.6 121.6 107.184375 122.2693359375 108.35 122.65 110.05 123.25 113.55 124.15 116.6 125.05 118.4 126.15 122 128.4 124.2 132.95 125.8 136.25 126.95 141.55 127.75 145.25 127.65 147.25 127.55 148.8 126.6 152.55
L 125.1 157.75
Q 124.8126953125 157.3837890625 124.4 157.1 123.5 156.5 122.55 156.65 121.65 156.8 120.95 157.65 120.35 158.35 120.1 159.4 119.8 160.65 119.85 163.3 119.6 165.75 118.15 169.1 114.9 176.6 110.45 182.75 107.55 186.7 105.05 188.75 102.55 190.85 98.05 192.85 92.55 195.35 88.45 195.55 84.1 195.7 79.75 193.45 76.95 192 75.95 191.8 74.8630859375 191.60234375 73.85 191.95 74.1552734375 192.0966796875 74.3 192.2 75.1 192.7 75.95 193.75
L 77.45 195.5
Q 79.1 197.25 82.2 198.55 86.15 200.15 90.55 200.3 94.95 200.45 99.05 199.15 99.36015625 199.0501953125 99.65 198.95 101.7962890625 197.921484375 104.45 196.4 106.53828125 195.2689453125 108.1 194.2 111.007421875 191.925 113.75 188.75 113.8189453125 188.6587890625 113.9 188.55 114.2302734375 188.10078125 114.6 187.55 114.658984375 187.582421875 114.7 187.6 117.2859375 184.444140625 119.7 180.5 123.9701171875 173.435546875 126.9 165.8 128.6349609375 161.2751953125 129.9 156.55 129.9439453125 156.3806640625 130 156.2 130.6564453125 153.7748046875 131.5 152.65 132.1619140625 151.8462890625 133.1 151.5 133.9380859375 148.4017578125 133.9 146.5 133.9 145.05 133.4 142.35 131.85 134.4 129.4 129.7 125.95 123.05 120.35 120.2 118.3 119.2 113.55 117.9 109 116.7 106.8 115.45 104.6 114.05 103.4 113.6 101.2724609375 112.709375 99.7 113.7 97.74609375 112.9953125 94.4 112.3 83.9 110.15 79.7 109.1 71.55 107 65.5 104.35 Z"/>
</g>

<g id="head_0_Layer3_0_FILL">
<path fill="#000000" stroke="none" d="
M 80.45 177.75
Q 79.55 178.05 78.7 179 78.25 179.6 77.35 180.8 76.15 182.45 74.2 183.65 73.7 184 72.6 184.65 71.75 185.25 71.35 185.95 70.7 187.1 71.25 188.45 71.8 189.85 73.05 190.2 74.7 190.7 77.4 188.95 81.05 186.45 83.1 183.45 84.45 181.65 84.3 180.2 84.15 178.9 82.9 178.1 81.7 177.35 80.45 177.75 Z"/>
</g>

<g id="head_0_Layer2_0_FILL">
<path fill="#000000" stroke="none" d="
M 52.95 134.15
Q 52.75 134.35 51.5 135.35 50.25 136.25 49.15 136.85 48.1 137.35 46.8 137.75 46 138.05 45.6 138
L 44.4 137.7
Q 43.3 137.45 42.3 138.1 41.25 138.7 40.95 139.8 40.65 140.85 41.15 141.95 41.6 143.05 42.6 143.6 43.4 144.05 44.95 144.25 46.2 144.35 46.8 144.25 47.75 144.1 49.3 143.4 51.2 142.7 52.35 142.1 53.7 141.2 54.4 140.75 56.25 139.35 56.8 138.85 57.85 137.9 58.75 136.75 59.65 135.55 59.8 135 60 134.2 59.85 133.4 59.6 132.4 58.75 131.75 57.9 131.1 56.9 131.15 55.45 131.2 54.3 132.55 53.8 133.05 52.95 134.15 Z"/>

<path fill="#5A401C" stroke="none" d="
M 58.3 116.5
Q 57.1 115.75 55 116 53.1 116.25 50.2 117.45 44.95 119.6 40.1 122.9 38.9 123.8 37.8 124.4 36.3 125.35 36.15 125.5 35 126.65 35.3 128.2 35.6 129.75 37.1 130.4 38.45 130.95 40.2 130.2 41.2 129.75 42.9 128.45 47.15 125.35 51.75 123.35 54.15 122.35 55.75 122.1 57.55 121.75 57.9 121.55 59.45 120.8 59.55 119.15 59.65 117.5 58.3 116.5 Z"/>
</g>

<g id="head_0_Layer1_0_FILL">
<path fill="#000000" stroke="none" d="
M 54.05 97.45
Q 52.6 96.35 51.2 96.85 50.2 97.2 49.7 98.3 49.25 99.35 49.45 100.5 49.4888671875 100.73359375 49.55 100.95 49.285546875 101.3115234375 48.95 101.7 47.5 103.15 44.7 104.5 42.85 105.35 38.95 106.65 35.1 107.95 32.95 108.5 29.55 109.3 26.75 109.25 25.25 109.2 22.6 108.85 19.7 108.4 18.45 108.35 18.1412109375 108.334765625 17.8 108.3 14.102734375 108.2529296875 10.5 109.5 8.05 110.35 6.95 111.7 6.25 112.5 6.05 113.6 5.9 114.75 6.35 115.6 6.6974609375 116.1908203125 7.25 116.55 7.5103515625 116.728125 7.8 116.85 8.8 117.25 9.75 117 10.35 116.85 11.15 116.35 12.05 115.8 12.5 115.55 14.7 114.35 18.1 114.55 20.05 114.65 24 115.25 27.8 115.65 31.15 115.15 33.25 114.85 36.4 113.95 41.9 112.45 45.35 111 50.1 109.05 53.35 106.35
L 53.35 106.35
Q 63.7318359375 117.8650390625 74.65 119.8 77.35 120.25 82.5 120.35 87.9 120.45 90.35 120.8 94.65 121.4 98.3 123.3 102.25 125.35 104.75 128.55 106.6 130.9 107.15 131.35 107.4150390625 131.548828125 107.7 131.7 108.620703125 133.08046875 109.8 133.35 110.65 133.55 111.55 133.15 112.00234375 132.963671875 112.3 132.65 112.413671875 133.3265625 112.85 133.95 113.55 134.95 114.65 135.15 114.9978515625 135.21953125 115.5 135.15 115.51953125 135.2783203125 115.55 135.4 116 137.15 116.6 140.75 117.45 144.9 118.7 148.85 121.25 156.9 125 161.35 125.75 162.2 127.2 163.9 128.4 165.4 128.85 166.75 129.1 167.55 129.3 169 129.55 170.65 129.7 171.3 130.05 172.55 130.9 173.35 131.8 174.25 132.9 174.2 133.8 174.15 134.5 173.45 135.2 172.8 135.45 171.85 135.6142578125 171.33671875 135.65 170.65 135.6857421875 169.6349609375 135.45 168.25 134.7 163.7 133.2 161.35 133.1650390625 161.2962890625 133.1 161.25 132.4748046875 160.2693359375 131.15 158.85 129.5 157.05 129 156.45 127.2 154.15 125.7 150.35 124.45 147.2 123.65 144 122.65 139.95 121.85 134.45 121.7267578125 133.2185546875 121.5 132.4 123.101953125 130.9302734375 124 128.45 124.7 126.55 125 123 125.2 121.45 125 120.4 124.9 119.4 124.1 117.5 123.35 115.6 122.65 114.5 121.2 112.2 117.7 109.9 115.65 108.6 114.35 108.05 112.35 107.3 110.1 107.3 108.65 107.4 107.5 107.85 106.45 108.35 105.3 109.5 103.884375 111.0099609375 103.35 112.4 103.2 112.5029296875 103.05 112.6 102.3 113.1 102 114.1 101.7 115 101.85 116 101.98984375 116.79296875 103.05 119.15 102.48046875 118.7640625 101.85 118.4 97 115.6 91.6 114.8 89.35 114.5 82.65 114.3 77.1 114.15 73.85 113.3 64.45 110.85 56.1 99.7 54.8 98 54.05 97.45
M 108.8 117.1
Q 108.7900390625 117.0703125 108.75 117.05 108.96875 116.7453125 109.05 116.4 109.15 115.4 109.25 114.9 109.35 113.95 109.95 113.6 110.35 113.4 111.2 113.5 112.5 113.7 113.1 114
L 114.6 115.2
Q 115.15 115.6 116.3 116.3 117.15 116.95 117.85 118.25 118.85 120.1 119 122.2 119.1 124.35 118.3 126.25 118.1986328125 126.5087890625 118.1 126.7 118.0755859375 126.775 118.05 126.8 117.6853515625 127.537109375 117.25 127.9 116.85 128.25 116.1 128.55 115.25 128.85 114.85 129 113.8048828125 129.475 113.2 130.15 113.16640625 129.83203125 113.1 129.5 112.95 128.6 112.2 126.85 111.75 125.85 110.65 122.6
L 108.8 117.1
M 164.45 117.3
Q 165.9 125.85 165.05 134.3 164.1 143.05 160.8 150.75 154.8568359375 164.5892578125 141.45 175.3 141.8935546875 175.777734375 142.55 176.5 142.9 176.8 143.35 178.4 144 179.6 145.45 178.75 147.1 177.85 154.7 169.3 164.15 158.7 166.95 151.6 170.2 143.25 171.05 134.05 171.85 125.05 170.3 116 167.4 98.6 156.5 82.9 149.05 72.15 140.55 66.4 135.6 63.05 130.2 61.35 124.45 59.5 118.9 59.7 117.3556640625 59.7642578125 116.3 60.1 115.7279296875 60.2826171875 115.3 60.55 114.5 61.05 114.05 61.9 113.6 62.8 113.8 63.65 114.0072265625 64.4271484375 114.75 64.9 116.126953125 65.8654296875 119.4 65.8 120.3388671875 65.770703125 121.25 65.8 122.419921875 65.8509765625 123.55 66 126.3205078125 66.3640625 129.1 67.3 133.7 68.85 137.9 71.8 145.05 76.75 151.4 86.05 161.8 101.1 164.45 117.3 Z"/>

<path fill="#F8D5A4" stroke="none" d="
M 108.75 117.05
Q 108.7900390625 117.0703125 108.8 117.1
L 110.65 122.6
Q 111.75 125.85 112.2 126.85 112.95 128.6 113.1 129.5 113.16640625 129.83203125 113.2 130.15 113.8048828125 129.475 114.85 129 115.25 128.85 116.1 128.55 116.85 128.25 117.25 127.9 117.6853515625 127.537109375 118.05 126.8 118.02578125 126.78671875 118 126.75 118.0453125 126.7431640625 118.1 126.7 118.1986328125 126.5087890625 118.3 126.25 119.1 124.35 119 122.2 118.85 120.1 117.85 118.25 117.15 116.95 116.3 116.3 115.15 115.6 114.6 115.2
L 113.1 114
Q 112.5 113.7 111.2 113.5 110.35 113.4 109.95 113.6 109.35 113.95 109.25 114.9 109.15 115.4 109.05 116.4 108.96875 116.7453125 108.75 117.05 Z"/>

<path fill="#785B32" stroke="none" d="
M 116.3 60.1
Q 116.20546875 60.04921875 116.1 60 114.05 58.95 113.05 58.45 111.25 57.6 109.85 57.2 107.65 56.6 104.85 56.65 103 56.65 99.7 57.05 88.7 58.3 83.1 59.35 73.95 61 67.1 63.85 60.2 66.7 48.95 74.05 36.45 82.3 29.75 88.35 29.6 88.5 18.65 99.2 12 105.75 6.8 109.1 4.35 110.7 3.65 111.65 3 112.5 2.8 113.55 2.65 114.6 3.15 115.45 3.65 116.3 4.7 116.6 5.7 116.95 6.75 116.7 6.9994140625 116.6501953125 7.25 116.55 6.6974609375 116.1908203125 6.35 115.6 5.9 114.75 6.05 113.6 6.25 112.5 6.95 111.7 8.05 110.35 10.5 109.5 14.102734375 108.2529296875 17.8 108.3 18.1412109375 108.334765625 18.45 108.35 19.7 108.4 22.6 108.85 25.25 109.2 26.75 109.25 29.55 109.3 32.95 108.5 35.1 107.95 38.95 106.65 42.85 105.35 44.7 104.5 47.5 103.15 48.95 101.7 49.285546875 101.3115234375 49.55 100.95 49.4888671875 100.73359375 49.45 100.5 49.25 99.35 49.7 98.3 50.2 97.2 51.2 96.85 52.6 96.35 54.05 97.45 54.8 98 56.1 99.7 64.45 110.85 73.85 113.3 77.1 114.15 82.65 114.3 89.35 114.5 91.6 114.8 97 115.6 101.85 118.4 102.48046875 118.7640625 103.05 119.15 101.98984375 116.79296875 101.85 116 101.7 115 102 114.1 102.3 113.1 103.05 112.6 103.2 112.5029296875 103.35 112.4 103.884375 111.0099609375 105.3 109.5 106.45 108.35 107.5 107.85 108.65 107.4 110.1 107.3 112.35 107.3 114.35 108.05 115.65 108.6 117.7 109.9 121.2 112.2 122.65 114.5 123.35 115.6 124.1 117.5 124.9 119.4 125 120.4 125.2 121.45 125 123 124.7 126.55 124 128.45 123.101953125 130.9302734375 121.5 132.4 121.7267578125 133.2185546875 121.85 134.45 122.65 139.95 123.65 144 124.45 147.2 125.7 150.35 127.2 154.15 129 156.45 129.5 157.05 131.15 158.85 132.4748046875 160.2693359375 133.1 161.25 133.1650390625 161.2962890625 133.2 161.35 134.7 163.7 135.45 168.25 135.6857421875 169.6349609375 135.65 170.65 136.0533203125 170.6123046875 136.45 170.45 137.75 169.9 138.2 168.05 138.55 165.75 138.7 164.65 139.25 161.5 142.55 157.6 147.15 152.25 147.85 151.05 149.65 148 150.65 142.75 153.6 128.2 151.45 115.85 149.6 105.5 143.4 94.05 139.25 86.35 130.65 74.25 127.8 70.25 126.1 68.4 124.8552734375 67.0421875 123.55 66 122.419921875 65.8509765625 121.25 65.8 120.3388671875 65.770703125 119.4 65.8 116.126953125 65.8654296875 114.75 64.9 114.0072265625 64.4271484375 113.8 63.65 113.6 62.8 114.05 61.9 114.5 61.05 115.3 60.55 115.7279296875 60.2826171875 116.3 60.1 Z"/>
</g>

<g id="head_0_Layer0_0_FILL">
<path fill="#000000" stroke="none" d="
M 175 68.05
Q 177.05 62.7 177.2 56.6 177.5 46.55 172.65 33.85 165.1 13.75 151.85 4.3 137.45 -5.9 114.05 -5.45 97.35 -5.15 89.95 2.35 83.15 9.2 82.7 22.75 82.45 31.5 85.05 37.5 86.6 41.1 89.2 43.8 91.95 46.7 95.35 47.95 94.25 49.75 93.9 52.9 93.4 57.75 93.3 58.2 93.1 59.05 92.5 60.95 91.95 62.75 91.75 63.7 90.9 68.2 93.1 72.2 96.1 77.6 104.7 80.6 106.3 81.15 109.55 82.2 112.35 83.1 114.2 84.05 115.5 84.7 117.85 86.2 120.25 87.75 121.45 88.35 133.35 94.4 153.2 86.9 158.2 85 161.55 83.2 165.9 80.8 168.85 77.8 172.85 73.8 175 68.05
M 169.65 65.15
Q 168.05 69.75 165 72.95 163.2 74.8 160.6 76.55 158.6 77.85 156.15 79.05 151.3 81.4 146.25 82.9 142.7 83.9 139 84.5 134.9 85.2 131.7 85 127.7 84.8 124.7 83.3 123.25 82.6 120.85 80.95 118.25 79.15 117 78.5 114.9 77.4 110.95 76.3 106.45 75.1 104.8 74.4 101.55 73.05 99.55 70.6 98.3 69.1 97.85 67.5 97.55 66.55 97.55 65.55 97.55 65.2 97.6 64.85 98.95 65.2 100.4 64.7 100.6 64.6 100.85 64.5 102.45 63.75 103.15 62.25 103.7 61.05 103.55 59.8 103.5 59.45 103.4 59.15 103.35 59.05 103.35 59 103.05 57.8 102.25 57 101.9 56.65 101.5 56.35 100.85 55.95 100.5 55.7 99.95 55.3 99.75 54.9 99.2 53.9 100.3 51.95
L 103.6 46.05
Q 105.4 42.95 104.1 41.45 103.05 40.25 100.8 40.85 98.55 41.7 97.4 41.75 94.55 41.8 92.15 38.05 91.85 37.6 91.6 37.1 87.2 29.2 89.4 17.1 90.4 11.7 92.55 8.6 97.6 1.25 112.45 0.65 135.05 -0.35 148.55 9.35 160.95 18.25 167.85 38.05 170.4 45.3 171.05 51.25 171.35 53.75 171.3 56.05 171.2 60.9 169.65 65.15 Z"/>

<path fill="#5A401C" stroke="none" d="
M 97.4 41.75
Q 98.55 41.7 100.8 40.85 103.05 40.25 104.1 41.45 105.4 42.95 103.6 46.05
L 100.3 51.95
Q 99.2 53.9 99.75 54.9 99.95 55.3 100.5 55.7 100.85 55.95 101.5 56.35 101.9 56.65 102.25 57 102 55.9 102.2 54.6 102.45 52.95 103.95 49.95
L 107.75 42.35
Q 108.8 40.15 108.55 39 108.25 37.5 106.5 36.85 104.95 36.25 103.15 36.6 103.1 36.6 99.95 37.55 98.05 38.1 96.75 37.95 94.65 37.4 93.6 37.2 92.45 36.9 91.6 37.1 91.85 37.6 92.15 38.05 94.55 41.8 97.4 41.75
M 165 72.95
Q 168.05 69.75 169.65 65.15 171.2 60.9 171.3 56.05 171.35 53.75 171.05 51.25 170.2 51.2 169.25 51.6 167.35 52.3 166.2 54.05 165.15 55.6 164.3 58.25
L 162.9 62.75
Q 162 65.2 160.45 66.8 158.6 68.65 156.45 68.7 155 68.8 154.2 68 153.8 67.6 153.45 66.85 152.95 65.85 152.8 65.65 151.95 64.45 150.25 64.55 148.55 64.6 147.75 65.85 147.1 66.95 147.3 69.05 147.55 71.8 147.45 72.45 147.15 74.15 145.75 75.45 144.45 76.7 142.65 77.15 139.95 77.85 135.6 76.9 133.25 76.35 132.1 76.1 130.05 75.7 128.55 75.7 126.95 75.8 126.15 75.75 124.75 75.75 123.85 75.25 123.15 74.9 122.1 73.8 121 72.6 120.4 72.2 119.75 71.75 118.4 71.3 116.95 70.85 116.35 70.45 114.9 69.55 113.55 66.45 112.15 63.3 110.85 62.35 109.85 61.6 107.1 60.9 104.5 60.25 103.5 59.25 103.45 59.2 103.4 59.15 103.5 59.45 103.55 59.8 103.7 61.05 103.15 62.25 102.45 63.75 100.85 64.5 100.6 64.6 100.4 64.7 98.95 65.2 97.6 64.85 97.55 65.2 97.55 65.55 97.6 65.65 97.6 65.75 97.7 66.4 97.85 67.5 98.3 69.1 99.55 70.6 101.55 73.05 104.8 74.4 106.45 75.1 110.95 76.3 114.9 77.4 117 78.5 118.25 79.15 120.85 80.95 123.25 82.6 124.7 83.3 127.7 84.8 131.7 85 134.9 85.2 139 84.5 142.7 83.9 146.25 82.9 151.3 81.4 156.15 79.05 158.6 77.85 160.6 76.55 163.2 74.8 165 72.95 Z"/>

<path fill="#785B32" stroke="none" d="
M 162.9 62.75
L 164.3 58.25
Q 165.15 55.6 166.2 54.05 167.35 52.3 169.25 51.6 170.2 51.2 171.05 51.25 170.4 45.3 167.85 38.05 160.95 18.25 148.55 9.35 135.05 -0.35 112.45 0.65 97.6 1.25 92.55 8.6 90.4 11.7 89.4 17.1 87.2 29.2 91.6 37.1 92.45 36.9 93.6 37.2 94.65 37.4 96.75 37.95 98.05 38.1 99.95 37.55 103.1 36.6 103.15 36.6 104.95 36.25 106.5 36.85 108.25 37.5 108.55 39 108.8 40.15 107.75 42.35
L 103.95 49.95
Q 102.45 52.95 102.2 54.6 102 55.9 102.25 57 103.05 57.8 103.35 59 103.35 59.05 103.4 59.15 103.45 59.2 103.5 59.25 104.5 60.25 107.1 60.9 109.85 61.6 110.85 62.35 112.15 63.3 113.55 66.45 114.9 69.55 116.35 70.45 116.95 70.85 118.4 71.3 119.75 71.75 120.4 72.2 121 72.6 122.1 73.8 123.15 74.9 123.85 75.25 124.75 75.75 126.15 75.75 126.95 75.8 128.55 75.7 130.05 75.7 132.1 76.1 133.25 76.35 135.6 76.9 139.95 77.85 142.65 77.15 144.45 76.7 145.75 75.45 147.15 74.15 147.45 72.45 147.55 71.8 147.3 69.05 147.1 66.95 147.75 65.85 148.55 64.6 150.25 64.55 151.95 64.45 152.8 65.65 152.95 65.85 153.45 66.85 153.8 67.6 154.2 68 155 68.8 156.45 68.7 158.6 68.65 160.45 66.8 162 65.2 162.9 62.75 Z"/>
</g>
</defs>

<g transform="matrix( 1, 0, 0, 1, -158.9,15.15) ">
<g transform="matrix( 1, 0, 0, 1, 0,0) ">
<use xlink:href="#arm2_0_Layer0_0_FILL"/>
</g>
</g>

<g transform="matrix( 1, 0, 0, 1, -78.75,188.15) ">
<g transform="matrix( 1, 0, 0, 1, 0,0) ">
<use xlink:href="#hand2_0_Layer0_0_FILL"/>
</g>
</g>

<g transform="matrix( 1, 0, 0, 1, 561.75,168.55) ">
<g transform="matrix( 1, 0, 0, 1, 0,0) ">
<use xlink:href="#butt2_0_Layer0_0_FILL"/>
</g>
</g>

<g transform="matrix( 1, 0, 0, 1, -217.15,169.05) ">
<g transform="matrix( 1, 0, 0, 1, 0,0) ">
<use xlink:href="#shin2_0_Layer0_0_FILL"/>
</g>
</g>

<g transform="matrix( 1, 0, 0, 1, -87.05,-39.4) ">
<g transform="matrix( 1, 0, 0, 1, 0,0) ">
<use xlink:href="#foot2_0_Layer0_0_FILL"/>
</g>
</g>

<g transform="matrix( 1, 0, 0, 1, 569.45,167.4) ">
<g transform="matrix( 1, 0, 0, 1, 0,0) ">
<use xlink:href="#butt_0_Layer0_0_FILL"/>
</g>
</g>

<g transform="matrix( 1, 0, 0, 1, -215.6,168) ">
<g transform="matrix( 1, 0, 0, 1, 0,0) ">
<use xlink:href="#shin_0_Layer0_0_FILL"/>
</g>
</g>

<g transform="matrix( 1, 0, 0, 1, -94.45,-16.35) ">
<g transform="matrix( 1, 0, 0, 1, 0,0) ">
<use xlink:href="#foot_0_Layer0_0_FILL"/>
</g>
</g>

<g transform="matrix( 1, 0, 0, 1, 123.15,-33.55) ">
<g transform="matrix( 1, 0, 0, 1, 0,0) ">
<use xlink:href="#neck_0_Layer0_0_FILL"/>
</g>
</g>

<g transform="matrix( 0.9999847412109375, 0.00225830078125, -0.00225830078125, 0.9999847412109375, 675,546.95) ">
<g transform="matrix( 1, 0, 0, 1, 0,0) ">
<use xlink:href="#waist_0_Layer0_0_FILL"/>
</g>
</g>

<g transform="matrix( 1, 0, 0, 1, 28.75,-247.8) ">
<g transform="matrix( 1, 0, 0, 1, 0,0) ">
<use xlink:href="#torso_0_Layer0_0_FILL"/>
</g>
</g>

<g transform="matrix( 1, 0, 0, 1, -151.1,15.05) ">
<g transform="matrix( 1, 0, 0, 1, 0,0) ">
<use xlink:href="#arm_0_Layer0_0_FILL"/>
</g>
</g>

<g transform="matrix( 1, 0, 0, 1, -76.45,199.9) ">
<g transform="matrix( 1, 0, 0, 1, 0,0) ">
<use xlink:href="#hand_0_Layer0_0_FILL"/>
</g>
</g>

<g transform="matrix( 1, 0, 0, 1, -111.35,-172.9) ">
<g transform="matrix( 1, 0, 0, 1, 0,0) ">
<use xlink:href="#head_0_Layer5_0_FILL"/>
</g>

<g transform="matrix( 1, 0, 0, 1, 0,0) ">
<use xlink:href="#head_0_Layer4_0_FILL"/>
</g>

<g transform="matrix( 1, 0, 0, 1, 0,0) ">
<use xlink:href="#head_0_Layer3_0_FILL"/>
</g>

<g transform="matrix( 1, 0, 0, 1, 0,0) ">
<use xlink:href="#head_0_Layer2_0_FILL"/>
</g>

<g transform="matrix( 1, 0, 0, 1, 0,0) ">
<use xlink:href="#head_0_Layer1_0_FILL"/>
</g>

<g transform="matrix( 1, 0, 0, 1, 0,0) ">
<use xlink:href="#head_0_Layer0_0_FILL"/>
</g>
</g>
</svg>
