<svg xmlns="http://www.w3.org/2000/svg" viewBox="0 0 769 258"><defs><style>.cls-1{fill:#ecc385;}.cls-2{fill:#333;}.cls-3{fill:#f8d5a4;}.cls-4{fill:#debb89;}.cls-5{fill:#666;}.cls-6{fill:#785b32;}.cls-7{fill:#5a401c;}.cls-8{font-size:32.92px;fill:#4040d4;stroke:#fff;}.cls-12,.cls-15,.cls-16,.cls-17,.cls-18,.cls-22,.cls-8{stroke-miterlimit:10;}.cls-12,.cls-8{font-family:Tomarik-Display, Tomarik;}.cls-9{letter-spacing:-0.05em;}.cls-10{letter-spacing:-0.02em;}.cls-11{letter-spacing:0em;}.cls-12{font-size:30.88px;}.cls-12,.cls-17,.cls-22{fill:#fff;}.cls-12,.cls-15,.cls-16,.cls-17,.cls-18,.cls-22{stroke:#000;}.cls-13{letter-spacing:-0.03em;}.cls-14{letter-spacing:0em;}.cls-15{fill:#1b3356;}.cls-15,.cls-16,.cls-17,.cls-18{stroke-width:2px;}.cls-16{fill:#1e3968;}.cls-19{font-size:39px;fill:#2d8cfd;font-family:ChalkboardSE-Regular, Chalkboard SE;}.cls-20{letter-spacing:-0.03em;}.cls-21{fill:#edc487;}</style></defs><g id="Layer_2" data-name="Layer 2"><ellipse class="cls-1" cx="214.11" cy="156.26" rx="92" ry="211.88" transform="translate(37.72 354.13) rotate(-84.41)"/><g id="butt_0_Layer0_0_FILL" data-name="butt 0 Layer0 0 FILL"><path class="cls-2" d="M242.09,110.79c-.89.85-1.58,1.56-2.07,2.12-.76.86-1,1.58-.65,2.17a1.25,1.25,0,0,0,.65.55l.41.13,1.37.36.41.22a8.36,8.36,0,0,0-.25.81.08.08,0,0,0,0,.07,1.52,1.52,0,0,1,.64.19,2.07,2.07,0,0,1,.74.78,8.28,8.28,0,0,1,.45,1,490.17,490.17,0,0,1,14,48.19q2.56,10.88,3.42,13.94a81,81,0,0,0,4.87,13.39,25.67,25.67,0,0,0,5.48,7.95,17.87,17.87,0,0,0,10.67,4.46,24.33,24.33,0,0,0,6.82-.31,27,27,0,0,0,5-1.44,40.94,40.94,0,0,0,10.15-6.09,103.42,103.42,0,0,0,8.79-8.13,2,2,0,0,1,.28-.25c-.44-.47-.91-.92-1.42-1.37-.94-.85-2.14-1.83-3.6-3s-2.85-2.11-4-2.82a25.6,25.6,0,0,0-4.31-2.21,29.66,29.66,0,0,0-3-.94,33.5,33.5,0,0,0-4.18-.91,13.12,13.12,0,0,0-4.22.07,6.3,6.3,0,0,1-1.17.12,1.13,1.13,0,0,1-.94-.43,1.24,1.24,0,0,0-.53-.81,2.27,2.27,0,0,1-.17-1.09,8.44,8.44,0,0,0-.36-2.05c-.14-.46-.39-1.12-.74-2q-1.65-4.11-3.2-7.88-7.1-17.35-11.32-26.71a314.25,314.25,0,0,0-17.2-33.25,2.82,2.82,0,0,1-.23-.41q-.37.27-.69.54l0,0c0-.33-.07-.57-.1-.74a1.43,1.43,0,0,0-.28-.62,1.23,1.23,0,0,0-1.18-.37,1.46,1.46,0,0,0-.39.07,4.82,4.82,0,0,0-1.67.94c-.16.14-.64.6-1.45,1.37-.16.16-1.1,1-2.82,2.53C243.4,109.57,242.74,110.17,242.09,110.79Z"/><path d="M251.38,103.35c-.33.23-.65.47-1,.71a1.23,1.23,0,0,1,1.18.37,1.43,1.43,0,0,1,.28.62c0,.17.06.41.1.74l0,0q.31-.27.69-.54a2.82,2.82,0,0,0,.23.41A314.25,314.25,0,0,1,270.11,139q4.23,9.36,11.32,26.71,1.54,3.77,3.2,7.88c.35.86.6,1.52.74,2a8.44,8.44,0,0,1,.36,2.05,2.27,2.27,0,0,0,.17,1.09,1.24,1.24,0,0,1,.53.81,1.13,1.13,0,0,0,.94.43,6.3,6.3,0,0,0,1.17-.12,13.12,13.12,0,0,1,4.22-.07,33.5,33.5,0,0,1,4.18.91,29.66,29.66,0,0,1,3,.94,25.6,25.6,0,0,1,4.31,2.21q1.68,1.07,4,2.82c1.46,1.14,2.66,2.12,3.6,3,.51.45,1,.9,1.42,1.37a2,2,0,0,0-.28.25,103.42,103.42,0,0,1-8.79,8.13,40.94,40.94,0,0,1-10.15,6.09,27,27,0,0,1-5,1.44,24.33,24.33,0,0,1-6.82.31,17.87,17.87,0,0,1-10.67-4.46,25.67,25.67,0,0,1-5.48-7.95,81,81,0,0,1-4.87-13.39q-.85-3.06-3.42-13.94a490.17,490.17,0,0,0-14-48.19,8.28,8.28,0,0,0-.45-1,2.07,2.07,0,0,0-.74-.78,1.52,1.52,0,0,0-.64-.19.08.08,0,0,1,0-.07,8.36,8.36,0,0,1,.25-.81l-.41-.22-1.37-.36-.41-.13a13.25,13.25,0,0,0-.79,3,16.94,16.94,0,0,0,.49,6.18q.41,1.55,2,6,2.41,6.88,4.61,15.94,1.11,4.5,3.61,16.23,4.5,21.1,8.77,32a54,54,0,0,0,3,6.61,25.56,25.56,0,0,0,4.29,5.77,22.48,22.48,0,0,0,13.2,6.16A30,30,0,0,0,293,212.19c.34-.11.69-.23,1.05-.37a45.41,45.41,0,0,0,12.82-7.54,92.63,92.63,0,0,0,10.74-10.55,1.48,1.48,0,0,0,.5-1.09.69.69,0,0,0-.46-.56.88.88,0,0,0-.35-.1,3.91,3.91,0,0,0-.69-.89c-.69-.77-1.5-1.57-2.4-2.4a62.34,62.34,0,0,0-6.2-5,30.08,30.08,0,0,0-11.45-5.47,24.44,24.44,0,0,0-8.12-.87.35.35,0,0,0-.11,0,4.43,4.43,0,0,0-.16-1.21c-.09-.3-.25-.75-.5-1.36l-7-16.69q-6.15-14.64-9.51-22-5.55-12.15-10.79-21.45c-1.91-3.4-2.95-5.25-3.1-5.56a43.81,43.81,0,0,1-2.62-5.76,2.07,2.07,0,0,0-.78-1.2,1,1,0,0,0-1.15.14,1.38,1.38,0,0,0-.54.62A4.55,4.55,0,0,0,251.38,103.35Z"/></g><g id="shin_0_Layer0_0_FILL" data-name="shin 0 Layer0 0 FILL"><path class="cls-3" d="M165.19,108.57a1.5,1.5,0,0,0-.32.61,1.19,1.19,0,0,0,.5,1.17,2.71,2.71,0,0,1,.51-.1,8.22,8.22,0,0,1,1.16,0l1.54.09q3.42.16,8,.18h1c.12-.16.29-.38.52-.64a6.85,6.85,0,0,0,1.4-3.61l-10.26.1a2.69,2.69,0,0,1-1.19-.23l-.13.12a1.91,1.91,0,0,1-.38.3l-.61.24a2.45,2.45,0,0,0-.68.55,8.31,8.31,0,0,1-.58.69A4.58,4.58,0,0,1,165.19,108.57Z"/><path class="cls-2" d="M253.05,108.43A11.36,11.36,0,0,1,254.9,107a11.19,11.19,0,0,0,1.18-.81,1.5,1.5,0,0,0,.34-.63.93.93,0,0,0,0-.43h-.34l-3,.08q-28.12.69-54.16.93l-17,.18a.29.29,0,0,0,0,.09,10.74,10.74,0,0,1-.68,2.87,15,15,0,0,1-.81,1.32h5.83a103.06,103.06,0,0,1,12,.77l.2-.12a3.29,3.29,0,0,1,1.15-.28,36.56,36.56,0,0,1,8.63.67c1.9.34,4.75.94,8.55,1.78q4.5.9,11.14,1.67a65,65,0,0,0,7.65.5,24.13,24.13,0,0,0,7.46-1.16,9,9,0,0,1,.87-.25l.28-.05.66-.58a3.71,3.71,0,0,1,1.47-.93,1.26,1.26,0,0,1,.87.11,1,1,0,0,1,.49.5l.65-.55c1.28-1,2.27-1.87,3-2.54C251.75,109.75,252.31,109.18,253.05,108.43Z"/><path d="M256.46,105.08c1.07-.07,1.66-.43,1.78-1.06s-.15-.92-.79-1.2a3.82,3.82,0,0,0-1.84-.28q-15.48,1.21-43.34,1.16-30.45,0-43.38.68c-.91.06-1.41.32-1.52.78s.08.69.54.93l.16.08a2.69,2.69,0,0,0,1.19.23l10.26-.1a6.85,6.85,0,0,1-1.4,3.61c-.23.26-.4.48-.52.64h-1q-4.63,0-8-.18l-1.54-.09a8.22,8.22,0,0,0-1.16,0,2.71,2.71,0,0,0-.51.1,1.49,1.49,0,0,0-.57.26,1.31,1.31,0,0,0-.6,1,.91.91,0,0,0,.38,1,1.77,1.77,0,0,0,.95.17l12.42,0q8.91,0,13.47.25a69.11,69.11,0,0,1,13.27,2q2.88.75,8.3,2.67t8.27,2.72q10.14,2.73,17.12,0a25.25,25.25,0,0,0,4.44-2.41c.53-.36,1.15-.81,1.88-1.35a2.48,2.48,0,0,0,.59-.33,2,2,0,0,0,.31-.34q.61-.47,1.29-1c.68-.54,1-1,.89-1.46a.54.54,0,0,0,0-.15,1,1,0,0,0-.49-.5,1.26,1.26,0,0,0-.87-.11,3.71,3.71,0,0,0-1.47.93l-.66.58-.28.05a9,9,0,0,0-.87.25,24.13,24.13,0,0,1-7.46,1.16,65,65,0,0,1-7.65-.5q-6.63-.77-11.14-1.67c-3.8-.84-6.65-1.44-8.55-1.78a36.56,36.56,0,0,0-8.63-.67,3.29,3.29,0,0,0-1.15.28l-.2.12a103.06,103.06,0,0,0-12-.77h-5.83a15,15,0,0,0,.81-1.32,10.74,10.74,0,0,0,.68-2.87.29.29,0,0,1,0-.09l17-.18q26-.24,54.16-.93l3-.08Z"/></g><g id="foot_0_Layer0_0_FILL" data-name="foot 0 Layer0 0 FILL"><path class="cls-3" d="M137.43,110.94c-.52-.26-.82-.41-.91-.44a.83.83,0,0,0,.42.37,1.15,1.15,0,0,0,.45.1h.11l-.07,0M161,109.67h0l.62-.41a.44.44,0,0,1,.17-.08,1.71,1.71,0,0,1,.53-.21.16.16,0,0,1,.1,0,1.31,1.31,0,0,1,.68,0,.93.93,0,0,1,.58.43.75.75,0,0,1,.13.35.07.07,0,0,1,0,0,2.28,2.28,0,0,0,.38-.57,1.86,1.86,0,0,1,.38-.58l.71-.43a2.36,2.36,0,0,0,.64-.52,2.28,2.28,0,0,0,.49-.69,1.28,1.28,0,0,0,0-.75,1.3,1.3,0,0,1-.44,0,3.64,3.64,0,0,1-1.42-.6l-.22-.13Q157,100.75,150,96l-6.07-4.2a17.91,17.91,0,0,1-1.68-1.29,5.52,5.52,0,0,1-1.3-1.61.37.37,0,0,1-.06-.1l0-.12c-.1-.23-.22-.56-.36-1a8.68,8.68,0,0,0-.34-1,6.05,6.05,0,0,0-.53-1l-.61-1a2.57,2.57,0,0,1-.21-.52l0,0A1.94,1.94,0,0,0,137,83.8a1.89,1.89,0,0,0-1.42,1.07,4,4,0,0,0,0,2.64,6.94,6.94,0,0,0,1.46,3c.05,0,.22.21.53.48a3.52,3.52,0,0,1,.48.52.71.71,0,0,1,.1.14,1.87,1.87,0,0,1,1.38.74l0,0c.36.37.85,1,1.48,1.75l1.52,2q2.48,3.48,7.22,10.91l1.43,2.25a11.88,11.88,0,0,0,1,1.36,3.36,3.36,0,0,0,1.29,1,3.48,3.48,0,0,0,1.62.22c.31,0,.65-.07,1-.14a13.9,13.9,0,0,0,3.82-1.4C160.3,110.15,160.67,109.92,161,109.67Z"/><path d="M161.07,109.66h0c-.37.25-.74.48-1.11.68a13.9,13.9,0,0,1-3.82,1.4c-.37.07-.71.11-1,.14a3.48,3.48,0,0,1-1.62-.22,3.36,3.36,0,0,1-1.29-1,11.88,11.88,0,0,1-1-1.36l-1.43-2.25q-4.74-7.44-7.22-10.91l-1.52-2c-.63-.79-1.12-1.38-1.48-1.75l0,0a1.87,1.87,0,0,0-1.38-.74.71.71,0,0,0-.1-.14,3.52,3.52,0,0,0-.48-.52c-.31-.27-.48-.43-.53-.48a6.94,6.94,0,0,1-1.46-3,4,4,0,0,1,0-2.64A1.89,1.89,0,0,1,137,83.8a1.94,1.94,0,0,1,1.75.36l0,0a2.57,2.57,0,0,0,.21.52l.61,1a6.05,6.05,0,0,1,.53,1,8.68,8.68,0,0,1,.34,1c.14.44.26.77.36,1l0,.12a.37.37,0,0,0,.06.1,5.52,5.52,0,0,0,1.3,1.61,17.91,17.91,0,0,0,1.68,1.29L150,96q7,4.77,14.48,9.47l.22.13a7.23,7.23,0,0,0,2.21.76c.15,0-.5-.14-.35-.17a1,1,0,0,0,.32-.12c.26-.14,1.05-.15,1.13-.38.27-1-.5-1.17-1.8-1.74a25.18,25.18,0,0,1-2.7-1.63c-1.4-.78-2.19-1.39-2.75-1.73l-2-1.32q-8.18-5.51-15.66-11.35a5.07,5.07,0,0,0-.26-.64l-1.34-2.91a1.66,1.66,0,0,0,0-.24,1.76,1.76,0,0,0-.65-1.26,5.11,5.11,0,0,0-2-1.17,4.76,4.76,0,0,0-2.27-.18,4.24,4.24,0,0,0-2,1,3.79,3.79,0,0,0-1.27,1.88,5,5,0,0,0-.09,2.44,12.27,12.27,0,0,0,.75,2.4,10.49,10.49,0,0,0,2,3.34,2.27,2.27,0,0,0,1.14.72.84.84,0,0,0,.27,0l0,.09a2.81,2.81,0,0,0,.58.82v0l.73.69.06.06a18.75,18.75,0,0,1,2.32,3l2.13,3.14c2.41,3.59,4.23,6.43,5.49,8.52a21.77,21.77,0,0,0,1.56,2.39,6,6,0,0,0,2.13,1.76,5.59,5.59,0,0,0,3.24.37,17.83,17.83,0,0,0,3.3-.9,17.32,17.32,0,0,0,3.94-1.84,3,3,0,0,0,.86-.91,1.1,1.1,0,0,0,.17-.73.75.75,0,0,0-.13-.35.93.93,0,0,0-.58-.43,1.31,1.31,0,0,0-.68,0,.16.16,0,0,0-.1,0,1.71,1.71,0,0,0-.53.21.44.44,0,0,0-.17.08Z"/></g><g id="arm2_0_Layer0_0_FILL" data-name="arm2 0 Layer0 0 FILL"><path d="M341,90.39a2.71,2.71,0,0,0-1.1.45q-10.31,6.66-35.42,21.75-22.78,13.69-35.19,22Q257.21,143,251.12,147a208.68,208.68,0,0,1-18.85,11.29,3.34,3.34,0,0,0-1.16.9,1,1,0,0,0-.18,1.18,1,1,0,0,0,1,.43,3.51,3.51,0,0,0,.9-.25,1.87,1.87,0,0,0,.4-.2l1.39-.8q10.17-5.87,24.71-15.57,22.39-15,25.71-17.09Q293,121.88,313,110q17.77-10.5,27.63-17l.1-.09a3.09,3.09,0,0,0,1.07-1.19q.41-.8-.18-1.2a.76.76,0,0,0-.58-.14m11.88,12.13a1.72,1.72,0,0,0-.19-1.08.93.93,0,0,0-.84-.56.71.71,0,0,0-.32.07,2.28,2.28,0,0,0-1,1,1.36,1.36,0,0,0-.13.24c-.11.15-.21.32-.31.48a33.59,33.59,0,0,1-5.72,6.83,37.12,37.12,0,0,1-3.88,3.14,50.14,50.14,0,0,1-13.29,6.66q-2.19.73-7.77,2.25c-3.32.89-5.91,1.68-7.76,2.35a49.3,49.3,0,0,0-13.91,7.92q-1.5,1.22-4.94,4.33c-2.07,1.9-3.73,3.32-5,4.27a40.59,40.59,0,0,1-12.3,6.42,85.18,85.18,0,0,1-8.55,2q-5.92,1.19-8.59,2a56,56,0,0,0-10.63,4.51c-.5.26-1,.53-1.5.84a123.24,123.24,0,0,0-10.76,7l-.47.34-.24.18a2.81,2.81,0,0,0-.65.77,1.4,1.4,0,0,0-.17.28c-.24.56-.16,1,.24,1.22s.93.11,1.63-.36q8.7-5.79,11-7.16A53.44,53.44,0,0,1,258.62,153q2.17-.65,5.4-1.29c1.21-.25,3-.62,5.43-1.09q13.32-2.86,21.07-9.33,1.46-1.22,4.35-4a58.44,58.44,0,0,1,4.36-4q5.59-4.5,16.41-8c2-.63,4.94-1.54,8.9-2.75a81,81,0,0,0,8.71-3.24,50.69,50.69,0,0,0,18-13.61,15.84,15.84,0,0,0,1.1-1.46A4.09,4.09,0,0,0,352.9,102.52Z"/><path class="cls-4" d="M350.13,102.7a1.27,1.27,0,0,0-.23.08,2.89,2.89,0,0,0-1.13.7q-4,3.9-11.57,6.29c-1.34.42-3.53,1-6.58,1.81-2.89.76-5.09,1.38-6.57,1.87a69.76,69.76,0,0,0-12.93,6q-4.62,2.68-12,7.83-8.89,6.18-12,8.13a88,88,0,0,1-12.6,6.81q-3.25,1.38-11,3.93a102.32,102.32,0,0,0-10.91,4,68.2,68.2,0,0,0-9.53,5.51c-2.1,1.42-4.46,3.18-7.08,5.25l-1.74,1.38a3.34,3.34,0,0,0-.67.72,1,1,0,0,0-.18.82.82.82,0,0,0,.71.62,2.81,2.81,0,0,1,.65-.77l.24-.18.47-.34a123.24,123.24,0,0,1,10.76-7c.5-.31,1-.58,1.5-.84a56,56,0,0,1,10.63-4.51q2.67-.78,8.59-2a85.18,85.18,0,0,0,8.55-2,40.59,40.59,0,0,0,12.3-6.42c1.27-.95,2.93-2.37,5-4.27q3.43-3.12,4.94-4.33a49.3,49.3,0,0,1,13.91-7.92c1.85-.67,4.44-1.46,7.76-2.35q5.58-1.52,7.77-2.25a50.14,50.14,0,0,0,13.29-6.66,37.12,37.12,0,0,0,3.88-3.14A33.59,33.59,0,0,0,350.13,102.7Z"/><path class="cls-3" d="M349.9,102.78a1.27,1.27,0,0,1,.23-.08c.1-.16.2-.33.31-.48a1.36,1.36,0,0,1,.13-.24,2.28,2.28,0,0,1,1-1,2,2,0,0,0-.31-.74,5.34,5.34,0,0,0-.49-.69L348.7,97c-.88-1.13-1.56-2-2-2.5a25.42,25.42,0,0,0-2.23-2.33,13.46,13.46,0,0,0-1.89-1.54,1.42,1.42,0,0,0-1.32-.33.49.49,0,0,0-.2.13.76.76,0,0,1,.58.14q.58.41.18,1.2a3.09,3.09,0,0,1-1.07,1.19l-.1.09q-9.86,6.51-27.63,17-20,11.85-27.89,16.88Q281.77,129,259.38,144q-14.53,9.7-24.71,15.57l-1.39.8a1.87,1.87,0,0,1-.4.2,1.48,1.48,0,0,0,0,.51,4.32,4.32,0,0,0,.74,2,3.34,3.34,0,0,1,.67-.72l1.74-1.38c2.62-2.07,5-3.83,7.08-5.25a68.2,68.2,0,0,1,9.53-5.51,102.32,102.32,0,0,1,10.91-4q7.71-2.55,11-3.93a88,88,0,0,0,12.6-6.81q3.06-1.95,12-8.13,7.41-5.15,12-7.83a69.76,69.76,0,0,1,12.93-6c1.48-.49,3.68-1.11,6.57-1.87,3.05-.78,5.24-1.39,6.58-1.81q7.57-2.38,11.57-6.29A2.89,2.89,0,0,1,349.9,102.78Z"/></g><g id="hand2_0_Layer0_0_FILL" data-name="hand2 0 Layer0 0 FILL"><path class="cls-4" d="M234.54,162.64l-.17,0a1.33,1.33,0,0,0-.7.13,4.08,4.08,0,0,0-1.29,1.1,30.28,30.28,0,0,1-2.77,2.52c-.88.75-1.54,1.27-2,1.58a12.5,12.5,0,0,1-2.12,1.34l-.67.34a2.36,2.36,0,0,0-.63.4,8,8,0,0,0-.78.78l-.45.34-.4.36,0,0a3.22,3.22,0,0,0-.42.64l.22.05L223,172a40.65,40.65,0,0,0,4.71-1.92,14.1,14.1,0,0,0,4-2.89,19,19,0,0,0,2-2.85,3.1,3.1,0,0,1,1-1.21,1.17,1.17,0,0,1,.28-.13,1,1,0,0,0-.57-.34m-9.26,10.88c-1,.43-1.95.8-2.81,1.11-.29.87-.69,2-1.19,3.4a5,5,0,0,0-.42,1.94,1.73,1.73,0,0,0,.34.94,1.35,1.35,0,0,0,.46.46,1.61,1.61,0,0,0,.65-.49,50.73,50.73,0,0,0,2-5A21.51,21.51,0,0,1,225.28,173.52Z"/><path d="M233.72,159.74c0-.1,0-.19.05-.27a.93.93,0,0,0-.14-.65,1,1,0,0,0-.83-.4,2.61,2.61,0,0,0-1,.21,11.63,11.63,0,0,0-1.68,1l-1.58,1.12c-1,.75-2.53,1.71-4.49,2.88q-3.27,1.92-4.58,2.79c-.69.48-1.63,1.15-2.83,2q-3.33,2.43-4.78,3.53-2.61,2-4.58,3.75-1.65,1.49-3.17,3.06a1.11,1.11,0,0,0-.89.42,2.57,2.57,0,0,0-.54,1,3.76,3.76,0,0,0,0,2.3,2.47,2.47,0,0,0,1.42,1.63,2.83,2.83,0,0,0,2.13-.07,10.44,10.44,0,0,0,2-1.19l6.34-4.62a19,19,0,0,1,2.39-1.56,24.87,24.87,0,0,1,2.7-1l-.22.6c-.28.83-.45,1.37-.53,1.61a8.21,8.21,0,0,0-.29,1.65,4.39,4.39,0,0,0,.78,3.21,2.93,2.93,0,0,0,1.34,1,2.42,2.42,0,0,0,1.65.08,3.61,3.61,0,0,0,1.74-1.49,18.8,18.8,0,0,0,2-4.73,15.69,15.69,0,0,1,2.14-4.65q.3-.42.45-.6a2.36,2.36,0,0,0,.24-.38l.32-.16a14.7,14.7,0,0,0,3.08-2.05,26.55,26.55,0,0,0,2-2.19,17.85,17.85,0,0,0,1.16-1.52,5.86,5.86,0,0,0,.78-1.71,1.32,1.32,0,0,0-.09-1,.83.83,0,0,0-.66-.36,1,1,0,0,0-.49,0,1.17,1.17,0,0,0-.28.13,3.1,3.1,0,0,0-1,1.21,19,19,0,0,1-2,2.85,14.1,14.1,0,0,1-4,2.89A40.65,40.65,0,0,1,223,172l-.62.24-.22-.05a.32.32,0,0,0-.14,0,1.46,1.46,0,0,0-.91.27,2.91,2.91,0,0,0-.32.36c-1,.36-1.74.61-2.16.74a18.11,18.11,0,0,0-2.68,1,19.76,19.76,0,0,0-2.64,1.71l-7.07,5.3a1.68,1.68,0,0,1-.67.33.52.52,0,0,1-.58-.16.6.6,0,0,1-.11-.49c.08-.09.15-.18.24-.27a83.83,83.83,0,0,1,7.75-7l2.65-2q3.61-2.64,8.38-5.67,2.59-1.65,7.95-4.93l.64-.4a3.69,3.69,0,0,0,1-.85,3,3,0,0,0,.18-.36m-11.25,14.89c.86-.31,1.79-.68,2.81-1.11a21.51,21.51,0,0,0-1,2.4,50.73,50.73,0,0,1-2,5q-.18.35-.33.6a1.73,1.73,0,0,1-.32-.11,1.35,1.35,0,0,1-.46-.46,1.73,1.73,0,0,1-.34-.94,5,5,0,0,1,.42-1.94C221.78,176.63,222.18,175.5,222.47,174.63Z"/><path class="cls-3" d="M234.26,160.12a1.19,1.19,0,0,0-.54-.38,3,3,0,0,1-.18.36,3.69,3.69,0,0,1-1,.85l-.64.4q-5.35,3.28-7.95,4.93-4.76,3-8.38,5.67l-2.65,2a83.83,83.83,0,0,0-7.75,7c-.09.09-.16.18-.24.27a.6.6,0,0,0,.11.49.52.52,0,0,0,.58.16,1.68,1.68,0,0,0,.67-.33l7.07-5.3a19.76,19.76,0,0,1,2.64-1.71,18.11,18.11,0,0,1,2.68-1c.42-.13,1.14-.38,2.16-.74a2.91,2.91,0,0,1,.32-.36,1.46,1.46,0,0,1,.91-.27.32.32,0,0,1,.14,0,3.22,3.22,0,0,1,.42-.64l0,0,.4-.36.45-.34a8,8,0,0,1,.78-.78,2.36,2.36,0,0,1,.63-.4l.67-.34a12.5,12.5,0,0,0,2.12-1.34c.42-.31,1.08-.83,2-1.58a30.28,30.28,0,0,0,2.77-2.52,4.08,4.08,0,0,1,1.29-1.1,1.33,1.33,0,0,1,.7-.13,4.55,4.55,0,0,0,.26-.76A1.9,1.9,0,0,0,234.26,160.12Z"/></g><g id="butt2_0_Layer0_0_FILL" data-name="butt2 0 Layer0 0 FILL"><path class="cls-2" d="M255.25,102.65c-.28-.33-1.32,1.12-1.82,1.19a1.43,1.43,0,0,0-.39.06,4.81,4.81,0,0,0-1.69.92c-.17.14-.66.6-1.47,1.36-.15.16-1.11,1-2.86,2.48-.67.59-1.34,1.2-2,1.81-.89.83-1.59,1.53-2.1,2.08-.77.85-1,1.57-.67,2.18a1.24,1.24,0,0,0,.65.54l.4.15,1.38.38.4.21c-.1.27-.19.54-.28.8v.07a1.9,1.9,0,0,1,.64.2,2.26,2.26,0,0,1,.72.8,6.38,6.38,0,0,1,.44,1.05A489.37,489.37,0,0,1,260,167.28q2.43,10.91,3.22,14a81.11,81.11,0,0,0,4.7,13.46,25.79,25.79,0,0,0,5.39,8,17.89,17.89,0,0,0,10.62,4.59,24.42,24.42,0,0,0,6.83-.24,27.08,27.08,0,0,0,5-1.38A39.27,39.27,0,0,0,306,199.77a107.36,107.36,0,0,0,8.9-8,1.46,1.46,0,0,1,.27-.24c-.44-.47-.9-.93-1.4-1.39q-1.39-1.29-3.57-3t-3.93-2.88A24.7,24.7,0,0,0,302,182a28.52,28.52,0,0,0-3-1,36.4,36.4,0,0,0-4.15-1,13.28,13.28,0,0,0-4.23,0,4.68,4.68,0,0,1-1.16.11,1.17,1.17,0,0,1-.95-.44,1,1,0,0,1-.18-.47,1.1,1.1,0,0,1-.34-.34,2.39,2.39,0,0,1-.15-1.09,7.88,7.88,0,0,0-.34-2.06c-.13-.46-.37-1.13-.71-2q-1.61-4.12-3.09-7.91-6.89-17.45-11-26.85a320.69,320.69,0,0,0-16.77-33.45,4.33,4.33,0,0,1-.22-.42"/><path d="M255.68,105.11a4.33,4.33,0,0,0,.22.42A320.69,320.69,0,0,1,272.67,139q4.11,9.41,11,26.85,1.49,3.78,3.09,7.91c.34.87.58,1.54.71,2a7.88,7.88,0,0,1,.34,2.06,2.39,2.39,0,0,0,.15,1.09,1.1,1.1,0,0,0,.34.34,1,1,0,0,0,.18.47,1.17,1.17,0,0,0,.95.44,4.68,4.68,0,0,0,1.16-.11,13.28,13.28,0,0,1,4.23,0,36.4,36.4,0,0,1,4.15,1,28.52,28.52,0,0,1,3,1,24.7,24.7,0,0,1,4.27,2.26q1.67,1.1,3.93,2.88t3.57,3c.5.46,1,.92,1.4,1.39a1.46,1.46,0,0,0-.27.24,107.36,107.36,0,0,1-8.9,8,39.27,39.27,0,0,1-10.22,5.94,27.08,27.08,0,0,1-5,1.38,24.42,24.42,0,0,1-6.83.24,17.89,17.89,0,0,1-10.62-4.59,25.79,25.79,0,0,1-5.39-8,81.11,81.11,0,0,1-4.7-13.46q-.8-3.07-3.22-14a489.37,489.37,0,0,0-13.42-48.35,6.38,6.38,0,0,0-.44-1.05,2.26,2.26,0,0,0-.72-.8,1.9,1.9,0,0,0-.64-.2v-.07c.09-.26.18-.53.28-.8l-.4-.21-1.38-.38-.4-.15a12.53,12.53,0,0,0-.83,3,16.36,16.36,0,0,0,.42,6.18q.36,1.53,1.88,6,2.32,6.91,4.4,16,1.05,4.53,3.41,16.3,4.23,21.15,8.37,32.07a57.8,57.8,0,0,0,2.93,6.66,25.16,25.16,0,0,0,4.22,5.8,22.56,22.56,0,0,0,13.13,6.34,30.08,30.08,0,0,0,13.84-1.16c.35-.11.7-.22,1-.35a45.1,45.1,0,0,0,12.92-7.39,91.71,91.71,0,0,0,10.87-10.39,1.55,1.55,0,0,0,.52-1.09.75.75,0,0,0-.45-.58,1.19,1.19,0,0,0-.36-.09,4.13,4.13,0,0,0-.67-.91c-.69-.77-1.48-1.58-2.38-2.42a64.18,64.18,0,0,0-6.14-5.11,36.51,36.51,0,0,0-6.94-4.13,33.49,33.49,0,0,0-4.43-1.49,24.28,24.28,0,0,0-8.12-1l-.11,0a3.45,3.45,0,0,0-.14-1.21,11.86,11.86,0,0,0-.47-1.38L283,158.26q-6-14.73-9.22-22.18-5.39-12.23-10.52-21.57c-1.87-3.43-2.88-5.29-3-5.6a45.72,45.72,0,0,1-2.54-5.79,2.14,2.14,0,0,0-.76-1.22,1,1,0,0,0-1.16.13,1.15,1.15,0,0,0-.54.62"/></g><g id="shin2_0_Layer0_0_FILL" data-name="shin2 0 Layer0 0 FILL"><path class="cls-3" d="M165.25,113.74a5.51,5.51,0,0,1,1.16,0c.5,0,1,0,1.55,0q3.43,0,8.06-.18.45,0,1,0a6.14,6.14,0,0,1,.47-.67,6.69,6.69,0,0,0,1.24-3.66l-10.22.56a2.64,2.64,0,0,1-1.21-.16l-.12.15a4.12,4.12,0,0,1-.39.3l-.57.27a2.42,2.42,0,0,0-.67.57c-.23.33-.41.57-.53.72l-.48.53a1.27,1.27,0,0,0-.3.59,1.22,1.22,0,0,0,.56,1.17A2.07,2.07,0,0,1,165.25,113.74Z"/><path d="M252.13,104.56l3-.22a1.9,1.9,0,0,0,.35,0c1.06-.11,1.64-.49,1.74-1.15s-.2-.91-.86-1.15a3.52,3.52,0,0,0-1.84-.19q-15.42,1.92-43.26,3.2-30.42,1.4-43.28,2.7c-.9.12-1.4.4-1.49.87s-.84.46-.36.68c-.85-.13.49.58.55.61a15.11,15.11,0,0,0,1.77-.16l10.22-.56a6.69,6.69,0,0,1-1.24,3.66,6.14,6.14,0,0,0-.47.67q-.51,0-1,0-4.62.21-8.06.18c-.53,0-1.05,0-1.55,0a5.51,5.51,0,0,0-1.16,0,2.07,2.07,0,0,0-.49.12,1.69,1.69,0,0,0-.57.28,1.34,1.34,0,0,0-.55,1,.93.93,0,0,0,.42,1,1.9,1.9,0,0,0,1,.11l12.38-.59q8.91-.46,13.47-.4a67.3,67.3,0,0,1,13.36,1.37c1.94.4,4.74,1.16,8.42,2.27s6.56,1.94,8.36,2.35q10.26,2.25,17.11-.88a22.28,22.28,0,0,0,4.34-2.61c.51-.38,1.11-.86,1.82-1.44a2,2,0,0,0,.53-.34,1.7,1.7,0,0,0,.31-.36c.39-.34.81-.7,1.26-1.07.64-.58.91-1.08.81-1.52l-.06-.16a1,1,0,0,0-.5-.45,1.36,1.36,0,0,0-.89-.06,3.92,3.92,0,0,0-1.42,1l-.61.62a1.31,1.31,0,0,0-.27.06c-.25.07-.54.17-.88.3a24.08,24.08,0,0,1-7.38,1.5,64.73,64.73,0,0,1-7.69-.12q-6.66-.47-11.18-1.15-5.76-1-8.64-1.4a37,37,0,0,0-8.65-.25,2.92,2.92,0,0,0-1.13.32.62.62,0,0,0-.2.16,101.64,101.64,0,0,0-12.08-.23l-5.84.28q.61-1,.75-1.35a10.43,10.43,0,0,0,.56-2.9.1.1,0,0,1,0-.09l17-1Q224.05,106.57,252.13,104.56Z"/><path class="cls-2" d="M255.15,104.34l-3,.22q-28.06,2-54.07,3.5l-17,1a.1.1,0,0,0,0,.09,10.43,10.43,0,0,1-.56,2.9q-.14.31-.75,1.35l5.84-.28a101.64,101.64,0,0,1,12.08.23.62.62,0,0,1,.2-.16,2.92,2.92,0,0,1,1.13-.32,37,37,0,0,1,8.65.25q2.88.38,8.64,1.4,4.51.67,11.18,1.15a64.73,64.73,0,0,0,7.69.12,24.08,24.08,0,0,0,7.38-1.5c.34-.13.63-.23.88-.3a1.31,1.31,0,0,1,.27-.06l.61-.62a3.92,3.92,0,0,1,1.42-1,1.36,1.36,0,0,1,.89.06,1,1,0,0,1,.5.45l.62-.54c1.25-1.08,2.2-2,2.87-2.69.36-.38.89-1,1.6-1.76a12.13,12.13,0,0,1,1.78-1.56,7.2,7.2,0,0,0,1.13-.87,1.19,1.19,0,0,0,.31-.65.82.82,0,0,0,0-.43A1.9,1.9,0,0,1,255.15,104.34Z"/></g><g id="foot2_0_Layer0_0_FILL" data-name="foot2 0 Layer0 0 FILL"><path class="cls-3" d="M137.83,104l-.84-.54a.86.86,0,0,0,.35.44,1.54,1.54,0,0,0,.43.14l.11,0,0-.06m29.58,6.6a1.26,1.26,0,0,0-.1-.74,1,1,0,0,1-.43.1,3.41,3.41,0,0,1-1.52-.32l-.24-.09q-8.25-3.24-16-6.63l-6.7-3a16.61,16.61,0,0,1-1.9-.94,5.72,5.72,0,0,1-1.62-1.36l0-.09-.05-.11a7,7,0,0,1-.55-.89,6,6,0,0,0-.52-.94,5.34,5.34,0,0,0-.71-.87q-.49-.54-.78-.81a4.94,4.94,0,0,1-.27-.47s0,0-.05,0a2,2,0,0,0-1.8-.08,1.93,1.93,0,0,0-1.19,1.34,3.9,3.9,0,0,0,.5,2.59,6.75,6.75,0,0,0,2,2.65,6.61,6.61,0,0,0,.62.36,3.45,3.45,0,0,1,.58.45l.1.11a1.79,1.79,0,0,1,1.49.47l.05,0c.41.3,1,.79,1.78,1.47.16.13.78.71,1.86,1.72q3.1,3,9.13,9.36l1.83,2c.51.52.9.9,1.18,1.14a3.61,3.61,0,0,0,1.45.69,3.83,3.83,0,0,0,1.63-.07c.31-.09.64-.2,1-.33a14.78,14.78,0,0,0,3.51-2.08,11.84,11.84,0,0,0,1-.91l0,0,.54-.49a.59.59,0,0,1,.17-.1,1.1,1.1,0,0,1,.47-.31.1.1,0,0,1,.09,0,1.58,1.58,0,0,1,.67-.09.91.91,0,0,1,.67.31,1.15,1.15,0,0,1,.18.31.08.08,0,0,1,0-.06,2.85,2.85,0,0,0,.27-.61,1.43,1.43,0,0,1,.27-.64l.62-.56a2.08,2.08,0,0,0,.52-.61A2.14,2.14,0,0,0,167.41,110.58Z"/><path d="M166.63,107.54c-.72-.28-1.72-.64-3-1.07s-2.45-.82-3.06-1l-2.27-.91q-9-3.87-17.48-8.26a3.47,3.47,0,0,0-.38-.6L138.59,93c0-.07,0-.15,0-.25a1.83,1.83,0,0,0-.89-1.1,4.84,4.84,0,0,0-2.16-.77,4.53,4.53,0,0,0-2.26.26,4.19,4.19,0,0,0-1.83,1.34,3.91,3.91,0,0,0-.9,2.06,5,5,0,0,0,.36,2.41,17.69,17.69,0,0,0,1.17,2.25,10.34,10.34,0,0,0,2.6,2.92,2.34,2.34,0,0,0,1.23.48.71.71,0,0,0,.29,0,.41.41,0,0,1,0,.09,3.53,3.53,0,0,0,.74.68l0,0,.84.54,0,.06a17.93,17.93,0,0,1,2.84,2.48l2.67,2.68q4.55,4.6,7,7.34a20.67,20.67,0,0,0,2,2.06,6.51,6.51,0,0,0,2.43,1.34,5.71,5.71,0,0,0,3.26-.21,18.56,18.56,0,0,0,3.08-1.54,17.45,17.45,0,0,0,3.53-2.5,2.78,2.78,0,0,0,.66-1.09,1.14,1.14,0,0,0,.05-.74,1.15,1.15,0,0,0-.18-.31.91.91,0,0,0-.67-.31,1.58,1.58,0,0,0-.67.09.1.1,0,0,0-.09,0,1.1,1.1,0,0,0-.47.31.59.59,0,0,0-.17.1l-.54.49,0,0a11.84,11.84,0,0,1-1,.91,14.78,14.78,0,0,1-3.51,2.08c-.34.13-.67.24-1,.33a3.83,3.83,0,0,1-1.63.07A3.61,3.61,0,0,1,154,117c-.28-.24-.67-.62-1.18-1.14l-1.83-2q-6-6.41-9.13-9.36c-1.08-1-1.7-1.59-1.86-1.72-.77-.68-1.37-1.17-1.78-1.47l-.05,0a1.79,1.79,0,0,0-1.49-.47l-.1-.11a3.45,3.45,0,0,0-.58-.45,6.61,6.61,0,0,1-.62-.36,6.75,6.75,0,0,1-2-2.65,3.9,3.9,0,0,1-.5-2.59,1.93,1.93,0,0,1,1.19-1.34,2,2,0,0,1,1.8.08s0,0,.05,0a4.94,4.94,0,0,0,.27.47q.28.27.78.81a5.34,5.34,0,0,1,.71.87,6,6,0,0,1,.52.94,7,7,0,0,0,.55.89l.05.11,0,.09A5.72,5.72,0,0,0,140.51,99a16.61,16.61,0,0,0,1.9.94l6.7,3q7.75,3.39,16,6.63l.24.09a3.41,3.41,0,0,0,1.52.32,1,1,0,0,0,.43-.1.92.92,0,0,0,.29-.17,1,1,0,0,0,.4-.63C168.08,108.42,167.62,107.92,166.63,107.54Z"/></g><g id="neck_0_Layer0_0_FILL" data-name="neck 0 Layer0 0 FILL"><path d="M337.15,77.77a1.88,1.88,0,0,0-.2.78,5.12,5.12,0,0,0,.4,1.56A42.44,42.44,0,0,1,339,86.56c.1.62.21,1.28.32,2a9.68,9.68,0,0,1,.18,1.81v.78a1.6,1.6,0,0,0,.15.74,1.18,1.18,0,0,0,.92.69,1,1,0,0,0,1.05-.43,2,2,0,0,0,.18-1.43c-.07-.67-.14-1.27-.21-1.82s-.13-.81-.2-1.17-.17-1-.26-1.45a2.38,2.38,0,0,1-.05-.26.29.29,0,0,0,0-.09q-.18-1-.42-2.13a35.08,35.08,0,0,0-1-3.77,10,10,0,0,1-.38-1.23,6.24,6.24,0,0,0-.13-.64,1.36,1.36,0,0,0-.27-.58.76.76,0,0,0-.34-.27l-.17,0a1,1,0,0,0-.61,0,1.19,1.19,0,0,0-.58.53m8.09-2.16a1.08,1.08,0,0,0-.41-.56,1.13,1.13,0,0,0-.67-.23,1.05,1.05,0,0,0-.67.2,1.07,1.07,0,0,0-.42.52.08.08,0,0,0,0,0,2.39,2.39,0,0,0,.11,1.43q1.06,3.51,2.39,7.12c.45,1.24.93,2.49,1.43,3.75,0,.13.11.26.17.4.14.32.29.64.43.94a1.81,1.81,0,0,0,.92.94,1,1,0,0,0,1-.25,1.16,1.16,0,0,0,.36-1,4,4,0,0,0-.51-1.21,16.32,16.32,0,0,1-.92-2.12l-.87-2.34q-1-2.79-2-5.76a7.79,7.79,0,0,1-.23-1v-.48A2.51,2.51,0,0,0,345.24,75.61Z"/><path class="cls-4" d="M343.16,77a2.39,2.39,0,0,1-.11-1.43.08.08,0,0,1,0,0,7.43,7.43,0,0,0-.8.07,7.83,7.83,0,0,0-2.39.66,10.15,10.15,0,0,0-1,.67,2.44,2.44,0,0,0-.36.34.76.76,0,0,1,.34.27,1.36,1.36,0,0,1,.27.58,6.24,6.24,0,0,1,.13.64,10,10,0,0,0,.38,1.23,35.08,35.08,0,0,1,1,3.77q.24,1.1.42,2.13a.29.29,0,0,1,0,.09l.11,0c0,.06,0,.14-.06.24.09.49.17,1,.26,1.45s.14.75.2,1.17a1.24,1.24,0,0,0,1.37-.3,1.2,1.2,0,0,0,.38-.89,1.15,1.15,0,0,0,.6.54,4.2,4.2,0,0,0,.82.26,6.35,6.35,0,0,0,.94.21,1.64,1.64,0,0,0,.92-.07,1.34,1.34,0,0,0,.53-.34c-.06-.14-.12-.27-.17-.4-.5-1.26-1-2.51-1.43-3.75Q344.23,80.52,343.16,77Z"/></g><g id="waist_0_Layer0_0_FILL" data-name="waist 0 Layer0 0 FILL"><path class="cls-2" d="M316.51,188c.34-.52.67-1,1-1.57a4.83,4.83,0,0,1,.4-.56,22.56,22.56,0,0,0-7.35-7.23,9.39,9.39,0,0,0-1.8-1,3.64,3.64,0,0,0-1.91-.25,5.08,5.08,0,0,0-2.8,1.82,24.8,24.8,0,0,0-4,6.6c-.17.38-.48,1.18-.94,2.39q-4.18-1.09-10.12-2.11-10.23-1.76-13.8-2.67l-3.42-.88a20.16,20.16,0,0,0-3.48-.57c-1.67-.1-2.78.29-3.33,1.15a3.91,3.91,0,0,0-.25,2.74,42.75,42.75,0,0,0,10.5,21.47,1.44,1.44,0,0,1,.25-.33,1.53,1.53,0,0,1,.58-.3,2.52,2.52,0,0,1,.64,0l.63.09.67.11a37.19,37.19,0,0,0,12.15,0l.08,0,5.26-2.4q4.83-2.19,7.47-3.71a41.64,41.64,0,0,0,8.18-6.27A42.58,42.58,0,0,0,316.51,188Z"/><path d="M319.83,185.24a.82.82,0,0,0-.67-.23,1.27,1.27,0,0,0-.7.23,2.56,2.56,0,0,0-.55.6,4.83,4.83,0,0,0-.4.56c-.33.53-.66,1-1,1.57a42.58,42.58,0,0,1-5.41,6.47,41.64,41.64,0,0,1-8.18,6.27q-2.64,1.51-7.47,3.71l-5.26,2.4-.08,0a37.19,37.19,0,0,1-12.15,0l-.67-.11-.63-.09a2.52,2.52,0,0,0-.64,0,1.53,1.53,0,0,0-.58.3,1.44,1.44,0,0,0-.25.33,1.52,1.52,0,0,0-.06.2,1,1,0,0,0,.44.92,1,1,0,0,0-.08.29,1.19,1.19,0,0,0,.09.6,2,2,0,0,0,.72.69,18.2,18.2,0,0,0,5.67,2.37l0,.07a1.31,1.31,0,0,0,.44.6,3.1,3.1,0,0,0,1.39.49,18.75,18.75,0,0,0,7.57-.58,50.76,50.76,0,0,0,7.27-2.77,75.79,75.79,0,0,0,10.72-5.79,33.31,33.31,0,0,0,8.28-7.74,1.45,1.45,0,0,0,.49-.54,3,3,0,0,0,.22-.54,2.68,2.68,0,0,0,.22-.58,2,2,0,0,0,0-.42l.12-.61a3.4,3.4,0,0,0,.12-1.22,1.56,1.56,0,0,0-.76-1.08,1,1,0,0,0,.13-.89,1,1,0,0,0-.55-.64c.68-.93,1.33-1.88,1.95-2.87s.67-1.64.2-2.07m-37,25-.09.05-.23-.05Z"/></g><g id="torso_0_Layer0_0_FILL" data-name="torso 0 Layer0 0 FILL"><path d="M355,95.26a19.27,19.27,0,0,0-5.62-7.17A11.34,11.34,0,0,0,346,86.24a6.36,6.36,0,0,0-3.66-.22,2.14,2.14,0,0,0-.91.47.19.19,0,0,0-.09,0,1.64,1.64,0,0,0-1,0,19.88,19.88,0,0,0-5.18,2,18,18,0,0,0-4.38,3.35,26.86,26.86,0,0,0-1.72,2.07c-.72,1-1.26,1.66-1.63,2.12a128.05,128.05,0,0,1-8.81,9.38,58,58,0,0,0-8.2,9.78,8.15,8.15,0,0,0-1.52,4.55,7.75,7.75,0,0,0,1.1,3.24,26.82,26.82,0,0,0,5.16,6.69,71.73,71.73,0,0,1-10.12,20.64q-3,4.44-7,9.28-3.21,3.86-7.7,8.75a3,3,0,0,0-.91,1.52,2.17,2.17,0,0,0,.15,1l.38.91a6.31,6.31,0,0,1,.2,4.49c-.05.17-.13.42-.25.76a2.83,2.83,0,0,0-.17.78,1.56,1.56,0,0,0,.2.78.94.94,0,0,0,1.38.29c.16.13.34.27.54.41A173.28,173.28,0,0,1,310.18,194a11.2,11.2,0,0,0,1.27,1.05,3.09,3.09,0,0,0,1.48.51,3.43,3.43,0,0,0,1.14-.2l1.11-.4a6.14,6.14,0,0,1,2.37-.38c.19,0,.47,0,.83,0a2.9,2.9,0,0,0,.84-.11,1.67,1.67,0,0,0,.69-.47,1.46,1.46,0,0,0,.18-.38,3.71,3.71,0,0,0,.79-.48q5.12-3.94,9.21-11.68,2.36-4.48,6.41-13.93,1.14-2.38,3.11-6.18,2.5-4.77,3.17-6.12A165.6,165.6,0,0,0,355,122.48a89.28,89.28,0,0,0,1.94-9.07,39.85,39.85,0,0,0,.34-9.2A26.45,26.45,0,0,0,355,95.26m-5.64-3.53A10.54,10.54,0,0,1,351,93.88a14.37,14.37,0,0,1,2.21,5.71A9.43,9.43,0,0,1,353,103a12.44,12.44,0,0,1-1,2.6,26.22,26.22,0,0,1-1.47,2.43,11.33,11.33,0,0,1-2,2.45,6.93,6.93,0,0,1-3.35,1.41,20.71,20.71,0,0,1-3.79.22,27.88,27.88,0,0,1-4.27-.35,9.66,9.66,0,0,1-3.88-1.54,9.12,9.12,0,0,1-2-2,6.89,6.89,0,0,1-1-2,6,6,0,0,1,.2-3.64A18.82,18.82,0,0,1,332,99.28l1-1.7c.75-1.25,1.26-2,1.52-2.41a18.52,18.52,0,0,1,2.41-2.66c.61-.58,1.51-1.37,2.72-2.36a3,3,0,0,1,1.68-.87c.11,0,.31,0,.6.07a2,2,0,0,0,.62,0,3.44,3.44,0,0,0,.94-.31,2.35,2.35,0,0,1,1.14,0,8.46,8.46,0,0,1,1.12.43c.86.41,1.49.73,1.89,1a7.85,7.85,0,0,1,1.68,1.23m3.7,16.19q.6-1,.9-1.56a11.39,11.39,0,0,0,1-2.17.07.07,0,0,0,0-.06,32.81,32.81,0,0,1,.24,5.87,58.57,58.57,0,0,1-1.83,10.46,171.35,171.35,0,0,1-13.75,36.33c-1.58,3-2.77,5.26-3.55,6.76q-2.1,4-3.35,6.86c-.58,1.34-1.42,3.37-2.52,6.07a47.4,47.4,0,0,1-2.9,5.91,30.25,30.25,0,0,1-7.24,8.29,4.22,4.22,0,0,0-1.25,1.36.85.85,0,0,0-.09.31l-.38,0q-1.11,0-1.74,0c-.33,0-.64.06-.93.11a6.33,6.33,0,0,0-.78.16,10.09,10.09,0,0,1-1,.29,2.68,2.68,0,0,1-1,.08,1.28,1.28,0,0,1-.41-.17,4.09,4.09,0,0,1-1-.72,183.24,183.24,0,0,0-15.27-12.52,29.24,29.24,0,0,1-2.41-1.9,8.37,8.37,0,0,1-.67-.69,8.36,8.36,0,0,0-.6-.6,9,9,0,0,0,.24-2,11.87,11.87,0,0,0-.11-1.58c0-.08,0-.16-.06-.23s-.07-.39-.1-.57l-.15-.52a3,3,0,0,1-.2-1.27.64.64,0,0,1,.06-.16,2.71,2.71,0,0,1,.65-1,185.9,185.9,0,0,0,14.34-18,80.64,80.64,0,0,0,9.59-18.49l.43-1.3,0,0c.75.56,1.33.68,1.75.38a.86.86,0,0,0,.37-.63,1.37,1.37,0,0,0-.15-.74,4.19,4.19,0,0,0-1.07-1.06l-.58-.45a.78.78,0,0,1,0-.14,1,1,0,0,0-.85-.71h-.09a22.29,22.29,0,0,1-4-4.76,6.61,6.61,0,0,1-1.32-3.93,5,5,0,0,1,.5-1.85,10.34,10.34,0,0,1,.64-1.22,31.26,31.26,0,0,1,3.71-4.81q.78-.85,4.26-4.39,5.33-5.35,10.32-11.43c1.08-1.29,1.88-2.21,2.41-2.75a12.1,12.1,0,0,1,2.68-2.07,28.25,28.25,0,0,0-2.41,2.56,39.61,39.61,0,0,0-3.6,5.63,17.14,17.14,0,0,0-1.54,3.26,8.18,8.18,0,0,0,.18,5.35,9,9,0,0,0,2.16,3.26,10.78,10.78,0,0,0,3.24,2.22,18.57,18.57,0,0,0,7.7,1.47c3.64,0,6.41-.76,8.31-2.35a.2.2,0,0,1,.09-.09,9.41,9.41,0,0,0,1.5-1.69c.27-.36.69-1,1.27-1.88Z"/><path class="cls-2" d="M296.72,169.85a4.37,4.37,0,0,0-.89,0L295,170a8.9,8.9,0,0,1-2.47.05l-.32,0a.64.64,0,0,0-.06.16,3,3,0,0,0,.2,1.27l.15.52c0,.18.07.37.1.57s0,.15.06.23a11.87,11.87,0,0,1,.11,1.58,9,9,0,0,1-.24,2,8.36,8.36,0,0,1,.6.6,8.37,8.37,0,0,0,.67.69,3.73,3.73,0,0,0,.22-1,7.57,7.57,0,0,1,.11-.89,2.08,2.08,0,0,1,.29-.81,2.32,2.32,0,0,1,.9-.73l1.05-.58a5.56,5.56,0,0,0,1.09-1.17,4.39,4.39,0,0,0,.47-.76,1.38,1.38,0,0,0,.14-.84,1,1,0,0,0-.47-.7,1.87,1.87,0,0,0-.83-.35M312,118a1,1,0,0,0-.27-.67,5,5,0,0,0-.5,1.85,6.61,6.61,0,0,0,1.32,3.93,22.29,22.29,0,0,0,4,4.76h.09a1,1,0,0,1,.85.71.78.78,0,0,0,0,.14l.58.45a4.19,4.19,0,0,1,1.07,1.06,1.37,1.37,0,0,1,.15.74.86.86,0,0,1-.37.63c-.42.3-1,.18-1.75-.38l0,0-.43,1.3.32,0a2.42,2.42,0,0,1,1,.35l1,.58a3.23,3.23,0,0,0,1.33.34,4.46,4.46,0,0,0,2.73-.94c.67-.44,1-.91.94-1.41a.91.91,0,0,0-.36-.69,1.12,1.12,0,0,0-.76-.29,3.25,3.25,0,0,0-.67.13,1.38,1.38,0,0,1-.65,0,3.43,3.43,0,0,1-.71-.34c-.14-.1-.67-.39-1.59-.86a11.34,11.34,0,0,1-2.36-1.68,17.27,17.27,0,0,1-1.5-1.58,12.89,12.89,0,0,1-1.56-2,10,10,0,0,1-.72-1.69c-.32-.89-.53-1.47-.65-1.74l-.42-.94a2.24,2.24,0,0,1-.15-1A4.3,4.3,0,0,0,312,118m41.88-11.67q-.3.57-.9,1.56l-.33.51c-.58.89-1,1.52-1.27,1.88a9.41,9.41,0,0,1-1.5,1.69.2.2,0,0,0-.09.09q-1.43,5.7-3.71,12.41-1.64,4.81-5.27,14.43-7,18.57-11.49,27.73a110.77,110.77,0,0,1-16.1,25,5.25,5.25,0,0,0-.85,1.19,1.28,1.28,0,0,0,.41.17,2.68,2.68,0,0,0,1-.08,10.09,10.09,0,0,0,1-.29,6.33,6.33,0,0,1,.78-.16c.29-.05.6-.08.93-.11s1,0,1.74,0l.38,0a.85.85,0,0,1,.09-.31,4.22,4.22,0,0,1,1.25-1.36,30.25,30.25,0,0,0,7.24-8.29,47.4,47.4,0,0,0,2.9-5.91c1.1-2.7,1.94-4.73,2.52-6.07q1.24-2.83,3.35-6.86c.78-1.5,2-3.75,3.55-6.76a171.35,171.35,0,0,0,13.75-36.33A58.57,58.57,0,0,0,355.14,110a32.81,32.81,0,0,0-.24-5.87.07.07,0,0,1,0,.06A11.39,11.39,0,0,1,353.92,106.36Z"/><path class="cls-5" d="M333.11,92.76c-.53.54-1.33,1.46-2.41,2.75q-5,6.08-10.32,11.43-3.48,3.54-4.26,4.39a31.26,31.26,0,0,0-3.71,4.81,10.34,10.34,0,0,0-.64,1.22,1,1,0,0,1,.27.67,4.3,4.3,0,0,1-.09.72,2.24,2.24,0,0,0,.15,1l.42.94c.12.27.33.85.65,1.74a10,10,0,0,0,.72,1.69,12.89,12.89,0,0,0,1.56,2,17.27,17.27,0,0,0,1.5,1.58,11.34,11.34,0,0,0,2.36,1.68c.92.47,1.45.76,1.59.86a3.43,3.43,0,0,0,.71.34,1.38,1.38,0,0,0,.65,0,3.25,3.25,0,0,1,.67-.13,1.12,1.12,0,0,1,.76.29.91.91,0,0,1,.36.69c0,.5-.27,1-.94,1.41a4.46,4.46,0,0,1-2.73.94,3.23,3.23,0,0,1-1.33-.34l-1-.58a2.42,2.42,0,0,0-1-.35l-.32,0A80.64,80.64,0,0,1,307.15,151a185.9,185.9,0,0,1-14.34,18,2.71,2.71,0,0,0-.65,1l.32,0A8.9,8.9,0,0,0,295,170l.88-.13a4.37,4.37,0,0,1,.89,0,1.87,1.87,0,0,1,.83.35,1,1,0,0,1,.47.7,1.38,1.38,0,0,1-.14.84,4.39,4.39,0,0,1-.47.76,5.56,5.56,0,0,1-1.09,1.17l-1.05.58a2.32,2.32,0,0,0-.9.73,2.08,2.08,0,0,0-.29.81,7.57,7.57,0,0,0-.11.89,3.73,3.73,0,0,1-.22,1,29.24,29.24,0,0,0,2.41,1.9,183.24,183.24,0,0,1,15.27,12.52,4.09,4.09,0,0,0,1,.72,5.25,5.25,0,0,1,.85-1.19,110.77,110.77,0,0,0,16.1-25q4.45-9.16,11.49-27.73,3.63-9.62,5.27-14.43,2.28-6.7,3.71-12.41c-1.9,1.59-4.67,2.38-8.31,2.35a18.57,18.57,0,0,1-7.7-1.47,10.78,10.78,0,0,1-3.24-2.22,9,9,0,0,1-2.16-3.26,8.18,8.18,0,0,1-.18-5.35,17.14,17.14,0,0,1,1.54-3.26,39.61,39.61,0,0,1,3.6-5.63,28.25,28.25,0,0,1,2.41-2.56A12.1,12.1,0,0,0,333.11,92.76Z"/><path class="cls-3" d="M351,93.88a10.54,10.54,0,0,0-1.63-2.15,7.85,7.85,0,0,0-1.68-1.23c-.4-.22-1-.54-1.89-1a8.46,8.46,0,0,0-1.12-.43,2.35,2.35,0,0,0-1.14,0,3.44,3.44,0,0,1-.94.31,2,2,0,0,1-.62,0c-.29,0-.49-.07-.6-.07a3,3,0,0,0-1.68.87c-1.21,1-2.11,1.78-2.72,2.36a18.52,18.52,0,0,0-2.41,2.66c-.26.36-.77,1.16-1.52,2.41l-1,1.7a18.82,18.82,0,0,0-1.63,3.32,6,6,0,0,0-.2,3.64,6.89,6.89,0,0,0,1,2,9.12,9.12,0,0,0,2,2,9.66,9.66,0,0,0,3.88,1.54,27.88,27.88,0,0,0,4.27.35,20.71,20.71,0,0,0,3.79-.22,6.93,6.93,0,0,0,3.35-1.41,11.33,11.33,0,0,0,2-2.45,26.22,26.22,0,0,0,1.47-2.43,12.44,12.44,0,0,0,1-2.6,9.43,9.43,0,0,0,.21-3.39A14.37,14.37,0,0,0,351,93.88Z"/></g><g id="arm_0_Layer0_0_FILL" data-name="arm 0 Layer0 0 FILL"><path class="cls-4" d="M351.58,103.33a1.53,1.53,0,0,0-.24.07,3.2,3.2,0,0,0-1.08.76q-3.87,4.07-11.32,6.74c-1.33.49-3.5,1.18-6.51,2.09s-5,1.57-6.48,2.12a68.94,68.94,0,0,0-12.7,6.46q-4.51,2.87-11.72,8.32-8.64,6.51-11.61,8.58a86.6,86.6,0,0,1-12.34,7.3q-3.18,1.5-10.79,4.35a107.05,107.05,0,0,0-10.73,4.49,68.66,68.66,0,0,0-9.31,5.87q-3.06,2.27-6.86,5.53l-1.69,1.44a4.1,4.1,0,0,0-.65.75.92.92,0,0,0-.14.81.81.81,0,0,0,.72.6,2.72,2.72,0,0,1,.64-.8l.21-.18.47-.36a124.54,124.54,0,0,1,10.46-7.39c.49-.32,1-.61,1.48-.89a55.88,55.88,0,0,1,10.45-4.93c1.75-.59,4.59-1.35,8.5-2.3a80.56,80.56,0,0,0,8.46-2.37,40.58,40.58,0,0,0,12-6.88q1.83-1.5,4.82-4.46,3.31-3.26,4.77-4.53a49.28,49.28,0,0,1,13.6-8.46q2.72-1.11,7.64-2.66,5.54-1.74,7.68-2.55a50.24,50.24,0,0,0,13-7.18,43.06,43.06,0,0,0,3.75-3.27A34.21,34.21,0,0,0,351.58,103.33Z"/><path d="M342,91.39a3.12,3.12,0,0,0-1.09.49q-10,7.07-34.51,23.13-22.23,14.61-34.3,23.39-11.76,8.81-17.7,13.1a205.39,205.39,0,0,1-18.39,12,3.61,3.61,0,0,0-1.12,1,1,1,0,0,0-.13,1.18,1,1,0,0,0,1.07.4,3.84,3.84,0,0,0,.89-.29,2.65,2.65,0,0,0,.4-.22l1.36-.85q9.9-6.25,24.07-16.54,21.78-15.82,25-18.07,7.73-5.37,27.21-18Q332.08,100.9,341.67,94a.44.44,0,0,1,.11-.09,3,3,0,0,0,1-1.23c.25-.55.17-.94-.23-1.2a.8.8,0,0,0-.58-.11m10.94,10.13a2.29,2.29,0,0,0-.92,1.07,1.71,1.71,0,0,0-.13.23l-.29.51a34.21,34.21,0,0,1-5.45,7.07,43.06,43.06,0,0,1-3.75,3.27,50.24,50.24,0,0,1-13,7.18q-2.14.81-7.68,2.55-4.92,1.55-7.64,2.66a49.28,49.28,0,0,0-13.6,8.46q-1.46,1.28-4.77,4.53-3,3-4.82,4.46a40.58,40.58,0,0,1-12,6.88,80.56,80.56,0,0,1-8.46,2.37c-3.91,1-6.75,1.71-8.5,2.3A55.88,55.88,0,0,0,251.39,160c-.49.28-1,.57-1.48.89a124.54,124.54,0,0,0-10.46,7.39l-.47.36-.21.18a2.72,2.72,0,0,0-.64.8,1.28,1.28,0,0,0-.14.29c-.22.57-.12,1,.29,1.2s.92.07,1.61-.42q8.45-6.1,10.69-7.57a53.81,53.81,0,0,1,11.55-5.87c1.43-.49,3.2-1,5.33-1.51,1.19-.3,3-.73,5.38-1.3Q286,151,293.52,144.27c1-.85,2.34-2.25,4.19-4.22a57.47,57.47,0,0,1,4.2-4.19q5.43-4.73,16.09-8.6,2.91-1,8.8-3.1a79.82,79.82,0,0,0,8.57-3.58,51.13,51.13,0,0,0,17.42-14.3,13.53,13.53,0,0,0,1-1.52,4.5,4.5,0,0,0,.52-1.72,1.93,1.93,0,0,0-.25-1.09.93.93,0,0,0-.85-.52A1,1,0,0,0,352.92,101.52Z"/><path class="cls-3" d="M352.92,101.52a2.09,2.09,0,0,0-.33-.72,6.91,6.91,0,0,0-.52-.68l-2.14-2.48c-.94-1.08-1.66-1.89-2.15-2.41A24.94,24.94,0,0,0,345.46,93a14.51,14.51,0,0,0-2-1.47,1.4,1.4,0,0,0-1.32-.27.9.9,0,0,0-.2.14.8.8,0,0,1,.58.11c.4.26.48.65.23,1.2a3,3,0,0,1-1,1.23.44.44,0,0,0-.11.09q-9.59,6.89-26.93,18.1-19.49,12.6-27.21,18-3.22,2.24-25,18.07-14.16,10.29-24.07,16.54l-1.36.85a2.65,2.65,0,0,1-.4.22,1.81,1.81,0,0,0,0,.51,4.58,4.58,0,0,0,.81,1.92,4.1,4.1,0,0,1,.65-.75l1.69-1.44q3.8-3.27,6.86-5.53a68.66,68.66,0,0,1,9.31-5.87,107.05,107.05,0,0,1,10.73-4.49q7.6-2.85,10.79-4.35a86.6,86.6,0,0,0,12.34-7.3q3-2.06,11.61-8.58,7.22-5.46,11.72-8.32a68.94,68.94,0,0,1,12.7-6.46c1.46-.55,3.62-1.25,6.48-2.12s5.18-1.6,6.51-2.09q7.46-2.67,11.32-6.74a3.2,3.2,0,0,1,1.08-.76,1.53,1.53,0,0,1,.24-.07l.29-.51a1.71,1.71,0,0,1,.13-.23A2.29,2.29,0,0,1,352.92,101.52Z"/></g><g id="hand_0_Layer0_0_FILL" data-name="hand 0 Layer0 0 FILL"><path class="cls-4" d="M237.23,167.66a1.28,1.28,0,0,0-.69.14,4.54,4.54,0,0,0-1.25,1.16,30.2,30.2,0,0,1-2.66,2.63c-.87.78-1.51,1.33-1.9,1.65a15.54,15.54,0,0,1-2.07,1.43L228,175a3.69,3.69,0,0,0-.62.43,10.75,10.75,0,0,0-.74.82l-.43.36a4.49,4.49,0,0,0-.38.38l0,0a2.2,2.2,0,0,0-.4.65.6.6,0,0,1,.22,0l.61-.26a43.29,43.29,0,0,0,4.62-2.1,14.2,14.2,0,0,0,3.93-3.08,18.23,18.23,0,0,0,1.94-2.91,3.26,3.26,0,0,1,1-1.25A2,2,0,0,1,238,168a1.07,1.07,0,0,0-.6-.3.47.47,0,0,0-.16,0m-8.66,11.26c-1,.46-1.92.87-2.75,1.22-.27.88-.63,2-1.07,3.44a5.45,5.45,0,0,0-.35,2,1.79,1.79,0,0,0,.38.92,1.36,1.36,0,0,0,.47.43,1.58,1.58,0,0,0,.64-.5,47.83,47.83,0,0,0,1.77-5A20.39,20.39,0,0,1,228.57,178.92Z"/><path d="M237.76,164.59c.11,0-.35.23-.34.2s-.91-.17-.9-.27a.94.94,0,0,0-.18-.63.92.92,0,0,0-.85-.36,2.45,2.45,0,0,0-1,.25,11.83,11.83,0,0,0-1.64,1c-.68.54-1.19.93-1.54,1.18-1,.79-2.48,1.8-4.39,3.05-2.12,1.36-3.61,2.35-4.45,3-.68.5-1.6,1.21-2.76,2.12q-3.23,2.56-4.62,3.73-2.53,2.1-4.43,3.93-1.6,1.53-3.06,3.17a1.14,1.14,0,0,0-.87.45,2.69,2.69,0,0,0-.51,1,3.84,3.84,0,0,0,.13,2.3,2.48,2.48,0,0,0,1.48,1.58,2.9,2.9,0,0,0,2.14-.16,10.3,10.3,0,0,0,2-1.27l6.15-4.86a18,18,0,0,1,2.31-1.64,22.77,22.77,0,0,1,2.67-1.11l-.2.6c-.24.84-.4,1.39-.46,1.63a8.62,8.62,0,0,0-.23,1.67,4.45,4.45,0,0,0,.9,3.16,3,3,0,0,0,1.38,1,2.46,2.46,0,0,0,1.65,0,3.57,3.57,0,0,0,1.68-1.54,18.62,18.62,0,0,0,1.83-4.8,16,16,0,0,1,1.94-4.75l.45-.61a3.15,3.15,0,0,0,.22-.39l.33-.18a14.62,14.62,0,0,0,3-2.17,26.1,26.1,0,0,0,2-2.28,15.46,15.46,0,0,0,1.11-1.56,5.21,5.21,0,0,0,.7-1.74,1.28,1.28,0,0,0-.12-1,.86.86,0,0,0-.67-.34,1.34,1.34,0,0,0-.49,0,2,2,0,0,0-.29.15,3.26,3.26,0,0,0-1,1.25,18.23,18.23,0,0,1-1.94,2.91,14.2,14.2,0,0,1-3.93,3.08,43.29,43.29,0,0,1-4.62,2.1l-.61.26a.6.6,0,0,0-.22,0l-.15,0a1.39,1.39,0,0,0-.88.31,2,2,0,0,0-.31.38c-1,.4-1.72.67-2.14.82a17.08,17.08,0,0,0-2.62,1.07,18.78,18.78,0,0,0-2.58,1.81l-6.84,5.56a1.8,1.8,0,0,1-.66.36.54.54,0,0,1-.59-.14.61.61,0,0,1-.13-.49l.23-.27a81.16,81.16,0,0,1,7.47-7.25l2.55-2.1q3.51-2.79,8.15-6,2.52-1.72,7.77-5.23c.21-.13.41-.27.62-.42.49-.32,1.9-.41,2.08-.67m-11.55,14.75c.83-.35,1.75-.76,2.75-1.22a20.39,20.39,0,0,0-.91,2.43,47.83,47.83,0,0,1-1.77,5,6.22,6.22,0,0,1-.31.59,1,1,0,0,1-.33-.09,1.36,1.36,0,0,1-.47-.43,1.79,1.79,0,0,1-.38-.92,5.45,5.45,0,0,1,.35-2C225.19,182.17,225.55,181,225.82,180.14Z"/><path class="cls-3" d="M235.29,166.06c-.21.15-.41.29-.62.42q-5.25,3.5-7.77,5.23-4.64,3.22-8.15,6l-2.55,2.1a81.16,81.16,0,0,0-7.47,7.25l-.23.27a.61.61,0,0,0,.13.49.54.54,0,0,0,.59.14,1.8,1.8,0,0,0,.66-.36l6.84-5.56a18.78,18.78,0,0,1,2.58-1.81,17.08,17.08,0,0,1,2.62-1.07c.42-.15,1.14-.42,2.14-.82a2,2,0,0,1,.31-.38,1.39,1.39,0,0,1,.88-.31l.15,0a2.2,2.2,0,0,1,.4-.65l0,0a4.49,4.49,0,0,1,.38-.38l.43-.36a10.75,10.75,0,0,1,.74-.82A3.69,3.69,0,0,1,228,175l.67-.36a15.54,15.54,0,0,0,2.07-1.43c.39-.32,1-.87,1.9-1.65a30.2,30.2,0,0,0,2.66-2.63,4.54,4.54,0,0,1,1.25-1.16,1.28,1.28,0,0,1,.69-.14,3.29,3.29,0,0,0,.23-.78c.12-.7.91-1.42.49-1.86"/></g><g id="head_0_Layer5_0_FILL" data-name="head 0 Layer5 0 FILL"><path d="M348.64,75.1a4.16,4.16,0,0,1-1.23.11c-.59,0-1.12-.07-1.6-.13a4.51,4.51,0,0,0-1-.09,1,1,0,0,1-.12.29,2.12,2.12,0,0,1-.28.31.58.58,0,0,1-.12.1,3,3,0,0,1-.58.26,1.4,1.4,0,0,0,.07.38,1.42,1.42,0,0,0,.6.72,3.67,3.67,0,0,0,1.83.35l1.79,0a5.45,5.45,0,0,0,1.7-.19,1.7,1.7,0,0,0,1.23-1.1,1.13,1.13,0,0,0,.06-.36,1.28,1.28,0,0,0-.11-.49.94.94,0,0,0-.62-.55,1.32,1.32,0,0,0-.79.08c-.35.14-.62.24-.8.29M336.92,26.59a21.49,21.49,0,0,0-6-3.5,27.22,27.22,0,0,0-8.75-1.79,31.05,31.05,0,0,0-8.91,1,37,37,0,0,0-15.54,8.66q-6.4,5.77-8,12a15.12,15.12,0,0,0-.09,7.32,11.59,11.59,0,0,0,3.57,6.21q4,3.56,12.1,3.59c.53,0,1,0,1.52,0,.31,0,.6,0,.88,0,.56-.05,1.08-.1,1.56-.17A14.27,14.27,0,0,0,313,58.79a2.94,2.94,0,0,0,1.27-.92,1.36,1.36,0,0,0,.23-.76,1,1,0,0,0-.27-.72,1.13,1.13,0,0,0-1.14-.22,5.13,5.13,0,0,0-.63.23l-.64.35a9.4,9.4,0,0,1-3.37,1l-.07,0c-.44.05-.93.09-1.49.11-.36,0-.74,0-1.16,0l-1,0a28.3,28.3,0,0,1-5-.51,11,11,0,0,1-4.48-1.92,9.11,9.11,0,0,1-.94-.81A9.7,9.7,0,0,1,292,50.79a13.5,13.5,0,0,1-.43-1.63,12,12,0,0,1-.05-4.19q.79-5.14,5.41-10.21a34.64,34.64,0,0,1,16-10,29.45,29.45,0,0,1,8.49-1.28,23,23,0,0,1,8.39,1.5,18.73,18.73,0,0,1,7.06,4.82,16.54,16.54,0,0,1,2.68,3.86l.11.23a14.2,14.2,0,0,1,.84,2.16l0,.12a10.2,10.2,0,0,1,.27,1.09,4.71,4.71,0,0,0,.51,1.52,1.3,1.3,0,0,0,.62.49,1,1,0,0,0,.76,0c.51-.26.65-.89.4-1.88,0-.06,0-.11,0-.16q-.37-1.32-.63-2.16l-.17-.52a17.69,17.69,0,0,0-1-2.58A16.41,16.41,0,0,0,336.92,26.59Z"/><path class="cls-6" d="M307.16,60.1a3,3,0,0,0,.52-.07c-.28,0-.57,0-.88,0a1.37,1.37,0,0,0,.36,0M336.9,29.76a18.73,18.73,0,0,0-7.06-4.82,23,23,0,0,0-8.39-1.5A29.45,29.45,0,0,0,313,24.72a34.64,34.64,0,0,0-16,10q-4.62,5.07-5.41,10.21a12,12,0,0,0,.05,4.19l.13.09a6.47,6.47,0,0,1,.83.94,9.15,9.15,0,0,0,2.55,2.36,9.62,9.62,0,0,0,4.41.94l2.26-.06c.92,0,1.67,0,2.26,0a4.06,4.06,0,0,0,.82,0,1,1,0,0,0,.22,0,5.47,5.47,0,0,0,.58-.35,1.24,1.24,0,0,1,.79-.1,1.39,1.39,0,0,1,.73.38.62.62,0,0,1,.09.12,6.77,6.77,0,0,1,1.39-1.61,24.77,24.77,0,0,1,6.27-3.71q1.89-.82,5.43-2.14a86.93,86.93,0,0,0-6.77,6.23c-1.61,1.64-2.56,2.6-2.86,2.88A20.83,20.83,0,0,1,308.36,57c-.28.19-.55.37-.82.53l-.62.38c.56,0,1.05-.06,1.49-.11l.07,0a9.4,9.4,0,0,0,3.37-1l.64-.35.18-.16q4.45-4.44,6.3-6.12a54.38,54.38,0,0,1,6.88-5.42A40.26,40.26,0,0,1,330,42.35c.78-.38,1.94-.91,3.48-1.62a32.64,32.64,0,0,0,3.88-2.08,15.79,15.79,0,0,0,2.77-2.23,3.77,3.77,0,0,0,.38-.23l.07-.06,0-.12a14.2,14.2,0,0,0-.84-2.16l-.11-.23a16.54,16.54,0,0,0-2.68-3.86M357.46,53a.19.19,0,0,0,0-.07,23.31,23.31,0,0,0-1.19-4.73,22.34,22.34,0,0,0-2.28-4,31.89,31.89,0,0,0-7.05-7.57A7.5,7.5,0,0,0,343.15,35a3.2,3.2,0,0,0-.7,0q.26.84.63,2.16s0,.1,0,.16a4.33,4.33,0,0,1,.7.11,1.48,1.48,0,0,0-.56.87,2.15,2.15,0,0,0,0,1.07,6.6,6.6,0,0,0,1,1.9,56.46,56.46,0,0,1,7.22,14.16,14.68,14.68,0,0,1,.8,3.23A11.88,11.88,0,0,1,352,62.6a19.26,19.26,0,0,1-4.59,8.62,5.73,5.73,0,0,0-.94,1.29,1.36,1.36,0,0,0-.09.79,1,1,0,0,0,.15.44,3.3,3.3,0,0,0,.47-.27l.45-.31a24.34,24.34,0,0,0,5.27-5.76,44.28,44.28,0,0,0,3.68-7,14.29,14.29,0,0,0,.83-2.43,5.2,5.2,0,0,0,0-2.48l-.15-.56a1.7,1.7,0,0,1,0-.58,1,1,0,0,1,.47-.67l.05,0C357.53,53.43,357.5,53.21,357.46,53Z"/><path class="cls-7" d="M307.27,53.43a.62.62,0,0,0-.09-.12,1.39,1.39,0,0,0-.73-.38,1.24,1.24,0,0,0-.79.1,5.47,5.47,0,0,1-.58.35,1,1,0,0,1-.22,0,4.06,4.06,0,0,1-.82,0c-.59,0-1.34,0-2.26,0l-2.26.06a9.62,9.62,0,0,1-4.41-.94,9.15,9.15,0,0,1-2.55-2.36,6.47,6.47,0,0,0-.83-.94l-.13-.09a13.5,13.5,0,0,0,.43,1.63,9.7,9.7,0,0,0,2.34,3.86,9.11,9.11,0,0,0,.94.81,11,11,0,0,0,4.48,1.92,28.3,28.3,0,0,0,5,.51l1,0c.42,0,.8,0,1.16,0l.62-.38c.27-.16.54-.34.82-.53-.29-1.2-.51-2.07-.68-2.61a2.9,2.9,0,0,0-.41-1m50.17-.52a.19.19,0,0,1,0,.07c0,.23.07.45.09.67l-.05,0a1,1,0,0,0-.47.67,1.7,1.7,0,0,0,0,.58l.15.56a5.2,5.2,0,0,1,0,2.48,14.29,14.29,0,0,1-.83,2.43,44.28,44.28,0,0,1-3.68,7,24.34,24.34,0,0,1-5.27,5.76l-.45.31-.91.63a1.1,1.1,0,0,0-.56-.25,1,1,0,0,0-.62.05,1.09,1.09,0,0,0-.4.27l-.12.06a.9.9,0,0,0-.49.7,1.33,1.33,0,0,0,0,.44,1.19,1.19,0,0,0-.43.27,1.28,1.28,0,0,0-.38.6,1.41,1.41,0,0,0-.06.22,3,3,0,0,1,.65-.49l.06,0a3,3,0,0,0,.58-.26.58.58,0,0,0,.12-.1,2.12,2.12,0,0,0,.28-.31,1,1,0,0,0,.12-.29,4.51,4.51,0,0,1,1,.09c.48.06,1,.1,1.6.13a4.16,4.16,0,0,0,1.23-.11c.18,0,.45-.15.8-.29a1.32,1.32,0,0,1,.79-.08.94.94,0,0,1,.62.55,1.28,1.28,0,0,1,.11.49,5.62,5.62,0,0,0,1.1-1.18,41.44,41.44,0,0,0,3.92-6,30.5,30.5,0,0,0,2.26-6.92A27.45,27.45,0,0,0,359,55a2.84,2.84,0,0,0-.34-1.53A1.33,1.33,0,0,0,358,53,1.07,1.07,0,0,0,357.44,52.91Z"/></g><g id="head_0_Layer4_0_FILL" data-name="head 0 Layer4 0 FILL"><path d="M305.48,50.44c-.32.37-.31,1,0,1.87a54.65,54.65,0,0,1,2.19,7.5c.18.88.35,1.83.51,2.86l.18,1.4a20.9,20.9,0,0,1,.13,2.51c0,.56,0,1.39-.07,2.5a6.36,6.36,0,0,0,.39,2.39,6.92,6.92,0,0,0,.73,1.31,4.32,4.32,0,0,0,1.92,1.74,5.29,5.29,0,0,0,1.68.2h1.74a4.58,4.58,0,0,0,.55,0,4.12,4.12,0,0,0,.5.56,11.76,11.76,0,0,1,.87.91A11.15,11.15,0,0,1,318,78.5a4.55,4.55,0,0,0,1.45,2.09,9.86,9.86,0,0,0,.94.5,2.57,2.57,0,0,1,.83.6,3.38,3.38,0,0,1,.42.71,2.13,2.13,0,0,0,.45.65,2.58,2.58,0,0,0,.67.29,3.25,3.25,0,0,1,.69.27.18.18,0,0,1,.07,0,3.6,3.6,0,0,1,.8,1,4.48,4.48,0,0,0,1.63,1l.94.38q.93.34,1.65.54a9.22,9.22,0,0,0,2.7.36A9.76,9.76,0,0,0,335,86a18.27,18.27,0,0,0,7.83-7.19,33.11,33.11,0,0,0,2.46-4.77c.59-1.37,1.22-3.06,1.89-5,.36-1.12.26-1.84-.31-2.14a.94.94,0,0,0-.74,0H346a1.49,1.49,0,0,0-.58.42,4,4,0,0,0-.54,1.29s0,.08,0,.12a31.9,31.9,0,0,1-1.08,3.35,33.71,33.71,0,0,1-2.61,5.33A24.59,24.59,0,0,1,339.37,80c-.12.15-.23.29-.35.42a15,15,0,0,1-2,2,10.34,10.34,0,0,1-3.07,1.72l-.21.08a9.1,9.1,0,0,1-3.08.41,8.81,8.81,0,0,1-3-.63,5,5,0,0,1-1.72-1.11l-.54-.63a2.75,2.75,0,0,0-.6-.56.57.57,0,0,0-.16-.09,4.06,4.06,0,0,0-.38-.2,2.22,2.22,0,0,1-.53-.33,2.42,2.42,0,0,1-.36-.51A5.4,5.4,0,0,0,323,80a2.82,2.82,0,0,0-1.08-.74,5.45,5.45,0,0,1-1.16-.65,2.37,2.37,0,0,1-.56-.75c-.08-.14-.2-.42-.38-.85A15.71,15.71,0,0,0,317.27,73c-.52-.59-1-.85-1.43-.78a.87.87,0,0,0-.49.26,4.33,4.33,0,0,0-1.33,0,6.67,6.67,0,0,1-.92,0,2.12,2.12,0,0,1-.89-.22,2.63,2.63,0,0,1-1.14-1.43,9.91,9.91,0,0,1-.47-3.43c0-2.24,0-3.42,0-3.53,0-.44-.15-1.27-.36-2.46l-.82-4.22a13.26,13.26,0,0,0-.6-2.19l0-.11a9.49,9.49,0,0,1-.67-1.54,3.42,3.42,0,0,1-.13-.53q0-.12-.06-.27l-.16-.81a2.44,2.44,0,0,0-.83-1.4,1.33,1.33,0,0,0-.78-.23A1,1,0,0,0,305.48,50.44Z"/><path class="cls-3" d="M326.18,53.67a32.1,32.1,0,0,1-5.67-1.87,8.11,8.11,0,0,0-1.81-.65,4,4,0,0,0-2.3.53c-.5.24-1.22.65-2.18,1.23a18.09,18.09,0,0,1-2,.81c-.93.33-1.59.58-2,.76s-.7.31-.89.38a4.6,4.6,0,0,1-.53.17,13.26,13.26,0,0,1,.6,2.19l.82,4.22c.21,1.19.33,2,.36,2.46,0,.11,0,1.29,0,3.53a9.91,9.91,0,0,0,.47,3.43,2.63,2.63,0,0,0,1.14,1.43,2.12,2.12,0,0,0,.89.22,6.67,6.67,0,0,0,.92,0,4.33,4.33,0,0,1,1.33,0,.87.87,0,0,1,.49-.26c.43-.07.91.19,1.43.78A15.71,15.71,0,0,1,319.79,77c.18.43.3.71.38.85a2.37,2.37,0,0,0,.56.75,5.45,5.45,0,0,0,1.16.65A2.82,2.82,0,0,1,323,80a5.4,5.4,0,0,1,.33.54,2.42,2.42,0,0,0,.36.51,2.22,2.22,0,0,0,.53.33,4.06,4.06,0,0,1,.38.2,1.5,1.5,0,0,1,.76-.06,6.83,6.83,0,0,1,1.37.6,6.37,6.37,0,0,0,3.16.76,9.64,9.64,0,0,0,3.47-1,10.5,10.5,0,0,0,2.54-1.48,12.2,12.2,0,0,0,2-2.18,26.49,26.49,0,0,0,2.79-4.94,7.31,7.31,0,0,0,.61-2.1,6.37,6.37,0,0,1,.09-1.41,1.53,1.53,0,0,1,.31-.64,1,1,0,0,1,.58-.36.92.92,0,0,1,.67.16,1.14,1.14,0,0,1,.25.24l.55-1.89a12.83,12.83,0,0,0,.38-1.92,8.43,8.43,0,0,0-.26-2.06,14.2,14.2,0,0,0-1-3.12,5.71,5.71,0,0,0-2.1-2.46A7.46,7.46,0,0,0,339,57a19.43,19.43,0,0,1-1.88-.54c-.29-.09-.62-.22-1-.38a.92.92,0,0,1-.16.27.79.79,0,0,1-.53.29,1.06,1.06,0,0,1-.81-.23c-.33-.27-.58-.46-.75-.58A5.59,5.59,0,0,0,332,55Z"/><path class="cls-4" d="M321.54,49.79l-1.1-.49a7.43,7.43,0,0,0-1.16-.36,5.15,5.15,0,0,0-3,.25,10.62,10.62,0,0,0-1.23.64l-1.19.7a19,19,0,0,1-2.54,1.18c-.56.21-1.43.51-2.63.91a5,5,0,0,0-.63.23,3.42,3.42,0,0,0,.13.53,9.49,9.49,0,0,0,.67,1.54l0,.11a4.6,4.6,0,0,0,.53-.17c.19-.07.49-.2.89-.38s1-.43,2-.76a18.09,18.09,0,0,0,2-.81c1-.58,1.68-1,2.18-1.23a4,4,0,0,1,2.3-.53,8.11,8.11,0,0,1,1.81.65,32.1,32.1,0,0,0,5.67,1.87L332,55a5.59,5.59,0,0,1,1.79.75c.17.12.42.31.75.58a1.06,1.06,0,0,0,.81.23.79.79,0,0,0,.53-.29.92.92,0,0,0,.16-.27c.38.16.71.29,1,.38A19.43,19.43,0,0,0,339,57a7.46,7.46,0,0,1,1.76.73,5.71,5.71,0,0,1,2.1,2.46,14.2,14.2,0,0,1,1,3.12,8.43,8.43,0,0,1,.26,2.06,12.83,12.83,0,0,1-.38,1.92l-.55,1.89a1.14,1.14,0,0,0-.25-.24.92.92,0,0,0-.67-.16,1,1,0,0,0-.58.36,1.53,1.53,0,0,0-.31.64,6.37,6.37,0,0,0-.09,1.41,7.31,7.31,0,0,1-.61,2.1,26.49,26.49,0,0,1-2.79,4.94,12.2,12.2,0,0,1-2,2.18,10.5,10.5,0,0,1-2.54,1.48,9.64,9.64,0,0,1-3.47,1,6.37,6.37,0,0,1-3.16-.76,6.83,6.83,0,0,0-1.37-.6,1.5,1.5,0,0,0-.76.06.57.57,0,0,1,.16.09,2.75,2.75,0,0,1,.6.56l.54.63a5,5,0,0,0,1.72,1.11,8.81,8.81,0,0,0,3,.63,9.1,9.1,0,0,0,3.08-.41l.21-.08c.52-.25,1.1-.55,1.74-.92a13.71,13.71,0,0,0,1.33-.8,15,15,0,0,0,2-2l.06-.07.25-.37,0,0a24.59,24.59,0,0,0,1.81-2.57,33.71,33.71,0,0,0,2.61-5.33,31.9,31.9,0,0,0,1.08-3.35s0-.08,0-.12a4,4,0,0,1,.54-1.29,1.49,1.49,0,0,1,.58-.42,6.85,6.85,0,0,0,.29-1.81,8.92,8.92,0,0,0-.18-1.5A17.05,17.05,0,0,0,344.69,59a7.59,7.59,0,0,0-3.28-3.45A15,15,0,0,0,339,54.7a11.07,11.07,0,0,1-2.45-.89,7.3,7.3,0,0,0-1.23-.67,1.4,1.4,0,0,0-1.34,0,14.86,14.86,0,0,0-1.92-.51c-2.53-.52-4.31-.9-5.32-1.16A33.32,33.32,0,0,1,321.54,49.79Z"/></g><g id="head_0_Layer3_0_FILL" data-name="head 0 Layer3 0 FILL"><path d="M327,76.38a1.64,1.64,0,0,0-.64.46l-.48.65a4,4,0,0,1-1.15,1c-.12.08-.31.21-.58.36a1.65,1.65,0,0,0-.45.47,1,1,0,0,0,0,.91,1,1,0,0,0,.65.63,2,2,0,0,0,1.57-.45,7.9,7.9,0,0,0,2.07-2,1.74,1.74,0,0,0,.43-1.18,1,1,0,0,0-.5-.76A1.05,1.05,0,0,0,327,76.38Z"/></g><g id="head_0_Layer2_0_FILL" data-name="head 0 Layer2 0 FILL"><path d="M317,60.59l-.53.43a9.21,9.21,0,0,1-.85.55,5.59,5.59,0,0,1-.85.32,1.12,1.12,0,0,1-.44.09l-.43-.11a.94.94,0,0,0-.76.15,1,1,0,0,0-.49.61,1.27,1.27,0,0,0,.6,1.38,2.35,2.35,0,0,0,.85.24,3.64,3.64,0,0,0,.67,0,3.85,3.85,0,0,0,.9-.31,11.25,11.25,0,0,0,1.11-.47l.74-.49q.68-.51.87-.69a6.44,6.44,0,0,0,.71-.76,2.73,2.73,0,0,0,.38-.63,1.42,1.42,0,0,0,0-.58,1.13,1.13,0,0,0-.4-.6,1,1,0,0,0-.67-.22,1.28,1.28,0,0,0-.95.51A5.41,5.41,0,0,0,317,60.59Z"/><path class="cls-7" d="M318.93,54.19a1.82,1.82,0,0,0-1.19-.18,7.27,7.27,0,0,0-1.74.53,19.65,19.65,0,0,0-3.66,2,7.9,7.9,0,0,1-.83.55,7,7,0,0,0-.6.39,1.08,1.08,0,0,0,.34,1.78,1.46,1.46,0,0,0,1.13-.07,5.38,5.38,0,0,0,1-.64,16.7,16.7,0,0,1,3.21-1.84,6.18,6.18,0,0,1,1.45-.46,3.53,3.53,0,0,0,.78-.2,1,1,0,0,0,.6-.87A1.05,1.05,0,0,0,318.93,54.19Z"/></g><g id="head_0_Layer1_0_FILL" data-name="head 0 Layer1 0 FILL"><path d="M317.39,47.29a1.07,1.07,0,0,0-1-.22.94.94,0,0,0-.54.53,1.36,1.36,0,0,0-.09.8l0,.16a2.47,2.47,0,0,1-.21.27,5.86,5.86,0,0,1-1.54,1c-.45.2-1.14.46-2.09.77s-1.65.54-2.17.68a9.42,9.42,0,0,1-2.25.27c-.36,0-.86-.06-1.5-.15a14.14,14.14,0,0,0-1.5-.18l-.24,0a7.78,7.78,0,0,0-2.64.44,2.85,2.85,0,0,0-1.29.79,1.48,1.48,0,0,0-.33.69,1.25,1.25,0,0,0,.11.73,1.19,1.19,0,0,0,.33.34l.2.11a1.09,1.09,0,0,0,.71,0,1.65,1.65,0,0,0,.5-.23l.49-.29a3.72,3.72,0,0,1,2-.36c.47,0,1.18.11,2.14.25a9.69,9.69,0,0,0,2.59,0,13.74,13.74,0,0,0,1.9-.43,26.08,26.08,0,0,0,3.24-1.07,11,11,0,0,0,2.9-1.68h0q3.76,4.17,7.72,4.87a21.78,21.78,0,0,0,2.84.2,25.93,25.93,0,0,1,2.84.16,8.91,8.91,0,0,1,2.88.91,6.9,6.9,0,0,1,2.34,1.9,9.26,9.26,0,0,0,.87,1l.2.13a1.33,1.33,0,0,0,.76.6,1,1,0,0,0,.64-.07,1,1,0,0,0,.27-.19,1.05,1.05,0,0,0,.2.48,1,1,0,0,0,.65.43.8.8,0,0,0,.31,0s0,.06,0,.09c.11.42.24,1.07.38,1.94a28,28,0,0,0,.77,2.93,12.93,12.93,0,0,0,2.28,4.53l.79.93a3.38,3.38,0,0,1,.6,1,5.26,5.26,0,0,1,.17.81c.06.4.1.68.14.84a1.5,1.5,0,0,0,.44.74.91.91,0,0,0,.72.31,1,1,0,0,0,.58-.27,1.23,1.23,0,0,0,.34-.58,1.82,1.82,0,0,0,.08-.44,5,5,0,0,0-.08-.87,6.83,6.83,0,0,0-.81-2.5l0,0a5.88,5.88,0,0,0-.7-.87l-.78-.87a8.87,8.87,0,0,1-1.2-2.21,18.07,18.07,0,0,1-.74-2.3c-.24-1-.46-2.14-.65-3.46a5.21,5.21,0,0,0-.13-.75,3.49,3.49,0,0,0,.91-1.43,8.2,8.2,0,0,0,.36-2,2.93,2.93,0,0,0,0-.94,4.26,4.26,0,0,0-.33-1,6.24,6.24,0,0,0-.52-1.09,5.9,5.9,0,0,0-1.8-1.67,8.93,8.93,0,0,0-1.21-.67,4.38,4.38,0,0,0-1.54-.27,3,3,0,0,0-.94.2,2.88,2.88,0,0,0-.8.6,3.3,3.3,0,0,0-.71,1.05l-.1.07a.9.9,0,0,0-.38.54,1.34,1.34,0,0,0-.06.69,6,6,0,0,0,.44,1.14l-.44-.27a10.48,10.48,0,0,0-3.71-1.3c-.55-.07-1.63-.14-3.24-.18a14.46,14.46,0,0,1-3.19-.37c-2.27-.59-4.42-2.23-6.43-4.92a4.27,4.27,0,0,0-.75-.82m19.84,7.12,0,0a.7.7,0,0,0,.11-.23c0-.24.05-.43.07-.55a.58.58,0,0,1,.26-.47.76.76,0,0,1,.45,0,2.4,2.4,0,0,1,.69.18l.54.43c.13.1.34.23.62.4a2.23,2.23,0,0,1,.56.71,3.38,3.38,0,0,1,.41,1.43,3.31,3.31,0,0,1-.25,1.47c0,.06-.05.11-.07.16s0,0,0,0a1.09,1.09,0,0,1-.29.4,1.37,1.37,0,0,1-.42.24l-.45.16a2,2,0,0,0-.6.42l0-.24a5.46,5.46,0,0,0-.33-1c-.11-.24-.3-.75-.56-1.54l-.67-2m20.16.07a23.19,23.19,0,0,1,.22,6.16,20.91,20.91,0,0,1-1.54,6,23.11,23.11,0,0,1-7,8.9l.4.43a1.78,1.78,0,0,1,.29.69c.15.29.41.33.76.13a26.07,26.07,0,0,0,3.35-3.43,24,24,0,0,0,4.44-6.41,23.4,23.4,0,0,0,1.48-6.36,25.67,25.67,0,0,0-.27-6.54,29.36,29.36,0,0,0-5-12,22.69,22.69,0,0,0-5.78-6A14.16,14.16,0,0,0,345,34.21a12,12,0,0,0-4.09-.59,3.39,3.39,0,0,0-.94.14,1.79,1.79,0,0,0-.37.16,1.33,1.33,0,0,0-.45.49.91.91,0,0,0-.09.64.75.75,0,0,0,.34.45,3,3,0,0,0,1.69.33h.67a7.53,7.53,0,0,1,.83.07,10.44,10.44,0,0,1,2,.47A12.35,12.35,0,0,1,347.77,38a19.66,19.66,0,0,1,4.89,5.16A27.74,27.74,0,0,1,357.39,54.48Z"/><path class="cls-3" d="M337.21,54.39l0,0,.67,2c.26.79.45,1.3.56,1.54a5.46,5.46,0,0,1,.33,1l0,.24a2,2,0,0,1,.6-.42l.45-.16a1.37,1.37,0,0,0,.42-.24,1.09,1.09,0,0,0,.29-.4h0l0,0s0-.1.07-.16a3.31,3.31,0,0,0,.25-1.47,3.38,3.38,0,0,0-.41-1.43,2.23,2.23,0,0,0-.56-.71c-.28-.17-.49-.3-.62-.4l-.54-.43a2.4,2.4,0,0,0-.69-.18.76.76,0,0,0-.45,0,.58.58,0,0,0-.26.47c0,.12-.05.31-.07.55A.7.7,0,0,1,337.21,54.39Z"/><path class="cls-6" d="M340,33.76l-.08,0-1.1-.56a9,9,0,0,0-1.16-.45,6.73,6.73,0,0,0-1.81-.2,16,16,0,0,0-1.87.15c-2.65.3-4.66.58-6,.83a28.26,28.26,0,0,0-5.8,1.63,43.45,43.45,0,0,0-6.57,3.69,60.12,60.12,0,0,0-7,5.19l-4,3.93a28.63,28.63,0,0,1-4.29,3.58,4.47,4.47,0,0,0-1.14.93,1.56,1.56,0,0,0-.31.68,1,1,0,0,0,.12.69.89.89,0,0,0,.57.42,1.33,1.33,0,0,0,.74,0l.18-.06a1.19,1.19,0,0,1-.33-.34,1.25,1.25,0,0,1-.11-.73,1.48,1.48,0,0,1,.33-.69,2.85,2.85,0,0,1,1.29-.79,7.78,7.78,0,0,1,2.64-.44l.24,0a14.14,14.14,0,0,1,1.5.18c.64.09,1.14.13,1.5.15a9.42,9.42,0,0,0,2.25-.27c.52-.14,1.24-.36,2.17-.68s1.64-.57,2.09-.77a5.86,5.86,0,0,0,1.54-1,2.47,2.47,0,0,0,.21-.27l0-.16a1.36,1.36,0,0,1,.09-.8.94.94,0,0,1,.54-.53,1.07,1.07,0,0,1,1,.22,4.27,4.27,0,0,1,.75.82c2,2.69,4.16,4.33,6.43,4.92a14.46,14.46,0,0,0,3.19.37c1.61,0,2.69.11,3.24.18a10.48,10.48,0,0,1,3.71,1.3l.44.27a6,6,0,0,1-.44-1.14,1.34,1.34,0,0,1,.06-.69.9.9,0,0,1,.38-.54l.1-.07a3.3,3.3,0,0,1,.71-1.05,2.88,2.88,0,0,1,.8-.6,3,3,0,0,1,.94-.2,4.38,4.38,0,0,1,1.54.27,8.93,8.93,0,0,1,1.21.67,5.9,5.9,0,0,1,1.8,1.67,6.24,6.24,0,0,1,.52,1.09,4.26,4.26,0,0,1,.33,1,2.93,2.93,0,0,1,0,.94,8.2,8.2,0,0,1-.36,2,3.49,3.49,0,0,1-.91,1.43,5.21,5.21,0,0,1,.13.75c.19,1.32.41,2.48.65,3.46a18.07,18.07,0,0,0,.74,2.3,8.87,8.87,0,0,0,1.2,2.21l.78.87a5.88,5.88,0,0,1,.7.87l0,0a6.83,6.83,0,0,1,.81,2.5,5,5,0,0,1,.08.87,1.11,1.11,0,0,0,.29-.07,1.16,1.16,0,0,0,.63-.87q.12-.84.18-1.23a5.67,5.67,0,0,1,1.4-2.56,27.27,27.27,0,0,0,1.92-2.37,9.6,9.6,0,0,0,1-3,26.26,26.26,0,0,0,.29-9.74,26.62,26.62,0,0,0-2.92-7.9,71.51,71.51,0,0,0-4.62-7.17,21.07,21.07,0,0,0-1.64-2.12,7.51,7.51,0,0,0-.93-.87,7.53,7.53,0,0,0-.83-.07h-.67a3,3,0,0,1-1.69-.33.75.75,0,0,1-.34-.45.91.91,0,0,1,.09-.64,1.33,1.33,0,0,1,.45-.49A1.79,1.79,0,0,1,340,33.76Z"/></g><g id="head_0_Layer0_0_FILL" data-name="head 0 Layer0 0 FILL"><path d="M361.21,36.64a12.3,12.3,0,0,0,.8-4.15,21.7,21.7,0,0,0-1.65-8.24q-2.73-7.28-7.54-10.7-5.2-3.71-13.69-3.54-6,.12-8.73,2.83c-1.64,1.65-2.52,4.12-2.63,7.39a12.65,12.65,0,0,0,.85,5.34,7.79,7.79,0,0,0,1.51,2.29,5.72,5.72,0,0,0,2.23,1.5,4.36,4.36,0,0,0-.53,1.79c-.12,1.17-.19,1.81-.22,1.92a9.66,9.66,0,0,1-.29,1c-.13.43-.22.77-.27,1a4.49,4.49,0,0,0,.49,3.07,7.3,7.3,0,0,0,4.2,3l1.76.58a10.6,10.6,0,0,1,1.69.67,13.36,13.36,0,0,1,1.32.78c.58.37,1,.63,1.3.78q4.32,2.19,11.5-.53a27.06,27.06,0,0,0,3-1.34,11.19,11.19,0,0,0,2.64-2,9.63,9.63,0,0,0,2.23-3.53m-1.94-1a7.64,7.64,0,0,1-1.68,2.83,10.47,10.47,0,0,1-1.6,1.3,15.93,15.93,0,0,1-1.61.91A24.07,24.07,0,0,1,350.8,42a23.24,23.24,0,0,1-2.63.58,11.45,11.45,0,0,1-2.65.18,6.37,6.37,0,0,1-2.53-.61,11.67,11.67,0,0,1-1.4-.86,13.3,13.3,0,0,0-1.39-.88,11.82,11.82,0,0,0-2.19-.8,19.34,19.34,0,0,1-2.23-.69,4.57,4.57,0,0,1-1.9-1.38,3.05,3.05,0,0,1-.62-1.12,2.38,2.38,0,0,1-.11-.7,2.28,2.28,0,0,1,0-.26,1.7,1.7,0,0,0,1,0l.16-.08a1.64,1.64,0,0,0,.83-.81,1.73,1.73,0,0,0,.15-.89,1.55,1.55,0,0,0-.06-.23l0-.06a1.49,1.49,0,0,0-.39-.72,2.09,2.09,0,0,0-.28-.24l-.36-.23a1,1,0,0,1-.27-.29c-.13-.24-.07-.6.2-1.07l1.19-2.14c.44-.75.5-1.3.19-1.67a1.1,1.1,0,0,0-1.2-.21,4.43,4.43,0,0,1-1.23.32c-.69,0-1.32-.43-1.9-1.34a2.33,2.33,0,0,1-.2-.34,10.66,10.66,0,0,1-.8-7.25,7.94,7.94,0,0,1,1.14-3.08q1.83-2.65,7.21-2.88,8.19-.36,13.08,3.16,4.49,3.21,7,10.39a21.69,21.69,0,0,1,1.16,4.78,13.18,13.18,0,0,1,.09,1.74A9.91,9.91,0,0,1,359.27,35.59Z"/><path class="cls-7" d="M333.1,27.11a4.43,4.43,0,0,0,1.23-.32,1.1,1.1,0,0,1,1.2.21c.31.37.25.92-.19,1.67l-1.19,2.14c-.27.47-.33.83-.2,1.07a1,1,0,0,0,.27.29l.36.23a2.09,2.09,0,0,1,.28.24,2.29,2.29,0,0,1,0-.87,6.38,6.38,0,0,1,.63-1.69l1.38-2.75a2.11,2.11,0,0,0,.29-1.21,1,1,0,0,0-.74-.78,2.09,2.09,0,0,0-1.22-.09l-1.16.34a3.23,3.23,0,0,1-1.16.15c-.5-.14-.88-.23-1.14-.28a1.5,1.5,0,0,0-.72,0,2.33,2.33,0,0,0,.2.34c.58.91,1.21,1.36,1.9,1.34m24.49,11.31a7.64,7.64,0,0,0,1.68-2.83,9.91,9.91,0,0,0,.6-3.3,13.18,13.18,0,0,0-.09-1.74,1.45,1.45,0,0,0-.65.13,2.25,2.25,0,0,0-1.11.89,5.9,5.9,0,0,0-.68,1.52l-.51,1.63a4.28,4.28,0,0,1-.89,1.47,2.17,2.17,0,0,1-1.45.69,1,1,0,0,1-.81-.26,1.39,1.39,0,0,1-.28-.41,3.39,3.39,0,0,0-.23-.44,1,1,0,0,0-.92-.4,1.05,1.05,0,0,0-.91.47,1.92,1.92,0,0,0-.16,1.16,7.83,7.83,0,0,1,.05,1.24,1.87,1.87,0,0,1-.62,1.08,2.43,2.43,0,0,1-1.12.62,5.62,5.62,0,0,1-2.55-.09l-1.27-.29a6.64,6.64,0,0,0-1.29-.15,6.88,6.88,0,0,1-.87,0,1.73,1.73,0,0,1-.83-.18,2.57,2.57,0,0,1-.63-.53,4.09,4.09,0,0,0-.62-.58,3.64,3.64,0,0,0-.72-.32,3.18,3.18,0,0,1-.75-.31,3.22,3.22,0,0,1-1-1.45,3.72,3.72,0,0,0-1-1.48,3.93,3.93,0,0,0-1.36-.53,2.86,2.86,0,0,1-1.3-.6l0,0a1.55,1.55,0,0,1,.06.23,1.73,1.73,0,0,1-.15.89,1.64,1.64,0,0,1-.83.81l-.16.08a1.7,1.7,0,0,1-1,0,2.28,2.28,0,0,0,0,.26.08.08,0,0,1,0,.07c0,.15.06.37.09.63a3.05,3.05,0,0,0,.62,1.12,4.57,4.57,0,0,0,1.9,1.38,19.34,19.34,0,0,0,2.23.69,11.82,11.82,0,0,1,2.19.8,13.3,13.3,0,0,1,1.39.88,11.67,11.67,0,0,0,1.4.86,6.37,6.37,0,0,0,2.53.61,11.45,11.45,0,0,0,2.65-.18A23.24,23.24,0,0,0,350.8,42a24.07,24.07,0,0,0,3.58-1.39,15.93,15.93,0,0,0,1.61-.91A10.47,10.47,0,0,0,357.59,38.42Z"/><path class="cls-6" d="M356.83,34.72l.51-1.63a5.9,5.9,0,0,1,.68-1.52,2.25,2.25,0,0,1,1.11-.89,1.45,1.45,0,0,1,.65-.13,21.69,21.69,0,0,0-1.16-4.78q-2.5-7.17-7-10.39-4.89-3.53-13.08-3.16-5.39.22-7.21,2.88a7.94,7.94,0,0,0-1.14,3.08,10.66,10.66,0,0,0,.8,7.25,1.5,1.5,0,0,1,.72,0c.26.05.64.14,1.14.28a3.23,3.23,0,0,0,1.16-.15l1.16-.34a2.09,2.09,0,0,1,1.22.09,1,1,0,0,1,.74.78,2.11,2.11,0,0,1-.29,1.21l-1.38,2.75a6.38,6.38,0,0,0-.63,1.69,2.29,2.29,0,0,0,0,.87,1.49,1.49,0,0,1,.39.72l0,.06,0,0a2.86,2.86,0,0,0,1.3.6,3.93,3.93,0,0,1,1.36.53,3.72,3.72,0,0,1,1,1.48,3.22,3.22,0,0,0,1,1.45,3.18,3.18,0,0,0,.75.31,3.64,3.64,0,0,1,.72.32,4.09,4.09,0,0,1,.62.58,2.57,2.57,0,0,0,.63.53,1.73,1.73,0,0,0,.83.18,6.88,6.88,0,0,0,.87,0,6.64,6.64,0,0,1,1.29.15l1.27.29a5.62,5.62,0,0,0,2.55.09,2.43,2.43,0,0,0,1.12-.62,1.87,1.87,0,0,0,.62-1.08,7.83,7.83,0,0,0-.05-1.24,1.92,1.92,0,0,1,.16-1.16,1.05,1.05,0,0,1,.91-.47,1,1,0,0,1,.92.4,3.39,3.39,0,0,1,.23.44,1.39,1.39,0,0,0,.28.41,1,1,0,0,0,.81.26,2.17,2.17,0,0,0,1.45-.69A4.28,4.28,0,0,0,356.83,34.72Z"/></g><text class="cls-8" transform="translate(27.94 155.03)"><tspan class="cls-9">W</tspan><tspan x="36.01" y="0">ORKS IN P</tspan><tspan class="cls-10" x="215.37" y="0">R</tspan><tspan class="cls-11" x="238.9" y="0">OGRESS</tspan></text><text class="cls-12" transform="translate(133.06 229.52)">M<tspan class="cls-13" x="29.64" y="0">O</tspan><tspan class="cls-14" x="56.91" y="0">VEMENT</tspan></text></g><g id="Layer_3" data-name="Layer 3"><rect class="cls-15" x="387.68" y="207.52" width="211" height="12.45" rx="2.04"/><path class="cls-16" d="M569.64,192.58,596,207.05a.08.08,0,0,1,0,.15l-203.7.32c1.2-.65,1.06-1.19-.31-1.18l23.56-13.49Z"/><rect class="cls-16" x="415.46" y="90.98" width="154.17" height="100.96"/><rect class="cls-17" x="428.37" y="99.59" width="128.35" height="83.74"/><polygon class="cls-18" points="423.03 197.16 413.9 203.42 567.81 203.42 556.72 197.16 423.03 197.16"/><text class="cls-19" transform="translate(434.24 151.77)"><tspan class="cls-20">Z</tspan><tspan x="24.61" y="0">OOM</tspan></text><path class="cls-21" d="M604.61,156.49a21.18,21.18,0,0,1-8.06,1.35c-9.36,0-15.31-5.73-15.31-14.82,0-8.47,5.79-15.39,16.55-15.39a20.52,20.52,0,0,1,6.87,1.15l-1.4,6.68a12.23,12.23,0,0,0-5-.92c-4.76,0-7.81,3.38-7.78,8.12,0,5.31,3.57,8.13,7.93,8.13a13.25,13.25,0,0,0,5.18-.94Z"/><path class="cls-21" d="M609.63,115.21h9v42h-9Z"/><path class="cls-21" d="M642.43,157.22l-.53-2.88h-.19a10.4,10.4,0,0,1-8.27,3.53c-5.9,0-9.36-4.24-9.36-8.86,0-7.54,6.75-11.12,17-11.11v-.37c0-1.53-.82-3.73-5.3-3.72a16.63,16.63,0,0,0-8,2.16l-1.66-5.76a23.37,23.37,0,0,1,11.26-2.6c9.64,0,12.69,5.7,12.69,12.5V150.2a41.37,41.37,0,0,0,.46,7Zm-1.09-13.7c-4.73,0-8.4,1.12-8.4,4.57a3.25,3.25,0,0,0,3.58,3.46,4.91,4.91,0,0,0,4.65-3.32,5.6,5.6,0,0,0,.17-1.54Z"/><path class="cls-21" d="M657.22,149.37a17.48,17.48,0,0,0,7.71,2.16c2.72,0,3.88-.92,3.88-2.4s-.92-2.22-4.25-3.34c-6-2-8.28-5.26-8.25-8.66,0-5.44,4.59-9.52,11.78-9.52a19.2,19.2,0,0,1,8.15,1.69l-1.57,6.2a14.62,14.62,0,0,0-6.27-1.64c-2.2,0-3.45.88-3.45,2.34s1.14,2.11,4.69,3.34c5.5,1.86,7.8,4.69,7.83,8.91,0,5.4-4.21,9.39-12.51,9.39a20.69,20.69,0,0,1-9.37-2Z"/><path class="cls-21" d="M683,149.37a17.49,17.49,0,0,0,7.72,2.16c2.72,0,3.88-.92,3.88-2.4s-.92-2.22-4.25-3.34c-6-2-8.29-5.26-8.25-8.66,0-5.44,4.59-9.52,11.77-9.52A19.21,19.21,0,0,1,702,129.3l-1.57,6.2a14.66,14.66,0,0,0-6.27-1.64c-2.2,0-3.46.88-3.46,2.34s1.15,2.11,4.7,3.34c5.49,1.86,7.79,4.69,7.83,8.91,0,5.4-4.22,9.39-12.51,9.39a20.74,20.74,0,0,1-9.38-2Z"/><path class="cls-21" d="M715.66,145.63c.27,3.74,4,5.51,8.16,5.51a24.08,24.08,0,0,0,8-1.22L733,156a28.09,28.09,0,0,1-10.49,1.83c-9.81,0-15.44-5.71-15.44-14.74,0-7.35,4.59-15.49,14.6-15.49,9.38,0,12.92,7.29,12.92,14.46a17.11,17.11,0,0,1-.32,3.56Zm10.57-6.16c0-2.17-1-5.87-5.05-5.87-3.8,0-5.34,3.47-5.59,5.87Z"/><path class="cls-21" d="M740,149.37a17.49,17.49,0,0,0,7.72,2.16c2.72,0,3.88-.92,3.88-2.4s-.92-2.22-4.25-3.34c-6-2-8.29-5.26-8.25-8.66,0-5.44,4.59-9.52,11.77-9.52A19.21,19.21,0,0,1,759,129.3l-1.57,6.2a14.62,14.62,0,0,0-6.27-1.64c-2.2,0-3.46.88-3.46,2.34s1.15,2.11,4.7,3.34c5.49,1.86,7.8,4.69,7.83,8.91,0,5.4-4.21,9.39-12.51,9.39a20.77,20.77,0,0,1-9.38-2Z"/><path d="M581.2,60.87c1.43,0,1.83,10.57,4.3,13s13.18,3.13,13.18,4.63-9.59.79-13.37,4.5-2.42,13.11-4.11,13.11-2.28-9.33-4.89-12.91-13.44-3.33-13.44-4.7,8.61-1.24,13-4.63S579.76,60.87,581.2,60.87Z"/><path class="cls-22" d="M571.6,78.26c0-.75,5.51-1,6.76-2.24s1.63-6.86,2.42-6.86.4,5,2.34,7S590,77.38,590,78.26s-4.86,1.19-6.73,2.55-1.73,7-2.44,7-.65-4.49-2.42-6.76S571.6,79,571.6,78.26Z"/><path d="M398,153.61c1.44,0,1.83,10.57,4.31,13s13.17,3.13,13.17,4.63-9.59.78-13.37,4.5-2.41,13.11-4.11,13.11-2.28-9.33-4.89-12.91-13.43-3.33-13.43-4.7,8.61-1.24,13-4.63S396.55,153.61,398,153.61Z"/><path class="cls-22" d="M388.39,171c0-.75,5.5-.95,6.76-2.24s1.63-6.86,2.41-6.86.41,5,2.34,7,6.83,1.26,6.83,2.14-4.86,1.19-6.72,2.55-1.74,7-2.45,7-.65-4.49-2.41-6.76S388.39,171.75,388.39,171Z"/></g></svg>