<svg id="Final_Icons" data-name="Final Icons" xmlns="http://www.w3.org/2000/svg" viewBox="0 0 256 256"><defs><style>.cls-1{fill:#3da5d9;}.cls-2{fill:#475b5a;}</style></defs><g id="_Group_2" data-name="&lt;Group&gt;"><path class="cls-1" d="M14.87,0,35.22,225.35,128,256l88.78-30.65L237.13,0ZM193,74.56H85.3l3.4,29.73H190.4l-7.53,85.05L126,205,69.65,189.34,65.5,146H93.78l2.48,20.87,29.48,10.43,30.52-10.43,3.13-34.44H64.2L56.09,48h139.3Z"/><polygon class="cls-2" points="156.26 166.91 126 177.25 126 132.47 159.39 132.47 156.26 166.91"/><polygon class="cls-2" points="217.82 20.82 200.09 214 126 234.21 126 204.99 182.87 189.34 190.4 104.29 126 104.29 126 74.56 193.03 74.56 195.39 47.95 126 47.95 126 20.82 217.82 20.82"/></g></svg>