<svg id="Final_Icons" data-name="Final Icons" xmlns="http://www.w3.org/2000/svg" viewBox="0 0 256 256"><defs><style>.cls-1{fill:#3da5d9;}.cls-2{fill:#475b5a;}</style></defs><g id="_Group_JS" data-name="&lt;Group&gt; JS"><path class="cls-1" d="M14.87,0,35.22,225.35,128,256l88.78-30.65L237.13,0ZM121.29,203.23,70.17,188.56l-3.89-43.69L85,149.17l2.31,18.26,14.9,4.19L97.66,48H121.3ZM193.45,75.08H157.3l-1.56,29h34.81l-8.46,84.52-49.87,15,.05-27.83,30.58-8.3,4-37.81-34.52,2L132.52,48h63.65Z"/><path class="cls-2" d="M126,20.82V234.21L200.08,214,217.82,20.82Zm67.45,54.26H157.3l-1.56,29h34.81l-8.46,84.52-49.87,15,.05-27.83,30.58-8.3,4-37.81-34.52,2L132.52,48h63.65Z"/></g></svg>