<svg id="Layer_5" data-name="Layer 5" xmlns="http://www.w3.org/2000/svg" viewBox="0 0 875.44 922.15"><defs><style>.cls-1{fill:#ffede1;}</style></defs><path class="cls-1" d="M522.5,491.5c38,0-80.08,145.31-65,221s-167.92,254-189,248c27.72-47.29,77.12-134.61,92-167,46.77-101.81-11-183.24,43.61-240.32C429.39,526.76,464.52,491.5,522.5,491.5Zm45-64s-7.58-48.54,18-82c26-34,51-58,85.25-106.15,33.56-47.18,15-199.41,1.75-200.85-5.16,29.67-39.77,146.42-67,178-25,29-36.31,51.24-86.57,96.65S439.5,459.5,439.5,459.5C458.5,441.5,510.5,415.5,567.5,427.5Zm142,95c-28-29-86.9-40.8-90.49-41.75-23.84,14.17-76.86,50.55-90.51,52.75,22.91-44.14,11.44-55.89-34.13-47.17S413.76,530,393,550.23c-5.73-1.22-6.52-4.73-14.11-5.31-26.41-1.42-47.29,20.45-47.29,20.45s-31.84-8.29-29.56-42.89S372.54,490,372.54,490s19.37,1,31.37,1.89c-6.06,3.94,26.67-15.72,38.38-24.14,40.49-33.94,104.76-38.51,120.66-31.55,16.69,7.36,34.26-4.15,47.73-4A27.22,27.22,0,0,1,652.9,449c5.77,1.85,17.6,12.54,31.6,27.54S715.5,518.5,709.5,522.5Zm-73.6-70.67a8.94,8.94,0,0,0-17.68,2.67c.75,4.92,4.4,5.73,9.28,5S636.64,456.76,635.9,451.83Zm-478.57,43L318.71,354.68c2.33-2,3.17-6,2-9.38l-17-46.81c-1.44-4-5.17-5.37-8-3L63.3,495.71c-3.38,2.91-3.36,9.51,0,12.4l232.8,197.66c2.92,2.48,6.79.81,8.08-3.46l15.05-50c1-3.29.08-7.05-2.15-9L157.37,507.24C154,504.36,154,497.79,157.33,494.87Zm682.3,6L679.89,637c-2.24,1.9-3.14,5.66-2.15,9l15,50c1.29,4.27,5.17,5.94,8.08,3.46l232.8-197.66c3.4-2.89,3.41-9.49,0-12.4L701.28,289.18c-2.78-2.4-6.5-1-7.95,3l-17,46.81c-1.21,3.34-.38,7.36,1.95,9.38L839.67,488.53C843,491.45,843,498,839.63,500.9Z" transform="translate(-60.78 -38.5)"/></svg>