<svg id="Layer_5" data-name="Layer 5" xmlns="http://www.w3.org/2000/svg" viewBox="0 0 875.44 922.15"><defs><style>.cls-1{fill:#84828f;}</style></defs><path class="cls-1" d="M522.5,491.5c38,0-80.08,145.31-65,221s-167.92,254-189,248c27.72-47.29,77.12-134.61,92-167,46.77-101.81-11-183.24,43.61-240.32C429.39,526.76,464.52,491.5,522.5,491.5Z" transform="translate(-60.78 -38.5)"/><path class="cls-1" d="M439.5,459.5s29.18-100.93,79.43-146.35S580.5,245.5,605.5,216.5c27.23-31.58,61.84-148.33,67-178,13.29,1.44,31.81,153.67-1.75,200.85C636.5,287.5,611.5,311.5,585.5,345.5c-25.58,33.46-18,82-18,82C510.5,415.5,458.5,441.5,439.5,459.5Z" transform="translate(-60.78 -38.5)"/><path class="cls-1" d="M684.5,476.5c-14-15-25.83-25.69-31.6-27.54a27.22,27.22,0,0,0-42.22-16.76c-13.47-.12-31,11.39-47.73,4-15.9-7-80.17-2.39-120.66,31.55-11.71,8.42-44.44,28.08-38.38,24.14-12-.87-31.37-1.89-31.37-1.89s-68.23-2.11-70.48,32.45,29.56,42.89,29.56,42.89,20.88-21.87,47.29-20.45c7.59.58,8.38,4.09,14.11,5.31C413.76,530,448.9,495,494.37,486.33s57,3,34.13,47.17c13.65-2.2,66.67-38.58,90.51-52.75,3.59.95,62.49,12.75,90.49,41.75C715.5,518.5,698.5,491.5,684.5,476.5Zm-57-17c-4.88.73-8.53-.08-9.28-5a8.94,8.94,0,0,1,17.68-2.67C636.64,456.76,632.37,458.77,627.5,459.5Z" transform="translate(-60.78 -38.5)"/><path class="cls-1" d="M157.37,507.24,317.11,643.37c2.23,1.9,3.14,5.66,2.15,9l-15.05,50c-1.29,4.27-5.16,5.94-8.08,3.46L63.33,508.11c-3.39-2.89-3.41-9.49,0-12.4L295.71,295.52c2.78-2.4,6.51-1,8,3l17,46.81c1.22,3.34.38,7.36-2,9.38L157.33,494.87C154,497.79,154,504.36,157.37,507.24Z" transform="translate(-60.78 -38.5)"/><path class="cls-1" d="M839.63,500.9,679.89,637c-2.24,1.9-3.14,5.66-2.15,9l15,50c1.29,4.27,5.17,5.94,8.08,3.46l232.8-197.66c3.4-2.89,3.41-9.49,0-12.4L701.28,289.18c-2.78-2.4-6.5-1-7.95,3l-17,46.81c-1.21,3.34-.38,7.36,1.95,9.38L839.67,488.53C843,491.45,843,498,839.63,500.9Z" transform="translate(-60.78 -38.5)"/></svg>