<svg id="Layer_6" data-name="Layer 6" xmlns="http://www.w3.org/2000/svg" viewBox="0 0 1000 1000"><defs><style>.cls-1{fill:#778da9;}</style></defs><path class="cls-1" d="M635.9,451.83a8.94,8.94,0,0,0-17.68,2.67c.75,4.92,4.4,5.73,9.28,5S636.64,456.76,635.9,451.83Zm0,0a8.94,8.94,0,0,0-17.68,2.67c.75,4.92,4.4,5.73,9.28,5S636.64,456.76,635.9,451.83Zm0,0a8.94,8.94,0,0,0-17.68,2.67c.75,4.92,4.4,5.73,9.28,5S636.64,456.76,635.9,451.83Zm0,0a8.94,8.94,0,0,0-17.68,2.67c.75,4.92,4.4,5.73,9.28,5S636.64,456.76,635.9,451.83ZM964.25,0H35.75A35.74,35.74,0,0,0,0,35.75v928.5A35.74,35.74,0,0,0,35.75,1000h928.5A35.74,35.74,0,0,0,1000,964.25V35.75A35.74,35.74,0,0,0,964.25,0ZM518.93,313.15c50.26-45.41,61.57-67.65,86.57-96.65,27.23-31.58,61.84-148.33,67-178,13.29,1.44,31.81,153.67-1.75,200.85C636.5,287.5,611.5,311.5,585.5,345.5c-25.58,33.46-18,82-18,82-57-12-109,14-128,32C439.5,459.5,468.68,358.57,518.93,313.15ZM63.3,495.71,295.71,295.52c2.78-2.4,6.51-1,8,3l17,46.81c1.22,3.34.38,7.36-2,9.38L157.33,494.87c-3.36,2.92-3.34,9.49,0,12.37L317.11,643.37c2.23,1.9,3.14,5.66,2.15,9l-15.05,50c-1.29,4.27-5.16,5.94-8.08,3.46L63.33,508.11C59.94,505.22,59.92,498.62,63.3,495.71ZM268.5,960.5c27.72-47.29,77.12-134.61,92-167,46.77-101.81-11-183.24,43.61-240.32,25.28-26.42,60.41-61.68,118.39-61.68,38,0-80.08,145.31-65,221S289.58,966.49,268.5,960.5Zm260-427c22.91-44.14,11.44-55.89-34.13-47.17S413.76,530,393,550.23c-5.73-1.22-6.52-4.73-14.11-5.31-26.41-1.42-47.29,20.45-47.29,20.45s-31.84-8.29-29.56-42.89S372.54,490,372.54,490s19.37,1,31.37,1.89c-6.06,3.94,26.67-15.72,38.38-24.14,40.49-33.94,104.76-38.51,120.66-31.55,16.69,7.36,34.26-4.15,47.73-4A27.22,27.22,0,0,1,652.9,449c5.77,1.85,17.6,12.54,31.6,27.54s31,42,25,46c-28-29-86.9-40.8-90.49-41.75C595.17,494.92,542.15,531.3,528.5,533.5Zm405.16-31.73L700.86,699.43c-2.91,2.48-6.79.81-8.08-3.46l-15-50c-1-3.29-.09-7.05,2.15-9L839.63,500.9c3.37-2.88,3.4-9.45,0-12.37L678.28,348.34c-2.33-2-3.16-6-1.95-9.38l17-46.81c1.45-4,5.17-5.37,7.95-3L933.69,489.37C937.07,492.28,937.06,498.88,933.66,501.77ZM625.72,444.33a8.94,8.94,0,0,0-7.5,10.17c.75,4.92,4.4,5.73,9.28,5s9.14-2.74,8.4-7.67A8.94,8.94,0,0,0,625.72,444.33Zm10.18,7.5a8.94,8.94,0,0,0-17.68,2.67c.75,4.92,4.4,5.73,9.28,5S636.64,456.76,635.9,451.83Zm0,0a8.94,8.94,0,0,0-17.68,2.67c.75,4.92,4.4,5.73,9.28,5S636.64,456.76,635.9,451.83Z"/></svg>