<svg id="Layer_1" data-name="Layer 1" xmlns="http://www.w3.org/2000/svg" viewBox="0 0 982.1 981.02"><defs><style>.cls-1{fill:#fff;}.cls-2{fill:#415a77;}</style></defs><g id="Layer_5" data-name="Layer 5"><path class="cls-1" d="M522.5,491.5c38,0-80.08,145.31-65,221s-167.92,254-189,248c27.72-47.29,77.12-134.61,92-167,46.77-101.81-11-183.24,43.61-240.32C429.39,526.76,464.52,491.5,522.5,491.5Z" transform="translate(-8.87 -9.02)"/><path class="cls-1" d="M439.5,459.5s29.18-100.93,79.43-146.35S580.5,245.5,605.5,216.5c27.23-31.58,61.84-148.33,67-178,13.29,1.44,31.81,153.67-1.75,200.85C636.5,287.5,611.5,311.5,585.5,345.5c-25.58,33.46-18,82-18,82C510.5,415.5,458.5,441.5,439.5,459.5Z" transform="translate(-8.87 -9.02)"/><path class="cls-1" d="M684.5,476.5c-14-15-25.83-25.69-31.6-27.54a27.22,27.22,0,0,0-42.22-16.76c-13.47-.12-31,11.39-47.73,4-15.9-7-80.17-2.39-120.66,31.55-11.71,8.42-44.44,28.08-38.38,24.14-12-.87-31.37-1.89-31.37-1.89s-68.23-2.11-70.48,32.45,29.56,42.89,29.56,42.89,20.88-21.87,47.29-20.45c7.59.58,8.38,4.09,14.11,5.31C413.76,530,448.9,495,494.37,486.33s57,3,34.13,47.17c13.65-2.2,66.67-38.58,90.51-52.75,3.59.95,62.49,12.75,90.49,41.75C715.5,518.5,698.5,491.5,684.5,476.5Zm-57-17c-4.88.73-8.53-.08-9.28-5a8.94,8.94,0,1,1,17.68-2.67h0C636.64,456.76,632.37,458.77,627.5,459.5Z" transform="translate(-8.87 -9.02)"/><path class="cls-1" d="M157.37,507.24,317.11,643.37c2.23,1.9,3.14,5.66,2.15,9l-15.05,50c-1.29,4.27-5.16,5.94-8.08,3.46L63.33,508.11c-3.39-2.89-3.41-9.49,0-12.4L295.71,295.52c2.78-2.4,6.51-1,8,3l17,46.81c1.22,3.34.38,7.36-2,9.38L157.33,494.87C154,497.79,154,504.36,157.37,507.24Z" transform="translate(-8.87 -9.02)"/><path class="cls-1" d="M839.63,500.9,679.89,637c-2.24,1.9-3.14,5.66-2.15,9l15,50c1.29,4.27,5.17,5.94,8.08,3.46L933.62,501.8c3.4-2.89,3.41-9.49,0-12.4L701.28,289.18c-2.78-2.4-6.5-1-7.95,3l-17,46.81c-1.21,3.34-.38,7.36,1.95,9.38L839.67,488.53C843,491.45,843,498,839.63,500.9Z" transform="translate(-8.87 -9.02)"/></g><g id="Layer_6" data-name="Layer 6"><path class="cls-2" d="M635.9,451.83a8.94,8.94,0,1,0-17.68,2.67h0c.75,4.92,4.4,5.73,9.28,5S636.64,456.76,635.9,451.83Zm0,0a8.94,8.94,0,1,0-17.68,2.67h0c.75,4.92,4.4,5.73,9.28,5S636.64,456.76,635.9,451.83Zm0,0a8.94,8.94,0,1,0-17.68,2.67h0c.75,4.92,4.4,5.73,9.28,5S636.64,456.76,635.9,451.83Zm0,0a8.94,8.94,0,1,0-17.68,2.67h0c.75,4.92,4.4,5.73,9.28,5S636.64,456.76,635.9,451.83ZM716.19,9.2,247.91,26.56C111,31.63,4,146.72,9,283.67l17,467.17c5,136.94,120,243.94,256.94,239l468.59-16.75c137.14-4.9,244.29-120.14,239.2-257.27-5.33-143.76-12-324.09-17.34-467.79C968.37,111.06,853.19,4.12,716.19,9.2Zm-197.26,304c50.26-45.41,61.57-67.65,86.57-96.65,27.23-31.58,61.84-148.33,67-178,13.29,1.44,31.81,153.67-1.75,200.85C636.5,287.5,611.5,311.5,585.5,345.5c-25.58,33.46-18,82-18,82-57-12-109,14-128,32C439.5,459.5,468.68,358.57,518.93,313.15ZM63.3,495.71,295.71,295.52c2.78-2.4,6.51-1,8,3l17,46.81c1.22,3.34.38,7.36-2,9.38L157.33,494.87c-3.36,2.92-3.34,9.49,0,12.37L317.11,643.37c2.23,1.9,3.14,5.66,2.15,9l-15.05,50c-1.29,4.27-5.16,5.94-8.08,3.46L63.33,508.11C59.94,505.22,59.92,498.62,63.3,495.71ZM268.5,960.5c27.72-47.29,77.12-134.61,92-167,46.77-101.81-11-183.24,43.61-240.32,25.28-26.42,60.41-61.68,118.39-61.68,38,0-80.08,145.31-65,221S289.58,966.49,268.5,960.5Zm260-427c22.91-44.14,11.44-55.89-34.13-47.17S413.76,530,393,550.23c-5.73-1.22-6.52-4.73-14.11-5.31-26.41-1.42-47.29,20.45-47.29,20.45s-31.84-8.29-29.56-42.89S372.54,490,372.54,490s19.37,1,31.37,1.89c-6.06,3.94,26.67-15.72,38.38-24.14C482.78,433.81,547.05,429.24,563,436.2c16.69,7.36,34.26-4.15,47.73-4A27.21,27.21,0,0,1,652.9,449c5.77,1.85,17.6,12.54,31.6,27.54s31,42,25,46c-28-29-86.9-40.8-90.49-41.75C595.17,494.92,542.15,531.3,528.5,533.5Zm405.16-31.73L700.86,699.43c-2.91,2.48-6.79.81-8.08-3.46l-15-50c-1-3.29-.09-7.05,2.15-9L839.63,500.9c3.37-2.88,3.4-9.45,0-12.37L678.28,348.34c-2.33-2-3.16-6-1.95-9.38l17-46.81c1.45-4,5.17-5.37,7.95-3L933.69,489.37c3.38,2.91,3.37,9.51,0,12.4ZM625.72,444.33a8.94,8.94,0,0,0-7.5,10.17c.75,4.92,4.4,5.73,9.28,5s9.14-2.74,8.4-7.67a8.94,8.94,0,0,0-10.18-7.5Zm10.18,7.5a8.94,8.94,0,1,0-17.68,2.67h0c.75,4.92,4.4,5.73,9.28,5s9.14-2.74,8.4-7.67Zm0,0a8.94,8.94,0,1,0-17.68,2.67h0c.75,4.92,4.4,5.73,9.28,5s9.14-2.74,8.4-7.67Z" transform="translate(-8.87 -9.02)"/></g></svg>