<svg id="Final_Icons" data-name="Final Icons" xmlns="http://www.w3.org/2000/svg" viewBox="0 0 256 256"><defs><style>.cls-1{fill:#f4f02b;}.cls-2{fill:#bfbb6a;}</style></defs><g id="_Group_" data-name="&lt;Group&gt;"><path class="cls-1" d="M14.87,0,35.21,225.35,128,256l88.78-30.65L237.13,0ZM193,79.25l-60,24.51h57.58l-8.5,84.8L127.45,205,70.17,188.56l-3.8-42.65H94.49L97,167.43l29.48,10.43L157,167.43l3.11-36H65.08l-2.55-28.69L122.6,78.21H60.34L57.65,48H196.17Z"/><polygon class="cls-2" points="126.52 177.86 126 177.68 126 131.43 160.15 131.43 157.04 167.43 126.52 177.86"/><polygon class="cls-2" points="217.82 20.82 200.08 214 126 234.21 126 204.57 127.45 204.99 182.08 188.56 190.58 103.76 133 103.76 193.03 79.25 196.17 47.95 126 47.95 126 20.82 217.82 20.82"/></g></svg>