<svg xmlns="http://www.w3.org/2000/svg" viewBox="0 0 256 256"><defs><style>.cls-1{fill:#f4f02b;}.cls-2{fill:#bfbb6a;}</style></defs><g id="Working"><path class="cls-1" d="M92,156.08H86.66a4.55,4.55,0,0,0-4.39,3.37l-2.58,9.75a4.82,4.82,0,0,0,4.65,6.06h8.35l3.53-13.66A4.41,4.41,0,0,0,92,156.08Zm0,0H86.66a4.55,4.55,0,0,0-4.39,3.37l-2.58,9.75a4.82,4.82,0,0,0,4.65,6.06h8.35l3.53-13.66A4.41,4.41,0,0,0,92,156.08Zm0,0H86.66a4.55,4.55,0,0,0-4.39,3.37l-2.58,9.75a4.82,4.82,0,0,0,4.65,6.06h8.35l3.53-13.66A4.41,4.41,0,0,0,92,156.08Zm59.91,5.48H148.4a3.16,3.16,0,0,0-3.11,2.58l-.3,1.53h9.92l.06-.35A3.16,3.16,0,0,0,151.86,161.56Zm0,0H148.4a3.16,3.16,0,0,0-3.11,2.58l-.3,1.53h9.92l.06-.35A3.16,3.16,0,0,0,151.86,161.56ZM92,156.08H86.66a4.55,4.55,0,0,0-4.39,3.37l-2.58,9.75a4.82,4.82,0,0,0,4.65,6.06h8.35l3.53-13.66A4.41,4.41,0,0,0,92,156.08ZM128,.59,19.65,67.26V190.13L128,256l108.36-65.87V67.26Zm13.12,55.74A20.56,20.56,0,0,0,171.57,83.2a20.56,20.56,0,1,1-30.45-26.87Zm-17.38.3a35.86,35.86,0,0,0,53.09,46.88,35.86,35.86,0,1,1-53.09-46.88Zm-23.56,5.46a49.31,49.31,0,0,0,73,64.46,49.31,49.31,0,1,1-73-64.46ZM61.76,190.68a5.82,5.82,0,0,1-5.68,4.53H46.65l2.34-9h2.69a3,3,0,0,0,2.91-2.35l4.29-20h8.91Zm6.56-29.12H59.38l1.35-6.26h9Zm36.56-.16-3.71,14.77h3.65l-1.17,7.17H81.37A11,11,0,0,1,70.59,170l2.1-9.92A15.79,15.79,0,0,1,88.13,147.6h6A11.1,11.1,0,0,1,104.88,161.4Zm10.47,22.32a8.57,8.57,0,0,1-8.59-10.39l3.95-18h8.72L115.88,172a3.15,3.15,0,0,0,3.08,3.81h2.32a3.15,3.15,0,0,0,3.09-2.53L128,155.3h8.39l-5.87,28Zm30.81-7.57h0l14.34-.11-1.18,7.69H143a8,8,0,0,1-7.83-9.83L137.61,163a10,10,0,0,1,9.71-7.74h8.59a7.41,7.41,0,0,1,7.31,8.55l-1.4,8.93-16.93-.12a1.1,1.1,0,0,0-1.12,1.1A2.39,2.39,0,0,0,146.16,176.15ZM172,183.73H162.6l6-28.43,18.46-.23a6.06,6.06,0,0,1,5.7,7.53l-16.82.27ZM196.12,177l-.91,6.39h-9.59l1.77-8.08-3.53-11.09h9.06l.86,4,12.13-17h9.91ZM155,165.32a3.16,3.16,0,0,0-3.11-3.76H148.4a3.16,3.16,0,0,0-3.11,2.58l-.3,1.53h9.92Zm-63-9.24H86.66a4.55,4.55,0,0,0-4.39,3.37l-2.58,9.75a4.82,4.82,0,0,0,4.65,6.06h8.35l3.53-13.66A4.41,4.41,0,0,0,92,156.08Zm0,0H86.66a4.55,4.55,0,0,0-4.39,3.37l-2.58,9.75a4.82,4.82,0,0,0,4.65,6.06h8.35l3.53-13.66A4.41,4.41,0,0,0,92,156.08Zm59.91,5.48H148.4a3.16,3.16,0,0,0-3.11,2.58l-.3,1.53h9.92l.06-.35A3.16,3.16,0,0,0,151.86,161.56Zm0,0H148.4a3.16,3.16,0,0,0-3.11,2.58l-.3,1.53h9.92l.06-.35A3.16,3.16,0,0,0,151.86,161.56ZM92,156.08H86.66a4.55,4.55,0,0,0-4.39,3.37l-2.58,9.75a4.82,4.82,0,0,0,4.65,6.06h8.35l3.53-13.66A4.41,4.41,0,0,0,92,156.08Zm0,0H86.66a4.55,4.55,0,0,0-4.39,3.37l-2.58,9.75a4.82,4.82,0,0,0,4.65,6.06h8.35l3.53-13.66A4.41,4.41,0,0,0,92,156.08Zm0,0H86.66a4.55,4.55,0,0,0-4.39,3.37l-2.58,9.75a4.82,4.82,0,0,0,4.65,6.06h8.35l3.53-13.66A4.41,4.41,0,0,0,92,156.08Z"/><path class="cls-2" d="M151.86,161.56H148.4a3.16,3.16,0,0,0-3.11,2.58l-.3,1.53h9.92l.06-.35A3.16,3.16,0,0,0,151.86,161.56Zm0,0H148.4a3.16,3.16,0,0,0-3.11,2.58l-.3,1.53h9.92l.06-.35A3.16,3.16,0,0,0,151.86,161.56Zm0,0H148.4a3.16,3.16,0,0,0-3.11,2.58l-.3,1.53h9.92l.06-.35A3.16,3.16,0,0,0,151.86,161.56Zm0,0H148.4a3.16,3.16,0,0,0-3.11,2.58l-.3,1.53h9.92l.06-.35A3.16,3.16,0,0,0,151.86,161.56ZM128,.59v99.93a35.86,35.86,0,0,0,48.83,3A35.88,35.88,0,0,1,128,115v20.88a49.36,49.36,0,0,0,45.2-9.3,49.25,49.25,0,0,1-41.63,22.88c-1.2,0-2.39,0-3.57-.13v6h8.39l-5.87,28-2.52.06V256l108.36-65.87V67.26Zm26.21,92.15a20.56,20.56,0,0,1-13.09-36.41A20.56,20.56,0,0,0,171.57,83.2,20.54,20.54,0,0,1,154.21,92.74Zm-8.05,83.41h0l14.34-.11-1.18,7.69H143a8,8,0,0,1-7.83-9.83L137.61,163a10,10,0,0,1,9.71-7.74h8.59a7.41,7.41,0,0,1,7.31,8.55l-1.4,8.93-16.93-.12a1.1,1.1,0,0,0-1.12,1.1A2.39,2.39,0,0,0,146.16,176.15ZM172,183.73H162.6l6-28.43,18.46-.23a6.06,6.06,0,0,1,5.7,7.53l-16.82.27ZM196.12,177l-.91,6.39h-9.59l1.77-8.08-3.53-11.09h9.06l.86,4,12.13-17h9.91ZM155,165.32a3.16,3.16,0,0,0-3.11-3.76H148.4a3.16,3.16,0,0,0-3.11,2.58l-.3,1.53h9.92Zm-3.11-3.76H148.4a3.16,3.16,0,0,0-3.11,2.58l-.3,1.53h9.92l.06-.35A3.16,3.16,0,0,0,151.86,161.56Zm0,0H148.4a3.16,3.16,0,0,0-3.11,2.58l-.3,1.53h9.92l.06-.35A3.16,3.16,0,0,0,151.86,161.56Z"/></g></svg>